<?xml version="1.0" standalone="no"?>
<!DOCTYPE svg PUBLIC "-//W3C//DTD SVG 1.1//EN" "http://www.w3.org/Graphics/SVG/1.1/DTD/svg11.dtd" >
<svg xmlns="http://www.w3.org/2000/svg" xmlns:xlink="http://www.w3.org/1999/xlink" version="1.1">
<metadata>
Created by FontForge 20201107 at Tue Sep 29 22:40:20 2020
 By Jimmy Wärting
(C) 2020 Intel Corporation
</metadata>
<defs>
<font id="IntelOneDisplay-Medium" horiz-adv-x="0" >
  <font-face 
    font-family="IntelOne Display"
    font-weight="500"
    font-stretch="normal"
    units-per-em="1000"
    panose-1="2 11 7 3 2 2 3 2 2 4"
    ascent="800"
    descent="-200"
    x-height="494"
    cap-height="700"
    bbox="-237 -240 1096 991"
    underline-thickness="50"
    underline-position="-100"
    stemh="105"
    stemv="120"
    unicode-range="U+0020-FB04"
  />
<missing-glyph horiz-adv-x="700" 
d="M100 -240v1200h500v-1200h-500zM192 910l158 -481l157 481h-315zM378 360l172 -514v1028zM321 360l-171 514v-1028zM350 291l-158 -481h315z" />
    <glyph glyph-name="uniFB00" unicode="ff" horiz-adv-x="644" 
d="M17 389v105h66v60c0 96 53 146 151 146h76v-95h-56c-33 0 -51 -16 -51 -53v-58h107v-105h-107v-389h-120v389h-66zM339 389v105h66v60c0 96 53 146 151 146h76v-95h-56c-33 0 -51 -16 -51 -53v-58h107v-105h-107v-389h-120v389h-66z" />
    <glyph glyph-name="uniFB01" unicode="fi" horiz-adv-x="546" 
d="M17 389v105h66v60c0 96 53 146 151 146h76v-95h-56c-33 0 -51 -16 -51 -53v-58h107v-105h-107v-389h-120v389h-66zM498 700v-121h-128v121h128zM374 494h120v-494h-120v494z" />
    <glyph glyph-name="uniFB02" unicode="fl" horiz-adv-x="546" 
d="M17 389v105h66v60c0 96 53 146 151 146h76v-95h-56c-33 0 -51 -16 -51 -53v-58h107v-105h-107v-389h-120v389h-66zM494 700v-700h-120v700h120z" />
    <glyph glyph-name="uniFB03" unicode="ffi" horiz-adv-x="868" 
d="M17 389v105h66v60c0 96 53 146 151 146h76v-95h-56c-33 0 -51 -16 -51 -53v-58h107v-105h-107v-389h-120v389h-66zM339 389v105h66v60c0 96 53 146 151 146h76v-95h-56c-33 0 -51 -16 -51 -53v-58h107v-105h-107v-389h-120v389h-66zM820 700v-121h-128v121h128zM696 494
h120v-494h-120v494z" />
    <glyph glyph-name="uniFB04" unicode="ffl" horiz-adv-x="868" 
d="M17 389v105h66v60c0 96 53 146 151 146h76v-95h-56c-33 0 -51 -16 -51 -53v-58h107v-105h-107v-389h-120v389h-66zM339 389v105h66v60c0 96 53 146 151 146h76v-95h-56c-33 0 -51 -16 -51 -53v-58h107v-105h-107v-389h-120v389h-66zM816 700v-700h-120v700h120z" />
    <glyph glyph-name=".notdef" horiz-adv-x="700" 
d="M100 -240v1200h500v-1200h-500zM192 910l158 -481l157 481h-315zM378 360l172 -514v1028zM321 360l-171 514v-1028zM350 291l-158 -481h315z" />
    <glyph glyph-name="A" unicode="A" horiz-adv-x="749" 
d="M138 0h-132l302 700h133l302 -700h-135l-74 175h-323zM257 285h231l-115 275z" />
    <glyph glyph-name="A.biform" horiz-adv-x="707" 
d="M530 0v94c-56 -69 -142 -105 -247 -105c-154 0 -253 83 -253 214c0 125 99 213 331 213h167c-4 120 -65 183 -175 183c-69 0 -138 -30 -215 -94l-67 89c83 72 181 117 294 117c191 0 291 -114 291 -308v-403h-126zM352 310c-149 0 -193 -44 -193 -103
c0 -56 47 -112 147 -112c119 0 215 78 222 215h-176z" />
    <glyph glyph-name="B" unicode="B" horiz-adv-x="681" 
d="M56 700h326c175 0 254 -76 254 -183c0 -63 -24 -124 -114 -157c96 -27 130 -88 130 -167c0 -110 -90 -193 -263 -193h-333v700zM380 590h-196v-182h200c81 0 125 41 125 95c0 53 -37 87 -129 87zM403 298h-219v-188h209c88 0 132 38 132 93c0 58 -40 95 -122 95z" />
    <glyph glyph-name="C" unicode="C" horiz-adv-x="724" 
d="M393 96c86 0 157 41 207 125l95 -57c-52 -100 -157 -180 -306 -180c-211 0 -358 154 -358 365c0 205 154 367 367 367c142 0 241 -69 295 -176l-99 -62c-51 90 -113 126 -199 126c-138 0 -235 -109 -235 -253c0 -145 99 -255 233 -255z" />
    <glyph glyph-name="D" unicode="D" horiz-adv-x="737" 
d="M56 700h271c235 0 379 -142 379 -349c0 -203 -149 -351 -381 -351h-269v700zM326 587h-142v-474h142c156 0 250 100 250 236s-94 238 -250 238z" />
    <glyph glyph-name="E" unicode="E" horiz-adv-x="622" 
d="M56 700h525v-110h-397v-182h369v-110h-369v-188h397v-110h-525v700z" />
    <glyph glyph-name="E.biform" horiz-adv-x="762" 
d="M402 98c92 0 159 37 225 107l74 -82c-73 -81 -174 -139 -308 -139c-212 0 -362 151 -362 365c0 201 146 367 354 367c209 0 347 -151 347 -361c0 -23 -3 -42 -6 -57h-562c21 -128 123 -200 238 -200zM386 605c-108 0 -201 -73 -222 -200h437c-17 129 -100 200 -215 200z
" />
    <glyph glyph-name="F" unicode="F" horiz-adv-x="601" 
d="M56 700h517v-110h-389v-191h361v-110h-361v-289h-128v700z" />
    <glyph glyph-name="G" unicode="G" horiz-adv-x="772" 
d="M403 605c-136 0 -243 -108 -243 -254c0 -153 106 -256 238 -256c121 0 200 65 217 180h-239v105h360c2 -15 4 -35 4 -50c0 -208 -134 -346 -347 -346c-209 0 -362 154 -362 365c0 213 164 367 373 367c134 0 241 -63 298 -156l-90 -71c-53 79 -124 116 -209 116z" />
    <glyph glyph-name="H" unicode="H" horiz-adv-x="751" 
d="M56 700h128v-290h382v290h128v-700h-128v296h-382v-296h-128v700z" />
    <glyph glyph-name="I" unicode="I" horiz-adv-x="252" 
d="M62 700h128v-700h-128v700z" />
    <glyph glyph-name="J" unicode="J" horiz-adv-x="616" 
d="M289 -16c-158 0 -264 88 -266 285h125c5 -119 58 -173 144 -173c88 0 145 53 145 171v433h128v-435c0 -180 -98 -281 -276 -281z" />
    <glyph glyph-name="K" unicode="K" horiz-adv-x="694" 
d="M184 700v-311l329 311h169v-2l-370 -338l379 -358v-2h-174l-333 317v-317h-128v700h128z" />
    <glyph glyph-name="L" unicode="L" horiz-adv-x="576" 
d="M56 700h128v-589h372v-111h-500v700z" />
    <glyph glyph-name="M" unicode="M" horiz-adv-x="863" 
d="M807 700v-700h-127v556l-197 -374h-105l-195 373v-555h-127v700h183l192 -369l194 369h182z" />
    <glyph glyph-name="M.biform" horiz-adv-x="1148" 
d="M182 700v-80c43 57 113 94 201 94c100 0 173 -41 215 -111c45 66 126 111 237 111c169 0 261 -110 261 -283v-431h-128v411c0 125 -58 191 -154 191c-109 0 -174 -79 -174 -195v-407h-128v411c0 125 -56 191 -154 191c-108 0 -174 -77 -174 -195v-407h-128v700h126z" />
    <glyph glyph-name="N" unicode="N" horiz-adv-x="753" 
d="M180 0h-124v700h133l383 -509v509h124v-700h-131l-385 512v-512z" />
    <glyph glyph-name="N.biform" horiz-adv-x="747" 
d="M182 700v-93c47 65 127 107 228 107c183 0 285 -120 285 -310v-404h-128v387c0 135 -65 215 -181 215c-128 0 -202 -90 -202 -220v-382h-128v700h126z" />
    <glyph glyph-name="O" unicode="O" horiz-adv-x="788" 
d="M395 716c209 0 362 -158 362 -365s-155 -367 -363 -367c-210 0 -363 158 -363 365s155 367 364 367zM395 96c134 0 232 109 232 253s-100 255 -233 255c-136 0 -234 -109 -234 -253s100 -255 235 -255z" />
    <glyph glyph-name="P" unicode="P" horiz-adv-x="654" 
d="M56 700h321c164 0 260 -90 260 -224c0 -138 -111 -229 -274 -229h-179v-247h-128v700zM374 587h-190v-228h184c88 0 139 46 139 115c0 70 -48 113 -133 113z" />
    <glyph glyph-name="Q" unicode="Q" horiz-adv-x="788" 
d="M518 -171c-123 0 -180 51 -180 160c-181 25 -307 173 -307 360c0 207 155 367 364 367s362 -158 362 -365c0 -186 -127 -335 -305 -362c1 -46 22 -67 76 -67h62v-93h-72zM395 96c134 0 232 109 232 253s-100 255 -233 255c-136 0 -234 -109 -234 -253s100 -255 235 -255z
" />
    <glyph glyph-name="R" unicode="R" horiz-adv-x="683" 
d="M661 0h-151l-166 266h-161v-266h-127v700h323c174 0 264 -83 264 -212c0 -105 -64 -174 -167 -201zM377 590h-194v-215h189c91 0 141 44 141 109c0 66 -45 106 -136 106z" />
    <glyph glyph-name="S" unicode="S" horiz-adv-x="668" 
d="M333 297c-211 15 -283 73 -283 197c0 122 109 220 285 220c118 0 208 -40 281 -112l-71 -89c-55 54 -133 89 -214 89c-102 0 -155 -47 -155 -98c0 -53 32 -82 175 -90c207 -13 281 -77 281 -204c0 -124 -110 -224 -294 -224c-139 0 -238 45 -315 126l68 90
c74 -71 155 -104 251 -104c108 0 165 48 165 103c0 56 -34 88 -174 96z" />
    <glyph glyph-name="T" unicode="T" horiz-adv-x="677" 
d="M19 587v113h639v-113h-256v-587h-128v587h-255z" />
    <glyph glyph-name="U" unicode="U" horiz-adv-x="753" 
d="M577 312v388h127v-390c0 -196 -130 -326 -330 -326c-197 0 -325 130 -325 326v390h128v-388c0 -130 82 -216 200 -216c120 0 200 86 200 216z" />
    <glyph glyph-name="V" unicode="V" horiz-adv-x="749" 
d="M6 700h138l232 -550l232 550h135l-301 -700h-134z" />
    <glyph glyph-name="W" unicode="W" horiz-adv-x="998" 
d="M815 0h-145l-173 519l-171 -519h-145l-155 700h134l106 -538l172 538h123l171 -538l107 538h133z" />
    <glyph glyph-name="X" unicode="X" horiz-adv-x="729" 
d="M12 0l276 360l-260 340h157l179 -247l181 247h153l-258 -338l277 -362h-157l-198 270l-198 -270h-152z" />
    <glyph glyph-name="Y" unicode="Y" horiz-adv-x="697" 
d="M697 700l-285 -407v-293h-128v294l-284 406h151l199 -300l199 300h148z" />
    <glyph glyph-name="Z" unicode="Z" horiz-adv-x="692" 
d="M28 0v94l446 500h-430v106h602v-94l-450 -500h467v-106h-635z" />
    <glyph glyph-name="a" unicode="a" horiz-adv-x="530" 
d="M377 0v62c-43 -50 -105 -73 -174 -73c-113 0 -184 63 -184 153c0 95 71 154 233 154h122c-1 75 -40 115 -113 115c-53 0 -102 -22 -148 -60l-56 78c53 45 124 79 215 79c140 0 219 -82 219 -221v-287h-114zM251 213c-86 0 -116 -26 -116 -68c0 -36 31 -68 91 -68
c71 0 143 45 148 136h-123z" />
    <glyph glyph-name="b" unicode="b" horiz-adv-x="595" 
d="M45 0v700h120v-260c43 42 98 65 161 65c132 0 243 -99 243 -256c0 -160 -115 -261 -247 -261c-59 0 -117 22 -161 69v-57h-116zM161 246c0 -91 64 -155 144 -155c82 0 143 59 143 156s-61 156 -141 156c-81 0 -146 -67 -146 -157z" />
    <glyph glyph-name="c" unicode="c" horiz-adv-x="536" 
d="M287 -16c-160 0 -261 107 -261 262c0 149 115 262 264 262c111 0 186 -53 221 -139l-97 -51c-27 59 -68 88 -125 88c-83 0 -142 -69 -142 -160c0 -93 61 -159 146 -159c53 0 100 28 131 85l92 -50c-34 -78 -119 -138 -229 -138z" />
    <glyph glyph-name="d" unicode="d" horiz-adv-x="595" 
d="M551 700v-700h-117v63c-43 -48 -101 -74 -168 -74c-129 0 -240 99 -240 257c0 159 117 260 250 260c56 0 112 -19 155 -61v255h120zM434 248c0 91 -63 155 -144 155s-143 -59 -143 -155c0 -98 61 -156 141 -156c82 0 146 66 146 156z" />
    <glyph glyph-name="e" unicode="e" horiz-adv-x="555" 
d="M301 82c52 0 104 22 147 70l63 -68c-53 -63 -129 -100 -221 -100c-156 0 -264 105 -264 262c0 148 110 262 258 262c147 0 245 -103 245 -257c0 -17 -2 -33 -4 -45h-376c14 -80 76 -124 152 -124zM284 412c-65 0 -120 -42 -135 -122h261c-11 77 -60 122 -126 122z" />
    <glyph glyph-name="f" unicode="f" horiz-adv-x="322" 
d="M17 389v105h66v60c0 96 53 146 151 146h76v-95h-56c-33 0 -51 -16 -51 -53v-58h107v-105h-107v-389h-120v389h-66z" />
    <glyph glyph-name="f.alt" horiz-adv-x="285" 
d="M46 554c0 96 53 146 151 146h76v-95h-56c-33 0 -51 -16 -51 -53v-58h107v-105h-107v-389h-120v554z" />
    <glyph glyph-name="g" unicode="g" horiz-adv-x="595" 
d="M431 55v24c-45 -43 -104 -67 -168 -67c-129 0 -238 92 -238 245c0 148 109 249 246 249c60 0 119 -22 163 -69v57h116v-436c0 -150 -73 -238 -269 -238h-134v99h138c97 0 146 46 146 136zM434 258c0 83 -64 145 -145 145s-142 -54 -142 -144c0 -89 61 -145 142 -145
s145 62 145 144z" />
    <glyph glyph-name="h" unicode="h" horiz-adv-x="567" 
d="M165 700v-261c37 43 90 67 157 67c135 0 205 -90 205 -228v-278h-120v267c0 81 -40 135 -117 135s-125 -59 -125 -141v-261h-120v700h120z" />
    <glyph glyph-name="i" unicode="i" horiz-adv-x="224" 
d="M176 700v-121h-128v121h128zM52 494h120v-494h-120v494z" />
    <glyph glyph-name="j" unicode="j" horiz-adv-x="226" 
d="M179 700v-121h-129v121h129zM175 -23c0 -103 -55 -157 -159 -157h-58v95h41c36 0 55 17 55 56v523h121v-517z" />
    <glyph glyph-name="k" unicode="k" horiz-adv-x="513" 
d="M165 700v-405l196 199h152v-2l-246 -237l249 -253v-2h-156l-195 210v-210h-120v700h120z" />
    <glyph glyph-name="l" unicode="l" horiz-adv-x="224" 
d="M172 700v-700h-120v700h120z" />
    <glyph glyph-name="m" unicode="m" horiz-adv-x="838" 
d="M161 494v-49c33 39 78 61 135 61c68 0 118 -27 148 -70c37 44 91 70 160 70c128 0 194 -86 194 -201v-305h-120v294c0 64 -32 108 -95 108c-64 0 -102 -49 -102 -114v-288h-120v294c0 64 -32 108 -95 108s-101 -49 -101 -114v-288h-120v494h116z" />
    <glyph glyph-name="n" unicode="n" horiz-adv-x="567" 
d="M161 494v-60c37 46 91 72 161 72c134 0 205 -90 205 -228v-278h-120v267c0 80 -40 135 -117 135s-125 -59 -125 -141v-261h-120v494h116z" />
    <glyph glyph-name="o" unicode="o" horiz-adv-x="580" 
d="M288 -16c-152 0 -262 114 -262 262s112 262 266 262c152 0 262 -113 262 -261s-112 -263 -266 -263zM290 87c82 0 143 68 143 160c0 90 -61 159 -143 159s-143 -68 -143 -160c0 -90 61 -159 143 -159z" />
    <glyph glyph-name="p" unicode="p" horiz-adv-x="595" 
d="M45 -180v674h116v-63c43 48 102 74 168 74c130 0 240 -99 240 -256c0 -160 -116 -261 -249 -261c-56 0 -111 19 -155 60v-228h-120zM161 246c0 -91 64 -155 144 -155c82 0 143 59 143 156s-61 156 -141 156c-82 0 -146 -67 -146 -157z" />
    <glyph glyph-name="q" unicode="q" horiz-adv-x="595" 
d="M551 494v-674h-120v235c-42 -43 -99 -66 -162 -66c-131 0 -243 99 -243 257c0 159 116 260 247 260c59 0 117 -22 161 -68v56h117zM434 248c0 91 -64 155 -144 155c-81 0 -143 -59 -143 -155c0 -98 61 -156 141 -156c81 0 146 66 146 156z" />
    <glyph glyph-name="r" unicode="r" horiz-adv-x="357" 
d="M161 494v-57c30 41 75 60 137 60h46v-112h-53c-85 0 -126 -40 -126 -131v-254h-120v494h116z" />
    <glyph glyph-name="s" unicode="s" horiz-adv-x="482" 
d="M239 -14c-85 0 -165 27 -223 73l49 88c71 -47 123 -64 177 -64c70 0 106 25 106 59s-22 52 -103 55c-156 9 -210 56 -210 152c0 89 77 158 206 158c77 0 152 -24 204 -65l-44 -87c-62 40 -114 55 -163 55c-61 0 -92 -26 -92 -56c0 -31 20 -49 96 -53
c161 -8 217 -54 217 -153c0 -94 -83 -162 -220 -162z" />
    <glyph glyph-name="t" unicode="t" horiz-adv-x="333" 
d="M78 156v233h-66v105h66v140h120v-140h110v-105h-110v-221c0 -47 21 -63 58 -63h52v-105h-72c-110 0 -158 45 -158 156z" />
    <glyph glyph-name="t.alt" horiz-adv-x="299" 
d="M43 156v478h120v-140h111v-105h-111v-221c0 -47 21 -63 59 -63h52v-105h-71c-112 0 -160 45 -160 156z" />
    <glyph glyph-name="u" unicode="u" horiz-adv-x="567" 
d="M405 0v59c-37 -45 -91 -71 -161 -71c-133 0 -204 90 -204 228v278h120v-267c0 -80 40 -135 116 -135c77 0 126 59 126 141v261h120v-494h-117z" />
    <glyph glyph-name="v" unicode="v" horiz-adv-x="547" 
d="M10 494h129l137 -353l137 353h124l-204 -494h-118z" />
    <glyph glyph-name="w" unicode="w" horiz-adv-x="771" 
d="M630 0h-130l-116 335l-116 -335h-128l-115 494h122l68 -339l114 339h113l113 -339l69 339h122z" />
    <glyph glyph-name="x" unicode="x" horiz-adv-x="530" 
d="M7 0l190 254l-177 240h138l107 -155l110 155h132l-178 -238l194 -256h-139l-121 172l-122 -172h-134z" />
    <glyph glyph-name="y" unicode="y" horiz-adv-x="547" 
d="M10 494h129l137 -352l136 352h125l-279 -674h-123l81 176z" />
    <glyph glyph-name="z" unicode="z" horiz-adv-x="481" 
d="M20 0v91l277 307h-265v96h415v-91l-275 -307h289v-96h-441z" />
    <glyph glyph-name="period" unicode="." horiz-adv-x="220" 
d="M180 139v-139h-139v139h139z" />
    <glyph glyph-name="comma" unicode="," horiz-adv-x="220" 
d="M2 -122l61 262h133l-97 -262h-97z" />
    <glyph glyph-name="colon" unicode=":" horiz-adv-x="236" 
d="M187 494v-139h-139v139h139zM187 139v-139h-139v139h139z" />
    <glyph glyph-name="semicolon" unicode=";" horiz-adv-x="236" 
d="M187 494v-139h-139v139h139zM4 -122l61 262h133l-97 -262h-97z" />
    <glyph glyph-name="question" unicode="?" horiz-adv-x="510" 
d="M291 193h-92c-10 53 -13 81 -13 102c0 34 15 52 54 79l60 44c51 36 67 66 67 102c0 53 -42 87 -103 87c-80 0 -127 -50 -131 -136h-120c4 147 93 245 258 245c135 0 224 -73 224 -191c0 -72 -28 -124 -105 -179l-61 -43c-23 -16 -27 -30 -38 -110zM313 126v-126h-136v126
h136z" />
    <glyph glyph-name="exclam" unicode="!" horiz-adv-x="235" 
d="M46 700h143l-29 -509h-86zM186 126v-126h-136v126h136z" />
    <glyph glyph-name="questiondown" unicode="&#xbf;" horiz-adv-x="510" 
d="M197 574v126h136v-126h-136zM219 507h91c11 -53 13 -81 13 -102c0 -34 -14 -52 -53 -79l-61 -44c-50 -36 -67 -66 -67 -102c0 -53 42 -87 104 -87c79 0 127 50 131 136h120c-4 -147 -94 -245 -258 -245c-135 0 -224 73 -224 191c0 72 27 124 104 179l61 43
c23 16 28 30 39 110z" />
    <glyph glyph-name="exclamdown" unicode="&#xa1;" horiz-adv-x="235" 
d="M50 574v126h136v-126h-136zM190 0h-144l29 509h86z" />
    <glyph glyph-name="ellipsis" unicode="&#x2026;" horiz-adv-x="619" 
d="M170 131v-131h-132v131h132zM375 131v-131h-131v131h131zM581 131v-131h-132v131h132z" />
    <glyph glyph-name="quotedblleft" unicode="&#x201c;" horiz-adv-x="411" 
d="M214 700l-66 -234h-133l102 234h97zM387 700l-66 -234h-133l102 234h97z" />
    <glyph glyph-name="quotedblright" unicode="&#x201d;" horiz-adv-x="411" 
d="M197 466l66 234h133l-102 -234h-97zM24 466l66 234h133l-102 -234h-97z" />
    <glyph glyph-name="quotedblbase" unicode="&#x201e;" horiz-adv-x="411" 
d="M197 -114l66 234h133l-102 -234h-97zM24 -114l66 234h133l-102 -234h-97z" />
    <glyph glyph-name="quoteleft" unicode="&#x2018;" horiz-adv-x="238" 
d="M214 700l-66 -234h-133l102 234h97z" />
    <glyph glyph-name="quoteright" unicode="&#x2019;" horiz-adv-x="238" 
d="M24 466l66 234h133l-102 -234h-97z" />
    <glyph glyph-name="quotesinglbase" unicode="&#x201a;" horiz-adv-x="238" 
d="M24 -114l66 234h133l-102 -234h-97z" />
    <glyph glyph-name="guillemotleft" unicode="&#xab;" horiz-adv-x="451" 
d="M224 67l-202 169v77l202 169v-104l-94 -101l94 -104v-106zM419 67l-201 169v77l201 169v-104l-101 -109l101 -96v-106z" />
    <glyph glyph-name="guillemotright" unicode="&#xbb;" horiz-adv-x="451" 
d="M227 482l202 -169v-78l-202 -168v105l95 103l-95 102v105zM32 482l201 -169v-78l-201 -168v105l101 95l-101 110v105z" />
    <glyph glyph-name="guilsinglleft" unicode="&#x2039;" horiz-adv-x="256" 
d="M224 67l-202 169v77l202 169v-104l-94 -101l94 -104v-106z" />
    <glyph glyph-name="guilsinglright" unicode="&#x203a;" horiz-adv-x="256" 
d="M32 482l202 -169v-78l-202 -168v105l101 95l-101 110v105z" />
    <glyph glyph-name="parenleft" unicode="(" horiz-adv-x="408" 
d="M33 349c0 190 99 361 301 477l58 -84c-153 -97 -238 -231 -238 -391s85 -293 238 -390l-59 -85c-202 116 -300 285 -300 473z" />
    <glyph glyph-name="parenright" unicode=")" horiz-adv-x="408" 
d="M375 351c0 -190 -99 -361 -300 -477l-59 84c154 97 238 231 238 391s-85 293 -238 390l60 85c201 -116 299 -285 299 -473z" />
    <glyph glyph-name="bracketleft" unicode="[" horiz-adv-x="395" 
d="M76 -121v942h297v-102h-178v-738h178v-102h-297z" />
    <glyph glyph-name="bracketright" unicode="]" horiz-adv-x="395" 
d="M22 719v102h296v-942h-296v102h178v738h-178z" />
    <glyph glyph-name="braceleft" unicode="{" horiz-adv-x="493" 
d="M22 302v96c173 40 192 58 192 78c0 11 -5 23 -44 80c-49 71 -60 101 -60 138c0 72 56 127 162 127h200v-102h-185c-38 0 -56 -16 -56 -37c0 -15 5 -28 53 -99c43 -63 52 -87 52 -114c0 -48 -24 -93 -192 -119c168 -26 192 -71 192 -119c0 -27 -9 -51 -52 -114
c-48 -71 -53 -84 -53 -99c0 -21 18 -37 56 -37h185v-102h-200c-106 0 -162 55 -162 127c0 37 11 67 60 138c39 57 44 69 44 80c0 20 -19 38 -192 78z" />
    <glyph glyph-name="braceright" unicode="}" horiz-adv-x="493" 
d="M472 302c-174 -40 -193 -58 -193 -78c0 -11 6 -23 44 -80c50 -71 61 -101 61 -138c0 -72 -56 -127 -162 -127h-200v102h184c39 0 56 16 56 37c0 15 -5 28 -53 99c-42 63 -51 87 -51 114c0 48 24 93 192 119c-168 26 -192 71 -192 119c0 27 9 51 51 114c48 71 53 84 53 99
c0 21 -17 37 -56 37h-184v102h200c106 0 162 -55 162 -127c0 -37 -11 -67 -61 -138c-38 -57 -44 -69 -44 -80c0 -20 19 -38 193 -78v-96z" />
    <glyph glyph-name="slash" unicode="/" horiz-adv-x="367" 
d="M389 821l-299 -942h-112l299 942h112z" />
    <glyph glyph-name="bar" unicode="|" horiz-adv-x="313" 
d="M210 821v-942h-107v942h107z" />
    <glyph glyph-name="backslash" unicode="\" horiz-adv-x="367" 
d="M-22 821h112l299 -942h-112z" />
    <glyph glyph-name="hyphen" unicode="-" horiz-adv-x="317" 
d="M25 350h267v-113h-267v113z" />
    <glyph glyph-name="endash" unicode="&#x2013;" horiz-adv-x="573" 
d="M25 347h523v-107h-523v107z" />
    <glyph glyph-name="emdash" unicode="&#x2014;" horiz-adv-x="857" 
d="M25 347h807v-107h-807v107z" />
    <glyph glyph-name="periodcentered" unicode="&#xb7;" horiz-adv-x="220" 
d="M180 363v-139h-139v139h139z" />
    <glyph glyph-name="bullet" unicode="&#x2022;" horiz-adv-x="396" 
d="M327 483v-259h-258v259h258z" />
    <glyph glyph-name="underscore" unicode="_" horiz-adv-x="519" 
d="M-2 -43h523v-107h-523v107z" />
    <glyph glyph-name="ampersand" unicode="&#x26;" horiz-adv-x="691" 
d="M540 0l-58 63c-60 -47 -135 -76 -220 -76c-148 0 -238 89 -238 201c0 92 54 165 167 195c-41 53 -58 102 -58 146c0 101 80 186 205 186c108 0 191 -75 191 -176c0 -87 -58 -158 -161 -188l116 -126c21 36 36 78 43 125h113c-11 -75 -39 -147 -82 -206l132 -144h-150z
M248 534c0 -34 15 -67 61 -119c73 23 108 68 108 116c0 53 -39 87 -84 87c-52 0 -85 -39 -85 -84zM143 197c0 -60 48 -107 131 -107c48 0 96 18 137 50l-155 170c-79 -18 -113 -60 -113 -113z" />
    <glyph glyph-name="at" unicode="@" horiz-adv-x="948" 
d="M696 151c79 0 164 99 164 237c0 170 -123 287 -334 287c-242 0 -436 -189 -436 -430c0 -193 122 -317 315 -317c76 0 137 15 207 50l19 -36c-70 -37 -137 -55 -229 -55c-217 0 -358 144 -358 358c0 262 215 471 487 471c229 0 375 -137 375 -323
c0 -166 -101 -296 -241 -296c-57 0 -97 19 -113 57c-37 -37 -86 -57 -145 -57c-101 0 -160 67 -160 163c0 136 108 244 234 244c53 0 102 -23 125 -62l15 48h99l-69 -227c-9 -28 -12 -47 -12 -63c0 -28 15 -49 57 -49zM432 181c78 0 137 70 137 152c0 51 -35 86 -89 86
c-70 0 -130 -69 -130 -149c0 -53 30 -89 82 -89z" />
    <glyph glyph-name="copyright" unicode="&#xa9;" horiz-adv-x="905" 
d="M453 750c229 0 404 -173 404 -399s-177 -401 -404 -401c-229 0 -405 173 -405 399s178 401 405 401zM453 -9c203 0 358 154 358 358s-157 360 -358 360c-204 0 -359 -155 -359 -358s158 -360 359 -360zM469 212c50 0 92 20 119 67l69 -41c-33 -63 -97 -109 -189 -109
c-134 0 -221 93 -221 221c0 125 92 222 223 222c86 0 153 -42 185 -107l-72 -45c-26 51 -65 69 -114 69c-79 0 -129 -59 -129 -137c0 -80 52 -140 129 -140z" />
    <glyph glyph-name="uni2117" unicode="&#x2117;" horiz-adv-x="905" 
d="M453 750c229 0 404 -173 404 -399s-177 -401 -404 -401c-229 0 -405 173 -405 399s178 401 405 401zM453 -9c203 0 358 154 358 358s-157 360 -358 360c-204 0 -359 -155 -359 -358s158 -360 359 -360zM303 562h198c105 0 168 -56 168 -142c0 -89 -71 -146 -177 -146h-97
v-136h-92v424zM497 482h-102v-128h100c51 0 81 24 81 64c0 39 -29 64 -79 64z" />
    <glyph glyph-name="registered" unicode="&#xae;" horiz-adv-x="482" 
d="M22 506c0 119 95 210 219 210c125 0 219 -89 219 -209c0 -118 -95 -209 -219 -209c-125 0 -219 90 -219 208zM241 333c103 0 181 74 181 173s-79 174 -181 174s-180 -74 -180 -173c0 -98 79 -174 180 -174zM211 405h-50v203h99c51 0 80 -25 80 -64c0 -29 -17 -50 -46 -60
l47 -79h-58l-39 70h-33v-70zM260 563h-49v-43h48c18 0 29 9 29 22s-10 21 -28 21z" />
    <glyph glyph-name="uni2120" unicode="&#x2120;" horiz-adv-x="624" 
d="M139 552c-81 3 -109 28 -109 78c0 44 39 83 109 83c42 0 78 -14 104 -40l-32 -41c-19 18 -46 29 -74 29c-33 0 -49 -13 -49 -26c0 -17 11 -25 46 -26c87 -5 115 -29 115 -80c0 -49 -41 -87 -112 -87c-48 0 -83 15 -118 44l33 44c27 -23 54 -36 87 -36c36 0 52 15 52 30
c0 16 -11 26 -52 28zM582 708v-261h-58v203l-67 -135h-47l-68 135v-203h-58v261h89l61 -123l60 123h88z" />
    <glyph glyph-name="trademark" unicode="&#x2122;" horiz-adv-x="627" 
d="M17 654v54h239v-54h-91v-207h-58v207h-90zM584 708v-261h-58v203l-67 -135h-47l-68 135v-203h-58v261h89l61 -123l60 123h88z" />
    <glyph glyph-name="asterisk" unicode="*" horiz-adv-x="376" 
d="M320 424l-56 -42l-76 105l-76 -105l-56 42l84 102l-117 40l27 67l106 -47l-4 114h72l-4 -114l106 47l27 -67l-117 -40z" />
    <glyph glyph-name="dagger" unicode="&#x2020;" horiz-adv-x="326" 
d="M299 535l-103 3l3 -237h-72l4 237l-103 -3v69l102 -2l-3 98h72l-2 -98l102 2v-69z" />
    <glyph glyph-name="daggerdbl" unicode="&#x2021;" horiz-adv-x="326" 
d="M289 386l-92 3l2 -88h-72l3 88l-92 -3v69l93 -2v85l-103 -3v69l102 -2l-3 98h72l-2 -98l102 2v-69l-103 3v-85l93 2v-69z" />
    <glyph glyph-name="section" unicode="&#xa7;" horiz-adv-x="615" 
d="M589 282c0 -65 -33 -122 -103 -149c40 -29 63 -74 63 -129c0 -100 -85 -190 -250 -190c-90 0 -171 29 -235 79l54 99c58 -43 122 -67 191 -67c80 0 116 34 116 72c0 42 -26 66 -139 76c-200 19 -261 78 -261 176c0 65 33 122 103 148c-41 30 -64 74 -64 129
c0 100 86 190 250 190c90 0 172 -29 236 -79l-54 -99c-59 43 -123 67 -191 67c-81 0 -116 -34 -116 -72c0 -42 26 -66 139 -76c200 -18 261 -78 261 -175zM278 196c50 -4 78 -6 95 -6c67 0 89 32 89 70c0 42 -27 65 -126 74c-51 4 -79 6 -95 6c-67 0 -90 -31 -90 -69
c0 -42 27 -66 127 -75z" />
    <glyph glyph-name="paragraph" unicode="&#xb6;" horiz-adv-x="512" 
d="M279 264h-4c-147 0 -254 87 -254 219c0 130 94 217 237 217h189v-700h-117v599h-51v-335z" />
    <glyph glyph-name="zero" unicode="0" horiz-adv-x="645" 
d="M29 366c0 218 118 350 294 350c178 0 293 -130 293 -348v-34c0 -218 -118 -350 -295 -350s-292 130 -292 348v34zM155 368v-34c0 -164 69 -242 168 -242c101 0 167 80 167 240v34c0 164 -69 242 -168 242c-101 0 -167 -80 -167 -240z" />
    <glyph glyph-name="one" unicode="1" horiz-adv-x="317" 
d="M21 591v109h230v-700h-124v591h-106z" />
    <glyph glyph-name="two" unicode="2" horiz-adv-x="582" 
d="M33 0v96l236 210c116 104 139 143 139 200c0 60 -50 102 -115 102c-82 0 -133 -51 -137 -152h-123c3 153 98 260 261 260c143 0 240 -81 240 -208c0 -92 -42 -153 -198 -288l-129 -111h348v-109h-522z" />
    <glyph glyph-name="three" unicode="3" horiz-adv-x="593" 
d="M436 208c0 66 -51 107 -149 107h-53v96h48c99 0 140 50 140 103c0 54 -47 94 -125 94c-87 0 -133 -55 -138 -130h-120c4 125 95 238 264 238c152 0 245 -88 245 -189c0 -68 -35 -129 -117 -163c97 -31 131 -90 131 -169c0 -116 -105 -211 -266 -211
c-160 0 -267 93 -270 254h120c4 -94 62 -146 153 -146c82 0 137 52 137 116z" />
    <glyph glyph-name="four" unicode="4" horiz-adv-x="639" 
d="M15 146v97l319 457h175v-451h115v-103h-115v-146h-124v146h-370zM144 249h246v356z" />
    <glyph glyph-name="five" unicode="5" horiz-adv-x="597" 
d="M290 -16c-132 0 -221 62 -263 150l91 65c41 -73 102 -108 175 -108c88 0 148 58 148 136c0 80 -64 125 -144 125c-55 0 -108 -23 -154 -68l-87 15l-3 5l26 396h440v-110h-335l-13 -176c42 28 95 45 156 45c123 0 240 -78 240 -229c0 -136 -109 -246 -277 -246z" />
    <glyph glyph-name="six" unicode="6" horiz-adv-x="593" 
d="M571 243c0 -148 -121 -258 -283 -258c-149 0 -264 97 -264 247c0 111 39 199 169 340l118 128h157v-2l-196 -201c-12 -13 -24 -25 -34 -36c25 9 52 13 81 13c153 0 252 -94 252 -231zM301 376c-85 0 -151 -58 -151 -139c0 -87 62 -144 142 -144c92 0 152 65 152 146
c0 77 -52 137 -143 137z" />
    <glyph glyph-name="seven" unicode="7" horiz-adv-x="535" 
d="M231 0h-137l294 591h-376v109h502v-102z" />
    <glyph glyph-name="eight" unicode="8" horiz-adv-x="607" 
d="M302 -15c-155 0 -273 78 -273 203c0 83 52 142 125 174c-63 31 -107 84 -107 158c0 120 110 196 258 196c149 0 256 -75 256 -194c0 -75 -43 -128 -107 -159c73 -32 124 -90 124 -173c0 -126 -118 -205 -276 -205zM304 411c76 0 133 37 133 102c0 60 -57 98 -134 98
c-76 0 -133 -38 -133 -100c0 -64 59 -100 134 -100zM304 90c86 0 150 42 150 108c0 69 -64 109 -151 109c-86 0 -150 -40 -150 -111c0 -64 65 -106 151 -106z" />
    <glyph glyph-name="nine" unicode="9" horiz-adv-x="593" 
d="M400 128l-118 -128h-157v2l196 201c12 13 24 25 34 36c-25 -9 -52 -13 -81 -13c-153 0 -252 94 -252 231c0 148 121 258 283 258c149 0 264 -97 264 -247c0 -111 -39 -199 -169 -340zM292 324c85 0 151 58 151 139c0 87 -62 144 -142 144c-92 0 -152 -65 -152 -146
c0 -77 52 -137 143 -137z" />
    <glyph glyph-name="colon.fig" horiz-adv-x="236" 
d="M187 559v-139h-139v139h139zM187 283v-140h-139v140h139z" />
    <glyph glyph-name="plus" unicode="+" horiz-adv-x="460" 
d="M45 312v82h140v142h90v-142h140v-82h-140v-142h-90v142h-140z" />
    <glyph glyph-name="minus" unicode="&#x2212;" horiz-adv-x="460" 
d="M45 312v82h370v-82h-370z" />
    <glyph glyph-name="multiply" unicode="&#xd7;" horiz-adv-x="460" 
d="M106 167l-62 62l124 124l-124 123l63 63l124 -123l123 123l62 -62l-123 -123l123 -124l-63 -63l-123 124z" />
    <glyph glyph-name="divide" unicode="&#xf7;" horiz-adv-x="460" 
d="M285 553v-97h-109v97h109zM45 312v82h370v-82h-370zM285 250v-97h-109v97h109z" />
    <glyph glyph-name="equal" unicode="=" horiz-adv-x="460" 
d="M45 390v83h370v-83h-370zM45 233v83h370v-83h-370z" />
    <glyph glyph-name="notequal" unicode="&#x2260;" horiz-adv-x="460" 
d="M45 233v83h129l44 74h-173v83h221l52 88h71l-53 -88h79v-83h-128l-44 -74h172v-83h-221l-52 -88h-71l53 88h-79z" />
    <glyph glyph-name="approxequal" unicode="&#x2248;" horiz-adv-x="460" 
d="M431 505c-43 -128 -75 -147 -116 -147c-25 0 -42 5 -96 43c-41 28 -52 33 -65 33c-20 0 -33 -10 -59 -70l-70 21c40 119 76 135 118 135c25 0 42 -5 96 -43c41 -28 52 -33 65 -33c19 0 27 14 58 82zM435 316c-40 -119 -76 -135 -118 -135c-25 0 -42 5 -96 43
c-41 28 -52 33 -65 33c-19 0 -27 -14 -58 -82l-69 21c43 128 75 147 116 147c25 0 42 -5 96 -43c41 -28 52 -33 65 -33c20 0 33 10 59 70z" />
    <glyph glyph-name="asciitilde" unicode="~" horiz-adv-x="460" 
d="M432 406c-43 -127 -75 -147 -116 -147c-25 0 -42 5 -96 43c-41 28 -52 33 -65 33c-19 0 -27 -14 -58 -82l-69 21c43 128 75 147 116 147c25 0 42 -5 96 -43c41 -28 52 -33 65 -33c19 0 27 15 58 83z" />
    <glyph glyph-name="less" unicode="&#x3c;" horiz-adv-x="430" 
d="M380 137l-340 164v104l340 164v-102l-252 -114l252 -114v-102z" />
    <glyph glyph-name="greater" unicode="&#x3e;" horiz-adv-x="430" 
d="M50 569l340 -164v-104l-340 -164v102l252 114l-252 114v102z" />
    <glyph glyph-name="lessequal" unicode="&#x2264;" horiz-adv-x="430" 
d="M380 146l-340 164v105l340 164v-103l-251 -113l251 -114v-103zM40 0v83h340v-83h-340z" />
    <glyph glyph-name="greaterequal" unicode="&#x2265;" horiz-adv-x="430" 
d="M50 579l340 -164v-105l-340 -164v103l251 114l-251 113v103zM390 0h-340v83h340v-83z" />
    <glyph glyph-name="plusminus" unicode="&#xb1;" horiz-adv-x="460" 
d="M45 312v82h140v142h90v-142h140v-82h-140v-142h-90v142h-140zM415 0h-370v83h370v-83z" />
    <glyph glyph-name="asciicircum" unicode="^" horiz-adv-x="460" 
d="M28 456l142 250h119l143 -250h-111l-91 171l-91 -171h-111z" />
    <glyph glyph-name="uni03BC" unicode="&#x3bc;" horiz-adv-x="572" 
d="M269 -12c-44 0 -80 9 -108 27v-195h-116v674h120v-267c0 -80 40 -135 116 -135c80 0 126 62 126 141v261h120v-494h-117v54c-38 -45 -90 -66 -141 -66z" />
    <glyph glyph-name="numbersign" unicode="#" horiz-adv-x="616" 
d="M36 161v112h96l31 160h-92v112h113l31 157h98l-31 -157h127l31 157h98l-31 -157h73v-112h-94l-31 -160h90v-112h-112l-32 -163h-98l32 163h-127l-32 -163h-98l32 163h-74zM230 273h127l31 160h-127z" />
    <glyph glyph-name="percent" unicode="%" horiz-adv-x="788" 
d="M29 529c0 110 74 181 175 181s174 -70 174 -180s-74 -181 -175 -181s-174 70 -174 180zM599 702h100l-278 -374l-232 -330h-100l277 373zM203 628c-47 0 -81 -36 -81 -98c0 -61 34 -98 82 -98c47 0 81 36 81 97c0 62 -35 99 -82 99zM759 171c0 -110 -75 -181 -176 -181
s-173 70 -173 180s73 181 174 181s175 -70 175 -180zM584 72c48 0 82 36 82 98c0 61 -35 98 -83 98c-47 0 -80 -36 -80 -97c0 -62 34 -99 81 -99z" />
    <glyph glyph-name="ordfeminine" unicode="&#xaa;" horiz-adv-x="387" 
d="M257 399v36c-25 -28 -60 -43 -103 -43c-69 0 -115 37 -115 94c0 64 43 104 150 104h67c-3 39 -27 58 -68 58c-29 0 -60 -12 -92 -35l-30 56c36 30 83 47 134 47c92 0 139 -51 139 -133v-184h-82zM191 528c-56 0 -70 -17 -70 -38c0 -18 17 -36 51 -36c45 0 79 27 84 74
h-65zM50 342h289v-70h-289v70z" />
    <glyph glyph-name="ordmasculine" unicode="&#xba;" horiz-adv-x="408" 
d="M204 389c-97 0 -166 69 -166 163s70 164 168 164c94 0 164 -69 164 -163s-71 -164 -166 -164zM205 463c44 0 81 36 81 89s-37 91 -82 91s-82 -37 -82 -91c0 -53 37 -89 83 -89zM50 342h306v-70h-306v70z" />
    <glyph glyph-name="quotedbl" unicode="&#x22;" horiz-adv-x="400" 
d="M226 466v234h133l-34 -234h-99zM52 466v234h132l-34 -234h-98z" />
    <glyph glyph-name="quotesingle" unicode="'" horiz-adv-x="224" 
d="M52 466v234h130l-34 -234h-96z" />
    <glyph glyph-name="degree" unicode="&#xb0;" horiz-adv-x="419" 
d="M33 546c0 102 75 170 178 170s176 -67 176 -169s-74 -170 -177 -170s-177 67 -177 169zM210 637c-51 0 -87 -36 -87 -90s37 -90 88 -90c50 0 86 35 86 89c0 55 -37 91 -87 91z" />
    <glyph glyph-name="dollar" unicode="$" horiz-adv-x="642" 
d="M272 -111v114c-104 10 -186 53 -251 117l67 89c69 -62 149 -101 240 -101c102 0 157 47 157 97c0 54 -33 84 -166 93c-195 14 -272 70 -272 193c0 104 84 190 225 206v95h107v-96c85 -11 154 -47 212 -104l-69 -88c-53 53 -125 87 -204 87c-99 0 -149 -43 -149 -91
c0 -52 35 -80 167 -88c198 -13 271 -73 271 -198c0 -105 -85 -193 -228 -211v-114h-107z" />
    <glyph glyph-name="cent" unicode="&#xa2;" horiz-adv-x="544" 
d="M235 -111v115c-130 22 -209 123 -209 261c0 133 88 237 209 262v103h108v-101c84 -14 143 -63 172 -135l-100 -51c-25 57 -66 87 -124 87c-84 0 -143 -70 -143 -164s62 -163 147 -163c53 0 101 27 131 84l94 -49c-27 -65 -92 -117 -177 -133v-116h-108z" />
    <glyph glyph-name="sterling" unicode="&#xa3;" horiz-adv-x="574" 
d="M30 0v92c77 83 119 131 139 162h-127v98h120c-6 7 -13 14 -21 23c-62 64 -85 108 -85 162c0 89 82 179 236 179c119 0 212 -64 251 -164l-103 -47c-29 66 -83 99 -149 99c-71 0 -110 -36 -110 -79c0 -28 12 -49 50 -89c35 -37 54 -63 64 -84h197v-98h-197
c-15 -35 -49 -79 -117 -149h374v-105h-522z" />
    <glyph glyph-name="yen" unicode="&#xa5;" horiz-adv-x="651" 
d="M88 135v87h173v65h-173v88h138l-219 325h149l171 -273l171 273h146l-220 -325h139v-88h-174v-65h174v-87h-174v-135h-128v135h-173z" />
    <glyph glyph-name="Euro" unicode="&#x20ac;" horiz-adv-x="674" 
d="M12 231v88h77v64h-77v88h84c28 153 137 245 287 245c127 0 205 -61 255 -185l-103 -49c-39 94 -83 122 -154 122c-75 0 -132 -45 -153 -133h207v-88h-216v-64h216v-88h-208c19 -93 75 -135 151 -135c77 0 127 33 168 122l98 -49c-41 -110 -135 -185 -268 -185
c-150 0 -255 84 -281 247h-83z" />
    <glyph glyph-name="uni20A6" unicode="&#x20a6;" horiz-adv-x="772" 
d="M212 0h-122v216h-76v87h76v98h-76v87h76v212h153l127 -215h190v215h122v-212h77v-87h-77v-98h77v-87h-77v-216h-151l-130 219h-189v-219zM212 300h141l-141 238v-238zM418 404l142 -240v240h-142z" />
    <glyph glyph-name="uni20B1" unicode="&#x20b1;" horiz-adv-x="718" 
d="M10 424v98h76v178h296c144 0 236 -70 256 -178h74v-98h-76c-24 -108 -127 -177 -268 -177h-154v-247h-128v424h-76zM379 587h-165v-227h159c87 0 139 45 139 114c0 70 -48 113 -133 113z" />
    <glyph glyph-name="uni20BA" unicode="&#x20ba;" horiz-adv-x="621" 
d="M10 143v91l76 41v65l-76 -41v91l76 41v269h128v-199l225 123v-91l-225 -123v-65l225 123v-91l-225 -123v-143h72c110 0 184 56 200 192l115 -10c-17 -199 -133 -293 -313 -293h-202v184z" />
    <glyph glyph-name="uni20BD" unicode="&#x20bd;" horiz-adv-x="669" 
d="M10 133v88h76v65h-76v88h76v326h307c160 0 259 -80 259 -207c0 -124 -98 -207 -276 -207h-162v-65h234v-88h-234v-133h-128v133h-76zM390 587h-176v-213h165c92 0 143 44 143 107c0 64 -47 106 -132 106z" />
    <glyph glyph-name="uni20B9" unicode="&#x20b9;" horiz-adv-x="610" 
d="M35 440v83h339v95h-339v82h544v-82h-76v-95h76v-83h-78c-14 -127 -101 -193 -265 -193l348 -247h-185l-364 258v89h206c81 0 120 31 130 93h-336z" />
    <glyph glyph-name="uni0E3F" unicode="&#xe3f;" horiz-adv-x="681" 
d="M56 0v700h234v92h107v-92c165 -4 239 -79 239 -183c0 -63 -24 -124 -114 -157c96 -27 130 -88 130 -167c0 -108 -87 -190 -255 -193v-111h-107v111h-234zM380 592h-198v-185h202c82 0 127 41 127 96c0 54 -37 89 -131 89zM403 299h-221v-191h211c90 0 134 39 134 95
c0 58 -41 96 -124 96z" />
    <glyph glyph-name="uni20A9" unicode="&#x20a9;" horiz-adv-x="951" 
d="M20 247v87h96l-15 97h-81v88h67l-29 181h127l26 -184h148l45 184h145l44 -184h144l25 184h131l-28 -181h66v-88h-80l-16 -97h96v-87h-109l-39 -247h-175l-60 250h-145l-59 -250h-175l-39 247h-110zM421 331h108l-54 227zM613 435l73 -304l40 304h-113zM223 435l43 -301
l73 301h-116z" />
    <glyph glyph-name="dong" unicode="&#x20ab;" horiz-adv-x="646" 
d="M283 538v92h150v70h121v-70h76v-92h-76v-538h-118v62c-43 -48 -101 -73 -168 -73c-130 0 -242 94 -242 244c0 152 117 248 250 248c57 0 113 -21 157 -62v119h-150zM436 236c0 82 -63 141 -144 141c-82 0 -144 -54 -144 -142s61 -142 142 -142s146 61 146 143zM38 -158
v92h545v-92h-545z" />
    <glyph glyph-name="onehalf" unicode="&#xbd;" horiz-adv-x="648" 
d="M7 621v79h158v-354h-85v275h-73zM454 702h97l-241 -375l-198 -329h-98l241 374zM347 0v70l104 83c73 55 85 70 85 93c0 24 -20 41 -48 41c-35 0 -57 -22 -59 -66h-86c2 84 56 143 150 143c84 0 130 -50 130 -113c0 -42 -26 -79 -100 -134l-57 -44l164 2v-75h-283z" />
    <glyph glyph-name="onethird" unicode="&#x2153;" horiz-adv-x="660" 
d="M7 621v79h158v-354h-85v275h-73zM454 702h97l-241 -375l-198 -329h-98l241 374zM556 110c0 25 -20 40 -64 40h-25v62h21c44 0 60 16 60 38s-21 38 -53 38c-41 0 -63 -24 -65 -57h-82c2 71 55 133 151 133c90 0 134 -49 134 -100c0 -37 -19 -67 -63 -83
c52 -14 71 -42 71 -80c0 -61 -52 -111 -147 -111c-90 0 -148 53 -151 143h82c2 -43 28 -67 70 -67c37 0 61 19 61 44z" />
    <glyph glyph-name="twothirds" unicode="&#x2154;" horiz-adv-x="772" 
d="M22 346v70l104 83c73 55 85 70 85 93c0 24 -20 41 -48 41c-35 0 -57 -22 -59 -66h-86c2 84 56 143 150 143c84 0 130 -50 130 -113c0 -42 -26 -79 -100 -134l-57 -44l164 2v-75h-283zM566 702h97l-241 -375l-198 -329h-98l241 374zM668 110c0 25 -20 40 -64 40h-25v62h21
c44 0 60 16 60 38s-21 38 -53 38c-41 0 -63 -24 -65 -57h-82c2 71 55 133 151 133c90 0 134 -49 134 -100c0 -37 -19 -67 -63 -83c52 -14 71 -42 71 -80c0 -61 -52 -111 -147 -111c-90 0 -148 53 -151 143h82c2 -43 28 -67 70 -67c37 0 61 19 61 44z" />
    <glyph glyph-name="onequarter" unicode="&#xbc;" horiz-adv-x="654" 
d="M7 621v79h158v-354h-85v275h-73zM454 702h97l-241 -375l-198 -329h-98l241 374zM308 64v68l149 222h127v-219h51v-71h-51v-64h-85v64h-191zM399 135h103v156z" />
    <glyph glyph-name="threequarters" unicode="&#xbe;" horiz-adv-x="756" 
d="M234 456c0 25 -20 40 -64 40h-25v62h21c44 0 60 16 60 38s-21 38 -53 38c-41 0 -63 -24 -65 -57h-82c2 71 55 133 151 133c90 0 134 -49 134 -100c0 -37 -19 -67 -63 -83c52 -14 71 -42 71 -80c0 -61 -52 -111 -147 -111c-90 0 -148 53 -151 143h82c2 -43 28 -67 70 -67
c37 0 61 19 61 44zM556 702h97l-241 -375l-198 -329h-98l241 374zM409 64v68l149 222h127v-219h51v-71h-51v-64h-85v64h-191zM500 135h103v156z" />
    <glyph glyph-name="onefifth" unicode="&#x2155;" horiz-adv-x="673" 
d="M7 621v79h158v-354h-85v275h-73zM454 702h97l-241 -375l-198 -329h-98l241 374zM503 -10c-64 0 -115 29 -143 73l51 51c25 -31 53 -48 89 -48c42 0 68 23 68 53c0 32 -25 50 -59 50c-25 0 -47 -10 -65 -26l-69 8l-2 2l14 201h241v-75h-169l-5 -63c21 11 45 17 73 17
c75 0 128 -41 128 -117c0 -72 -56 -126 -152 -126z" />
    <glyph glyph-name="twofifths" unicode="&#x2156;" horiz-adv-x="785" 
d="M22 346v70l104 83c73 55 85 70 85 93c0 24 -20 41 -48 41c-35 0 -57 -22 -59 -66h-86c2 84 56 143 150 143c84 0 130 -50 130 -113c0 -42 -26 -79 -100 -134l-57 -44l164 2v-75h-283zM566 702h97l-241 -375l-198 -329h-98l241 374zM615 -10c-64 0 -115 29 -143 73l51 51
c25 -31 53 -48 89 -48c42 0 68 23 68 53c0 32 -25 50 -59 50c-25 0 -47 -10 -65 -26l-69 8l-2 2l14 201h241v-75h-169l-5 -63c21 11 45 17 73 17c75 0 128 -41 128 -117c0 -72 -56 -126 -152 -126z" />
    <glyph glyph-name="threefifths" unicode="&#x2157;" horiz-adv-x="774" 
d="M234 456c0 25 -20 40 -64 40h-25v62h21c44 0 60 16 60 38s-21 38 -53 38c-41 0 -63 -24 -65 -57h-82c2 71 55 133 151 133c90 0 134 -49 134 -100c0 -37 -19 -67 -63 -83c52 -14 71 -42 71 -80c0 -61 -52 -111 -147 -111c-90 0 -148 53 -151 143h82c2 -43 28 -67 70 -67
c37 0 61 19 61 44zM556 702h97l-241 -375l-198 -329h-98l241 374zM605 -10c-64 0 -115 29 -143 73l51 51c25 -31 53 -48 89 -48c42 0 68 23 68 53c0 32 -25 50 -59 50c-25 0 -47 -10 -65 -26l-69 8l-2 2l14 201h241v-75h-169l-5 -63c21 11 45 17 73 17
c75 0 128 -41 128 -117c0 -72 -56 -126 -152 -126z" />
    <glyph glyph-name="fourfifths" unicode="&#x2158;" horiz-adv-x="805" 
d="M17 410v68l149 222h127v-219h51v-71h-51v-64h-85v64h-191zM108 481h103v156zM587 702h97l-241 -375l-198 -329h-98l241 374zM636 -10c-64 0 -115 29 -143 73l51 51c25 -31 53 -48 89 -48c42 0 68 23 68 53c0 32 -25 50 -59 50c-25 0 -47 -10 -65 -26l-69 8l-2 2l14 201
h241v-75h-169l-5 -63c21 11 45 17 73 17c75 0 128 -41 128 -117c0 -72 -56 -126 -152 -126z" />
    <glyph glyph-name="onesixth" unicode="&#x2159;" horiz-adv-x="632" 
d="M7 621v79h158v-354h-85v275h-73zM454 702h97l-241 -375l-198 -329h-98l241 374zM615 129c0 -81 -68 -139 -158 -139c-81 0 -147 52 -147 133c0 55 25 99 78 161l59 70h112v-2l-89 -91c-5 -5 -11 -11 -15 -16c8 1 17 2 26 2c78 0 134 -48 134 -118zM465 183
c-39 0 -68 -24 -68 -57c0 -37 30 -59 64 -59c40 0 67 27 67 60c0 32 -24 56 -63 56z" />
    <glyph glyph-name="fivesixths" unicode="&#x215a;" horiz-adv-x="726" 
d="M164 336c-64 0 -115 29 -143 73l51 51c25 -31 53 -48 89 -48c42 0 68 23 68 53c0 32 -25 50 -59 50c-25 0 -47 -10 -65 -26l-69 8l-2 2l14 201h241v-75h-169l-5 -63c21 11 45 17 73 17c75 0 128 -41 128 -117c0 -72 -56 -126 -152 -126zM549 702h97l-241 -375l-198 -329
h-98l241 374zM710 129c0 -81 -68 -139 -158 -139c-81 0 -147 52 -147 133c0 55 25 99 78 161l59 70h112v-2l-89 -91c-5 -5 -11 -11 -15 -16c8 1 17 2 26 2c78 0 134 -48 134 -118zM560 183c-39 0 -68 -24 -68 -57c0 -37 30 -59 64 -59c40 0 67 27 67 60c0 32 -24 56 -63 56z
" />
    <glyph glyph-name="oneeighth" unicode="&#x215b;" horiz-adv-x="675" 
d="M7 621v79h158v-354h-85v275h-73zM454 702h97l-241 -375l-198 -329h-98l241 374zM501 -10c-87 0 -152 41 -152 107c0 41 27 70 67 86c-35 16 -58 42 -58 78c0 64 62 103 144 103s142 -39 142 -102c0 -36 -23 -63 -57 -78c39 -17 66 -45 66 -86c0 -67 -65 -108 -152 -108z
M502 216c33 0 59 15 59 40c0 23 -26 38 -60 38s-60 -15 -60 -39c0 -26 27 -39 61 -39zM502 60c39 0 68 17 68 43c0 29 -29 44 -69 44c-39 0 -69 -16 -69 -45c0 -25 30 -42 70 -42z" />
    <glyph glyph-name="threeeighths" unicode="&#x215c;" horiz-adv-x="776" 
d="M234 456c0 25 -20 40 -64 40h-25v62h21c44 0 60 16 60 38s-21 38 -53 38c-41 0 -63 -24 -65 -57h-82c2 71 55 133 151 133c90 0 134 -49 134 -100c0 -37 -19 -67 -63 -83c52 -14 71 -42 71 -80c0 -61 -52 -111 -147 -111c-90 0 -148 53 -151 143h82c2 -43 28 -67 70 -67
c37 0 61 19 61 44zM556 702h97l-241 -375l-198 -329h-98l241 374zM603 -10c-87 0 -152 41 -152 107c0 41 27 70 67 86c-35 16 -58 42 -58 78c0 64 62 103 144 103s142 -39 142 -102c0 -36 -23 -63 -57 -78c39 -17 66 -45 66 -86c0 -67 -65 -108 -152 -108zM604 216
c33 0 59 15 59 40c0 23 -26 38 -60 38s-60 -15 -60 -39c0 -26 27 -39 61 -39zM604 60c39 0 68 17 68 43c0 29 -29 44 -69 44c-39 0 -69 -16 -69 -45c0 -25 30 -42 70 -42z" />
    <glyph glyph-name="fiveeighths" unicode="&#x215d;" horiz-adv-x="769" 
d="M164 336c-64 0 -115 29 -143 73l51 51c25 -31 53 -48 89 -48c42 0 68 23 68 53c0 32 -25 50 -59 50c-25 0 -47 -10 -65 -26l-69 8l-2 2l14 201h241v-75h-169l-5 -63c21 11 45 17 73 17c75 0 128 -41 128 -117c0 -72 -56 -126 -152 -126zM549 702h97l-241 -375l-198 -329
h-98l241 374zM595 -10c-87 0 -152 41 -152 107c0 41 27 70 67 86c-35 16 -58 42 -58 78c0 64 62 103 144 103s142 -39 142 -102c0 -36 -23 -63 -57 -78c39 -17 66 -45 66 -86c0 -67 -65 -108 -152 -108zM596 216c33 0 59 15 59 40c0 23 -26 38 -60 38s-60 -15 -60 -39
c0 -26 27 -39 61 -39zM596 60c39 0 68 17 68 43c0 29 -29 44 -69 44c-39 0 -69 -16 -69 -45c0 -25 30 -42 70 -42z" />
    <glyph glyph-name="seveneighths" unicode="&#x215e;" horiz-adv-x="702" 
d="M137 346h-95l160 279h-189v75h282v-63zM482 702h97l-241 -375l-198 -329h-98l241 374zM529 -10c-87 0 -152 41 -152 107c0 41 27 70 67 86c-35 16 -58 42 -58 78c0 64 62 103 144 103s142 -39 142 -102c0 -36 -23 -63 -57 -78c39 -17 66 -45 66 -86
c0 -67 -65 -108 -152 -108zM530 216c33 0 59 15 59 40c0 23 -26 38 -60 38s-60 -15 -60 -39c0 -26 27 -39 61 -39zM530 60c39 0 68 17 68 43c0 29 -29 44 -69 44c-39 0 -69 -16 -69 -45c0 -25 30 -42 70 -42z" />
    <glyph glyph-name="zero.sup" unicode="&#x2070;" horiz-adv-x="367" 
d="M20 611c0 121 67 188 164 188c96 0 162 -65 162 -186c0 -122 -67 -188 -163 -188c-97 0 -163 65 -163 186zM183 722c-44 0 -76 -33 -76 -110c0 -78 33 -110 76 -110c45 0 77 33 77 109c0 79 -33 111 -77 111z" />
    <glyph glyph-name="one.sup" unicode="&#xb9;" horiz-adv-x="201" 
d="M7 710v79h158v-354h-85v275h-73z" />
    <glyph glyph-name="two.sup" unicode="&#xb2;" horiz-adv-x="323" 
d="M22 435v70l104 83c73 55 85 70 85 93c0 24 -20 41 -48 41c-35 0 -57 -22 -59 -66h-86c2 84 56 143 150 143c84 0 130 -50 130 -113c0 -42 -26 -79 -100 -134l-57 -44l164 2v-75h-283z" />
    <glyph glyph-name="three.sup" unicode="&#xb3;" horiz-adv-x="338" 
d="M234 545c0 25 -20 40 -64 40h-25v62h21c44 0 60 16 60 38s-21 38 -53 38c-41 0 -63 -24 -65 -57h-82c2 71 55 133 151 133c90 0 134 -49 134 -100c0 -37 -19 -67 -63 -83c52 -14 71 -42 71 -80c0 -61 -52 -111 -147 -111c-90 0 -148 53 -151 143h82c2 -43 28 -67 70 -67
c37 0 61 19 61 44z" />
    <glyph glyph-name="four.sup" unicode="&#x2074;" horiz-adv-x="364" 
d="M18 499v68l149 222h127v-219h51v-71h-51v-64h-85v64h-191zM109 570h103v156z" />
    <glyph glyph-name="five.sup" unicode="&#x2075;" horiz-adv-x="333" 
d="M164 425c-64 0 -115 29 -143 73l51 51c25 -31 53 -48 89 -48c42 0 68 23 68 53c0 32 -25 50 -59 50c-25 0 -47 -10 -65 -26l-69 8l-2 2l14 201h241v-75h-169l-5 -63c21 11 45 17 73 17c75 0 128 -41 128 -117c0 -72 -56 -126 -152 -126z" />
    <glyph glyph-name="six.sup" unicode="&#x2076;" horiz-adv-x="340" 
d="M323 564c0 -81 -68 -139 -158 -139c-81 0 -147 52 -147 133c0 55 25 99 78 161l59 70h112v-2l-89 -91c-5 -5 -11 -11 -15 -16c8 1 17 2 26 2c78 0 134 -48 134 -118zM173 618c-39 0 -68 -24 -68 -57c0 -37 30 -59 64 -59c40 0 67 27 67 60c0 32 -24 56 -63 56z" />
    <glyph glyph-name="seven.sup" unicode="&#x2077;" horiz-adv-x="307" 
d="M137 435h-95l160 279h-189v75h282v-63z" />
    <glyph glyph-name="eight.sup" unicode="&#x2078;" horiz-adv-x="348" 
d="M174 425c-87 0 -152 41 -152 107c0 41 27 70 67 86c-35 16 -58 42 -58 78c0 64 62 103 144 103s142 -39 142 -102c0 -36 -23 -63 -57 -78c39 -17 66 -45 66 -86c0 -67 -65 -108 -152 -108zM175 651c33 0 59 15 59 40c0 23 -26 38 -60 38s-60 -15 -60 -39
c0 -26 27 -39 61 -39zM175 495c39 0 68 17 68 43c0 29 -29 44 -69 44c-39 0 -69 -16 -69 -45c0 -25 30 -42 70 -42z" />
    <glyph glyph-name="nine.sup" unicode="&#x2079;" horiz-adv-x="340" 
d="M244 505l-59 -70h-112v2l89 91c5 5 11 11 15 16c-8 -1 -17 -2 -26 -2c-79 0 -134 48 -134 118c0 81 68 139 157 139c82 0 148 -52 148 -133c0 -55 -25 -98 -78 -161zM167 606c38 0 68 24 68 57c0 37 -31 59 -65 59c-40 0 -66 -27 -66 -60c0 -32 24 -56 63 -56z" />
    <glyph glyph-name="zero.inf" unicode="&#x2080;" horiz-adv-x="367" 
d="M20 6c0 121 67 188 164 188c96 0 162 -65 162 -186c0 -122 -67 -188 -163 -188c-97 0 -163 65 -163 186zM183 117c-44 0 -76 -33 -76 -110c0 -78 33 -110 76 -110c45 0 77 33 77 109c0 79 -33 111 -77 111z" />
    <glyph glyph-name="one.inf" unicode="&#x2081;" horiz-adv-x="201" 
d="M7 105v79h158v-354h-85v275h-73z" />
    <glyph glyph-name="two.inf" unicode="&#x2082;" horiz-adv-x="323" 
d="M22 -170v70l104 83c73 55 85 70 85 93c0 24 -20 41 -48 41c-35 0 -57 -22 -59 -66h-86c2 84 56 143 150 143c84 0 130 -50 130 -113c0 -42 -26 -79 -100 -134l-57 -44l164 2v-75h-283z" />
    <glyph glyph-name="three.inf" unicode="&#x2083;" horiz-adv-x="338" 
d="M234 -60c0 25 -20 40 -64 40h-25v62h21c44 0 60 16 60 38s-21 38 -53 38c-41 0 -63 -24 -65 -57h-82c2 71 55 133 151 133c90 0 134 -49 134 -100c0 -37 -19 -67 -63 -83c52 -14 71 -42 71 -80c0 -61 -52 -111 -147 -111c-90 0 -148 53 -151 143h82c2 -43 28 -67 70 -67
c37 0 61 19 61 44z" />
    <glyph glyph-name="four.inf" unicode="&#x2084;" horiz-adv-x="364" 
d="M18 -106v68l149 222h127v-219h51v-71h-51v-64h-85v64h-191zM109 -35h103v156z" />
    <glyph glyph-name="five.inf" unicode="&#x2085;" horiz-adv-x="333" 
d="M164 -180c-64 0 -115 29 -143 73l51 51c25 -31 53 -48 89 -48c42 0 68 23 68 53c0 32 -25 50 -59 50c-25 0 -47 -10 -65 -26l-69 8l-2 2l14 201h241v-75h-169l-5 -63c21 11 45 17 73 17c75 0 128 -41 128 -117c0 -72 -56 -126 -152 -126z" />
    <glyph glyph-name="six.inf" unicode="&#x2086;" horiz-adv-x="340" 
d="M323 -41c0 -81 -68 -139 -158 -139c-81 0 -147 52 -147 133c0 55 25 99 78 161l59 70h112v-2l-89 -91c-5 -5 -11 -11 -15 -16c8 1 17 2 26 2c78 0 134 -48 134 -118zM173 13c-39 0 -68 -24 -68 -57c0 -37 30 -59 64 -59c40 0 67 27 67 60c0 32 -24 56 -63 56z" />
    <glyph glyph-name="seven.inf" unicode="&#x2087;" horiz-adv-x="307" 
d="M137 -170h-95l160 279h-189v75h282v-63z" />
    <glyph glyph-name="eight.inf" unicode="&#x2088;" horiz-adv-x="348" 
d="M174 -180c-87 0 -152 41 -152 107c0 41 27 70 67 86c-35 16 -58 42 -58 78c0 64 62 103 144 103s142 -39 142 -102c0 -36 -23 -63 -57 -78c39 -17 66 -45 66 -86c0 -67 -65 -108 -152 -108zM175 46c33 0 59 15 59 40c0 23 -26 38 -60 38s-60 -15 -60 -39
c0 -26 27 -39 61 -39zM175 -110c39 0 68 17 68 43c0 29 -29 44 -69 44c-39 0 -69 -16 -69 -45c0 -25 30 -42 70 -42z" />
    <glyph glyph-name="nine.inf" unicode="&#x2089;" horiz-adv-x="340" 
d="M244 -100l-59 -70h-112v2l89 91c5 5 11 11 15 16c-8 -1 -17 -2 -26 -2c-79 0 -134 48 -134 118c0 81 68 139 157 139c82 0 148 -52 148 -133c0 -55 -25 -98 -78 -161zM167 1c38 0 68 24 68 57c0 37 -31 59 -65 59c-40 0 -66 -27 -66 -60c0 -32 24 -56 63 -56z" />
    <glyph glyph-name="uni02B9" unicode="&#x2b9;" horiz-adv-x="224" 
d="M52 466v234h130l-34 -234h-96z" />
    <glyph glyph-name="uni02BA" unicode="&#x2ba;" horiz-adv-x="400" 
d="M226 466v234h133l-34 -234h-99zM52 466v234h132l-34 -234h-98z" />
    <glyph glyph-name="uni02BB" unicode="&#x2bb;" horiz-adv-x="238" 
d="M214 700l-66 -234h-133l102 234h97z" />
    <glyph glyph-name="uni02BC" unicode="&#x2bc;" horiz-adv-x="238" 
d="M24 466l66 234h133l-102 -234h-97z" />
    <glyph glyph-name="uni02BF" unicode="&#x2bf;" horiz-adv-x="215" 
d="M182 723v-72c-50 0 -74 -24 -74 -58s24 -58 74 -58v-72c-103 0 -161 56 -161 130s58 130 161 130z" />
    <glyph glyph-name="uni02BE" unicode="&#x2be;" horiz-adv-x="215" 
d="M33 463v72c49 0 74 24 74 58s-24 58 -74 58v72c102 0 160 -56 160 -130s-58 -130 -160 -130z" />
    <glyph glyph-name="uni02C8" unicode="&#x2c8;" horiz-adv-x="158" 
d="M122 463h-86v260h86v-260z" />
    <glyph glyph-name="uni02CC" unicode="&#x2cc;" horiz-adv-x="158" 
d="M122 -128h-86v260h86v-260z" />
    <glyph glyph-name="acute" unicode="&#xb4;" horiz-adv-x="500" 
d="M166 595l182 101l36 -77l-190 -86z" />
    <glyph glyph-name="hungarumlaut" unicode="&#x2dd;" horiz-adv-x="500" 
d="M110 583l102 108l61 -60l-115 -98zM264 583l103 108l60 -60l-115 -98z" />
    <glyph glyph-name="grave" unicode="`" horiz-adv-x="500" 
d="M334 595l-28 -62l-190 86l36 77z" />
    <glyph glyph-name="circumflex" unicode="&#x2c6;" horiz-adv-x="500" 
d="M98 585l133 104h38l133 -104l-35 -50l-117 66l-117 -66z" />
    <glyph glyph-name="caron" unicode="&#x2c7;" horiz-adv-x="500" 
d="M402 638l-133 -103h-38l-133 103l35 51l117 -67l117 67z" />
    <glyph glyph-name="breve" unicode="&#x2d8;" horiz-adv-x="500" 
d="M250 615c42 0 67 23 81 69l74 -12c-15 -99 -73 -137 -155 -137s-140 38 -155 137l74 12c14 -46 39 -69 81 -69z" />
    <glyph glyph-name="tilde" unicode="&#x2dc;" horiz-adv-x="500" 
d="M262 641c27 -20 35 -25 43 -25c12 0 20 9 30 59l71 -11c-13 -108 -51 -131 -92 -131c-21 0 -36 6 -76 37c-27 20 -35 25 -43 25c-12 0 -20 -9 -30 -59l-71 11c13 108 51 131 92 131c21 0 36 -7 76 -37z" />
    <glyph glyph-name="macron" unicode="&#xaf;" horiz-adv-x="500" 
d="M112 550v81h276v-81h-276z" />
    <glyph glyph-name="dieresis" unicode="&#xa8;" horiz-adv-x="500" 
d="M220 641v-95h-95v95h95zM375 641v-95h-95v95h95z" />
    <glyph glyph-name="dotaccent" unicode="&#x2d9;" horiz-adv-x="500" 
d="M300 644v-100h-100v100h100z" />
    <glyph glyph-name="ring" unicode="&#x2da;" horiz-adv-x="500" 
d="M249 533c-67 0 -119 46 -119 106c0 59 53 107 121 107c67 0 119 -49 119 -106c0 -61 -53 -107 -121 -107zM250 598c29 0 49 19 49 43c0 21 -19 39 -50 39c-28 0 -48 -19 -48 -42c0 -22 20 -40 49 -40z" />
    <glyph glyph-name="uniA788" unicode="&#xa788;" horiz-adv-x="500" 
d="M98 -142l133 104h38l133 -104l-35 -50l-117 66l-117 -66z" />
    <glyph glyph-name="uni02CD" unicode="&#x2cd;" horiz-adv-x="500" 
d="M112 -137v82h276v-82h-276z" />
    <glyph glyph-name="cedilla" unicode="&#xb8;" horiz-adv-x="500" 
d="M228 18h64l-16 -60c47 0 83 -25 83 -67c0 -44 -37 -79 -99 -79c-31 0 -62 8 -92 27l24 47c27 -14 45 -19 63 -19c24 0 33 11 33 22c0 12 -10 20 -30 20c-9 0 -19 -2 -33 -7l-26 8l-1 2z" />
    <glyph glyph-name="ogonek" unicode="&#x2db;" horiz-adv-x="500" 
d="M162 -102c0 22 8 49 66 110h66c-43 -53 -49 -67 -49 -78c0 -14 9 -21 41 -21h27v-76h-63c-62 0 -88 24 -88 65z" />
    <glyph glyph-name="Aacute" unicode="&#xc1;" horiz-adv-x="749" 
d="M138 0h-132l302 700h133l302 -700h-135l-74 175h-323zM257 285h231l-115 275zM290 805l213 82l29 -82l-219 -67z" />
    <glyph glyph-name="Agrave" unicode="&#xc0;" horiz-adv-x="749" 
d="M138 0h-132l302 700h133l302 -700h-135l-74 175h-323zM257 285h231l-115 275zM455 805l-23 -67l-220 67l30 82z" />
    <glyph glyph-name="Acircumflex" unicode="&#xc2;" horiz-adv-x="749" 
d="M138 0h-132l302 700h133l302 -700h-135l-74 175h-323zM257 285h231l-115 275zM206 777l147 90h38l148 -90l-28 -53l-139 54l-138 -54z" />
    <glyph glyph-name="uni1EAC" unicode="&#x1eac;" horiz-adv-x="749" 
d="M138 0h-132l302 700h133l302 -700h-135l-74 175h-323zM257 285h231l-115 275zM206 777l147 90h38l148 -90l-28 -53l-139 54l-138 -54zM422 -35v-101h-100v101h100z" />
    <glyph glyph-name="uni1EA4" unicode="&#x1ea4;" horiz-adv-x="749" 
d="M138 0h-132l302 700h133l302 -700h-135l-74 175h-323zM257 285h231l-115 275zM427 897l136 55l22 -72l-142 -38zM207 773l146 84h38l147 -84l-21 -49l-145 51l-144 -51z" />
    <glyph glyph-name="uni1EA6" unicode="&#x1ea6;" horiz-adv-x="749" 
d="M138 0h-132l302 700h133l302 -700h-135l-74 175h-323zM257 285h231l-115 275zM552 887l-22 -51l-154 53l27 65zM207 773l146 84h38l147 -84l-21 -49l-145 51l-144 -51z" />
    <glyph glyph-name="uni1EA8" unicode="&#x1ea8;" horiz-adv-x="749" 
d="M138 0h-132l302 700h133l302 -700h-135l-74 175h-323zM257 285h231l-115 275zM454 838l-28 40c59 10 72 18 72 24c0 8 -9 16 -92 23v2l51 47c101 -10 129 -35 129 -63c0 -25 -31 -64 -132 -73zM207 773l146 84h38l147 -84l-21 -49l-145 51l-144 -51z" />
    <glyph glyph-name="uni1EAA" unicode="&#x1eaa;" horiz-adv-x="749" 
d="M138 0h-132l302 700h133l302 -700h-135l-74 175h-323zM257 285h231l-115 275zM383 953c33 -12 44 -15 54 -15c12 0 19 4 32 33l60 -10c-17 -74 -43 -95 -81 -95c-18 0 -29 3 -72 20c-33 13 -45 16 -54 16c-12 0 -19 -5 -32 -34l-60 11c16 74 42 95 80 95
c18 0 30 -3 73 -21zM207 773l146 84h38l147 -84l-21 -49l-145 51l-144 -51z" />
    <glyph glyph-name="uni01CD" unicode="&#x1cd;" horiz-adv-x="749" 
d="M138 0h-132l302 700h133l302 -700h-135l-74 175h-323zM257 285h231l-115 275zM206 829l28 52l139 -53l138 53l28 -52l-147 -91h-38z" />
    <glyph glyph-name="Abreve" unicode="&#x102;" horiz-adv-x="749" 
d="M138 0h-132l302 700h133l302 -700h-135l-74 175h-323zM257 285h231l-115 275zM372 822c43 0 75 13 95 54l73 -18c-23 -90 -86 -120 -168 -120s-145 30 -168 120l73 18c20 -40 52 -54 95 -54z" />
    <glyph glyph-name="uni1EB6" unicode="&#x1eb6;" horiz-adv-x="749" 
d="M138 0h-132l302 700h133l302 -700h-135l-74 175h-323zM257 285h231l-115 275zM372 822c43 0 75 13 95 54l73 -18c-23 -90 -86 -120 -168 -120s-145 30 -168 120l73 18c20 -40 52 -54 95 -54zM422 -35v-101h-100v101h100z" />
    <glyph glyph-name="uni1EAE" unicode="&#x1eae;" horiz-adv-x="749" 
d="M138 0h-132l302 700h133l302 -700h-135l-74 175h-323zM257 285h231l-115 275zM297 910l199 62l19 -72l-204 -46zM372 809c52 0 81 18 101 54l65 -20c-20 -71 -72 -105 -166 -105s-146 34 -166 105l65 20c20 -36 49 -54 101 -54z" />
    <glyph glyph-name="uni1EB0" unicode="&#x1eb0;" horiz-adv-x="749" 
d="M138 0h-132l302 700h133l302 -700h-135l-74 175h-323zM257 285h231l-115 275zM446 910l-14 -56l-204 46l19 72zM372 809c52 0 81 18 101 54l65 -20c-20 -71 -72 -105 -166 -105s-146 34 -166 105l65 20c20 -36 49 -54 101 -54z" />
    <glyph glyph-name="uni1EB2" unicode="&#x1eb2;" horiz-adv-x="749" 
d="M138 0h-132l302 700h133l302 -700h-135l-74 175h-323zM257 285h231l-115 275zM334 852l-28 40c63 10 77 20 77 27c0 8 -9 16 -91 23v2l50 47c101 -10 130 -35 130 -63c0 -26 -33 -67 -138 -76zM372 809c52 0 81 18 101 54l65 -20c-20 -71 -72 -105 -166 -105
s-146 34 -166 105l65 20c20 -36 49 -54 101 -54z" />
    <glyph glyph-name="uni1EB4" unicode="&#x1eb4;" horiz-adv-x="749" 
d="M138 0h-132l302 700h133l302 -700h-135l-74 175h-323zM257 285h231l-115 275zM377 964c33 -12 44 -15 54 -15c12 0 20 4 32 33l60 -10c-17 -74 -43 -95 -80 -95c-18 0 -30 3 -73 20c-33 13 -44 16 -54 16c-12 0 -19 -5 -32 -34l-60 10c16 75 43 96 80 96
c19 0 30 -3 73 -21zM372 809c52 0 81 18 101 54l65 -20c-20 -71 -72 -105 -166 -105s-146 34 -166 105l65 20c20 -36 49 -54 101 -54z" />
    <glyph glyph-name="Atilde" unicode="&#xc3;" horiz-adv-x="749" 
d="M138 0h-132l302 700h133l302 -700h-135l-74 175h-323zM257 285h231l-115 275zM541 858c-12 -102 -55 -123 -95 -123c-21 0 -38 6 -78 28c-35 18 -47 22 -57 22c-15 0 -25 -6 -36 -48l-72 11c12 102 55 122 95 122c21 0 38 -6 78 -27c35 -18 47 -22 57 -22
c15 0 26 6 36 48z" />
    <glyph glyph-name="Amacron" unicode="&#x100;" horiz-adv-x="749" 
d="M138 0h-132l302 700h133l302 -700h-135l-74 175h-323zM257 285h231l-115 275zM225 753v85h294v-85h-294z" />
    <glyph glyph-name="Adieresis" unicode="&#xc4;" horiz-adv-x="749" 
d="M138 0h-132l302 700h133l302 -700h-135l-74 175h-323zM257 285h231l-115 275zM332 848v-99h-98v99h98zM510 848v-99h-98v99h98z" />
    <glyph glyph-name="uni0226" unicode="&#x226;" horiz-adv-x="749" 
d="M138 0h-132l302 700h133l302 -700h-135l-74 175h-323zM257 285h231l-115 275zM424 852v-105h-104v105h104z" />
    <glyph glyph-name="Aring" unicode="&#xc5;" horiz-adv-x="749" 
d="M137 0h-131l275 637c-29 20 -45 50 -45 87c0 67 54 113 140 113c84 0 137 -46 137 -112c0 -37 -16 -68 -45 -88l275 -637h-134l-74 175h-325zM375 678c40 0 59 17 59 48c0 28 -21 45 -60 45c-40 0 -59 -18 -59 -48c0 -29 22 -45 60 -45zM256 285h233l-116 277z" />
    <glyph glyph-name="uni1EA2" unicode="&#x1ea2;" horiz-adv-x="749" 
d="M138 0h-132l302 700h133l302 -700h-135l-74 175h-323zM257 285h231l-115 275zM313 733l-32 42c63 9 78 23 78 33s-10 22 -92 28v2l53 54c106 -9 137 -41 137 -76c0 -30 -35 -75 -144 -83z" />
    <glyph glyph-name="uni1EA0" unicode="&#x1ea0;" horiz-adv-x="749" 
d="M138 0h-132l302 700h133l302 -700h-135l-74 175h-323zM257 285h231l-115 275zM422 -35v-101h-100v101h100z" />
    <glyph glyph-name="Aogonek" unicode="&#x104;" horiz-adv-x="749" 
d="M138 0h-132l302 700h133l302 -700h-41c-38 -46 -43 -60 -43 -70c0 -14 9 -21 41 -21h26v-76h-62c-63 0 -88 24 -88 65c0 21 7 47 59 102h-27l-74 175h-323zM257 285h231l-115 275z" />
    <glyph glyph-name="AE" unicode="&#xc6;" horiz-adv-x="1101" 
d="M125 0h-139l463 700h611v-110h-396v-182h368v-110h-368v-188h396v-110h-524v175h-296zM313 285h223v305h-22z" />
    <glyph glyph-name="Aacute.biform" horiz-adv-x="707" 
d="M530 0v94c-56 -69 -142 -105 -247 -105c-154 0 -253 83 -253 214c0 125 99 213 331 213h167c-4 120 -65 183 -175 183c-69 0 -138 -30 -215 -94l-67 89c83 72 181 117 294 117c191 0 291 -114 291 -308v-403h-126zM352 310c-149 0 -193 -44 -193 -103
c0 -56 47 -112 147 -112c119 0 215 78 222 215h-176zM284 805l213 82l29 -82l-219 -67z" />
    <glyph glyph-name="Agrave.biform" horiz-adv-x="707" 
d="M530 0v94c-56 -69 -142 -105 -247 -105c-154 0 -253 83 -253 214c0 125 99 213 331 213h167c-4 120 -65 183 -175 183c-69 0 -138 -30 -215 -94l-67 89c83 72 181 117 294 117c191 0 291 -114 291 -308v-403h-126zM352 310c-149 0 -193 -44 -193 -103
c0 -56 47 -112 147 -112c119 0 215 78 222 215h-176zM449 805l-23 -67l-220 67l30 82z" />
    <glyph glyph-name="Acircumflex.biform" horiz-adv-x="707" 
d="M530 0v94c-56 -69 -142 -105 -247 -105c-154 0 -253 83 -253 214c0 125 99 213 331 213h167c-4 120 -65 183 -175 183c-69 0 -138 -30 -215 -94l-67 89c83 72 181 117 294 117c191 0 291 -114 291 -308v-403h-126zM352 310c-149 0 -193 -44 -193 -103
c0 -56 47 -112 147 -112c119 0 215 78 222 215h-176zM200 779l147 90h38l148 -90l-28 -53l-139 54l-138 -54z" />
    <glyph glyph-name="uni1EAC.biform" horiz-adv-x="707" 
d="M530 0v94c-56 -69 -142 -105 -247 -105c-154 0 -253 83 -253 214c0 125 99 213 331 213h167c-4 120 -65 183 -175 183c-69 0 -138 -30 -215 -94l-67 89c83 72 181 117 294 117c191 0 291 -114 291 -308v-403h-126zM352 310c-149 0 -193 -44 -193 -103
c0 -56 47 -112 147 -112c119 0 215 78 222 215h-176zM200 779l147 90h38l148 -90l-28 -53l-139 54l-138 -54zM416 -49v-101h-100v101h100z" />
    <glyph glyph-name="uni1EA4.biform" horiz-adv-x="707" 
d="M530 0v94c-56 -69 -142 -105 -247 -105c-154 0 -253 83 -253 214c0 125 99 213 331 213h167c-4 120 -65 183 -175 183c-69 0 -138 -30 -215 -94l-67 89c83 72 181 117 294 117c191 0 291 -114 291 -308v-403h-126zM352 310c-149 0 -193 -44 -193 -103
c0 -56 47 -112 147 -112c119 0 215 78 222 215h-176zM421 899l136 55l22 -72l-142 -38zM201 775l146 84h38l147 -84l-21 -49l-145 51l-144 -51z" />
    <glyph glyph-name="uni1EA6.biform" horiz-adv-x="707" 
d="M530 0v94c-56 -69 -142 -105 -247 -105c-154 0 -253 83 -253 214c0 125 99 213 331 213h167c-4 120 -65 183 -175 183c-69 0 -138 -30 -215 -94l-67 89c83 72 181 117 294 117c191 0 291 -114 291 -308v-403h-126zM352 310c-149 0 -193 -44 -193 -103
c0 -56 47 -112 147 -112c119 0 215 78 222 215h-176zM546 889l-22 -51l-154 53l27 65zM201 775l146 84h38l147 -84l-21 -49l-145 51l-144 -51z" />
    <glyph glyph-name="uni1EA8.biform" horiz-adv-x="707" 
d="M530 0v94c-56 -69 -142 -105 -247 -105c-154 0 -253 83 -253 214c0 125 99 213 331 213h167c-4 120 -65 183 -175 183c-69 0 -138 -30 -215 -94l-67 89c83 72 181 117 294 117c191 0 291 -114 291 -308v-403h-126zM352 310c-149 0 -193 -44 -193 -103
c0 -56 47 -112 147 -112c119 0 215 78 222 215h-176zM448 840l-28 40c59 10 72 18 72 24c0 8 -9 16 -92 23v2l51 47c101 -10 129 -35 129 -63c0 -25 -31 -64 -132 -73zM201 775l146 84h38l147 -84l-21 -49l-145 51l-144 -51z" />
    <glyph glyph-name="uni1EAA.biform" horiz-adv-x="707" 
d="M530 0v94c-56 -69 -142 -105 -247 -105c-154 0 -253 83 -253 214c0 125 99 213 331 213h167c-4 120 -65 183 -175 183c-69 0 -138 -30 -215 -94l-67 89c83 72 181 117 294 117c191 0 291 -114 291 -308v-403h-126zM352 310c-149 0 -193 -44 -193 -103
c0 -56 47 -112 147 -112c119 0 215 78 222 215h-176zM377 955c33 -12 44 -15 54 -15c12 0 19 4 32 33l60 -10c-17 -74 -43 -95 -81 -95c-18 0 -29 3 -72 20c-33 13 -45 16 -54 16c-12 0 -19 -5 -32 -34l-60 11c16 74 42 95 80 95c18 0 30 -3 73 -21zM201 775l146 84h38
l147 -84l-21 -49l-145 51l-144 -51z" />
    <glyph glyph-name="uni01CD.biform" horiz-adv-x="707" 
d="M530 0v94c-56 -69 -142 -105 -247 -105c-154 0 -253 83 -253 214c0 125 99 213 331 213h167c-4 120 -65 183 -175 183c-69 0 -138 -30 -215 -94l-67 89c83 72 181 117 294 117c191 0 291 -114 291 -308v-403h-126zM352 310c-149 0 -193 -44 -193 -103
c0 -56 47 -112 147 -112c119 0 215 78 222 215h-176zM200 829l28 52l139 -53l138 53l28 -52l-147 -91h-38z" />
    <glyph glyph-name="Abreve.biform" horiz-adv-x="707" 
d="M530 0v94c-56 -69 -142 -105 -247 -105c-154 0 -253 83 -253 214c0 125 99 213 331 213h167c-4 120 -65 183 -175 183c-69 0 -138 -30 -215 -94l-67 89c83 72 181 117 294 117c191 0 291 -114 291 -308v-403h-126zM352 310c-149 0 -193 -44 -193 -103
c0 -56 47 -112 147 -112c119 0 215 78 222 215h-176zM366 822c43 0 75 13 95 54l73 -18c-23 -90 -86 -120 -168 -120s-145 30 -168 120l73 18c20 -40 52 -54 95 -54z" />
    <glyph glyph-name="uni1EB6.biform" horiz-adv-x="707" 
d="M530 0v94c-56 -69 -142 -105 -247 -105c-154 0 -253 83 -253 214c0 125 99 213 331 213h167c-4 120 -65 183 -175 183c-69 0 -138 -30 -215 -94l-67 89c83 72 181 117 294 117c191 0 291 -114 291 -308v-403h-126zM352 310c-149 0 -193 -44 -193 -103
c0 -56 47 -112 147 -112c119 0 215 78 222 215h-176zM366 822c43 0 75 13 95 54l73 -18c-23 -90 -86 -120 -168 -120s-145 30 -168 120l73 18c20 -40 52 -54 95 -54zM416 -49v-101h-100v101h100z" />
    <glyph glyph-name="uni1EAE.biform" horiz-adv-x="707" 
d="M530 0v94c-56 -69 -142 -105 -247 -105c-154 0 -253 83 -253 214c0 125 99 213 331 213h167c-4 120 -65 183 -175 183c-69 0 -138 -30 -215 -94l-67 89c83 72 181 117 294 117c191 0 291 -114 291 -308v-403h-126zM352 310c-149 0 -193 -44 -193 -103
c0 -56 47 -112 147 -112c119 0 215 78 222 215h-176zM291 910l199 62l19 -72l-204 -46zM366 809c52 0 81 18 101 54l65 -20c-20 -71 -72 -105 -166 -105s-146 34 -166 105l65 20c20 -36 49 -54 101 -54z" />
    <glyph glyph-name="uni1EB0.biform" horiz-adv-x="707" 
d="M530 0v94c-56 -69 -142 -105 -247 -105c-154 0 -253 83 -253 214c0 125 99 213 331 213h167c-4 120 -65 183 -175 183c-69 0 -138 -30 -215 -94l-67 89c83 72 181 117 294 117c191 0 291 -114 291 -308v-403h-126zM352 310c-149 0 -193 -44 -193 -103
c0 -56 47 -112 147 -112c119 0 215 78 222 215h-176zM440 910l-14 -56l-204 46l19 72zM366 809c52 0 81 18 101 54l65 -20c-20 -71 -72 -105 -166 -105s-146 34 -166 105l65 20c20 -36 49 -54 101 -54z" />
    <glyph glyph-name="uni1EB2.biform" horiz-adv-x="707" 
d="M530 0v94c-56 -69 -142 -105 -247 -105c-154 0 -253 83 -253 214c0 125 99 213 331 213h167c-4 120 -65 183 -175 183c-69 0 -138 -30 -215 -94l-67 89c83 72 181 117 294 117c191 0 291 -114 291 -308v-403h-126zM352 310c-149 0 -193 -44 -193 -103
c0 -56 47 -112 147 -112c119 0 215 78 222 215h-176zM328 852l-28 40c63 10 77 20 77 27c0 8 -9 16 -91 23v2l50 47c101 -10 130 -35 130 -63c0 -26 -33 -67 -138 -76zM366 809c52 0 81 18 101 54l65 -20c-20 -71 -72 -105 -166 -105s-146 34 -166 105l65 20
c20 -36 49 -54 101 -54z" />
    <glyph glyph-name="uni1EB4.biform" horiz-adv-x="707" 
d="M530 0v94c-56 -69 -142 -105 -247 -105c-154 0 -253 83 -253 214c0 125 99 213 331 213h167c-4 120 -65 183 -175 183c-69 0 -138 -30 -215 -94l-67 89c83 72 181 117 294 117c191 0 291 -114 291 -308v-403h-126zM352 310c-149 0 -193 -44 -193 -103
c0 -56 47 -112 147 -112c119 0 215 78 222 215h-176zM371 964c33 -12 44 -15 54 -15c12 0 20 4 32 33l60 -10c-17 -74 -43 -95 -80 -95c-18 0 -30 3 -73 20c-33 13 -44 16 -54 16c-12 0 -19 -5 -32 -34l-60 10c16 75 43 96 80 96c19 0 30 -3 73 -21zM366 809
c52 0 81 18 101 54l65 -20c-20 -71 -72 -105 -166 -105s-146 34 -166 105l65 20c20 -36 49 -54 101 -54z" />
    <glyph glyph-name="Atilde.biform" horiz-adv-x="707" 
d="M530 0v94c-56 -69 -142 -105 -247 -105c-154 0 -253 83 -253 214c0 125 99 213 331 213h167c-4 120 -65 183 -175 183c-69 0 -138 -30 -215 -94l-67 89c83 72 181 117 294 117c191 0 291 -114 291 -308v-403h-126zM352 310c-149 0 -193 -44 -193 -103
c0 -56 47 -112 147 -112c119 0 215 78 222 215h-176zM535 858c-12 -102 -55 -123 -95 -123c-21 0 -38 6 -78 28c-35 18 -47 22 -57 22c-15 0 -25 -6 -36 -48l-72 11c12 102 55 122 95 122c21 0 38 -6 78 -27c35 -18 47 -22 57 -22c15 0 26 6 36 48z" />
    <glyph glyph-name="Amacron.biform" horiz-adv-x="707" 
d="M530 0v94c-56 -69 -142 -105 -247 -105c-154 0 -253 83 -253 214c0 125 99 213 331 213h167c-4 120 -65 183 -175 183c-69 0 -138 -30 -215 -94l-67 89c83 72 181 117 294 117c191 0 291 -114 291 -308v-403h-126zM352 310c-149 0 -193 -44 -193 -103
c0 -56 47 -112 147 -112c119 0 215 78 222 215h-176zM219 753v85h294v-85h-294z" />
    <glyph glyph-name="Adieresis.biform" horiz-adv-x="707" 
d="M530 0v94c-56 -69 -142 -105 -247 -105c-154 0 -253 83 -253 214c0 125 99 213 331 213h167c-4 120 -65 183 -175 183c-69 0 -138 -30 -215 -94l-67 89c83 72 181 117 294 117c191 0 291 -114 291 -308v-403h-126zM352 310c-149 0 -193 -44 -193 -103
c0 -56 47 -112 147 -112c119 0 215 78 222 215h-176zM326 848v-99h-98v99h98zM504 848v-99h-98v99h98z" />
    <glyph glyph-name="uni0226.biform" horiz-adv-x="707" 
d="M530 0v94c-56 -69 -142 -105 -247 -105c-154 0 -253 83 -253 214c0 125 99 213 331 213h167c-4 120 -65 183 -175 183c-69 0 -138 -30 -215 -94l-67 89c83 72 181 117 294 117c191 0 291 -114 291 -308v-403h-126zM352 310c-149 0 -193 -44 -193 -103
c0 -56 47 -112 147 -112c119 0 215 78 222 215h-176zM418 852v-105h-104v105h104z" />
    <glyph glyph-name="Aring.biform" horiz-adv-x="707" 
d="M530 0v94c-56 -69 -142 -105 -247 -105c-154 0 -253 83 -253 214c0 125 99 213 331 213h167c-4 120 -65 183 -175 183c-69 0 -138 -30 -215 -94l-67 89c83 72 181 117 294 117c191 0 291 -114 291 -308v-403h-126zM352 310c-149 0 -193 -44 -193 -103
c0 -56 47 -112 147 -112c119 0 215 78 222 215h-176zM365 736c-85 0 -138 46 -138 113s54 113 140 113c85 0 138 -46 138 -112c0 -68 -54 -114 -140 -114zM366 802c40 0 59 18 59 49c0 28 -20 44 -59 44c-40 0 -59 -17 -59 -47c0 -29 21 -46 59 -46z" />
    <glyph glyph-name="uni1EA2.biform" horiz-adv-x="707" 
d="M530 0v94c-56 -69 -142 -105 -247 -105c-154 0 -253 83 -253 214c0 125 99 213 331 213h167c-4 120 -65 183 -175 183c-69 0 -138 -30 -215 -94l-67 89c83 72 181 117 294 117c191 0 291 -114 291 -308v-403h-126zM352 310c-149 0 -193 -44 -193 -103
c0 -56 47 -112 147 -112c119 0 215 78 222 215h-176zM307 733l-32 42c63 9 78 23 78 33s-10 22 -92 28v2l53 54c106 -9 137 -41 137 -76c0 -30 -35 -75 -144 -83z" />
    <glyph glyph-name="uni1EA0.biform" horiz-adv-x="707" 
d="M530 0v94c-56 -69 -142 -105 -247 -105c-154 0 -253 83 -253 214c0 125 99 213 331 213h167c-4 120 -65 183 -175 183c-69 0 -138 -30 -215 -94l-67 89c83 72 181 117 294 117c191 0 291 -114 291 -308v-403h-126zM352 310c-149 0 -193 -44 -193 -103
c0 -56 47 -112 147 -112c119 0 215 78 222 215h-176zM416 -49v-101h-100v101h100z" />
    <glyph glyph-name="Aogonek.biform" horiz-adv-x="707" 
d="M501 -102c0 21 8 47 60 102h-31v94c-56 -69 -142 -105 -247 -105c-154 0 -253 83 -253 214c0 125 99 213 331 213h167c-4 120 -65 183 -175 183c-69 0 -138 -30 -215 -94l-67 89c83 72 181 117 294 117c191 0 291 -114 291 -308v-403h-29c-38 -46 -43 -60 -43 -70
c0 -14 10 -21 42 -21h26v-76h-63c-62 0 -88 24 -88 65zM352 310c-149 0 -193 -44 -193 -103c0 -56 47 -112 147 -112c119 0 215 78 222 215h-176z" />
    <glyph glyph-name="uni1E06" unicode="&#x1e06;" horiz-adv-x="681" 
d="M56 700h326c175 0 254 -76 254 -183c0 -63 -24 -124 -114 -157c96 -27 130 -88 130 -167c0 -110 -90 -193 -263 -193h-333v700zM380 590h-196v-182h200c81 0 125 41 125 95c0 53 -37 87 -129 87zM403 298h-219v-188h209c88 0 132 38 132 93c0 58 -40 95 -122 95z
M212 -137v82h276v-82h-276z" />
    <glyph glyph-name="Cacute" unicode="&#x106;" horiz-adv-x="724" 
d="M393 96c86 0 157 41 207 125l95 -57c-52 -100 -157 -180 -306 -180c-211 0 -358 154 -358 365c0 205 154 367 367 367c142 0 241 -69 295 -176l-99 -62c-51 90 -113 126 -199 126c-138 0 -235 -109 -235 -253c0 -145 99 -255 233 -255zM315 805l213 82l29 -82l-219 -67z
" />
    <glyph glyph-name="Ccircumflex" unicode="&#x108;" horiz-adv-x="724" 
d="M393 96c86 0 157 41 207 125l95 -57c-52 -100 -157 -180 -306 -180c-211 0 -358 154 -358 365c0 205 154 367 367 367c142 0 241 -69 295 -176l-99 -62c-51 90 -113 126 -199 126c-138 0 -235 -109 -235 -253c0 -145 99 -255 233 -255zM231 781l147 90h38l148 -90
l-28 -53l-139 54l-138 -54z" />
    <glyph glyph-name="Ccaron" unicode="&#x10c;" horiz-adv-x="724" 
d="M393 96c86 0 157 41 207 125l95 -57c-52 -100 -157 -180 -306 -180c-211 0 -358 154 -358 365c0 205 154 367 367 367c142 0 241 -69 295 -176l-99 -62c-51 90 -113 126 -199 126c-138 0 -235 -109 -235 -253c0 -145 99 -255 233 -255zM231 829l28 52l139 -53l138 53
l28 -52l-147 -91h-38z" />
    <glyph glyph-name="Cdotaccent" unicode="&#x10a;" horiz-adv-x="724" 
d="M393 96c86 0 157 41 207 125l95 -57c-52 -100 -157 -180 -306 -180c-211 0 -358 154 -358 365c0 205 154 367 367 367c142 0 241 -69 295 -176l-99 -62c-51 90 -113 126 -199 126c-138 0 -235 -109 -235 -253c0 -145 99 -255 233 -255zM449 852v-105h-104v105h104z" />
    <glyph glyph-name="Ccedilla" unicode="&#xc7;" horiz-adv-x="724" 
d="M393 96c86 0 157 41 207 125l95 -57c-48 -92 -141 -168 -273 -179l-7 -27c47 0 83 -25 83 -67c0 -44 -38 -79 -99 -79c-31 0 -62 8 -92 27l24 47c27 -14 44 -19 62 -19c25 0 34 11 34 22c0 12 -10 20 -30 20c-9 0 -19 -2 -33 -7l-26 8l-1 2l21 73
c-194 15 -327 164 -327 364c0 205 154 367 367 367c142 0 241 -69 295 -176l-99 -62c-51 90 -113 126 -199 126c-138 0 -235 -109 -235 -253c0 -145 99 -255 233 -255z" />
    <glyph glyph-name="Dcaron" unicode="&#x10e;" horiz-adv-x="737" 
d="M56 700h271c235 0 379 -142 379 -349c0 -203 -149 -351 -381 -351h-269v700zM326 587h-142v-474h142c156 0 250 100 250 236s-94 238 -250 238zM184 829l28 52l139 -53l138 53l28 -52l-147 -91h-38z" />
    <glyph glyph-name="uni1E12" unicode="&#x1e12;" horiz-adv-x="737" 
d="M56 700h271c235 0 379 -142 379 -349c0 -203 -149 -351 -381 -351h-269v700zM326 587h-142v-474h142c156 0 250 100 250 236s-94 238 -250 238zM198 -142l133 104h38l133 -104l-35 -50l-117 66l-117 -66z" />
    <glyph glyph-name="uni1E0E" unicode="&#x1e0e;" horiz-adv-x="737" 
d="M56 700h271c235 0 379 -142 379 -349c0 -203 -149 -351 -381 -351h-269v700zM326 587h-142v-474h142c156 0 250 100 250 236s-94 238 -250 238zM212 -137v82h276v-82h-276z" />
    <glyph glyph-name="uni1E0C" unicode="&#x1e0c;" horiz-adv-x="737" 
d="M56 700h271c235 0 379 -142 379 -349c0 -203 -149 -351 -381 -351h-269v700zM326 587h-142v-474h142c156 0 250 100 250 236s-94 238 -250 238zM400 -49v-101h-100v101h100z" />
    <glyph glyph-name="Dcroat" unicode="&#x110;" horiz-adv-x="767" 
d="M10 309v88h76v303h271c235 0 379 -142 379 -349c0 -203 -149 -351 -381 -351h-269v309h-76zM412 309h-198v-196h142c156 0 250 100 250 236s-94 238 -250 238h-142v-190h198v-88z" />
    <glyph glyph-name="Eacute" unicode="&#xc9;" horiz-adv-x="622" 
d="M56 700h525v-110h-397v-182h369v-110h-369v-188h397v-110h-525v700zM246 805l213 82l29 -82l-219 -67z" />
    <glyph glyph-name="Egrave" unicode="&#xc8;" horiz-adv-x="622" 
d="M56 700h525v-110h-397v-182h369v-110h-369v-188h397v-110h-525v700zM411 805l-23 -67l-220 67l30 82z" />
    <glyph glyph-name="Ecircumflex" unicode="&#xca;" horiz-adv-x="622" 
d="M56 700h525v-110h-397v-182h369v-110h-369v-188h397v-110h-525v700zM162 791l147 90h38l148 -90l-28 -53l-139 54l-138 -54z" />
    <glyph glyph-name="uni1EC6" unicode="&#x1ec6;" horiz-adv-x="622" 
d="M56 700h525v-110h-397v-182h369v-110h-369v-188h397v-110h-525v700zM162 791l147 90h38l148 -90l-28 -53l-139 54l-138 -54zM378 -49v-101h-100v101h100z" />
    <glyph glyph-name="uni1EBE" unicode="&#x1ebe;" horiz-adv-x="622" 
d="M56 700h525v-110h-397v-182h369v-110h-369v-188h397v-110h-525v700zM383 911l136 55l22 -72l-142 -38zM163 787l146 84h38l147 -84l-21 -49l-145 51l-144 -51z" />
    <glyph glyph-name="uni1EC0" unicode="&#x1ec0;" horiz-adv-x="622" 
d="M56 700h525v-110h-397v-182h369v-110h-369v-188h397v-110h-525v700zM508 901l-22 -51l-154 53l27 65zM163 787l146 84h38l147 -84l-21 -49l-145 51l-144 -51z" />
    <glyph glyph-name="uni1EC2" unicode="&#x1ec2;" horiz-adv-x="622" 
d="M56 700h525v-110h-397v-182h369v-110h-369v-188h397v-110h-525v700zM410 852l-28 40c59 10 72 18 72 24c0 8 -9 16 -92 23v2l51 47c101 -10 129 -35 129 -63c0 -25 -31 -64 -132 -73zM163 787l146 84h38l147 -84l-21 -49l-145 51l-144 -51z" />
    <glyph glyph-name="uni1EC4" unicode="&#x1ec4;" horiz-adv-x="622" 
d="M56 700h525v-110h-397v-182h369v-110h-369v-188h397v-110h-525v700zM339 967c33 -12 44 -15 54 -15c12 0 19 4 32 33l60 -10c-17 -74 -43 -95 -81 -95c-18 0 -29 3 -72 20c-33 13 -45 16 -54 16c-12 0 -19 -5 -32 -34l-60 11c16 74 42 95 80 95c18 0 30 -3 73 -21z
M163 787l146 84h38l147 -84l-21 -49l-145 51l-144 -51z" />
    <glyph glyph-name="Ecaron" unicode="&#x11a;" horiz-adv-x="622" 
d="M56 700h525v-110h-397v-182h369v-110h-369v-188h397v-110h-525v700zM162 829l28 52l139 -53l138 53l28 -52l-147 -91h-38z" />
    <glyph glyph-name="Ebreve" unicode="&#x114;" horiz-adv-x="622" 
d="M56 700h525v-110h-397v-182h369v-110h-369v-188h397v-110h-525v700zM328 822c43 0 75 13 95 54l73 -18c-23 -90 -86 -120 -168 -120s-145 30 -168 120l73 18c20 -40 52 -54 95 -54z" />
    <glyph glyph-name="uni1EBC" unicode="&#x1ebc;" horiz-adv-x="622" 
d="M56 700h525v-110h-397v-182h369v-110h-369v-188h397v-110h-525v700zM497 858c-12 -102 -55 -123 -95 -123c-21 0 -38 6 -78 28c-35 18 -47 22 -57 22c-15 0 -25 -6 -36 -48l-72 11c12 102 55 122 95 122c21 0 38 -6 78 -27c35 -18 47 -22 57 -22c15 0 26 6 36 48z" />
    <glyph glyph-name="Emacron" unicode="&#x112;" horiz-adv-x="622" 
d="M56 700h525v-110h-397v-182h369v-110h-369v-188h397v-110h-525v700zM181 753v85h294v-85h-294z" />
    <glyph glyph-name="Edieresis" unicode="&#xcb;" horiz-adv-x="622" 
d="M56 700h525v-110h-397v-182h369v-110h-369v-188h397v-110h-525v700zM288 848v-99h-98v99h98zM466 848v-99h-98v99h98z" />
    <glyph glyph-name="Edotaccent" unicode="&#x116;" horiz-adv-x="622" 
d="M56 700h525v-110h-397v-182h369v-110h-369v-188h397v-110h-525v700zM380 852v-105h-104v105h104z" />
    <glyph glyph-name="uni1EBA" unicode="&#x1eba;" horiz-adv-x="622" 
d="M56 700h525v-110h-397v-182h369v-110h-369v-188h397v-110h-525v700zM269 733l-32 42c63 9 78 23 78 33s-10 22 -92 28v2l53 54c106 -9 137 -41 137 -76c0 -30 -35 -75 -144 -83z" />
    <glyph glyph-name="uni1EB8" unicode="&#x1eb8;" horiz-adv-x="622" 
d="M56 700h525v-110h-397v-182h369v-110h-369v-188h397v-110h-525v700zM378 -49v-101h-100v101h100z" />
    <glyph glyph-name="Eogonek" unicode="&#x118;" horiz-adv-x="622" 
d="M421 -102c0 21 8 47 60 102h-425v700h525v-110h-397v-182h369v-110h-369v-188h397v-110h-34c-38 -46 -42 -60 -42 -70c0 -14 9 -21 41 -21h26v-76h-62c-63 0 -89 24 -89 65z" />
    <glyph glyph-name="Eacute.biform" horiz-adv-x="762" 
d="M402 98c92 0 159 37 225 107l74 -82c-73 -81 -174 -139 -308 -139c-212 0 -362 151 -362 365c0 201 146 367 354 367c209 0 347 -151 347 -361c0 -23 -3 -42 -6 -57h-562c21 -128 123 -200 238 -200zM386 605c-108 0 -201 -73 -222 -200h437c-17 129 -100 200 -215 200z
M309 805l213 82l29 -82l-219 -67z" />
    <glyph glyph-name="Egrave.biform" horiz-adv-x="762" 
d="M402 98c92 0 159 37 225 107l74 -82c-73 -81 -174 -139 -308 -139c-212 0 -362 151 -362 365c0 201 146 367 354 367c209 0 347 -151 347 -361c0 -23 -3 -42 -6 -57h-562c21 -128 123 -200 238 -200zM386 605c-108 0 -201 -73 -222 -200h437c-17 129 -100 200 -215 200z
M474 805l-23 -67l-220 67l30 82z" />
    <glyph glyph-name="Ecircumflex.biform" horiz-adv-x="762" 
d="M402 98c92 0 159 37 225 107l74 -82c-73 -81 -174 -139 -308 -139c-212 0 -362 151 -362 365c0 201 146 367 354 367c209 0 347 -151 347 -361c0 -23 -3 -42 -6 -57h-562c21 -128 123 -200 238 -200zM386 605c-108 0 -201 -73 -222 -200h437c-17 129 -100 200 -215 200z
M225 791l147 90h38l148 -90l-28 -53l-139 54l-138 -54z" />
    <glyph glyph-name="uni1EC6.biform" horiz-adv-x="762" 
d="M402 98c92 0 159 37 225 107l74 -82c-73 -81 -174 -139 -308 -139c-212 0 -362 151 -362 365c0 201 146 367 354 367c209 0 347 -151 347 -361c0 -23 -3 -42 -6 -57h-562c21 -128 123 -200 238 -200zM386 605c-108 0 -201 -73 -222 -200h437c-17 129 -100 200 -215 200z
M225 791l147 90h38l148 -90l-28 -53l-139 54l-138 -54zM440 -49v-101h-100v101h100z" />
    <glyph glyph-name="uni1EBE.biform" horiz-adv-x="762" 
d="M402 98c92 0 159 37 225 107l74 -82c-73 -81 -174 -139 -308 -139c-212 0 -362 151 -362 365c0 201 146 367 354 367c209 0 347 -151 347 -361c0 -23 -3 -42 -6 -57h-562c21 -128 123 -200 238 -200zM386 605c-108 0 -201 -73 -222 -200h437c-17 129 -100 200 -215 200z
M446 911l136 55l22 -72l-142 -38zM226 787l146 84h38l147 -84l-21 -49l-145 51l-144 -51z" />
    <glyph glyph-name="uni1EC0.biform" horiz-adv-x="762" 
d="M402 98c92 0 159 37 225 107l74 -82c-73 -81 -174 -139 -308 -139c-212 0 -362 151 -362 365c0 201 146 367 354 367c209 0 347 -151 347 -361c0 -23 -3 -42 -6 -57h-562c21 -128 123 -200 238 -200zM386 605c-108 0 -201 -73 -222 -200h437c-17 129 -100 200 -215 200z
M571 901l-22 -51l-154 53l27 65zM226 787l146 84h38l147 -84l-21 -49l-145 51l-144 -51z" />
    <glyph glyph-name="uni1EC2.biform" horiz-adv-x="762" 
d="M402 98c92 0 159 37 225 107l74 -82c-73 -81 -174 -139 -308 -139c-212 0 -362 151 -362 365c0 201 146 367 354 367c209 0 347 -151 347 -361c0 -23 -3 -42 -6 -57h-562c21 -128 123 -200 238 -200zM386 605c-108 0 -201 -73 -222 -200h437c-17 129 -100 200 -215 200z
M473 852l-28 40c59 10 72 18 72 24c0 8 -9 16 -92 23v2l51 47c101 -10 129 -35 129 -63c0 -25 -31 -64 -132 -73zM226 787l146 84h38l147 -84l-21 -49l-145 51l-144 -51z" />
    <glyph glyph-name="uni1EC4.biform" horiz-adv-x="762" 
d="M402 98c92 0 159 37 225 107l74 -82c-73 -81 -174 -139 -308 -139c-212 0 -362 151 -362 365c0 201 146 367 354 367c209 0 347 -151 347 -361c0 -23 -3 -42 -6 -57h-562c21 -128 123 -200 238 -200zM386 605c-108 0 -201 -73 -222 -200h437c-17 129 -100 200 -215 200z
M402 967c33 -12 44 -15 54 -15c12 0 19 4 32 33l60 -10c-17 -74 -43 -95 -81 -95c-18 0 -29 3 -72 20c-33 13 -45 16 -54 16c-12 0 -19 -5 -32 -34l-60 11c16 74 42 95 80 95c18 0 30 -3 73 -21zM226 787l146 84h38l147 -84l-21 -49l-145 51l-144 -51z" />
    <glyph glyph-name="Ecaron.biform" horiz-adv-x="762" 
d="M402 98c92 0 159 37 225 107l74 -82c-73 -81 -174 -139 -308 -139c-212 0 -362 151 -362 365c0 201 146 367 354 367c209 0 347 -151 347 -361c0 -23 -3 -42 -6 -57h-562c21 -128 123 -200 238 -200zM386 605c-108 0 -201 -73 -222 -200h437c-17 129 -100 200 -215 200z
M225 829l28 52l139 -53l138 53l28 -52l-147 -91h-38z" />
    <glyph glyph-name="Ebreve.biform" horiz-adv-x="762" 
d="M402 98c92 0 159 37 225 107l74 -82c-73 -81 -174 -139 -308 -139c-212 0 -362 151 -362 365c0 201 146 367 354 367c209 0 347 -151 347 -361c0 -23 -3 -42 -6 -57h-562c21 -128 123 -200 238 -200zM386 605c-108 0 -201 -73 -222 -200h437c-17 129 -100 200 -215 200z
M391 822c43 0 75 13 95 54l73 -18c-23 -90 -86 -120 -168 -120s-145 30 -168 120l73 18c20 -40 52 -54 95 -54z" />
    <glyph glyph-name="uni1EBC.biform" horiz-adv-x="762" 
d="M402 98c92 0 159 37 225 107l74 -82c-73 -81 -174 -139 -308 -139c-212 0 -362 151 -362 365c0 201 146 367 354 367c209 0 347 -151 347 -361c0 -23 -3 -42 -6 -57h-562c21 -128 123 -200 238 -200zM386 605c-108 0 -201 -73 -222 -200h437c-17 129 -100 200 -215 200z
M560 858c-12 -102 -55 -123 -95 -123c-21 0 -38 6 -78 28c-35 18 -47 22 -57 22c-15 0 -25 -6 -36 -48l-72 11c12 102 55 122 95 122c21 0 38 -6 78 -27c35 -18 47 -22 57 -22c15 0 26 6 36 48z" />
    <glyph glyph-name="Emacron.biform" horiz-adv-x="762" 
d="M402 98c92 0 159 37 225 107l74 -82c-73 -81 -174 -139 -308 -139c-212 0 -362 151 -362 365c0 201 146 367 354 367c209 0 347 -151 347 -361c0 -23 -3 -42 -6 -57h-562c21 -128 123 -200 238 -200zM386 605c-108 0 -201 -73 -222 -200h437c-17 129 -100 200 -215 200z
M244 753v85h294v-85h-294z" />
    <glyph glyph-name="Edieresis.biform" horiz-adv-x="762" 
d="M402 98c92 0 159 37 225 107l74 -82c-73 -81 -174 -139 -308 -139c-212 0 -362 151 -362 365c0 201 146 367 354 367c209 0 347 -151 347 -361c0 -23 -3 -42 -6 -57h-562c21 -128 123 -200 238 -200zM386 605c-108 0 -201 -73 -222 -200h437c-17 129 -100 200 -215 200z
M351 848v-99h-98v99h98zM529 848v-99h-98v99h98z" />
    <glyph glyph-name="Edotaccent.biform" horiz-adv-x="762" 
d="M402 98c92 0 159 37 225 107l74 -82c-73 -81 -174 -139 -308 -139c-212 0 -362 151 -362 365c0 201 146 367 354 367c209 0 347 -151 347 -361c0 -23 -3 -42 -6 -57h-562c21 -128 123 -200 238 -200zM386 605c-108 0 -201 -73 -222 -200h437c-17 129 -100 200 -215 200z
M443 852v-105h-104v105h104z" />
    <glyph glyph-name="uni1EBA.biform" horiz-adv-x="762" 
d="M402 98c92 0 159 37 225 107l74 -82c-73 -81 -174 -139 -308 -139c-212 0 -362 151 -362 365c0 201 146 367 354 367c209 0 347 -151 347 -361c0 -23 -3 -42 -6 -57h-562c21 -128 123 -200 238 -200zM386 605c-108 0 -201 -73 -222 -200h437c-17 129 -100 200 -215 200z
M332 733l-32 42c63 9 78 23 78 33s-10 22 -92 28v2l53 54c106 -9 137 -41 137 -76c0 -30 -35 -75 -144 -83z" />
    <glyph glyph-name="uni1EB8.biform" horiz-adv-x="762" 
d="M402 98c92 0 159 37 225 107l74 -82c-73 -81 -174 -139 -308 -139c-212 0 -362 151 -362 365c0 201 146 367 354 367c209 0 347 -151 347 -361c0 -23 -3 -42 -6 -57h-562c21 -128 123 -200 238 -200zM386 605c-108 0 -201 -73 -222 -200h437c-17 129 -100 200 -215 200z
M440 -49v-101h-100v101h100z" />
    <glyph glyph-name="Eogonek.biform" horiz-adv-x="761" 
d="M393 -16c-212 0 -362 151 -362 365c0 201 146 367 354 367c209 0 347 -151 347 -361c0 -25 -3 -38 -6 -57h-562c21 -128 123 -200 238 -200c92 0 159 37 225 107l74 -82c-89 -132 -99 -167 -99 -188c0 -17 9 -26 41 -26h27v-76h-63c-62 0 -88 27 -88 70c0 27 5 59 46 119
c-52 -25 -112 -38 -172 -38zM386 605c-108 0 -201 -73 -222 -200h437c-17 129 -100 200 -215 200z" />
    <glyph glyph-name="Gcircumflex" unicode="&#x11c;" horiz-adv-x="772" 
d="M403 605c-136 0 -243 -108 -243 -254c0 -153 106 -256 238 -256c121 0 200 65 217 180h-239v105h360c2 -15 4 -35 4 -50c0 -208 -134 -346 -347 -346c-209 0 -362 154 -362 365c0 213 164 367 373 367c134 0 241 -63 298 -156l-90 -71c-53 79 -124 116 -209 116zM244 781
l147 90h38l148 -90l-28 -53l-139 54l-138 -54z" />
    <glyph glyph-name="Gcaron" unicode="&#x1e6;" horiz-adv-x="772" 
d="M403 605c-136 0 -243 -108 -243 -254c0 -153 106 -256 238 -256c121 0 200 65 217 180h-239v105h360c2 -15 4 -35 4 -50c0 -208 -134 -346 -347 -346c-209 0 -362 154 -362 365c0 213 164 367 373 367c134 0 241 -63 298 -156l-90 -71c-53 79 -124 116 -209 116zM244 829
l28 52l139 -53l138 53l28 -52l-147 -91h-38z" />
    <glyph glyph-name="Gbreve" unicode="&#x11e;" horiz-adv-x="772" 
d="M403 605c-136 0 -243 -108 -243 -254c0 -153 106 -256 238 -256c121 0 200 65 217 180h-239v105h360c2 -15 4 -35 4 -50c0 -208 -134 -346 -347 -346c-209 0 -362 154 -362 365c0 213 164 367 373 367c134 0 241 -63 298 -156l-90 -71c-53 79 -124 116 -209 116zM410 822
c43 0 75 13 95 54l73 -18c-23 -90 -86 -120 -168 -120s-145 30 -168 120l73 18c20 -40 52 -54 95 -54z" />
    <glyph glyph-name="uni1E20" unicode="&#x1e20;" horiz-adv-x="772" 
d="M403 605c-136 0 -243 -108 -243 -254c0 -153 106 -256 238 -256c121 0 200 65 217 180h-239v105h360c2 -15 4 -35 4 -50c0 -208 -134 -346 -347 -346c-209 0 -362 154 -362 365c0 213 164 367 373 367c134 0 241 -63 298 -156l-90 -71c-53 79 -124 116 -209 116zM263 753
v85h294v-85h-294z" />
    <glyph glyph-name="Gdotaccent" unicode="&#x120;" horiz-adv-x="772" 
d="M403 605c-136 0 -243 -108 -243 -254c0 -153 106 -256 238 -256c121 0 200 65 217 180h-239v105h360c2 -15 4 -35 4 -50c0 -208 -134 -346 -347 -346c-209 0 -362 154 -362 365c0 213 164 367 373 367c134 0 241 -63 298 -156l-90 -71c-53 79 -124 116 -209 116zM462 852
v-105h-104v105h104z" />
    <glyph glyph-name="uni0122" unicode="&#x122;" horiz-adv-x="772" 
d="M403 605c-136 0 -243 -108 -243 -254c0 -153 106 -256 238 -256c121 0 200 65 217 180h-239v105h360c2 -15 4 -35 4 -50c0 -208 -134 -346 -347 -346c-209 0 -362 154 -362 365c0 213 164 367 373 367c134 0 241 -63 298 -156l-90 -71c-53 79 -124 116 -209 116z
M365 -206l-32 40c46 15 59 26 59 39c0 11 -8 25 -73 35v2l53 52c93 -13 117 -45 117 -80c0 -34 -34 -69 -124 -88z" />
    <glyph glyph-name="Hcircumflex" unicode="&#x124;" horiz-adv-x="751" 
d="M56 700h128v-290h382v290h128v-700h-128v296h-382v-296h-128v700zM210 791l147 90h38l148 -90l-28 -53l-139 54l-138 -54z" />
    <glyph glyph-name="uni1E2A" unicode="&#x1e2a;" horiz-adv-x="751" 
d="M56 700h128v-290h382v290h128v-700h-128v296h-382v-296h-128v700zM376 -110c42 0 67 23 81 70l74 -12c-15 -99 -73 -138 -155 -138s-140 39 -155 138l74 12c14 -47 39 -70 81 -70z" />
    <glyph glyph-name="uni1E24" unicode="&#x1e24;" horiz-adv-x="751" 
d="M56 700h128v-290h382v290h128v-700h-128v296h-382v-296h-128v700zM426 -35v-101h-100v101h100z" />
    <glyph glyph-name="uni1E28" unicode="&#x1e28;" horiz-adv-x="751" 
d="M56 700h128v-290h382v290h128v-700h-128v296h-382v-296h-29l-12 -42h1c47 0 83 -25 83 -67c0 -44 -38 -79 -99 -79c-31 0 -62 8 -92 27l23 47c28 -14 45 -19 63 -19c24 0 33 11 33 22c0 12 -10 20 -29 20c-9 0 -19 -2 -33 -7l-27 8l-1 2l25 88h-34v700z" />
    <glyph glyph-name="Hbar" unicode="&#x126;" horiz-adv-x="811" 
d="M10 497v88h76v115h128v-115h382v115h128v-115h77v-88h-77v-497h-128v271h-382v-271h-128v497h-76zM214 384h382v113h-382v-113z" />
    <glyph glyph-name="Iacute" unicode="&#xcd;" horiz-adv-x="252" 
d="M62 700h128v-700h-128v700zM44 805l213 82l29 -82l-219 -67z" />
    <glyph glyph-name="Igrave" unicode="&#xcc;" horiz-adv-x="252" 
d="M62 700h128v-700h-128v700zM209 805l-23 -67l-220 67l30 82z" />
    <glyph glyph-name="Icircumflex" unicode="&#xce;" horiz-adv-x="252" 
d="M62 700h128v-700h-128v700zM-40 779l147 90h38l148 -90l-28 -53l-139 54l-138 -54z" />
    <glyph glyph-name="uni01CF" unicode="&#x1cf;" horiz-adv-x="252" 
d="M62 700h128v-700h-128v700zM-40 829l28 52l139 -53l138 53l28 -52l-147 -91h-38z" />
    <glyph glyph-name="Ibreve" unicode="&#x12c;" horiz-adv-x="252" 
d="M62 700h128v-700h-128v700zM126 822c43 0 75 13 95 54l73 -18c-23 -90 -86 -120 -168 -120s-145 30 -168 120l73 18c20 -40 52 -54 95 -54z" />
    <glyph glyph-name="Itilde" unicode="&#x128;" horiz-adv-x="252" 
d="M62 700h128v-700h-128v700zM295 858c-12 -102 -55 -123 -95 -123c-21 0 -38 6 -78 28c-35 18 -47 22 -57 22c-15 0 -25 -6 -36 -48l-72 11c12 102 55 122 95 122c21 0 38 -6 78 -27c35 -18 47 -22 57 -22c15 0 26 6 36 48z" />
    <glyph glyph-name="Imacron" unicode="&#x12a;" horiz-adv-x="252" 
d="M62 700h128v-700h-128v700zM15 753v85h222v-85h-222z" />
    <glyph glyph-name="Idieresis" unicode="&#xcf;" horiz-adv-x="252" 
d="M62 700h128v-700h-128v700zM86 848v-99h-98v99h98zM264 848v-99h-98v99h98z" />
    <glyph glyph-name="Idotaccent" unicode="&#x130;" horiz-adv-x="252" 
d="M62 700h128v-700h-128v700zM178 852v-105h-104v105h104z" />
    <glyph glyph-name="uni1EC8" unicode="&#x1ec8;" horiz-adv-x="252" 
d="M62 700h128v-700h-128v700zM67 733l-32 42c63 9 78 23 78 33s-10 22 -92 28v2l53 54c106 -9 137 -41 137 -76c0 -30 -35 -75 -144 -83z" />
    <glyph glyph-name="uni1ECA" unicode="&#x1eca;" horiz-adv-x="252" 
d="M62 700h128v-700h-128v700zM176 -49v-101h-100v101h100z" />
    <glyph glyph-name="Iogonek" unicode="&#x12e;" horiz-adv-x="252" 
d="M38 -102c0 21 7 47 59 102h-35v700h128v-700h-26c-38 -46 -43 -60 -43 -70c0 -14 9 -21 41 -21h26v-76h-62c-63 0 -88 24 -88 65z" />
    <glyph glyph-name="Jcircumflex" unicode="&#x134;" horiz-adv-x="616" 
d="M289 -16c-158 0 -264 88 -266 285h125c5 -119 58 -173 144 -173c88 0 145 53 145 171v433h128v-435c0 -180 -98 -281 -276 -281zM335 779l147 90h38l148 -90l-28 -53l-139 54l-138 -54z" />
    <glyph glyph-name="uni1E34" unicode="&#x1e34;" horiz-adv-x="694" 
d="M184 700v-311l329 311h169v-2l-370 -338l379 -358v-2h-174l-333 317v-317h-128v700h128zM227 -137v82h276v-82h-276z" />
    <glyph glyph-name="uni0136" unicode="&#x136;" horiz-adv-x="694" 
d="M184 700v-311l329 311h169v-2l-370 -338l379 -358v-2h-174l-333 317v-317h-128v700h128zM317 -206l-32 40c46 15 59 26 59 39c0 11 -8 25 -73 35v2l53 52c93 -13 117 -45 117 -80c0 -34 -34 -69 -124 -88z" />
    <glyph glyph-name="uni1E32" unicode="&#x1e32;" horiz-adv-x="694" 
d="M184 700v-311l329 311h169v-2l-370 -338l379 -358v-2h-174l-333 317v-317h-128v700h128zM415 -49v-101h-100v101h100z" />
    <glyph glyph-name="Lacute" unicode="&#x139;" horiz-adv-x="576" 
d="M56 700h128v-589h372v-111h-500v700zM38 805l213 82l29 -82l-219 -67z" />
    <glyph glyph-name="Lcaron" unicode="&#x13d;" horiz-adv-x="576" 
d="M56 700h128v-589h372v-111h-500v700zM271 525v175h101l-25 -175h-76z" />
    <glyph glyph-name="uni013B" unicode="&#x13b;" horiz-adv-x="576" 
d="M56 700h128v-589h372v-111h-500v700zM269 -206l-32 40c46 15 59 26 59 39c0 11 -8 25 -73 35v2l53 52c93 -13 117 -45 117 -80c0 -34 -34 -69 -124 -88z" />
    <glyph glyph-name="uni1E3C" unicode="&#x1e3c;" horiz-adv-x="576" 
d="M56 700h128v-589h372v-111h-500v700zM165 -142l133 104h38l133 -104l-35 -50l-117 66l-117 -66z" />
    <glyph glyph-name="uni1E3A" unicode="&#x1e3a;" horiz-adv-x="576" 
d="M56 700h128v-589h372v-111h-500v700zM179 -137v82h276v-82h-276z" />
    <glyph glyph-name="uni1E38" unicode="&#x1e38;" horiz-adv-x="576" 
d="M56 700h128v-589h372v-111h-500v700zM9 753v85h222v-85h-222zM367 -49v-101h-100v101h100z" />
    <glyph glyph-name="uni1E36" unicode="&#x1e36;" horiz-adv-x="576" 
d="M56 700h128v-589h372v-111h-500v700zM367 -49v-101h-100v101h100z" />
    <glyph glyph-name="Lslash" unicode="&#x141;" horiz-adv-x="606" 
d="M10 209v101l76 46v344h128v-267l193 117v-102l-193 -116v-221h372v-111h-500v255z" />
    <glyph glyph-name="uni1E3E" unicode="&#x1e3e;" horiz-adv-x="863" 
d="M807 700v-700h-127v556l-197 -374h-105l-195 373v-555h-127v700h183l192 -369l194 369h182zM346 791l213 82l29 -82l-219 -67z" />
    <glyph glyph-name="uni1E40" unicode="&#x1e40;" horiz-adv-x="863" 
d="M807 700v-700h-127v556l-197 -374h-105l-195 373v-555h-127v700h183l192 -369l194 369h182zM480 838v-105h-104v105h104z" />
    <glyph glyph-name="uni1E42" unicode="&#x1e42;" horiz-adv-x="863" 
d="M807 700v-700h-127v556l-197 -374h-105l-195 373v-555h-127v700h183l192 -369l194 369h182zM478 -49v-101h-100v101h100z" />
    <glyph glyph-name="uni1E3E.biform" horiz-adv-x="1148" 
d="M182 700v-80c43 57 113 94 201 94c100 0 173 -41 215 -111c45 66 126 111 237 111c169 0 261 -110 261 -283v-431h-128v411c0 125 -58 191 -154 191c-109 0 -174 -79 -174 -195v-407h-128v411c0 125 -56 191 -154 191c-108 0 -174 -77 -174 -195v-407h-128v700h126z
M514 795l213 82l29 -82l-219 -67z" />
    <glyph glyph-name="uni1E40.biform" horiz-adv-x="1148" 
d="M182 700v-80c43 57 113 94 201 94c100 0 173 -41 215 -111c45 66 126 111 237 111c169 0 261 -110 261 -283v-431h-128v411c0 125 -58 191 -154 191c-109 0 -174 -79 -174 -195v-407h-128v411c0 125 -56 191 -154 191c-108 0 -174 -77 -174 -195v-407h-128v700h126z
M648 842v-105h-104v105h104z" />
    <glyph glyph-name="uni1E42.biform" horiz-adv-x="1148" 
d="M182 700v-80c43 57 113 94 201 94c100 0 173 -41 215 -111c45 66 126 111 237 111c169 0 261 -110 261 -283v-431h-128v411c0 125 -58 191 -154 191c-109 0 -174 -79 -174 -195v-407h-128v411c0 125 -56 191 -154 191c-108 0 -174 -77 -174 -195v-407h-128v700h126z
M628 -49v-101h-100v101h100z" />
    <glyph glyph-name="Nacute" unicode="&#x143;" horiz-adv-x="753" 
d="M180 0h-124v700h133l383 -509v509h124v-700h-131l-385 512v-512zM297 791l213 82l29 -82l-219 -67z" />
    <glyph glyph-name="uni01F8" unicode="&#x1f8;" horiz-adv-x="753" 
d="M180 0h-124v700h133l383 -509v509h124v-700h-131l-385 512v-512zM462 791l-23 -67l-220 67l30 82z" />
    <glyph glyph-name="Ncaron" unicode="&#x147;" horiz-adv-x="753" 
d="M180 0h-124v700h133l383 -509v509h124v-700h-131l-385 512v-512zM213 815l28 52l139 -53l138 53l28 -52l-147 -91h-38z" />
    <glyph glyph-name="Ntilde" unicode="&#xd1;" horiz-adv-x="753" 
d="M180 0h-124v700h133l383 -509v509h124v-700h-131l-385 512v-512zM548 858c-12 -102 -55 -123 -95 -123c-21 0 -38 6 -78 28c-35 18 -47 22 -57 22c-15 0 -25 -6 -36 -48l-72 11c12 102 55 122 95 122c21 0 38 -6 78 -27c35 -18 47 -22 57 -22c15 0 26 6 36 48z" />
    <glyph glyph-name="uni1E44" unicode="&#x1e44;" horiz-adv-x="753" 
d="M180 0h-124v700h133l383 -509v509h124v-700h-131l-385 512v-512zM431 838v-105h-104v105h104z" />
    <glyph glyph-name="uni1E4A" unicode="&#x1e4a;" horiz-adv-x="753" 
d="M180 0h-124v700h133l383 -509v509h124v-700h-131l-385 512v-512zM227 -128l133 104h38l133 -104l-35 -50l-117 66l-117 -66z" />
    <glyph glyph-name="uni0145" unicode="&#x145;" horiz-adv-x="753" 
d="M180 0h-124v700h133l383 -509v509h124v-700h-131l-385 512v-512zM331 -192l-32 40c46 15 59 26 59 39c0 11 -8 25 -73 35v2l53 52c93 -13 117 -45 117 -80c0 -34 -34 -69 -124 -88z" />
    <glyph glyph-name="uni1E46" unicode="&#x1e46;" horiz-adv-x="753" 
d="M180 0h-124v700h133l383 -509v509h124v-700h-131l-385 512v-512zM429 -35v-101h-100v101h100z" />
    <glyph glyph-name="uni1E48" unicode="&#x1e48;" horiz-adv-x="753" 
d="M180 0h-124v700h133l383 -509v509h124v-700h-131l-385 512v-512zM241 -137v82h276v-82h-276z" />
    <glyph glyph-name="Eng" unicode="&#x14a;" horiz-adv-x="753" 
d="M180 0h-124v700h133l383 -509v509h124v-645c0 -159 -87 -235 -244 -235h-113v102h108c63 0 103 23 118 78l-385 512v-512z" />
    <glyph glyph-name="Nacute.biform" horiz-adv-x="747" 
d="M182 700v-93c47 65 127 107 228 107c183 0 285 -120 285 -310v-404h-128v387c0 135 -65 215 -181 215c-128 0 -202 -90 -202 -220v-382h-128v700h126zM299 803l213 82l29 -82l-219 -67z" />
    <glyph glyph-name="uni01F8.biform" horiz-adv-x="747" 
d="M182 700v-93c47 65 127 107 228 107c183 0 285 -120 285 -310v-404h-128v387c0 135 -65 215 -181 215c-128 0 -202 -90 -202 -220v-382h-128v700h126zM464 803l-23 -67l-220 67l30 82z" />
    <glyph glyph-name="Ncaron.biform" horiz-adv-x="747" 
d="M182 700v-93c47 65 127 107 228 107c183 0 285 -120 285 -310v-404h-128v387c0 135 -65 215 -181 215c-128 0 -202 -90 -202 -220v-382h-128v700h126zM215 827l28 52l139 -53l138 53l28 -52l-147 -91h-38z" />
    <glyph glyph-name="Ntilde.biform" horiz-adv-x="747" 
d="M182 700v-93c47 65 127 107 228 107c183 0 285 -120 285 -310v-404h-128v387c0 135 -65 215 -181 215c-128 0 -202 -90 -202 -220v-382h-128v700h126zM550 866c-12 -102 -55 -123 -95 -123c-21 0 -38 6 -78 28c-35 18 -47 22 -57 22c-15 0 -25 -6 -36 -48l-72 11
c12 102 55 122 95 122c21 0 38 -6 78 -27c35 -18 47 -22 57 -22c15 0 26 6 36 48z" />
    <glyph glyph-name="uni1E44.biform" horiz-adv-x="747" 
d="M182 700v-93c47 65 127 107 228 107c183 0 285 -120 285 -310v-404h-128v387c0 135 -65 215 -181 215c-128 0 -202 -90 -202 -220v-382h-128v700h126zM433 850v-105h-104v105h104z" />
    <glyph glyph-name="uni1E4A.biform" horiz-adv-x="747" 
d="M182 700v-93c47 65 127 107 228 107c183 0 285 -120 285 -310v-404h-128v387c0 135 -65 215 -181 215c-128 0 -202 -90 -202 -220v-382h-128v700h126zM232 -132l133 104h38l133 -104l-35 -50l-117 66l-117 -66z" />
    <glyph glyph-name="uni0145.biform" horiz-adv-x="747" 
d="M182 700v-93c47 65 127 107 228 107c183 0 285 -120 285 -310v-404h-128v387c0 135 -65 215 -181 215c-128 0 -202 -90 -202 -220v-382h-128v700h126zM336 -196l-32 40c46 15 59 26 59 39c0 11 -8 25 -73 35v2l53 52c93 -13 117 -45 117 -80c0 -34 -34 -69 -124 -88z" />
    <glyph glyph-name="uni1E46.biform" horiz-adv-x="747" 
d="M182 700v-93c47 65 127 107 228 107c183 0 285 -120 285 -310v-404h-128v387c0 135 -65 215 -181 215c-128 0 -202 -90 -202 -220v-382h-128v700h126zM434 -39v-101h-100v101h100z" />
    <glyph glyph-name="uni1E48.biform" horiz-adv-x="747" 
d="M182 700v-93c47 65 127 107 228 107c183 0 285 -120 285 -310v-404h-128v387c0 135 -65 215 -181 215c-128 0 -202 -90 -202 -220v-382h-128v700h126zM246 -137v82h276v-82h-276z" />
    <glyph glyph-name="Oacute" unicode="&#xd3;" horiz-adv-x="788" 
d="M395 716c209 0 362 -158 362 -365s-155 -367 -363 -367c-210 0 -363 158 -363 365s155 367 364 367zM395 96c134 0 232 109 232 253s-100 255 -233 255c-136 0 -234 -109 -234 -253s100 -255 235 -255zM310 805l213 82l29 -82l-219 -67z" />
    <glyph glyph-name="Ohungarumlaut" unicode="&#x150;" horiz-adv-x="788" 
d="M395 716c209 0 362 -158 362 -365s-155 -367 -363 -367c-210 0 -363 158 -363 365s155 367 364 367zM395 96c134 0 232 109 232 253s-100 255 -233 255c-136 0 -234 -109 -234 -253s100 -255 235 -255zM245 798l134 100l51 -72l-142 -88zM424 798l133 100l51 -72
l-141 -88z" />
    <glyph glyph-name="Ograve" unicode="&#xd2;" horiz-adv-x="788" 
d="M395 716c209 0 362 -158 362 -365s-155 -367 -363 -367c-210 0 -363 158 -363 365s155 367 364 367zM395 96c134 0 232 109 232 253s-100 255 -233 255c-136 0 -234 -109 -234 -253s100 -255 235 -255zM475 805l-23 -67l-220 67l30 82z" />
    <glyph glyph-name="Ocircumflex" unicode="&#xd4;" horiz-adv-x="788" 
d="M395 716c209 0 362 -158 362 -365s-155 -367 -363 -367c-210 0 -363 158 -363 365s155 367 364 367zM395 96c134 0 232 109 232 253s-100 255 -233 255c-136 0 -234 -109 -234 -253s100 -255 235 -255zM226 781l147 90h38l148 -90l-28 -53l-139 54l-138 -54z" />
    <glyph glyph-name="uni1ED8" unicode="&#x1ed8;" horiz-adv-x="788" 
d="M395 716c209 0 362 -158 362 -365s-155 -367 -363 -367c-210 0 -363 158 -363 365s155 367 364 367zM395 96c134 0 232 109 232 253s-100 255 -233 255c-136 0 -234 -109 -234 -253s100 -255 235 -255zM226 781l147 90h38l148 -90l-28 -53l-139 54l-138 -54zM443 -49
v-101h-100v101h100z" />
    <glyph glyph-name="uni1ED0" unicode="&#x1ed0;" horiz-adv-x="788" 
d="M395 716c209 0 362 -158 362 -365s-155 -367 -363 -367c-210 0 -363 158 -363 365s155 367 364 367zM395 96c134 0 232 109 232 253s-100 255 -233 255c-136 0 -234 -109 -234 -253s100 -255 235 -255zM447 901l136 55l22 -72l-142 -38zM227 777l146 84h38l147 -84
l-21 -49l-145 51l-144 -51z" />
    <glyph glyph-name="uni1ED2" unicode="&#x1ed2;" horiz-adv-x="788" 
d="M395 716c209 0 362 -158 362 -365s-155 -367 -363 -367c-210 0 -363 158 -363 365s155 367 364 367zM395 96c134 0 232 109 232 253s-100 255 -233 255c-136 0 -234 -109 -234 -253s100 -255 235 -255zM572 891l-22 -51l-154 53l27 65zM227 777l146 84h38l147 -84
l-21 -49l-145 51l-144 -51z" />
    <glyph glyph-name="uni1ED4" unicode="&#x1ed4;" horiz-adv-x="788" 
d="M395 716c209 0 362 -158 362 -365s-155 -367 -363 -367c-210 0 -363 158 -363 365s155 367 364 367zM395 96c134 0 232 109 232 253s-100 255 -233 255c-136 0 -234 -109 -234 -253s100 -255 235 -255zM474 842l-28 40c59 10 72 18 72 24c0 8 -9 16 -92 23v2l51 47
c101 -10 129 -35 129 -63c0 -25 -31 -64 -132 -73zM227 777l146 84h38l147 -84l-21 -49l-145 51l-144 -51z" />
    <glyph glyph-name="uni1ED6" unicode="&#x1ed6;" horiz-adv-x="788" 
d="M395 716c209 0 362 -158 362 -365s-155 -367 -363 -367c-210 0 -363 158 -363 365s155 367 364 367zM395 96c134 0 232 109 232 253s-100 255 -233 255c-136 0 -234 -109 -234 -253s100 -255 235 -255zM403 957c33 -12 44 -15 54 -15c12 0 19 4 32 33l60 -10
c-17 -74 -43 -95 -81 -95c-18 0 -29 3 -72 20c-33 13 -45 16 -54 16c-12 0 -19 -5 -32 -34l-60 11c16 74 42 95 80 95c18 0 30 -3 73 -21zM227 777l146 84h38l147 -84l-21 -49l-145 51l-144 -51z" />
    <glyph glyph-name="uni01D1" unicode="&#x1d1;" horiz-adv-x="788" 
d="M395 716c209 0 362 -158 362 -365s-155 -367 -363 -367c-210 0 -363 158 -363 365s155 367 364 367zM395 96c134 0 232 109 232 253s-100 255 -233 255c-136 0 -234 -109 -234 -253s100 -255 235 -255zM226 829l28 52l139 -53l138 53l28 -52l-147 -91h-38z" />
    <glyph glyph-name="Obreve" unicode="&#x14e;" horiz-adv-x="788" 
d="M395 716c209 0 362 -158 362 -365s-155 -367 -363 -367c-210 0 -363 158 -363 365s155 367 364 367zM395 96c134 0 232 109 232 253s-100 255 -233 255c-136 0 -234 -109 -234 -253s100 -255 235 -255zM392 822c43 0 75 13 95 54l73 -18c-23 -90 -86 -120 -168 -120
s-145 30 -168 120l73 18c20 -40 52 -54 95 -54z" />
    <glyph glyph-name="Otilde" unicode="&#xd5;" horiz-adv-x="788" 
d="M395 716c209 0 362 -158 362 -365s-155 -367 -363 -367c-210 0 -363 158 -363 365s155 367 364 367zM395 96c134 0 232 109 232 253s-100 255 -233 255c-136 0 -234 -109 -234 -253s100 -255 235 -255zM561 858c-12 -102 -55 -123 -95 -123c-21 0 -38 6 -78 28
c-35 18 -47 22 -57 22c-15 0 -25 -6 -36 -48l-72 11c12 102 55 122 95 122c21 0 38 -6 78 -27c35 -18 47 -22 57 -22c15 0 26 6 36 48z" />
    <glyph glyph-name="Omacron" unicode="&#x14c;" horiz-adv-x="788" 
d="M395 716c209 0 362 -158 362 -365s-155 -367 -363 -367c-210 0 -363 158 -363 365s155 367 364 367zM395 96c134 0 232 109 232 253s-100 255 -233 255c-136 0 -234 -109 -234 -253s100 -255 235 -255zM245 753v85h294v-85h-294z" />
    <glyph glyph-name="Odieresis" unicode="&#xd6;" horiz-adv-x="788" 
d="M395 716c209 0 362 -158 362 -365s-155 -367 -363 -367c-210 0 -363 158 -363 365s155 367 364 367zM395 96c134 0 232 109 232 253s-100 255 -233 255c-136 0 -234 -109 -234 -253s100 -255 235 -255zM352 848v-99h-98v99h98zM530 848v-99h-98v99h98z" />
    <glyph glyph-name="uni022E" unicode="&#x22e;" horiz-adv-x="788" 
d="M395 716c209 0 362 -158 362 -365s-155 -367 -363 -367c-210 0 -363 158 -363 365s155 367 364 367zM395 96c134 0 232 109 232 253s-100 255 -233 255c-136 0 -234 -109 -234 -253s100 -255 235 -255zM444 852v-105h-104v105h104z" />
    <glyph glyph-name="uni1ECE" unicode="&#x1ece;" horiz-adv-x="788" 
d="M395 716c209 0 362 -158 362 -365s-155 -367 -363 -367c-210 0 -363 158 -363 365s155 367 364 367zM395 96c134 0 232 109 232 253s-100 255 -233 255c-136 0 -234 -109 -234 -253s100 -255 235 -255zM333 733l-32 42c63 9 78 23 78 33s-10 22 -92 28v2l53 54
c106 -9 137 -41 137 -76c0 -30 -35 -75 -144 -83z" />
    <glyph glyph-name="uni1ECC" unicode="&#x1ecc;" horiz-adv-x="788" 
d="M395 716c209 0 362 -158 362 -365s-155 -367 -363 -367c-210 0 -363 158 -363 365s155 367 364 367zM395 96c134 0 232 109 232 253s-100 255 -233 255c-136 0 -234 -109 -234 -253s100 -255 235 -255zM443 -49v-101h-100v101h100z" />
    <glyph glyph-name="uni01EA" unicode="&#x1ea;" horiz-adv-x="788" 
d="M311 -102c0 19 7 42 47 88c-191 17 -327 168 -327 363c0 207 155 367 364 367s362 -158 362 -365c0 -197 -140 -351 -332 -366c-26 -34 -30 -46 -30 -55c0 -14 9 -21 41 -21h26v-76h-63c-62 0 -88 24 -88 65zM395 96c134 0 232 109 232 253s-100 255 -233 255
c-136 0 -234 -109 -234 -253s100 -255 235 -255z" />
    <glyph glyph-name="Oslash" unicode="&#xd8;" horiz-adv-x="788" 
d="M757 351c0 -207 -155 -367 -364 -367c-72 0 -138 21 -194 56l-40 -48h-118l88 107c-61 65 -98 153 -98 250c0 207 155 367 364 367c72 0 138 -21 194 -56l40 48h117l-87 -106c61 -65 98 -154 98 -251zM160 351c0 -63 17 -118 47 -161l306 383c-34 20 -74 31 -119 31
c-136 0 -234 -109 -234 -253zM627 349c0 63 -17 118 -46 161l-306 -383c34 -20 74 -31 119 -31c135 0 233 109 233 253z" />
    <glyph glyph-name="OE" unicode="&#x152;" horiz-adv-x="1093" 
d="M410 0c-232 0 -379 146 -379 349s149 351 381 351h640v-110h-396v-182h368v-110h-368v-188h396v-110h-642zM411 110h117v480h-117c-156 0 -251 -100 -251 -239s95 -241 251 -241z" />
    <glyph glyph-name="Ohorn" unicode="&#x1a0;" horiz-adv-x="808" 
d="M659 624c-18 0 -40 1 -65 4c100 -58 163 -161 163 -285c0 -202 -155 -359 -363 -359c-210 0 -363 155 -363 357s155 359 364 359h203c76 0 100 25 103 93h106c-4 -120 -59 -169 -148 -169zM160 343c0 -139 100 -247 235 -247c134 0 232 106 232 245
c0 140 -100 247 -233 247c-136 0 -234 -106 -234 -245z" />
    <glyph glyph-name="uni1EDA" unicode="&#x1eda;" horiz-adv-x="808" 
d="M659 624c-18 0 -40 1 -65 4c100 -58 163 -161 163 -285c0 -202 -155 -359 -363 -359c-210 0 -363 155 -363 357s155 359 364 359h203c76 0 100 25 103 93h106c-4 -120 -59 -169 -148 -169zM160 343c0 -139 100 -247 235 -247c134 0 232 106 232 245
c0 140 -100 247 -233 247c-136 0 -234 -106 -234 -245zM310 805l213 82l29 -82l-219 -67z" />
    <glyph glyph-name="uni1EDC" unicode="&#x1edc;" horiz-adv-x="808" 
d="M659 624c-18 0 -40 1 -65 4c100 -58 163 -161 163 -285c0 -202 -155 -359 -363 -359c-210 0 -363 155 -363 357s155 359 364 359h203c76 0 100 25 103 93h106c-4 -120 -59 -169 -148 -169zM160 343c0 -139 100 -247 235 -247c134 0 232 106 232 245
c0 140 -100 247 -233 247c-136 0 -234 -106 -234 -245zM475 805l-23 -67l-220 67l30 82z" />
    <glyph glyph-name="uni1EE0" unicode="&#x1ee0;" horiz-adv-x="808" 
d="M659 624c-18 0 -40 1 -65 4c100 -58 163 -161 163 -285c0 -202 -155 -359 -363 -359c-210 0 -363 155 -363 357s155 359 364 359h203c76 0 100 25 103 93h106c-4 -120 -59 -169 -148 -169zM160 343c0 -139 100 -247 235 -247c134 0 232 106 232 245
c0 140 -100 247 -233 247c-136 0 -234 -106 -234 -245zM561 858c-12 -102 -55 -123 -95 -123c-21 0 -38 6 -78 28c-35 18 -47 22 -57 22c-15 0 -25 -6 -36 -48l-72 11c12 102 55 122 95 122c21 0 38 -6 78 -27c35 -18 47 -22 57 -22c15 0 26 6 36 48z" />
    <glyph glyph-name="uni1EDE" unicode="&#x1ede;" horiz-adv-x="808" 
d="M659 624c-18 0 -40 1 -65 4c100 -58 163 -161 163 -285c0 -202 -155 -359 -363 -359c-210 0 -363 155 -363 357s155 359 364 359h203c76 0 100 25 103 93h106c-4 -120 -59 -169 -148 -169zM160 343c0 -139 100 -247 235 -247c134 0 232 106 232 245
c0 140 -100 247 -233 247c-136 0 -234 -106 -234 -245zM333 733l-32 42c63 9 78 23 78 33s-10 22 -92 28v2l53 54c106 -9 137 -41 137 -76c0 -30 -35 -75 -144 -83z" />
    <glyph glyph-name="uni1EE2" unicode="&#x1ee2;" horiz-adv-x="808" 
d="M659 624c-18 0 -40 1 -65 4c100 -58 163 -161 163 -285c0 -202 -155 -359 -363 -359c-210 0 -363 155 -363 357s155 359 364 359h203c76 0 100 25 103 93h106c-4 -120 -59 -169 -148 -169zM160 343c0 -139 100 -247 235 -247c134 0 232 106 232 245
c0 140 -100 247 -233 247c-136 0 -234 -106 -234 -245zM443 -49v-101h-100v101h100z" />
    <glyph glyph-name="Racute" unicode="&#x154;" horiz-adv-x="683" 
d="M661 0h-151l-166 266h-161v-266h-127v700h323c174 0 264 -83 264 -212c0 -105 -64 -174 -167 -201zM377 590h-194v-215h189c91 0 141 44 141 109c0 66 -45 106 -136 106zM265 805l213 82l29 -82l-219 -67z" />
    <glyph glyph-name="Rcaron" unicode="&#x158;" horiz-adv-x="683" 
d="M661 0h-151l-166 266h-161v-266h-127v700h323c174 0 264 -83 264 -212c0 -105 -64 -174 -167 -201zM377 590h-194v-215h189c91 0 141 44 141 109c0 66 -45 106 -136 106zM181 829l28 52l139 -53l138 53l28 -52l-147 -91h-38z" />
    <glyph glyph-name="uni1E58" unicode="&#x1e58;" horiz-adv-x="683" 
d="M661 0h-151l-166 266h-161v-266h-127v700h323c174 0 264 -83 264 -212c0 -105 -64 -174 -167 -201zM377 590h-194v-215h189c91 0 141 44 141 109c0 66 -45 106 -136 106zM399 852v-105h-104v105h104z" />
    <glyph glyph-name="uni1E5C" unicode="&#x1e5c;" horiz-adv-x="683" 
d="M661 0h-151l-166 266h-161v-266h-127v700h323c174 0 264 -83 264 -212c0 -105 -64 -174 -167 -201zM377 590h-194v-215h189c91 0 141 44 141 109c0 66 -45 106 -136 106zM200 753v85h294v-85h-294zM398 -49v-101h-100v101h100z" />
    <glyph glyph-name="uni0156" unicode="&#x156;" horiz-adv-x="683" 
d="M661 0h-151l-166 266h-161v-266h-127v700h323c174 0 264 -83 264 -212c0 -105 -64 -174 -167 -201zM377 590h-194v-215h189c91 0 141 44 141 109c0 66 -45 106 -136 106zM300 -206l-32 40c46 15 59 26 59 39c0 11 -8 25 -73 35v2l53 52c93 -13 117 -45 117 -80
c0 -34 -34 -69 -124 -88z" />
    <glyph glyph-name="uni1E5A" unicode="&#x1e5a;" horiz-adv-x="683" 
d="M661 0h-151l-166 266h-161v-266h-127v700h323c174 0 264 -83 264 -212c0 -105 -64 -174 -167 -201zM377 590h-194v-215h189c91 0 141 44 141 109c0 66 -45 106 -136 106zM398 -49v-101h-100v101h100z" />
    <glyph glyph-name="uni1E5E" unicode="&#x1e5e;" horiz-adv-x="683" 
d="M661 0h-151l-166 266h-161v-266h-127v700h323c174 0 264 -83 264 -212c0 -105 -64 -174 -167 -201zM377 590h-194v-215h189c91 0 141 44 141 109c0 66 -45 106 -136 106zM210 -137v82h276v-82h-276z" />
    <glyph glyph-name="Sacute" unicode="&#x15a;" horiz-adv-x="668" 
d="M333 297c-211 15 -283 73 -283 197c0 122 109 220 285 220c118 0 208 -40 281 -112l-71 -89c-55 54 -133 89 -214 89c-102 0 -155 -47 -155 -98c0 -53 32 -82 175 -90c207 -13 281 -77 281 -204c0 -124 -110 -224 -294 -224c-139 0 -238 45 -315 126l68 90
c74 -71 155 -104 251 -104c108 0 165 48 165 103c0 56 -34 88 -174 96zM262 805l213 82l29 -82l-219 -67z" />
    <glyph glyph-name="Scircumflex" unicode="&#x15c;" horiz-adv-x="668" 
d="M333 297c-211 15 -283 73 -283 197c0 122 109 220 285 220c118 0 208 -40 281 -112l-71 -89c-55 54 -133 89 -214 89c-102 0 -155 -47 -155 -98c0 -53 32 -82 175 -90c207 -13 281 -77 281 -204c0 -124 -110 -224 -294 -224c-139 0 -238 45 -315 126l68 90
c74 -71 155 -104 251 -104c108 0 165 48 165 103c0 56 -34 88 -174 96zM178 783l147 90h38l148 -90l-28 -53l-139 54l-138 -54z" />
    <glyph glyph-name="Scaron" unicode="&#x160;" horiz-adv-x="668" 
d="M333 297c-211 15 -283 73 -283 197c0 122 109 220 285 220c118 0 208 -40 281 -112l-71 -89c-55 54 -133 89 -214 89c-102 0 -155 -47 -155 -98c0 -53 32 -82 175 -90c207 -13 281 -77 281 -204c0 -124 -110 -224 -294 -224c-139 0 -238 45 -315 126l68 90
c74 -71 155 -104 251 -104c108 0 165 48 165 103c0 56 -34 88 -174 96zM178 829l28 52l139 -53l138 53l28 -52l-147 -91h-38z" />
    <glyph glyph-name="uni0218" unicode="&#x218;" horiz-adv-x="668" 
d="M333 297c-211 15 -283 73 -283 197c0 122 109 220 285 220c118 0 208 -40 281 -112l-71 -89c-55 54 -133 89 -214 89c-102 0 -155 -47 -155 -98c0 -53 32 -82 175 -90c207 -13 281 -77 281 -204c0 -124 -110 -224 -294 -224c-139 0 -238 45 -315 126l68 90
c74 -71 155 -104 251 -104c108 0 165 48 165 103c0 56 -34 88 -174 96zM305 -206l-32 40c46 15 59 26 59 39c0 11 -8 25 -73 35v2l53 52c93 -13 117 -45 117 -80c0 -34 -34 -69 -124 -88z" />
    <glyph glyph-name="uni1E62" unicode="&#x1e62;" horiz-adv-x="668" 
d="M333 297c-211 15 -283 73 -283 197c0 122 109 220 285 220c118 0 208 -40 281 -112l-71 -89c-55 54 -133 89 -214 89c-102 0 -155 -47 -155 -98c0 -53 32 -82 175 -90c207 -13 281 -77 281 -204c0 -124 -110 -224 -294 -224c-139 0 -238 45 -315 126l68 90
c74 -71 155 -104 251 -104c108 0 165 48 165 103c0 56 -34 88 -174 96zM403 -49v-101h-100v101h100z" />
    <glyph glyph-name="uni015E" unicode="&#x15e;" horiz-adv-x="668" 
d="M333 297c-211 15 -283 73 -283 197c0 122 109 220 285 220c118 0 208 -40 281 -112l-71 -89c-55 54 -133 89 -214 89c-102 0 -155 -47 -155 -98c0 -53 32 -82 175 -90c207 -13 281 -77 281 -204c0 -116 -97 -211 -260 -223l-8 -29c47 0 84 -25 84 -67
c0 -44 -38 -79 -100 -79c-30 0 -62 8 -92 27l24 47c28 -14 45 -19 63 -19c24 0 33 11 33 22c0 12 -10 20 -29 20c-10 0 -20 -2 -33 -7l-27 8l-1 2l21 75c-123 6 -213 50 -284 125l68 90c74 -71 155 -104 251 -104c108 0 165 48 165 103c0 56 -34 88 -174 96z" />
    <glyph glyph-name="uni1E9E" unicode="&#x1e9e;" horiz-adv-x="735" 
d="M663 538l-154 -152c128 -18 196 -89 196 -187c0 -120 -97 -213 -238 -213c-77 0 -136 23 -189 55l45 96c46 -27 85 -42 134 -42c77 0 121 46 121 102c0 58 -48 101 -171 101h-59v70l181 182c-39 36 -87 54 -149 54c-130 0 -205 -84 -205 -227v-377h-127v379
c0 201 125 337 338 337c115 0 217 -53 277 -136v-42z" />
    <glyph glyph-name="Tcaron" unicode="&#x164;" horiz-adv-x="677" 
d="M19 587v113h639v-113h-256v-587h-128v587h-255zM172 829l28 52l139 -53l138 53l28 -52l-147 -91h-38z" />
    <glyph glyph-name="uni1E70" unicode="&#x1e70;" horiz-adv-x="677" 
d="M19 587v113h639v-113h-256v-587h-128v587h-255zM186 -142l133 104h38l133 -104l-35 -50l-117 66l-117 -66z" />
    <glyph glyph-name="uni021A" unicode="&#x21a;" horiz-adv-x="677" 
d="M19 587v113h639v-113h-256v-587h-128v587h-255zM290 -206l-32 40c46 15 59 26 59 39c0 11 -8 25 -73 35v2l53 52c93 -13 117 -45 117 -80c0 -34 -34 -69 -124 -88z" />
    <glyph glyph-name="uni1E6C" unicode="&#x1e6c;" horiz-adv-x="677" 
d="M19 587v113h639v-113h-256v-587h-128v587h-255zM388 -49v-101h-100v101h100z" />
    <glyph glyph-name="uni1E6E" unicode="&#x1e6e;" horiz-adv-x="677" 
d="M19 587v113h639v-113h-256v-587h-128v587h-255zM200 -137v82h276v-82h-276z" />
    <glyph glyph-name="uni0162" unicode="&#x162;" horiz-adv-x="677" 
d="M19 587v113h639v-113h-256v-587h-34l-12 -42h1c47 0 83 -25 83 -67c0 -44 -38 -79 -99 -79c-31 0 -62 8 -92 27l23 47c28 -14 45 -19 63 -19c24 0 33 11 33 22c0 12 -10 20 -29 20c-9 0 -19 -2 -33 -7l-27 8l-1 2l25 88h-29v587h-255z" />
    <glyph glyph-name="Tbar" unicode="&#x166;" horiz-adv-x="677" 
d="M102 292v87h172v208h-255v113h639v-113h-256v-208h173v-87h-173v-292h-128v292h-172z" />
    <glyph glyph-name="Uacute" unicode="&#xda;" horiz-adv-x="753" 
d="M577 312v388h127v-390c0 -196 -130 -326 -330 -326c-197 0 -325 130 -325 326v390h128v-388c0 -130 82 -216 200 -216c120 0 200 86 200 216zM295 791l213 82l29 -82l-219 -67z" />
    <glyph glyph-name="Uhungarumlaut" unicode="&#x170;" horiz-adv-x="753" 
d="M577 312v388h127v-390c0 -196 -130 -326 -330 -326c-197 0 -325 130 -325 326v390h128v-388c0 -130 82 -216 200 -216c120 0 200 86 200 216zM230 798l134 100l51 -72l-142 -88zM409 798l133 100l51 -72l-141 -88z" />
    <glyph glyph-name="Ugrave" unicode="&#xd9;" horiz-adv-x="753" 
d="M577 312v388h127v-390c0 -196 -130 -326 -330 -326c-197 0 -325 130 -325 326v390h128v-388c0 -130 82 -216 200 -216c120 0 200 86 200 216zM460 791l-23 -67l-220 67l30 82z" />
    <glyph glyph-name="Ucircumflex" unicode="&#xdb;" horiz-adv-x="753" 
d="M577 312v388h127v-390c0 -196 -130 -326 -330 -326c-197 0 -325 130 -325 326v390h128v-388c0 -130 82 -216 200 -216c120 0 200 86 200 216zM211 791l147 90h38l148 -90l-28 -53l-139 54l-138 -54z" />
    <glyph glyph-name="uni01D3" unicode="&#x1d3;" horiz-adv-x="753" 
d="M577 312v388h127v-390c0 -196 -130 -326 -330 -326c-197 0 -325 130 -325 326v390h128v-388c0 -130 82 -216 200 -216c120 0 200 86 200 216zM211 815l28 52l139 -53l138 53l28 -52l-147 -91h-38z" />
    <glyph glyph-name="Ubreve" unicode="&#x16c;" horiz-adv-x="753" 
d="M577 312v388h127v-390c0 -196 -130 -326 -330 -326c-197 0 -325 130 -325 326v390h128v-388c0 -130 82 -216 200 -216c120 0 200 86 200 216zM377 808c43 0 75 13 95 54l73 -18c-23 -90 -86 -120 -168 -120s-145 30 -168 120l73 18c20 -40 52 -54 95 -54z" />
    <glyph glyph-name="Utilde" unicode="&#x168;" horiz-adv-x="753" 
d="M577 312v388h127v-390c0 -196 -130 -326 -330 -326c-197 0 -325 130 -325 326v390h128v-388c0 -130 82 -216 200 -216c120 0 200 86 200 216zM546 858c-12 -102 -55 -123 -95 -123c-21 0 -38 6 -78 28c-35 18 -47 22 -57 22c-15 0 -25 -6 -36 -48l-72 11
c12 102 55 122 95 122c21 0 38 -6 78 -27c35 -18 47 -22 57 -22c15 0 26 6 36 48z" />
    <glyph glyph-name="Umacron" unicode="&#x16a;" horiz-adv-x="753" 
d="M577 312v388h127v-390c0 -196 -130 -326 -330 -326c-197 0 -325 130 -325 326v390h128v-388c0 -130 82 -216 200 -216c120 0 200 86 200 216zM230 753v85h294v-85h-294z" />
    <glyph glyph-name="Udieresis" unicode="&#xdc;" horiz-adv-x="753" 
d="M577 312v388h127v-390c0 -196 -130 -326 -330 -326c-197 0 -325 130 -325 326v390h128v-388c0 -130 82 -216 200 -216c120 0 200 86 200 216zM337 848v-99h-98v99h98zM515 848v-99h-98v99h98z" />
    <glyph glyph-name="uni01D7" unicode="&#x1d7;" horiz-adv-x="753" 
d="M577 312v388h127v-390c0 -196 -130 -326 -330 -326c-197 0 -325 130 -325 326v390h128v-388c0 -130 82 -216 200 -216c120 0 200 86 200 216zM296 910l199 62l20 -72l-204 -46zM512 835v-86h-94v86h94zM336 835v-86h-94v86h94z" />
    <glyph glyph-name="uni01DB" unicode="&#x1db;" horiz-adv-x="753" 
d="M577 312v388h127v-390c0 -196 -130 -326 -330 -326c-197 0 -325 130 -325 326v390h128v-388c0 -130 82 -216 200 -216c120 0 200 86 200 216zM468 910l-14 -56l-204 46l19 72zM512 835v-86h-94v86h94zM336 835v-86h-94v86h94z" />
    <glyph glyph-name="uni01D9" unicode="&#x1d9;" horiz-adv-x="753" 
d="M577 312v388h127v-390c0 -196 -130 -326 -330 -326c-197 0 -325 130 -325 326v390h128v-388c0 -130 82 -216 200 -216c120 0 200 86 200 216zM230 929l24 45l124 -49l123 49l24 -45l-128 -76h-38zM512 835v-86h-94v86h94zM336 835v-86h-94v86h94z" />
    <glyph glyph-name="uni01D5" unicode="&#x1d5;" horiz-adv-x="753" 
d="M577 312v388h127v-390c0 -196 -130 -326 -330 -326c-197 0 -325 130 -325 326v390h128v-388c0 -130 82 -216 200 -216c120 0 200 86 200 216zM250 870v71h254v-71h-254zM512 835v-86h-94v86h94zM336 835v-86h-94v86h94z" />
    <glyph glyph-name="Uring" unicode="&#x16e;" horiz-adv-x="753" 
d="M577 312v388h127v-390c0 -196 -130 -326 -330 -326c-197 0 -325 130 -325 326v390h128v-388c0 -130 82 -216 200 -216c120 0 200 86 200 216zM376 722c-85 0 -138 46 -138 113s54 113 140 113c85 0 138 -46 138 -112c0 -68 -54 -114 -140 -114zM377 788c40 0 59 18 59 49
c0 28 -20 44 -59 44c-40 0 -59 -17 -59 -47c0 -29 21 -46 59 -46z" />
    <glyph glyph-name="uni1EE6" unicode="&#x1ee6;" horiz-adv-x="753" 
d="M577 312v388h127v-390c0 -196 -130 -326 -330 -326c-197 0 -325 130 -325 326v390h128v-388c0 -130 82 -216 200 -216c120 0 200 86 200 216zM318 719l-32 42c63 9 78 23 78 33s-10 22 -92 28v2l53 54c106 -9 137 -41 137 -76c0 -30 -35 -75 -144 -83z" />
    <glyph glyph-name="uni1EE4" unicode="&#x1ee4;" horiz-adv-x="753" 
d="M577 312v388h127v-390c0 -196 -130 -326 -330 -326c-197 0 -325 130 -325 326v390h128v-388c0 -130 82 -216 200 -216c120 0 200 86 200 216zM427 -49v-101h-100v101h100z" />
    <glyph glyph-name="Uogonek" unicode="&#x172;" horiz-adv-x="753" 
d="M288 -102c0 19 7 42 47 88c-175 16 -286 141 -286 324v390h128v-388c0 -130 82 -216 200 -216c120 0 200 86 200 216v388h127v-390c0 -187 -118 -313 -302 -325c-26 -35 -30 -46 -30 -55c0 -14 9 -21 41 -21h26v-76h-62c-63 0 -89 24 -89 65z" />
    <glyph glyph-name="Uhorn" unicode="&#x1af;" horiz-adv-x="814" 
d="M577 312v388h72c76 0 100 25 103 93h107c-4 -122 -58 -172 -143 -172h-12v-311c0 -196 -130 -326 -330 -326c-197 0 -325 130 -325 326v390h128v-388c0 -130 82 -216 200 -216c120 0 200 86 200 216z" />
    <glyph glyph-name="uni1EE8" unicode="&#x1ee8;" horiz-adv-x="814" 
d="M577 312v388h72c76 0 100 25 103 93h107c-4 -122 -58 -172 -143 -172h-12v-311c0 -196 -130 -326 -330 -326c-197 0 -325 130 -325 326v390h128v-388c0 -130 82 -216 200 -216c120 0 200 86 200 216zM295 800l213 82l29 -82l-219 -67z" />
    <glyph glyph-name="uni1EEA" unicode="&#x1eea;" horiz-adv-x="814" 
d="M577 312v388h72c76 0 100 25 103 93h107c-4 -122 -58 -172 -143 -172h-12v-311c0 -196 -130 -326 -330 -326c-197 0 -325 130 -325 326v390h128v-388c0 -130 82 -216 200 -216c120 0 200 86 200 216zM460 800l-23 -67l-220 67l30 82z" />
    <glyph glyph-name="uni1EEE" unicode="&#x1eee;" horiz-adv-x="814" 
d="M577 312v388h72c76 0 100 25 103 93h107c-4 -122 -58 -172 -143 -172h-12v-311c0 -196 -130 -326 -330 -326c-197 0 -325 130 -325 326v390h128v-388c0 -130 82 -216 200 -216c120 0 200 86 200 216zM546 858c-12 -102 -55 -123 -95 -123c-21 0 -38 6 -78 28
c-35 18 -47 22 -57 22c-15 0 -25 -6 -36 -48l-72 11c12 102 55 122 95 122c21 0 38 -6 78 -27c35 -18 47 -22 57 -22c15 0 26 6 36 48z" />
    <glyph glyph-name="uni1EEC" unicode="&#x1eec;" horiz-adv-x="814" 
d="M577 312v388h72c76 0 100 25 103 93h107c-4 -122 -58 -172 -143 -172h-12v-311c0 -196 -130 -326 -330 -326c-197 0 -325 130 -325 326v390h128v-388c0 -130 82 -216 200 -216c120 0 200 86 200 216zM318 728l-32 42c63 9 78 23 78 33s-10 22 -92 28v2l53 54
c106 -9 137 -41 137 -76c0 -30 -35 -75 -144 -83z" />
    <glyph glyph-name="uni1EF0" unicode="&#x1ef0;" horiz-adv-x="814" 
d="M577 312v388h72c76 0 100 25 103 93h107c-4 -122 -58 -172 -143 -172h-12v-311c0 -196 -130 -326 -330 -326c-197 0 -325 130 -325 326v390h128v-388c0 -130 82 -216 200 -216c120 0 200 86 200 216zM427 -49v-101h-100v101h100z" />
    <glyph glyph-name="uni1E7E" unicode="&#x1e7e;" horiz-adv-x="749" 
d="M6 700h138l232 -550l232 550h135l-301 -700h-134zM426 -49v-101h-100v101h100z" />
    <glyph glyph-name="Wacute" unicode="&#x1e82;" horiz-adv-x="998" 
d="M815 0h-145l-173 519l-171 -519h-145l-155 700h134l106 -538l172 538h123l171 -538l107 538h133zM416 805l213 82l29 -82l-219 -67z" />
    <glyph glyph-name="Wgrave" unicode="&#x1e80;" horiz-adv-x="998" 
d="M815 0h-145l-173 519l-171 -519h-145l-155 700h134l106 -538l172 538h123l171 -538l107 538h133zM581 805l-23 -67l-220 67l30 82z" />
    <glyph glyph-name="Wcircumflex" unicode="&#x174;" horiz-adv-x="998" 
d="M815 0h-145l-173 519l-171 -519h-145l-155 700h134l106 -538l172 538h123l171 -538l107 538h133zM332 791l147 90h38l148 -90l-28 -53l-139 54l-138 -54z" />
    <glyph glyph-name="Wdieresis" unicode="&#x1e84;" horiz-adv-x="998" 
d="M815 0h-145l-173 519l-171 -519h-145l-155 700h134l106 -538l172 538h123l171 -538l107 538h133zM458 848v-99h-98v99h98zM636 848v-99h-98v99h98z" />
    <glyph glyph-name="uni1E8C" unicode="&#x1e8c;" horiz-adv-x="729" 
d="M12 0l276 360l-260 340h157l179 -247l181 247h153l-258 -338l277 -362h-157l-198 270l-198 -270h-152zM324 848v-99h-98v99h98zM502 848v-99h-98v99h98z" />
    <glyph glyph-name="Yacute" unicode="&#xdd;" horiz-adv-x="697" 
d="M697 700l-285 -407v-293h-128v294l-284 406h151l199 -300l199 300h148zM268 791l213 82l29 -82l-219 -67z" />
    <glyph glyph-name="Ygrave" unicode="&#x1ef2;" horiz-adv-x="697" 
d="M697 700l-285 -407v-293h-128v294l-284 406h151l199 -300l199 300h148zM433 791l-23 -67l-220 67l30 82z" />
    <glyph glyph-name="Ycircumflex" unicode="&#x176;" horiz-adv-x="697" 
d="M697 700l-285 -407v-293h-128v294l-284 406h151l199 -300l199 300h148zM184 791l147 90h38l148 -90l-28 -53l-139 54l-138 -54z" />
    <glyph glyph-name="uni1EF8" unicode="&#x1ef8;" horiz-adv-x="697" 
d="M697 700l-285 -407v-293h-128v294l-284 406h151l199 -300l199 300h148zM519 858c-12 -102 -55 -123 -95 -123c-21 0 -38 6 -78 28c-35 18 -47 22 -57 22c-15 0 -25 -6 -36 -48l-72 11c12 102 55 122 95 122c21 0 38 -6 78 -27c35 -18 47 -22 57 -22c15 0 26 6 36 48z" />
    <glyph glyph-name="uni0232" unicode="&#x232;" horiz-adv-x="697" 
d="M697 700l-285 -407v-293h-128v294l-284 406h151l199 -300l199 300h148zM203 753v85h294v-85h-294z" />
    <glyph glyph-name="Ydieresis" unicode="&#x178;" horiz-adv-x="697" 
d="M697 700l-285 -407v-293h-128v294l-284 406h151l199 -300l199 300h148zM310 848v-99h-98v99h98zM488 848v-99h-98v99h98z" />
    <glyph glyph-name="uni1E8E" unicode="&#x1e8e;" horiz-adv-x="697" 
d="M697 700l-285 -407v-293h-128v294l-284 406h151l199 -300l199 300h148zM402 838v-105h-104v105h104z" />
    <glyph glyph-name="uni1EF6" unicode="&#x1ef6;" horiz-adv-x="697" 
d="M697 700l-285 -407v-293h-128v294l-284 406h151l199 -300l199 300h148zM291 719l-32 42c63 9 78 23 78 33s-10 22 -92 28v2l53 54c106 -9 137 -41 137 -76c0 -30 -35 -75 -144 -83z" />
    <glyph glyph-name="uni1EF4" unicode="&#x1ef4;" horiz-adv-x="697" 
d="M697 700l-285 -407v-293h-128v294l-284 406h151l199 -300l199 300h148zM400 -49v-101h-100v101h100z" />
    <glyph glyph-name="Zacute" unicode="&#x179;" horiz-adv-x="692" 
d="M28 0v94l446 500h-430v106h602v-94l-450 -500h467v-106h-635zM271 805l213 82l29 -82l-219 -67z" />
    <glyph glyph-name="uni1E90" unicode="&#x1e90;" horiz-adv-x="692" 
d="M28 0v94l446 500h-430v106h602v-94l-450 -500h467v-106h-635zM187 791l147 90h38l148 -90l-28 -53l-139 54l-138 -54z" />
    <glyph glyph-name="Zcaron" unicode="&#x17d;" horiz-adv-x="692" 
d="M28 0v94l446 500h-430v106h602v-94l-450 -500h467v-106h-635zM187 829l28 52l139 -53l138 53l28 -52l-147 -91h-38z" />
    <glyph glyph-name="Zdotaccent" unicode="&#x17b;" horiz-adv-x="692" 
d="M28 0v94l446 500h-430v106h602v-94l-450 -500h467v-106h-635zM405 852v-105h-104v105h104z" />
    <glyph glyph-name="uni1E92" unicode="&#x1e92;" horiz-adv-x="692" 
d="M28 0v94l446 500h-430v106h602v-94l-450 -500h467v-106h-635zM403 -49v-101h-100v101h100z" />
    <glyph glyph-name="uni1E94" unicode="&#x1e94;" horiz-adv-x="692" 
d="M28 0v94l446 500h-430v106h602v-94l-450 -500h467v-106h-635zM215 -137v82h276v-82h-276z" />
    <glyph glyph-name="Eth" unicode="&#xd0;" horiz-adv-x="767" 
d="M10 309v88h76v303h271c235 0 379 -142 379 -349c0 -203 -149 -351 -381 -351h-269v309h-76zM412 309h-198v-196h142c156 0 250 100 250 236s-94 238 -250 238h-142v-190h198v-88z" />
    <glyph glyph-name="Thorn" unicode="&#xde;" horiz-adv-x="659" 
d="M56 700h128v-123h193c164 0 260 -90 260 -225c0 -137 -111 -228 -274 -228h-179v-124h-128v700zM374 464h-190v-228h184c88 0 139 46 139 114c0 70 -48 114 -133 114z" />
    <glyph glyph-name="uni018F" unicode="&#x18f;" horiz-adv-x="762" 
d="M360 602c-92 0 -159 -37 -225 -107l-74 82c73 82 174 139 308 139c212 0 362 -150 362 -365c0 -200 -146 -367 -354 -367c-209 0 -347 152 -347 361c0 23 3 42 6 57h562c-21 128 -122 200 -238 200zM376 95c108 0 201 73 222 201h-437c16 -130 100 -201 215 -201z" />
    <glyph glyph-name="aacute" unicode="&#xe1;" horiz-adv-x="530" 
d="M377 0v62c-43 -50 -105 -73 -174 -73c-113 0 -184 63 -184 153c0 95 71 154 233 154h122c-1 75 -40 115 -113 115c-53 0 -102 -22 -148 -60l-56 78c53 45 124 79 215 79c140 0 219 -82 219 -221v-287h-114zM251 213c-86 0 -116 -26 -116 -68c0 -36 31 -68 91 -68
c71 0 143 45 148 136h-123zM181 595l182 101l36 -77l-190 -86z" />
    <glyph glyph-name="agrave" unicode="&#xe0;" horiz-adv-x="530" 
d="M377 0v62c-43 -50 -105 -73 -174 -73c-113 0 -184 63 -184 153c0 95 71 154 233 154h122c-1 75 -40 115 -113 115c-53 0 -102 -22 -148 -60l-56 78c53 45 124 79 215 79c140 0 219 -82 219 -221v-287h-114zM251 213c-86 0 -116 -26 -116 -68c0 -36 31 -68 91 -68
c71 0 143 45 148 136h-123zM349 595l-28 -62l-190 86l36 77z" />
    <glyph glyph-name="acircumflex" unicode="&#xe2;" horiz-adv-x="530" 
d="M377 0v62c-43 -50 -105 -73 -174 -73c-113 0 -184 63 -184 153c0 95 71 154 233 154h122c-1 75 -40 115 -113 115c-53 0 -102 -22 -148 -60l-56 78c53 45 124 79 215 79c140 0 219 -82 219 -221v-287h-114zM251 213c-86 0 -116 -26 -116 -68c0 -36 31 -68 91 -68
c71 0 143 45 148 136h-123zM113 575l133 104h38l133 -104l-35 -50l-117 66l-117 -66z" />
    <glyph glyph-name="uni1EAD" unicode="&#x1ead;" horiz-adv-x="530" 
d="M377 0v62c-43 -50 -105 -73 -174 -73c-113 0 -184 63 -184 153c0 95 71 154 233 154h122c-1 75 -40 115 -113 115c-53 0 -102 -22 -148 -60l-56 78c53 45 124 79 215 79c140 0 219 -82 219 -221v-287h-114zM251 213c-86 0 -116 -26 -116 -68c0 -36 31 -68 91 -68
c71 0 143 45 148 136h-123zM113 575l133 104h38l133 -104l-35 -50l-117 66l-117 -66zM311 -49v-101h-100v101h100z" />
    <glyph glyph-name="uni1EA5" unicode="&#x1ea5;" horiz-adv-x="530" 
d="M377 0v62c-43 -50 -105 -73 -174 -73c-113 0 -184 63 -184 153c0 95 71 154 233 154h122c-1 75 -40 115 -113 115c-53 0 -102 -22 -148 -60l-56 78c53 45 124 79 215 79c140 0 219 -82 219 -221v-287h-114zM251 213c-86 0 -116 -26 -116 -68c0 -36 31 -68 91 -68
c71 0 143 45 148 136h-123zM317 695l128 65l27 -66l-136 -49zM117 575l129 78h38l129 -78l-28 -50l-120 52l-120 -52z" />
    <glyph glyph-name="uni1EA7" unicode="&#x1ea7;" horiz-adv-x="530" 
d="M377 0v62c-43 -50 -105 -73 -174 -73c-113 0 -184 63 -184 153c0 95 71 154 233 154h122c-1 75 -40 115 -113 115c-53 0 -102 -22 -148 -60l-56 78c53 45 124 79 215 79c140 0 219 -82 219 -221v-287h-114zM251 213c-86 0 -116 -26 -116 -68c0 -36 31 -68 91 -68
c71 0 143 45 148 136h-123zM431 695l-17 -51l-160 48l25 67zM117 575l129 78h38l129 -78l-28 -50l-120 52l-120 -52z" />
    <glyph glyph-name="uni1EA9" unicode="&#x1ea9;" horiz-adv-x="530" 
d="M377 0v62c-43 -50 -105 -73 -174 -73c-113 0 -184 63 -184 153c0 95 71 154 233 154h122c-1 75 -40 115 -113 115c-53 0 -102 -22 -148 -60l-56 78c53 45 124 79 215 79c140 0 219 -82 219 -221v-287h-114zM251 213c-86 0 -116 -26 -116 -68c0 -36 31 -68 91 -68
c71 0 143 45 148 136h-123zM354 639l-26 38c48 15 61 20 61 31c0 9 -8 18 -75 28v2l44 42c90 -13 112 -36 112 -64c0 -30 -30 -60 -116 -77zM117 575l129 78h38l129 -78l-28 -50l-120 52l-120 -52z" />
    <glyph glyph-name="uni1EAB" unicode="&#x1eab;" horiz-adv-x="530" 
d="M377 0v62c-43 -50 -105 -73 -174 -73c-113 0 -184 63 -184 153c0 95 71 154 233 154h122c-1 75 -40 115 -113 115c-53 0 -102 -22 -148 -60l-56 78c53 45 124 79 215 79c140 0 219 -82 219 -221v-287h-114zM251 213c-86 0 -116 -26 -116 -68c0 -36 31 -68 91 -68
c71 0 143 45 148 136h-123zM275 748c26 -15 35 -16 43 -16c11 0 20 5 28 40l59 -10c-10 -83 -43 -99 -76 -99c-17 0 -32 3 -65 23c-27 15 -36 17 -44 17c-11 0 -20 -6 -28 -41l-59 10c10 83 43 99 76 99c17 0 32 -3 66 -23zM117 575l129 78h38l129 -78l-28 -50l-120 52
l-120 -52z" />
    <glyph glyph-name="uni01CE" unicode="&#x1ce;" horiz-adv-x="530" 
d="M377 0v62c-43 -50 -105 -73 -174 -73c-113 0 -184 63 -184 153c0 95 71 154 233 154h122c-1 75 -40 115 -113 115c-53 0 -102 -22 -148 -60l-56 78c53 45 124 79 215 79c140 0 219 -82 219 -221v-287h-114zM251 213c-86 0 -116 -26 -116 -68c0 -36 31 -68 91 -68
c71 0 143 45 148 136h-123zM417 638l-133 -103h-38l-133 103l35 51l117 -67l117 67z" />
    <glyph glyph-name="abreve" unicode="&#x103;" horiz-adv-x="530" 
d="M377 0v62c-43 -50 -105 -73 -174 -73c-113 0 -184 63 -184 153c0 95 71 154 233 154h122c-1 75 -40 115 -113 115c-53 0 -102 -22 -148 -60l-56 78c53 45 124 79 215 79c140 0 219 -82 219 -221v-287h-114zM251 213c-86 0 -116 -26 -116 -68c0 -36 31 -68 91 -68
c71 0 143 45 148 136h-123zM265 615c42 0 67 23 81 69l74 -12c-15 -99 -73 -137 -155 -137s-140 38 -155 137l74 12c14 -46 39 -69 81 -69z" />
    <glyph glyph-name="uni1EB7" unicode="&#x1eb7;" horiz-adv-x="530" 
d="M377 0v62c-43 -50 -105 -73 -174 -73c-113 0 -184 63 -184 153c0 95 71 154 233 154h122c-1 75 -40 115 -113 115c-53 0 -102 -22 -148 -60l-56 78c53 45 124 79 215 79c140 0 219 -82 219 -221v-287h-114zM251 213c-86 0 -116 -26 -116 -68c0 -36 31 -68 91 -68
c71 0 143 45 148 136h-123zM265 615c42 0 67 23 81 69l74 -12c-15 -99 -73 -137 -155 -137s-140 38 -155 137l74 12c14 -46 39 -69 81 -69zM311 -49v-101h-100v101h100z" />
    <glyph glyph-name="uni1EAF" unicode="&#x1eaf;" horiz-adv-x="530" 
d="M377 0v62c-43 -50 -105 -73 -174 -73c-113 0 -184 63 -184 153c0 95 71 154 233 154h122c-1 75 -40 115 -113 115c-53 0 -102 -22 -148 -60l-56 78c53 45 124 79 215 79c140 0 219 -82 219 -221v-287h-114zM251 213c-86 0 -116 -26 -116 -68c0 -36 31 -68 91 -68
c71 0 143 45 148 136h-123zM197 707l183 75l25 -68l-189 -60zM265 603c45 0 76 18 90 58l63 -12c-15 -83 -74 -114 -153 -114s-138 31 -153 114l63 12c15 -39 45 -58 90 -58z" />
    <glyph glyph-name="uni1EB1" unicode="&#x1eb1;" horiz-adv-x="530" 
d="M377 0v62c-43 -50 -105 -73 -174 -73c-113 0 -184 63 -184 153c0 95 71 154 233 154h122c-1 75 -40 115 -113 115c-53 0 -102 -22 -148 -60l-56 78c53 45 124 79 215 79c140 0 219 -82 219 -221v-287h-114zM251 213c-86 0 -116 -26 -116 -68c0 -36 31 -68 91 -68
c71 0 143 45 148 136h-123zM342 707l-19 -53l-189 60l25 68zM265 603c45 0 76 18 90 58l63 -12c-14 -83 -74 -114 -153 -114s-139 31 -153 114l63 12c15 -39 45 -58 90 -58z" />
    <glyph glyph-name="uni1EB3" unicode="&#x1eb3;" horiz-adv-x="530" 
d="M377 0v62c-43 -50 -105 -73 -174 -73c-113 0 -184 63 -184 153c0 95 71 154 233 154h122c-1 75 -40 115 -113 115c-53 0 -102 -22 -148 -60l-56 78c53 45 124 79 215 79c140 0 219 -82 219 -221v-287h-114zM251 213c-86 0 -116 -26 -116 -68c0 -36 31 -68 91 -68
c71 0 143 45 148 136h-123zM234 641l-26 38c49 15 61 21 61 32c0 9 -8 18 -75 28v2l45 41c89 -13 112 -36 112 -63c0 -31 -31 -60 -117 -78zM265 603c45 0 76 18 90 58l63 -12c-14 -83 -74 -114 -153 -114s-139 31 -153 114l63 12c15 -39 45 -58 90 -58z" />
    <glyph glyph-name="uni1EB5" unicode="&#x1eb5;" horiz-adv-x="530" 
d="M377 0v62c-43 -50 -105 -73 -174 -73c-113 0 -184 63 -184 153c0 95 71 154 233 154h122c-1 75 -40 115 -113 115c-53 0 -102 -22 -148 -60l-56 78c53 45 124 79 215 79c140 0 219 -82 219 -221v-287h-114zM251 213c-86 0 -116 -26 -116 -68c0 -36 31 -68 91 -68
c71 0 143 45 148 136h-123zM276 758c26 -15 35 -16 43 -16c11 0 20 5 28 40l59 -10c-10 -83 -42 -99 -75 -99c-18 0 -32 3 -66 23c-27 15 -36 17 -44 17c-11 0 -20 -6 -28 -41l-59 10c10 83 43 99 76 99c17 0 32 -3 66 -23zM265 603c45 0 76 18 90 58l63 -12
c-15 -83 -74 -114 -153 -114s-138 31 -153 114l63 12c15 -39 45 -58 90 -58z" />
    <glyph glyph-name="atilde" unicode="&#xe3;" horiz-adv-x="530" 
d="M377 0v62c-43 -50 -105 -73 -174 -73c-113 0 -184 63 -184 153c0 95 71 154 233 154h122c-1 75 -40 115 -113 115c-53 0 -102 -22 -148 -60l-56 78c53 45 124 79 215 79c140 0 219 -82 219 -221v-287h-114zM251 213c-86 0 -116 -26 -116 -68c0 -36 31 -68 91 -68
c71 0 143 45 148 136h-123zM277 641c27 -20 35 -25 43 -25c12 0 20 9 30 59l71 -11c-13 -108 -51 -131 -92 -131c-21 0 -36 6 -76 37c-27 20 -35 25 -43 25c-12 0 -20 -9 -30 -59l-71 11c13 108 51 131 92 131c21 0 36 -7 76 -37z" />
    <glyph glyph-name="amacron" unicode="&#x101;" horiz-adv-x="530" 
d="M377 0v62c-43 -50 -105 -73 -174 -73c-113 0 -184 63 -184 153c0 95 71 154 233 154h122c-1 75 -40 115 -113 115c-53 0 -102 -22 -148 -60l-56 78c53 45 124 79 215 79c140 0 219 -82 219 -221v-287h-114zM251 213c-86 0 -116 -26 -116 -68c0 -36 31 -68 91 -68
c71 0 143 45 148 136h-123zM127 550v81h276v-81h-276z" />
    <glyph glyph-name="adieresis" unicode="&#xe4;" horiz-adv-x="530" 
d="M377 0v62c-43 -50 -105 -73 -174 -73c-113 0 -184 63 -184 153c0 95 71 154 233 154h122c-1 75 -40 115 -113 115c-53 0 -102 -22 -148 -60l-56 78c53 45 124 79 215 79c140 0 219 -82 219 -221v-287h-114zM251 213c-86 0 -116 -26 -116 -68c0 -36 31 -68 91 -68
c71 0 143 45 148 136h-123zM235 641v-95h-95v95h95zM390 641v-95h-95v95h95z" />
    <glyph glyph-name="uni0227" unicode="&#x227;" horiz-adv-x="530" 
d="M377 0v62c-43 -50 -105 -73 -174 -73c-113 0 -184 63 -184 153c0 95 71 154 233 154h122c-1 75 -40 115 -113 115c-53 0 -102 -22 -148 -60l-56 78c53 45 124 79 215 79c140 0 219 -82 219 -221v-287h-114zM251 213c-86 0 -116 -26 -116 -68c0 -36 31 -68 91 -68
c71 0 143 45 148 136h-123zM315 644v-100h-100v100h100z" />
    <glyph glyph-name="aring" unicode="&#xe5;" horiz-adv-x="530" 
d="M377 0v62c-43 -50 -105 -73 -174 -73c-113 0 -184 63 -184 153c0 95 71 154 233 154h122c-1 75 -40 115 -113 115c-53 0 -102 -22 -148 -60l-56 78c53 45 124 79 215 79c140 0 219 -82 219 -221v-287h-114zM251 213c-86 0 -116 -26 -116 -68c0 -36 31 -68 91 -68
c71 0 143 45 148 136h-123zM264 533c-67 0 -119 46 -119 106c0 59 53 107 121 107c67 0 119 -49 119 -106c0 -61 -53 -107 -121 -107zM265 598c29 0 49 19 49 43c0 21 -19 39 -50 39c-28 0 -48 -19 -48 -42c0 -22 20 -40 49 -40z" />
    <glyph glyph-name="uni1EA3" unicode="&#x1ea3;" horiz-adv-x="530" 
d="M377 0v62c-43 -50 -105 -73 -174 -73c-113 0 -184 63 -184 153c0 95 71 154 233 154h122c-1 75 -40 115 -113 115c-53 0 -102 -22 -148 -60l-56 78c53 45 124 79 215 79c140 0 219 -82 219 -221v-287h-114zM251 213c-86 0 -116 -26 -116 -68c0 -36 31 -68 91 -68
c71 0 143 45 148 136h-123zM217 530l-32 40c46 15 59 26 59 39c0 11 -8 25 -73 35v2l53 52c93 -13 117 -45 117 -80c0 -34 -34 -69 -124 -88z" />
    <glyph glyph-name="uni1EA1" unicode="&#x1ea1;" horiz-adv-x="530" 
d="M377 0v62c-43 -50 -105 -73 -174 -73c-113 0 -184 63 -184 153c0 95 71 154 233 154h122c-1 75 -40 115 -113 115c-53 0 -102 -22 -148 -60l-56 78c53 45 124 79 215 79c140 0 219 -82 219 -221v-287h-114zM251 213c-86 0 -116 -26 -116 -68c0 -36 31 -68 91 -68
c71 0 143 45 148 136h-123zM311 -49v-101h-100v101h100z" />
    <glyph glyph-name="aogonek" unicode="&#x105;" horiz-adv-x="530" 
d="M341 -102c0 21 8 47 60 102h-24v62c-43 -50 -105 -73 -174 -73c-113 0 -184 63 -184 153c0 95 71 154 233 154h122c-1 75 -40 115 -113 115c-53 0 -102 -22 -148 -60l-56 78c53 45 124 79 215 79c140 0 219 -82 219 -221v-287h-24c-38 -46 -42 -60 -42 -70
c0 -14 9 -21 41 -21h26v-76h-63c-62 0 -88 24 -88 65zM251 213c-86 0 -116 -26 -116 -68c0 -36 31 -68 91 -68c71 0 143 45 148 136h-123z" />
    <glyph glyph-name="ae" unicode="&#xe6;" horiz-adv-x="897" 
d="M270 508c82 0 141 -31 175 -88c44 54 109 88 182 88c147 0 244 -101 244 -254c0 -15 -2 -31 -4 -42h-375c13 -84 75 -130 152 -130c52 0 103 22 146 70l62 -68c-53 -63 -123 -100 -219 -100c-85 0 -157 40 -202 104c-44 -65 -118 -104 -213 -104c-121 0 -199 60 -199 156
s71 156 233 156h122c-1 75 -40 115 -113 115c-53 0 -102 -22 -148 -60l-56 78c53 46 122 79 213 79zM627 412c-63 0 -117 -40 -133 -116h258c-13 73 -61 116 -125 116zM251 212c-86 0 -116 -26 -116 -69c0 -37 31 -68 91 -68c70 0 142 45 148 137h-123z" />
    <glyph glyph-name="uni1E07" unicode="&#x1e07;" horiz-adv-x="595" 
d="M45 0v700h120v-260c43 42 98 65 161 65c132 0 243 -99 243 -256c0 -160 -115 -261 -247 -261c-59 0 -117 22 -161 69v-57h-116zM161 246c0 -91 64 -155 144 -155c82 0 143 59 143 156s-61 156 -141 156c-81 0 -146 -67 -146 -157zM164 -137v82h276v-82h-276z" />
    <glyph glyph-name="cacute" unicode="&#x107;" horiz-adv-x="536" 
d="M287 -16c-160 0 -261 107 -261 262c0 149 115 262 264 262c111 0 186 -53 221 -139l-97 -51c-27 59 -68 88 -125 88c-83 0 -142 -69 -142 -160c0 -93 61 -159 146 -159c53 0 100 28 131 85l92 -50c-34 -78 -119 -138 -229 -138zM203 595l182 101l36 -77l-190 -86z" />
    <glyph glyph-name="ccircumflex" unicode="&#x109;" horiz-adv-x="536" 
d="M287 -16c-160 0 -261 107 -261 262c0 149 115 262 264 262c111 0 186 -53 221 -139l-97 -51c-27 59 -68 88 -125 88c-83 0 -142 -69 -142 -160c0 -93 61 -159 146 -159c53 0 100 28 131 85l92 -50c-34 -78 -119 -138 -229 -138zM135 573l133 104h38l133 -104l-35 -50
l-117 66l-117 -66z" />
    <glyph glyph-name="ccaron" unicode="&#x10d;" horiz-adv-x="536" 
d="M287 -16c-160 0 -261 107 -261 262c0 149 115 262 264 262c111 0 186 -53 221 -139l-97 -51c-27 59 -68 88 -125 88c-83 0 -142 -69 -142 -160c0 -93 61 -159 146 -159c53 0 100 28 131 85l92 -50c-34 -78 -119 -138 -229 -138zM439 638l-133 -103h-38l-133 103l35 51
l117 -67l117 67z" />
    <glyph glyph-name="cdotaccent" unicode="&#x10b;" horiz-adv-x="536" 
d="M287 -16c-160 0 -261 107 -261 262c0 149 115 262 264 262c111 0 186 -53 221 -139l-97 -51c-27 59 -68 88 -125 88c-83 0 -142 -69 -142 -160c0 -93 61 -159 146 -159c53 0 100 28 131 85l92 -50c-34 -78 -119 -138 -229 -138zM337 644v-100h-100v100h100z" />
    <glyph glyph-name="ccedilla" unicode="&#xe7;" horiz-adv-x="536" 
d="M389 -108c0 -45 -38 -79 -99 -79c-31 0 -62 8 -92 27l23 46c28 -13 45 -18 63 -18c24 0 33 10 33 21c0 12 -9 21 -29 21c-9 0 -19 -2 -33 -7l-27 8l-1 2l22 73c-138 16 -223 118 -223 260c0 149 115 262 264 262c111 0 186 -53 221 -139l-97 -51c-27 59 -68 88 -125 88
c-83 0 -142 -69 -142 -160c0 -93 61 -159 146 -159c53 0 100 28 131 85l92 -50c-31 -72 -106 -128 -203 -137l-7 -26c47 0 83 -25 83 -67z" />
    <glyph glyph-name="dcaron" unicode="&#x10f;" horiz-adv-x="595" 
d="M551 700v-700h-117v63c-43 -48 -101 -74 -168 -74c-129 0 -240 99 -240 257c0 159 117 260 250 260c56 0 112 -19 155 -61v255h120zM434 248c0 91 -63 155 -144 155s-143 -59 -143 -155c0 -98 61 -156 141 -156c82 0 146 66 146 156zM590 525v175h101l-25 -175h-76z" />
    <glyph glyph-name="uni1E13" unicode="&#x1e13;" horiz-adv-x="595" 
d="M551 700v-700h-117v63c-43 -48 -101 -74 -168 -74c-129 0 -240 99 -240 257c0 159 117 260 250 260c56 0 112 -19 155 -61v255h120zM434 248c0 91 -63 155 -144 155s-143 -59 -143 -155c0 -98 61 -156 141 -156c82 0 146 66 146 156zM146 -142l133 104h38l133 -104
l-35 -50l-117 66l-117 -66z" />
    <glyph glyph-name="uni1E0F" unicode="&#x1e0f;" horiz-adv-x="595" 
d="M551 700v-700h-117v63c-43 -48 -101 -74 -168 -74c-129 0 -240 99 -240 257c0 159 117 260 250 260c56 0 112 -19 155 -61v255h120zM434 248c0 91 -63 155 -144 155s-143 -59 -143 -155c0 -98 61 -156 141 -156c82 0 146 66 146 156zM160 -137v82h276v-82h-276z" />
    <glyph glyph-name="uni1E0D" unicode="&#x1e0d;" horiz-adv-x="595" 
d="M551 700v-700h-117v63c-43 -48 -101 -74 -168 -74c-129 0 -240 99 -240 257c0 159 117 260 250 260c56 0 112 -19 155 -61v255h120zM434 248c0 91 -63 155 -144 155s-143 -59 -143 -155c0 -98 61 -156 141 -156c82 0 146 66 146 156zM348 -49v-101h-100v101h100z" />
    <glyph glyph-name="dcroat" unicode="&#x111;" horiz-adv-x="625" 
d="M290 629h141v71h120v-71h67v-84h-67v-545h-117v62c-43 -47 -101 -73 -167 -73c-130 0 -241 96 -241 249c0 155 117 252 250 252c56 0 112 -19 155 -60v115h-141v84zM434 240c0 87 -63 148 -144 148s-143 -56 -143 -148c0 -93 61 -148 142 -148s145 63 145 148z" />
    <glyph glyph-name="eacute" unicode="&#xe9;" horiz-adv-x="555" 
d="M301 82c52 0 104 22 147 70l63 -68c-53 -63 -129 -100 -221 -100c-156 0 -264 105 -264 262c0 148 110 262 258 262c147 0 245 -103 245 -257c0 -17 -2 -33 -4 -45h-376c14 -80 76 -124 152 -124zM284 412c-65 0 -120 -42 -135 -122h261c-11 77 -60 122 -126 122z
M204 595l182 101l36 -77l-190 -86z" />
    <glyph glyph-name="egrave" unicode="&#xe8;" horiz-adv-x="555" 
d="M301 82c52 0 104 22 147 70l63 -68c-53 -63 -129 -100 -221 -100c-156 0 -264 105 -264 262c0 148 110 262 258 262c147 0 245 -103 245 -257c0 -17 -2 -33 -4 -45h-376c14 -80 76 -124 152 -124zM284 412c-65 0 -120 -42 -135 -122h261c-11 77 -60 122 -126 122z
M372 595l-28 -62l-190 86l36 77z" />
    <glyph glyph-name="ecircumflex" unicode="&#xea;" horiz-adv-x="555" 
d="M301 82c52 0 104 22 147 70l63 -68c-53 -63 -129 -100 -221 -100c-156 0 -264 105 -264 262c0 148 110 262 258 262c147 0 245 -103 245 -257c0 -17 -2 -33 -4 -45h-376c14 -80 76 -124 152 -124zM284 412c-65 0 -120 -42 -135 -122h261c-11 77 -60 122 -126 122z
M136 573l133 104h38l133 -104l-35 -50l-117 66l-117 -66z" />
    <glyph glyph-name="uni1EC7" unicode="&#x1ec7;" horiz-adv-x="555" 
d="M301 82c52 0 104 22 147 70l63 -68c-53 -63 -129 -100 -221 -100c-156 0 -264 105 -264 262c0 148 110 262 258 262c147 0 245 -103 245 -257c0 -17 -2 -33 -4 -45h-376c14 -80 76 -124 152 -124zM284 412c-65 0 -120 -42 -135 -122h261c-11 77 -60 122 -126 122z
M136 573l133 104h38l133 -104l-35 -50l-117 66l-117 -66zM338 -49v-101h-100v101h100z" />
    <glyph glyph-name="uni1EBF" unicode="&#x1ebf;" horiz-adv-x="555" 
d="M301 82c52 0 104 22 147 70l63 -68c-53 -63 -129 -100 -221 -100c-156 0 -264 105 -264 262c0 148 110 262 258 262c147 0 245 -103 245 -257c0 -17 -2 -33 -4 -45h-376c14 -80 76 -124 152 -124zM284 412c-65 0 -120 -42 -135 -122h261c-11 77 -60 122 -126 122z
M340 693l128 65l27 -66l-136 -49zM140 573l129 78h38l129 -78l-28 -50l-120 52l-120 -52z" />
    <glyph glyph-name="uni1EC1" unicode="&#x1ec1;" horiz-adv-x="555" 
d="M301 82c52 0 104 22 147 70l63 -68c-53 -63 -129 -100 -221 -100c-156 0 -264 105 -264 262c0 148 110 262 258 262c147 0 245 -103 245 -257c0 -17 -2 -33 -4 -45h-376c14 -80 76 -124 152 -124zM284 412c-65 0 -120 -42 -135 -122h261c-11 77 -60 122 -126 122z
M454 693l-17 -51l-160 48l25 67zM140 573l129 78h38l129 -78l-28 -50l-120 52l-120 -52z" />
    <glyph glyph-name="uni1EC3" unicode="&#x1ec3;" horiz-adv-x="555" 
d="M301 82c52 0 104 22 147 70l63 -68c-53 -63 -129 -100 -221 -100c-156 0 -264 105 -264 262c0 148 110 262 258 262c147 0 245 -103 245 -257c0 -17 -2 -33 -4 -45h-376c14 -80 76 -124 152 -124zM284 412c-65 0 -120 -42 -135 -122h261c-11 77 -60 122 -126 122z
M377 637l-26 38c48 15 61 20 61 31c0 9 -8 18 -75 28v2l44 42c90 -13 112 -36 112 -64c0 -30 -30 -60 -116 -77zM140 573l129 78h38l129 -78l-28 -50l-120 52l-120 -52z" />
    <glyph glyph-name="uni1EC5" unicode="&#x1ec5;" horiz-adv-x="555" 
d="M301 82c52 0 104 22 147 70l63 -68c-53 -63 -129 -100 -221 -100c-156 0 -264 105 -264 262c0 148 110 262 258 262c147 0 245 -103 245 -257c0 -17 -2 -33 -4 -45h-376c14 -80 76 -124 152 -124zM284 412c-65 0 -120 -42 -135 -122h261c-11 77 -60 122 -126 122z
M298 746c26 -15 35 -16 43 -16c11 0 20 5 28 40l59 -10c-10 -83 -43 -99 -76 -99c-17 0 -32 3 -65 23c-27 15 -36 17 -44 17c-11 0 -20 -6 -28 -41l-59 10c10 83 43 99 76 99c17 0 32 -3 66 -23zM140 573l129 78h38l129 -78l-28 -50l-120 52l-120 -52z" />
    <glyph glyph-name="ecaron" unicode="&#x11b;" horiz-adv-x="555" 
d="M301 82c52 0 104 22 147 70l63 -68c-53 -63 -129 -100 -221 -100c-156 0 -264 105 -264 262c0 148 110 262 258 262c147 0 245 -103 245 -257c0 -17 -2 -33 -4 -45h-376c14 -80 76 -124 152 -124zM284 412c-65 0 -120 -42 -135 -122h261c-11 77 -60 122 -126 122z
M440 638l-133 -103h-38l-133 103l35 51l117 -67l117 67z" />
    <glyph glyph-name="ebreve" unicode="&#x115;" horiz-adv-x="555" 
d="M301 82c52 0 104 22 147 70l63 -68c-53 -63 -129 -100 -221 -100c-156 0 -264 105 -264 262c0 148 110 262 258 262c147 0 245 -103 245 -257c0 -17 -2 -33 -4 -45h-376c14 -80 76 -124 152 -124zM284 412c-65 0 -120 -42 -135 -122h261c-11 77 -60 122 -126 122z
M288 615c42 0 67 23 81 69l74 -12c-15 -99 -73 -137 -155 -137s-140 38 -155 137l74 12c14 -46 39 -69 81 -69z" />
    <glyph glyph-name="uni1EBD" unicode="&#x1ebd;" horiz-adv-x="555" 
d="M301 82c52 0 104 22 147 70l63 -68c-53 -63 -129 -100 -221 -100c-156 0 -264 105 -264 262c0 148 110 262 258 262c147 0 245 -103 245 -257c0 -17 -2 -33 -4 -45h-376c14 -80 76 -124 152 -124zM284 412c-65 0 -120 -42 -135 -122h261c-11 77 -60 122 -126 122z
M300 641c27 -20 35 -25 43 -25c12 0 20 9 30 59l71 -11c-13 -108 -51 -131 -92 -131c-21 0 -36 6 -76 37c-27 20 -35 25 -43 25c-12 0 -20 -9 -30 -59l-71 11c13 108 51 131 92 131c21 0 36 -7 76 -37z" />
    <glyph glyph-name="emacron" unicode="&#x113;" horiz-adv-x="555" 
d="M301 82c52 0 104 22 147 70l63 -68c-53 -63 -129 -100 -221 -100c-156 0 -264 105 -264 262c0 148 110 262 258 262c147 0 245 -103 245 -257c0 -17 -2 -33 -4 -45h-376c14 -80 76 -124 152 -124zM284 412c-65 0 -120 -42 -135 -122h261c-11 77 -60 122 -126 122z
M150 550v81h276v-81h-276z" />
    <glyph glyph-name="edieresis" unicode="&#xeb;" horiz-adv-x="555" 
d="M301 82c52 0 104 22 147 70l63 -68c-53 -63 -129 -100 -221 -100c-156 0 -264 105 -264 262c0 148 110 262 258 262c147 0 245 -103 245 -257c0 -17 -2 -33 -4 -45h-376c14 -80 76 -124 152 -124zM284 412c-65 0 -120 -42 -135 -122h261c-11 77 -60 122 -126 122z
M258 641v-95h-95v95h95zM413 641v-95h-95v95h95z" />
    <glyph glyph-name="edotaccent" unicode="&#x117;" horiz-adv-x="555" 
d="M301 82c52 0 104 22 147 70l63 -68c-53 -63 -129 -100 -221 -100c-156 0 -264 105 -264 262c0 148 110 262 258 262c147 0 245 -103 245 -257c0 -17 -2 -33 -4 -45h-376c14 -80 76 -124 152 -124zM284 412c-65 0 -120 -42 -135 -122h261c-11 77 -60 122 -126 122z
M338 644v-100h-100v100h100z" />
    <glyph glyph-name="uni1EBB" unicode="&#x1ebb;" horiz-adv-x="555" 
d="M301 82c52 0 104 22 147 70l63 -68c-53 -63 -129 -100 -221 -100c-156 0 -264 105 -264 262c0 148 110 262 258 262c147 0 245 -103 245 -257c0 -17 -2 -33 -4 -45h-376c14 -80 76 -124 152 -124zM284 412c-65 0 -120 -42 -135 -122h261c-11 77 -60 122 -126 122z
M240 530l-32 40c46 15 59 26 59 39c0 11 -8 25 -73 35v2l53 52c93 -13 117 -45 117 -80c0 -34 -34 -69 -124 -88z" />
    <glyph glyph-name="uni1EB9" unicode="&#x1eb9;" horiz-adv-x="555" 
d="M301 82c52 0 104 22 147 70l63 -68c-53 -63 -129 -100 -221 -100c-156 0 -264 105 -264 262c0 148 110 262 258 262c147 0 245 -103 245 -257c0 -17 -2 -33 -4 -45h-376c14 -80 76 -124 152 -124zM284 412c-65 0 -120 -42 -135 -122h261c-11 77 -60 122 -126 122z
M338 -49v-101h-100v101h100z" />
    <glyph glyph-name="eogonek" unicode="&#x119;" horiz-adv-x="555" 
d="M494 -91v-76h-63c-61 0 -88 26 -88 66c0 24 8 54 43 101c-29 -11 -61 -16 -96 -16c-156 0 -264 105 -264 262c0 148 111 262 259 262c146 0 244 -103 244 -257c0 -17 -2 -33 -4 -45h-376c14 -80 76 -124 152 -124c52 0 104 22 147 70l63 -68c-79 -118 -85 -136 -85 -152
c0 -15 10 -23 42 -23h26zM284 412c-65 0 -120 -42 -135 -122h261c-11 77 -60 122 -126 122z" />
    <glyph glyph-name="gcircumflex" unicode="&#x11d;" horiz-adv-x="595" 
d="M431 55v24c-45 -43 -104 -67 -168 -67c-129 0 -238 92 -238 245c0 148 109 249 246 249c60 0 119 -22 163 -69v57h116v-436c0 -150 -73 -238 -269 -238h-134v99h138c97 0 146 46 146 136zM434 258c0 83 -64 145 -145 145s-142 -54 -142 -144c0 -89 61 -145 142 -145
s145 62 145 144zM155 575l133 104h38l133 -104l-35 -50l-117 66l-117 -66z" />
    <glyph glyph-name="gcaron" unicode="&#x1e7;" horiz-adv-x="595" 
d="M431 55v24c-45 -43 -104 -67 -168 -67c-129 0 -238 92 -238 245c0 148 109 249 246 249c60 0 119 -22 163 -69v57h116v-436c0 -150 -73 -238 -269 -238h-134v99h138c97 0 146 46 146 136zM434 258c0 83 -64 145 -145 145s-142 -54 -142 -144c0 -89 61 -145 142 -145
s145 62 145 144zM459 638l-133 -103h-38l-133 103l35 51l117 -67l117 67z" />
    <glyph glyph-name="gbreve" unicode="&#x11f;" horiz-adv-x="595" 
d="M431 55v24c-45 -43 -104 -67 -168 -67c-129 0 -238 92 -238 245c0 148 109 249 246 249c60 0 119 -22 163 -69v57h116v-436c0 -150 -73 -238 -269 -238h-134v99h138c97 0 146 46 146 136zM434 258c0 83 -64 145 -145 145s-142 -54 -142 -144c0 -89 61 -145 142 -145
s145 62 145 144zM307 615c42 0 67 23 81 69l74 -12c-15 -99 -73 -137 -155 -137s-140 38 -155 137l74 12c14 -46 39 -69 81 -69z" />
    <glyph glyph-name="uni1E21" unicode="&#x1e21;" horiz-adv-x="595" 
d="M431 55v24c-45 -43 -104 -67 -168 -67c-129 0 -238 92 -238 245c0 148 109 249 246 249c60 0 119 -22 163 -69v57h116v-436c0 -150 -73 -238 -269 -238h-134v99h138c97 0 146 46 146 136zM434 258c0 83 -64 145 -145 145s-142 -54 -142 -144c0 -89 61 -145 142 -145
s145 62 145 144zM169 550v81h276v-81h-276z" />
    <glyph glyph-name="gdotaccent" unicode="&#x121;" horiz-adv-x="595" 
d="M431 55v24c-45 -43 -104 -67 -168 -67c-129 0 -238 92 -238 245c0 148 109 249 246 249c60 0 119 -22 163 -69v57h116v-436c0 -150 -73 -238 -269 -238h-134v99h138c97 0 146 46 146 136zM434 258c0 83 -64 145 -145 145s-142 -54 -142 -144c0 -89 61 -145 142 -145
s145 62 145 144zM357 644v-100h-100v100h100z" />
    <glyph glyph-name="uni0123" unicode="&#x123;" horiz-adv-x="595" 
d="M431 55v24c-45 -43 -104 -67 -168 -67c-129 0 -238 92 -238 245c0 148 109 249 246 249c60 0 119 -22 163 -69v57h116v-436c0 -150 -73 -238 -269 -238h-134v99h138c97 0 146 46 146 136zM434 258c0 83 -64 145 -145 145s-142 -54 -142 -144c0 -89 61 -145 142 -145
s145 62 145 144zM337 698l32 -40c-46 -15 -59 -26 -59 -39c0 -11 8 -24 73 -35v-2l-53 -52c-93 13 -117 45 -117 80c0 34 33 69 124 88z" />
    <glyph glyph-name="hcircumflex" unicode="&#x125;" horiz-adv-x="567" 
d="M165 700v-261c37 43 90 67 157 67c135 0 205 -90 205 -228v-278h-120v267c0 81 -40 135 -117 135s-125 -59 -125 -141v-261h-120v700h120zM-48 777l133 104h38l133 -104l-35 -50l-117 66l-117 -66z" />
    <glyph glyph-name="uni1E2B" unicode="&#x1e2b;" horiz-adv-x="567" 
d="M165 700v-261c37 43 90 67 157 67c135 0 205 -90 205 -228v-278h-120v267c0 81 -40 135 -117 135s-125 -59 -125 -141v-261h-120v700h120zM286 -110c42 0 67 23 81 70l74 -12c-15 -99 -73 -138 -155 -138s-140 39 -155 138l74 12c14 -47 39 -70 81 -70z" />
    <glyph glyph-name="uni1E96" unicode="&#x1e96;" horiz-adv-x="567" 
d="M165 700v-261c37 43 90 67 157 67c135 0 205 -90 205 -228v-278h-120v267c0 81 -40 135 -117 135s-125 -59 -125 -141v-261h-120v700h120zM148 -137v82h276v-82h-276z" />
    <glyph glyph-name="uni1E25" unicode="&#x1e25;" horiz-adv-x="567" 
d="M165 700v-261c37 43 90 67 157 67c135 0 205 -90 205 -228v-278h-120v267c0 81 -40 135 -117 135s-125 -59 -125 -141v-261h-120v700h120zM336 -49v-101h-100v101h100z" />
    <glyph glyph-name="uni1E29" unicode="&#x1e29;" horiz-adv-x="567" 
d="M165 700v-261c37 43 90 67 157 67c135 0 205 -90 205 -228v-278h-120v267c0 81 -40 135 -117 135s-125 -59 -125 -141v-261h-24l-11 -42c47 0 83 -25 83 -67c0 -44 -37 -79 -99 -79c-31 0 -62 8 -92 27l24 47c27 -14 44 -19 62 -19c25 0 34 11 34 22c0 12 -10 20 -30 20
c-9 0 -19 -2 -33 -7l-26 8l-1 2l25 88h-32v700h120z" />
    <glyph glyph-name="hbar" unicode="&#x127;" horiz-adv-x="597" 
d="M7 545v84h68v71h120v-71h140v-84h-140v-122c37 43 90 67 157 67c135 0 205 -89 205 -227v-263h-120v252c0 80 -40 135 -117 135s-125 -59 -125 -141v-246h-120v545h-68z" />
    <glyph glyph-name="dotlessi" unicode="&#x131;" horiz-adv-x="224" 
d="M52 494h120v-494h-120v494z" />
    <glyph glyph-name="iacute" unicode="&#xed;" horiz-adv-x="224" 
d="M52 494h120v-494h-120v494zM28 595l182 101l36 -77l-190 -86z" />
    <glyph glyph-name="igrave" unicode="&#xec;" horiz-adv-x="224" 
d="M52 494h120v-494h-120v494zM196 595l-28 -62l-190 86l36 77z" />
    <glyph glyph-name="icircumflex" unicode="&#xee;" horiz-adv-x="224" 
d="M52 494h120v-494h-120v494zM-40 573l133 104h38l133 -104l-35 -50l-117 66l-117 -66z" />
    <glyph glyph-name="uni01D0" unicode="&#x1d0;" horiz-adv-x="224" 
d="M52 494h120v-494h-120v494zM264 638l-133 -103h-38l-133 103l35 51l117 -67l117 67z" />
    <glyph glyph-name="ibreve" unicode="&#x12d;" horiz-adv-x="224" 
d="M52 494h120v-494h-120v494zM112 615c42 0 67 23 81 69l74 -12c-15 -99 -73 -137 -155 -137s-140 38 -155 137l74 12c14 -46 39 -69 81 -69z" />
    <glyph glyph-name="itilde" unicode="&#x129;" horiz-adv-x="224" 
d="M52 494h120v-494h-120v494zM124 641c27 -20 35 -25 43 -25c12 0 20 9 30 59l71 -11c-13 -108 -51 -131 -92 -131c-21 0 -36 6 -76 37c-27 20 -35 25 -43 25c-12 0 -20 -9 -30 -59l-71 11c13 108 51 131 92 131c21 0 36 -7 76 -37z" />
    <glyph glyph-name="imacron" unicode="&#x12b;" horiz-adv-x="224" 
d="M52 494h120v-494h-120v494zM6 550v81h212v-81h-212z" />
    <glyph glyph-name="idieresis" unicode="&#xef;" horiz-adv-x="224" 
d="M52 494h120v-494h-120v494zM82 641v-95h-95v95h95zM237 641v-95h-95v95h95z" />
    <glyph glyph-name="i.dot" horiz-adv-x="224" 
d="M52 494h120v-494h-120v494zM162 644v-100h-100v100h100z" />
    <glyph glyph-name="uni1EC9" unicode="&#x1ec9;" horiz-adv-x="224" 
d="M52 494h120v-494h-120v494zM64 530l-32 40c46 15 59 26 59 39c0 11 -8 25 -73 35v2l53 52c93 -13 117 -45 117 -80c0 -34 -34 -69 -124 -88z" />
    <glyph glyph-name="uni1ECB" unicode="&#x1ecb;" horiz-adv-x="224" 
d="M176 700v-121h-128v121h128zM52 494h120v-494h-120v494zM162 -49v-101h-100v101h100z" />
    <glyph glyph-name="iogonek" unicode="&#x12f;" horiz-adv-x="224" 
d="M176 700v-121h-128v121h128zM24 -102c0 21 7 47 59 102h-31v494h120v-494h-22c-38 -46 -43 -60 -43 -70c0 -14 9 -21 41 -21h27v-76h-63c-62 0 -88 24 -88 65z" />
    <glyph glyph-name="uni0237" unicode="&#x237;" horiz-adv-x="226" 
d="M175 -20c0 -107 -62 -160 -162 -160h-56v95h39c37 0 58 20 58 60v519h121v-514z" />
    <glyph glyph-name="jcircumflex" unicode="&#x135;" horiz-adv-x="226" 
d="M175 -20c0 -107 -62 -160 -162 -160h-56v95h39c37 0 58 20 58 60v519h121v-514zM-38 573l133 104h38l133 -104l-35 -50l-117 66l-117 -66z" />
    <glyph glyph-name="uni01F0" unicode="&#x1f0;" horiz-adv-x="226" 
d="M175 -20c0 -107 -62 -160 -162 -160h-56v95h39c37 0 58 20 58 60v519h121v-514zM266 638l-133 -103h-38l-133 103l35 51l117 -67l117 67z" />
    <glyph glyph-name="uni1E35" unicode="&#x1e35;" horiz-adv-x="513" 
d="M165 700v-405l196 199h152v-2l-246 -237l249 -253v-2h-156l-195 210v-210h-120v700h120zM129 -137v82h276v-82h-276z" />
    <glyph glyph-name="uni0137" unicode="&#x137;" horiz-adv-x="513" 
d="M165 700v-405l196 199h152v-2l-246 -237l249 -253v-2h-156l-195 210v-210h-120v700h120zM219 -206l-32 40c46 15 59 26 59 39c0 11 -8 25 -73 35v2l53 52c93 -13 117 -45 117 -80c0 -34 -34 -69 -124 -88z" />
    <glyph glyph-name="uni1E33" unicode="&#x1e33;" horiz-adv-x="513" 
d="M165 700v-405l196 199h152v-2l-246 -237l249 -253v-2h-156l-195 210v-210h-120v700h120zM317 -49v-101h-100v101h100z" />
    <glyph glyph-name="lacute" unicode="&#x13a;" horiz-adv-x="224" 
d="M172 700v-700h-120v700h120zM28 793l182 101l36 -77l-190 -86z" />
    <glyph glyph-name="lcaron" unicode="&#x13e;" horiz-adv-x="224" 
d="M172 700v-700h-120v700h120zM216 525v175h101l-25 -175h-76z" />
    <glyph glyph-name="uni013C" unicode="&#x13c;" horiz-adv-x="224" 
d="M172 700v-700h-120v700h120zM64 -206l-32 40c46 15 59 26 59 39c0 11 -8 25 -73 35v2l53 52c93 -13 117 -45 117 -80c0 -34 -34 -69 -124 -88z" />
    <glyph glyph-name="uni1E3D" unicode="&#x1e3d;" horiz-adv-x="224" 
d="M172 700v-700h-120v700h120zM-40 -142l133 104h38l133 -104l-35 -50l-117 66l-117 -66z" />
    <glyph glyph-name="uni1E3B" unicode="&#x1e3b;" horiz-adv-x="224" 
d="M172 700v-700h-120v700h120zM6 -137v82h212v-82h-212z" />
    <glyph glyph-name="uni1E39" unicode="&#x1e39;" horiz-adv-x="224" 
d="M172 700v-700h-120v700h120zM6 748v81h212v-81h-212zM162 -49v-101h-100v101h100z" />
    <glyph glyph-name="uni1E37" unicode="&#x1e37;" horiz-adv-x="224" 
d="M172 700v-700h-120v700h120zM162 -49v-101h-100v101h100z" />
    <glyph glyph-name="lslash" unicode="&#x142;" horiz-adv-x="288" 
d="M8 240v105l76 52v303h120v-220l76 52v-105l-76 -52v-375h-120v292z" />
    <glyph glyph-name="uni1E3F" unicode="&#x1e3f;" horiz-adv-x="838" 
d="M161 494v-49c33 39 78 61 135 61c68 0 118 -27 148 -70c37 44 91 70 160 70c128 0 194 -86 194 -201v-305h-120v294c0 64 -32 108 -95 108c-64 0 -102 -49 -102 -114v-288h-120v294c0 64 -32 108 -95 108s-101 -49 -101 -114v-288h-120v494h116zM337 595l182 101l36 -77
l-190 -86z" />
    <glyph glyph-name="uni1E41" unicode="&#x1e41;" horiz-adv-x="838" 
d="M161 494v-49c33 39 78 61 135 61c68 0 118 -27 148 -70c37 44 91 70 160 70c128 0 194 -86 194 -201v-305h-120v294c0 64 -32 108 -95 108c-64 0 -102 -49 -102 -114v-288h-120v294c0 64 -32 108 -95 108s-101 -49 -101 -114v-288h-120v494h116zM471 644v-100h-100v100
h100z" />
    <glyph glyph-name="uni1E43" unicode="&#x1e43;" horiz-adv-x="838" 
d="M161 494v-49c33 39 78 61 135 61c68 0 118 -27 148 -70c37 44 91 70 160 70c128 0 194 -86 194 -201v-305h-120v294c0 64 -32 108 -95 108c-64 0 -102 -49 -102 -114v-288h-120v294c0 64 -32 108 -95 108s-101 -49 -101 -114v-288h-120v494h116zM471 -49v-101h-100v101
h100z" />
    <glyph glyph-name="nacute" unicode="&#x144;" horiz-adv-x="567" 
d="M161 494v-60c37 46 91 72 161 72c134 0 205 -90 205 -228v-278h-120v267c0 80 -40 135 -117 135s-125 -59 -125 -141v-261h-120v494h116zM191 595l182 101l36 -77l-190 -86z" />
    <glyph glyph-name="uni01F9" unicode="&#x1f9;" horiz-adv-x="567" 
d="M161 494v-60c37 46 91 72 161 72c134 0 205 -90 205 -228v-278h-120v267c0 80 -40 135 -117 135s-125 -59 -125 -141v-261h-120v494h116zM359 595l-28 -62l-190 86l36 77z" />
    <glyph glyph-name="ncaron" unicode="&#x148;" horiz-adv-x="567" 
d="M161 494v-60c37 46 91 72 161 72c134 0 205 -90 205 -228v-278h-120v267c0 80 -40 135 -117 135s-125 -59 -125 -141v-261h-120v494h116zM427 638l-133 -103h-38l-133 103l35 51l117 -67l117 67z" />
    <glyph glyph-name="ntilde" unicode="&#xf1;" horiz-adv-x="567" 
d="M161 494v-60c37 46 91 72 161 72c134 0 205 -90 205 -228v-278h-120v267c0 80 -40 135 -117 135s-125 -59 -125 -141v-261h-120v494h116zM287 641c27 -20 35 -25 43 -25c12 0 20 9 30 59l71 -11c-13 -108 -51 -131 -92 -131c-21 0 -36 6 -76 37c-27 20 -35 25 -43 25
c-12 0 -20 -9 -30 -59l-71 11c13 108 51 131 92 131c21 0 36 -7 76 -37z" />
    <glyph glyph-name="uni1E45" unicode="&#x1e45;" horiz-adv-x="567" 
d="M161 494v-60c37 46 91 72 161 72c134 0 205 -90 205 -228v-278h-120v267c0 80 -40 135 -117 135s-125 -59 -125 -141v-261h-120v494h116zM325 644v-100h-100v100h100z" />
    <glyph glyph-name="uni1E4B" unicode="&#x1e4b;" horiz-adv-x="567" 
d="M161 494v-60c37 46 91 72 161 72c134 0 205 -90 205 -228v-278h-120v267c0 80 -40 135 -117 135s-125 -59 -125 -141v-261h-120v494h116zM132 -142l133 104h38l133 -104l-35 -50l-117 66l-117 -66z" />
    <glyph glyph-name="uni0146" unicode="&#x146;" horiz-adv-x="567" 
d="M161 494v-60c37 46 91 72 161 72c134 0 205 -90 205 -228v-278h-120v267c0 80 -40 135 -117 135s-125 -59 -125 -141v-261h-120v494h116zM236 -206l-32 40c46 15 59 26 59 39c0 11 -8 25 -73 35v2l53 52c93 -13 117 -45 117 -80c0 -34 -34 -69 -124 -88z" />
    <glyph glyph-name="uni1E47" unicode="&#x1e47;" horiz-adv-x="567" 
d="M161 494v-60c37 46 91 72 161 72c134 0 205 -90 205 -228v-278h-120v267c0 80 -40 135 -117 135s-125 -59 -125 -141v-261h-120v494h116zM334 -49v-101h-100v101h100z" />
    <glyph glyph-name="uni1E49" unicode="&#x1e49;" horiz-adv-x="567" 
d="M161 494v-60c37 46 91 72 161 72c134 0 205 -90 205 -228v-278h-120v267c0 80 -40 135 -117 135s-125 -59 -125 -141v-261h-120v494h116zM146 -137v82h276v-82h-276z" />
    <glyph glyph-name="eng" unicode="&#x14b;" horiz-adv-x="567" 
d="M527 -13c0 -110 -58 -167 -168 -167h-59v95h42c42 0 65 19 65 63v289c0 81 -40 135 -117 135s-125 -59 -125 -141v-261h-120v494h116v-60c37 46 91 72 161 72c134 0 205 -90 205 -228v-291z" />
    <glyph glyph-name="oacute" unicode="&#xf3;" horiz-adv-x="580" 
d="M288 -16c-152 0 -262 114 -262 262s112 262 266 262c152 0 262 -113 262 -261s-112 -263 -266 -263zM290 87c82 0 143 68 143 160c0 90 -61 159 -143 159s-143 -68 -143 -160c0 -90 61 -159 143 -159zM207 595l182 101l36 -77l-190 -86z" />
    <glyph glyph-name="ohungarumlaut" unicode="&#x151;" horiz-adv-x="580" 
d="M288 -16c-152 0 -262 114 -262 262s112 262 266 262c152 0 262 -113 262 -261s-112 -263 -266 -263zM290 87c82 0 143 68 143 160c0 90 -61 159 -143 159s-143 -68 -143 -160c0 -90 61 -159 143 -159zM151 583l102 108l61 -60l-115 -98zM305 583l103 108l60 -60l-115 -98
z" />
    <glyph glyph-name="ograve" unicode="&#xf2;" horiz-adv-x="580" 
d="M288 -16c-152 0 -262 114 -262 262s112 262 266 262c152 0 262 -113 262 -261s-112 -263 -266 -263zM290 87c82 0 143 68 143 160c0 90 -61 159 -143 159s-143 -68 -143 -160c0 -90 61 -159 143 -159zM375 595l-28 -62l-190 86l36 77z" />
    <glyph glyph-name="ocircumflex" unicode="&#xf4;" horiz-adv-x="580" 
d="M288 -16c-152 0 -262 114 -262 262s112 262 266 262c152 0 262 -113 262 -261s-112 -263 -266 -263zM290 87c82 0 143 68 143 160c0 90 -61 159 -143 159s-143 -68 -143 -160c0 -90 61 -159 143 -159zM139 573l133 104h38l133 -104l-35 -50l-117 66l-117 -66z" />
    <glyph glyph-name="uni1ED9" unicode="&#x1ed9;" horiz-adv-x="580" 
d="M288 -16c-152 0 -262 114 -262 262s112 262 266 262c152 0 262 -113 262 -261s-112 -263 -266 -263zM290 87c82 0 143 68 143 160c0 90 -61 159 -143 159s-143 -68 -143 -160c0 -90 61 -159 143 -159zM139 573l133 104h38l133 -104l-35 -50l-117 66l-117 -66zM341 -49
v-101h-100v101h100z" />
    <glyph glyph-name="uni1ED1" unicode="&#x1ed1;" horiz-adv-x="580" 
d="M288 -16c-152 0 -262 114 -262 262s112 262 266 262c152 0 262 -113 262 -261s-112 -263 -266 -263zM290 87c82 0 143 68 143 160c0 90 -61 159 -143 159s-143 -68 -143 -160c0 -90 61 -159 143 -159zM343 693l128 65l27 -66l-136 -49zM143 573l129 78h38l129 -78
l-28 -50l-120 52l-120 -52z" />
    <glyph glyph-name="uni1ED3" unicode="&#x1ed3;" horiz-adv-x="580" 
d="M288 -16c-152 0 -262 114 -262 262s112 262 266 262c152 0 262 -113 262 -261s-112 -263 -266 -263zM290 87c82 0 143 68 143 160c0 90 -61 159 -143 159s-143 -68 -143 -160c0 -90 61 -159 143 -159zM457 693l-17 -51l-160 48l25 67zM143 573l129 78h38l129 -78l-28 -50
l-120 52l-120 -52z" />
    <glyph glyph-name="uni1ED5" unicode="&#x1ed5;" horiz-adv-x="580" 
d="M288 -16c-152 0 -262 114 -262 262s112 262 266 262c152 0 262 -113 262 -261s-112 -263 -266 -263zM290 87c82 0 143 68 143 160c0 90 -61 159 -143 159s-143 -68 -143 -160c0 -90 61 -159 143 -159zM380 637l-26 38c48 15 61 20 61 31c0 9 -8 18 -75 28v2l44 42
c90 -13 112 -36 112 -64c0 -30 -30 -60 -116 -77zM143 573l129 78h38l129 -78l-28 -50l-120 52l-120 -52z" />
    <glyph glyph-name="uni1ED7" unicode="&#x1ed7;" horiz-adv-x="580" 
d="M288 -16c-152 0 -262 114 -262 262s112 262 266 262c152 0 262 -113 262 -261s-112 -263 -266 -263zM290 87c82 0 143 68 143 160c0 90 -61 159 -143 159s-143 -68 -143 -160c0 -90 61 -159 143 -159zM301 746c26 -15 35 -16 43 -16c11 0 20 5 28 40l59 -10
c-10 -83 -43 -99 -76 -99c-17 0 -32 3 -65 23c-27 15 -36 17 -44 17c-11 0 -20 -6 -28 -41l-59 10c10 83 43 99 76 99c17 0 32 -3 66 -23zM143 573l129 78h38l129 -78l-28 -50l-120 52l-120 -52z" />
    <glyph glyph-name="uni01D2" unicode="&#x1d2;" horiz-adv-x="580" 
d="M288 -16c-152 0 -262 114 -262 262s112 262 266 262c152 0 262 -113 262 -261s-112 -263 -266 -263zM290 87c82 0 143 68 143 160c0 90 -61 159 -143 159s-143 -68 -143 -160c0 -90 61 -159 143 -159zM443 638l-133 -103h-38l-133 103l35 51l117 -67l117 67z" />
    <glyph glyph-name="obreve" unicode="&#x14f;" horiz-adv-x="580" 
d="M288 -16c-152 0 -262 114 -262 262s112 262 266 262c152 0 262 -113 262 -261s-112 -263 -266 -263zM290 87c82 0 143 68 143 160c0 90 -61 159 -143 159s-143 -68 -143 -160c0 -90 61 -159 143 -159zM291 615c42 0 67 23 81 69l74 -12c-15 -99 -73 -137 -155 -137
s-140 38 -155 137l74 12c14 -46 39 -69 81 -69z" />
    <glyph glyph-name="otilde" unicode="&#xf5;" horiz-adv-x="580" 
d="M288 -16c-152 0 -262 114 -262 262s112 262 266 262c152 0 262 -113 262 -261s-112 -263 -266 -263zM290 87c82 0 143 68 143 160c0 90 -61 159 -143 159s-143 -68 -143 -160c0 -90 61 -159 143 -159zM303 641c27 -20 35 -25 43 -25c12 0 20 9 30 59l71 -11
c-13 -108 -51 -131 -92 -131c-21 0 -36 6 -76 37c-27 20 -35 25 -43 25c-12 0 -20 -9 -30 -59l-71 11c13 108 51 131 92 131c21 0 36 -7 76 -37z" />
    <glyph glyph-name="omacron" unicode="&#x14d;" horiz-adv-x="580" 
d="M288 -16c-152 0 -262 114 -262 262s112 262 266 262c152 0 262 -113 262 -261s-112 -263 -266 -263zM290 87c82 0 143 68 143 160c0 90 -61 159 -143 159s-143 -68 -143 -160c0 -90 61 -159 143 -159zM153 550v81h276v-81h-276z" />
    <glyph glyph-name="odieresis" unicode="&#xf6;" horiz-adv-x="580" 
d="M288 -16c-152 0 -262 114 -262 262s112 262 266 262c152 0 262 -113 262 -261s-112 -263 -266 -263zM290 87c82 0 143 68 143 160c0 90 -61 159 -143 159s-143 -68 -143 -160c0 -90 61 -159 143 -159zM261 641v-95h-95v95h95zM416 641v-95h-95v95h95z" />
    <glyph glyph-name="uni022F" unicode="&#x22f;" horiz-adv-x="580" 
d="M288 -16c-152 0 -262 114 -262 262s112 262 266 262c152 0 262 -113 262 -261s-112 -263 -266 -263zM290 87c82 0 143 68 143 160c0 90 -61 159 -143 159s-143 -68 -143 -160c0 -90 61 -159 143 -159zM341 644v-100h-100v100h100z" />
    <glyph glyph-name="uni1ECF" unicode="&#x1ecf;" horiz-adv-x="580" 
d="M288 -16c-152 0 -262 114 -262 262s112 262 266 262c152 0 262 -113 262 -261s-112 -263 -266 -263zM290 87c82 0 143 68 143 160c0 90 -61 159 -143 159s-143 -68 -143 -160c0 -90 61 -159 143 -159zM243 530l-32 40c46 15 59 26 59 39c0 11 -8 25 -73 35v2l53 52
c93 -13 117 -45 117 -80c0 -34 -34 -69 -124 -88z" />
    <glyph glyph-name="uni1ECD" unicode="&#x1ecd;" horiz-adv-x="580" 
d="M288 -16c-152 0 -262 114 -262 262s112 262 266 262c152 0 262 -113 262 -261s-112 -263 -266 -263zM290 87c82 0 143 68 143 160c0 90 -61 159 -143 159s-143 -68 -143 -160c0 -90 61 -159 143 -159zM341 -49v-101h-100v101h100z" />
    <glyph glyph-name="uni01EB" unicode="&#x1eb;" horiz-adv-x="580" 
d="M219 -102c0 19 7 42 45 87c-139 11 -238 121 -238 261c0 148 112 262 266 262c152 0 262 -113 262 -261c0 -133 -90 -239 -219 -259c-29 -37 -33 -49 -33 -58c0 -14 10 -21 41 -21h27v-76h-63c-62 0 -88 24 -88 65zM290 87c82 0 143 68 143 160c0 90 -61 159 -143 159
s-143 -68 -143 -160c0 -90 61 -159 143 -159z" />
    <glyph glyph-name="oslash" unicode="&#xf8;" horiz-adv-x="580" 
d="M554 247c0 -148 -112 -263 -266 -263c-45 0 -87 11 -124 32l-27 -36h-106l68 85c-45 48 -73 112 -73 181c0 148 112 262 266 262c45 0 87 -11 124 -31l28 36h105l-67 -87c45 -47 72 -110 72 -179zM147 250c0 -37 10 -70 26 -96l178 237c-19 10 -41 15 -64 15
c-81 0 -140 -66 -140 -156zM433 243c0 36 -9 69 -26 95l-177 -236c19 -10 41 -15 64 -15c80 0 139 66 139 156z" />
    <glyph glyph-name="oe" unicode="&#x153;" horiz-adv-x="959" 
d="M289 -16c-153 0 -263 114 -263 262s112 262 266 262c83 0 154 -38 201 -98c45 59 114 98 197 98c145 0 243 -103 243 -257c0 -17 -2 -33 -4 -45h-376c14 -80 76 -124 152 -124c53 0 105 22 147 70l63 -68c-53 -63 -129 -100 -220 -100c-89 0 -160 38 -205 97
c-47 -59 -119 -97 -201 -97zM688 412c-65 0 -120 -42 -135 -122h262c-12 77 -61 122 -127 122zM291 87c81 0 142 67 142 160c0 90 -61 159 -143 159s-143 -68 -143 -160c0 -90 61 -159 144 -159z" />
    <glyph glyph-name="ohorn" unicode="&#x1a1;" horiz-adv-x="596" 
d="M289 -16c-153 0 -263 111 -263 255s112 255 266 255h122c65 0 85 24 88 89h102c-3 -114 -52 -160 -128 -160h-8c51 -46 86 -111 86 -183c0 -144 -112 -256 -265 -256zM291 87c81 0 142 64 142 153c0 86 -61 152 -143 152s-143 -65 -143 -153c0 -86 61 -152 144 -152z" />
    <glyph glyph-name="uni1EDB" unicode="&#x1edb;" horiz-adv-x="596" 
d="M289 -16c-153 0 -263 111 -263 255s112 255 266 255h122c65 0 85 24 88 89h102c-3 -114 -52 -160 -128 -160h-8c51 -46 86 -111 86 -183c0 -144 -112 -256 -265 -256zM291 87c81 0 142 64 142 153c0 86 -61 152 -143 152s-143 -65 -143 -153c0 -86 61 -152 144 -152z
M207 595l182 101l36 -77l-190 -86z" />
    <glyph glyph-name="uni1EDD" unicode="&#x1edd;" horiz-adv-x="596" 
d="M289 -16c-153 0 -263 111 -263 255s112 255 266 255h122c65 0 85 24 88 89h102c-3 -114 -52 -160 -128 -160h-8c51 -46 86 -111 86 -183c0 -144 -112 -256 -265 -256zM291 87c81 0 142 64 142 153c0 86 -61 152 -143 152s-143 -65 -143 -153c0 -86 61 -152 144 -152z
M375 595l-28 -62l-190 86l36 77z" />
    <glyph glyph-name="uni1EE1" unicode="&#x1ee1;" horiz-adv-x="596" 
d="M289 -16c-153 0 -263 111 -263 255s112 255 266 255h122c65 0 85 24 88 89h102c-3 -114 -52 -160 -128 -160h-8c51 -46 86 -111 86 -183c0 -144 -112 -256 -265 -256zM291 87c81 0 142 64 142 153c0 86 -61 152 -143 152s-143 -65 -143 -153c0 -86 61 -152 144 -152z
M303 641c27 -20 35 -25 43 -25c12 0 20 9 30 59l71 -11c-13 -108 -51 -131 -92 -131c-21 0 -36 6 -76 37c-27 20 -35 25 -43 25c-12 0 -20 -9 -30 -59l-71 11c13 108 51 131 92 131c21 0 36 -7 76 -37z" />
    <glyph glyph-name="uni1EDF" unicode="&#x1edf;" horiz-adv-x="596" 
d="M289 -16c-153 0 -263 111 -263 255s112 255 266 255h122c65 0 85 24 88 89h102c-3 -114 -52 -160 -128 -160h-8c51 -46 86 -111 86 -183c0 -144 -112 -256 -265 -256zM291 87c81 0 142 64 142 153c0 86 -61 152 -143 152s-143 -65 -143 -153c0 -86 61 -152 144 -152z
M243 530l-32 40c46 15 59 26 59 39c0 11 -8 25 -73 35v2l53 52c93 -13 117 -45 117 -80c0 -34 -34 -69 -124 -88z" />
    <glyph glyph-name="uni1EE3" unicode="&#x1ee3;" horiz-adv-x="596" 
d="M289 -16c-153 0 -263 111 -263 255s112 255 266 255h122c65 0 85 24 88 89h102c-3 -114 -52 -160 -128 -160h-8c51 -46 86 -111 86 -183c0 -144 -112 -256 -265 -256zM291 87c81 0 142 64 142 153c0 86 -61 152 -143 152s-143 -65 -143 -153c0 -86 61 -152 144 -152z
M341 -49v-101h-100v101h100z" />
    <glyph glyph-name="racute" unicode="&#x155;" horiz-adv-x="357" 
d="M161 494v-57c30 41 75 60 137 60h46v-112h-53c-85 0 -126 -40 -126 -131v-254h-120v494h116zM114 595l182 101l36 -77l-190 -86z" />
    <glyph glyph-name="rcaron" unicode="&#x159;" horiz-adv-x="357" 
d="M161 494v-57c30 41 75 60 137 60h46v-112h-53c-85 0 -126 -40 -126 -131v-254h-120v494h116zM350 638l-133 -103h-38l-133 103l35 51l117 -67l117 67z" />
    <glyph glyph-name="uni1E59" unicode="&#x1e59;" horiz-adv-x="357" 
d="M161 494v-57c30 41 75 60 137 60h46v-112h-53c-85 0 -126 -40 -126 -131v-254h-120v494h116zM248 644v-100h-100v100h100z" />
    <glyph glyph-name="uni1E5D" unicode="&#x1e5d;" horiz-adv-x="357" 
d="M161 494v-57c30 41 75 60 137 60h46v-112h-53c-85 0 -126 -40 -126 -131v-254h-120v494h116zM92 550v81h212v-81h-212zM155 -49v-101h-100v101h100z" />
    <glyph glyph-name="uni0157" unicode="&#x157;" horiz-adv-x="357" 
d="M161 494v-57c30 41 75 60 137 60h46v-112h-53c-85 0 -126 -40 -126 -131v-254h-120v494h116zM57 -206l-32 40c46 15 59 26 59 39c0 11 -8 25 -73 35v2l53 52c93 -13 117 -45 117 -80c0 -34 -34 -69 -124 -88z" />
    <glyph glyph-name="uni1E5B" unicode="&#x1e5b;" horiz-adv-x="357" 
d="M161 494v-57c30 41 75 60 137 60h46v-112h-53c-85 0 -126 -40 -126 -131v-254h-120v494h116zM155 -49v-101h-100v101h100z" />
    <glyph glyph-name="uni1E5F" unicode="&#x1e5f;" horiz-adv-x="357" 
d="M161 494v-57c30 41 75 60 137 60h46v-112h-53c-85 0 -126 -40 -126 -131v-254h-120v494h116zM-1 -137v82h212v-82h-212z" />
    <glyph glyph-name="sacute" unicode="&#x15b;" horiz-adv-x="482" 
d="M239 -14c-85 0 -165 27 -223 73l49 88c71 -47 123 -64 177 -64c70 0 106 25 106 59s-22 52 -103 55c-156 9 -210 56 -210 152c0 89 77 158 206 158c77 0 152 -24 204 -65l-44 -87c-62 40 -114 55 -163 55c-61 0 -92 -26 -92 -56c0 -31 20 -49 96 -53
c161 -8 217 -54 217 -153c0 -94 -83 -162 -220 -162zM166 595l182 101l36 -77l-190 -86z" />
    <glyph glyph-name="scircumflex" unicode="&#x15d;" horiz-adv-x="482" 
d="M239 -14c-85 0 -165 27 -223 73l49 88c71 -47 123 -64 177 -64c70 0 106 25 106 59s-22 52 -103 55c-156 9 -210 56 -210 152c0 89 77 158 206 158c77 0 152 -24 204 -65l-44 -87c-62 40 -114 55 -163 55c-61 0 -92 -26 -92 -56c0 -31 20 -49 96 -53
c161 -8 217 -54 217 -153c0 -94 -83 -162 -220 -162zM98 575l133 104h38l133 -104l-35 -50l-117 66l-117 -66z" />
    <glyph glyph-name="scaron" unicode="&#x161;" horiz-adv-x="482" 
d="M239 -14c-85 0 -165 27 -223 73l49 88c71 -47 123 -64 177 -64c70 0 106 25 106 59s-22 52 -103 55c-156 9 -210 56 -210 152c0 89 77 158 206 158c77 0 152 -24 204 -65l-44 -87c-62 40 -114 55 -163 55c-61 0 -92 -26 -92 -56c0 -31 20 -49 96 -53
c161 -8 217 -54 217 -153c0 -94 -83 -162 -220 -162zM402 638l-133 -103h-38l-133 103l35 51l117 -67l117 67z" />
    <glyph glyph-name="uni0219" unicode="&#x219;" horiz-adv-x="482" 
d="M239 -14c-85 0 -165 27 -223 73l49 88c71 -47 123 -64 177 -64c70 0 106 25 106 59s-22 52 -103 55c-156 9 -210 56 -210 152c0 89 77 158 206 158c77 0 152 -24 204 -65l-44 -87c-62 40 -114 55 -163 55c-61 0 -92 -26 -92 -56c0 -31 20 -49 96 -53
c161 -8 217 -54 217 -153c0 -94 -83 -162 -220 -162zM197 -206l-32 40c46 15 59 26 59 39c0 11 -8 25 -73 35v2l53 52c93 -13 117 -45 117 -80c0 -34 -34 -69 -124 -88z" />
    <glyph glyph-name="uni1E63" unicode="&#x1e63;" horiz-adv-x="482" 
d="M239 -14c-85 0 -165 27 -223 73l49 88c71 -47 123 -64 177 -64c70 0 106 25 106 59s-22 52 -103 55c-156 9 -210 56 -210 152c0 89 77 158 206 158c77 0 152 -24 204 -65l-44 -87c-62 40 -114 55 -163 55c-61 0 -92 -26 -92 -56c0 -31 20 -49 96 -53
c161 -8 217 -54 217 -153c0 -94 -83 -162 -220 -162zM295 -49v-101h-100v101h100z" />
    <glyph glyph-name="uni015F" unicode="&#x15f;" horiz-adv-x="482" 
d="M354 -109c0 -44 -38 -79 -99 -79c-31 0 -62 8 -92 27l23 47c28 -14 45 -19 63 -19c24 0 33 11 33 22c0 12 -9 20 -29 20c-9 0 -19 -2 -33 -7l-27 8l-1 2l21 75c-75 5 -145 30 -197 72l49 88c71 -47 123 -64 177 -64c70 0 106 25 106 59s-22 52 -103 55
c-156 9 -210 56 -210 152c0 89 77 158 206 158c77 0 152 -24 204 -65l-44 -87c-62 40 -114 55 -163 55c-61 0 -92 -26 -92 -56c0 -31 20 -49 96 -53c161 -8 217 -54 217 -153c0 -85 -67 -148 -180 -160l-8 -30c47 0 83 -25 83 -67z" />
    <glyph glyph-name="germandbls" unicode="&#xdf;" horiz-adv-x="574" 
d="M428 195c0 57 -52 103 -177 128v81c108 25 143 70 143 118c0 50 -38 90 -103 90c-72 0 -126 -48 -126 -154v-458h-120v458c0 163 101 257 250 257c137 0 221 -79 221 -182c0 -64 -33 -124 -116 -160c91 -33 149 -95 149 -184c0 -110 -83 -189 -226 -189h-72v102h62
c73 0 115 41 115 93z" />
    <glyph glyph-name="tcaron" unicode="&#x165;" horiz-adv-x="333" 
d="M78 156v233h-66v105h66v140h120v-140h110v-105h-110v-221c0 -47 21 -63 58 -63h52v-105h-72c-110 0 -158 45 -158 156zM246 541v175h101l-25 -175h-76z" />
    <glyph glyph-name="uni1E71" unicode="&#x1e71;" horiz-adv-x="333" 
d="M78 156v233h-66v105h66v140h120v-140h110v-105h-110v-221c0 -47 21 -63 58 -63h52v-105h-72c-110 0 -158 45 -158 156zM33 -142l133 104h38l133 -104l-35 -50l-117 66l-117 -66z" />
    <glyph glyph-name="uni021B" unicode="&#x21b;" horiz-adv-x="333" 
d="M78 156v233h-66v105h66v140h120v-140h110v-105h-110v-221c0 -47 21 -63 58 -63h52v-105h-72c-110 0 -158 45 -158 156zM137 -206l-32 40c46 15 59 26 59 39c0 11 -8 25 -73 35v2l53 52c93 -13 117 -45 117 -80c0 -34 -34 -69 -124 -88z" />
    <glyph glyph-name="uni1E6D" unicode="&#x1e6d;" horiz-adv-x="333" 
d="M78 156v233h-66v105h66v140h120v-140h110v-105h-110v-221c0 -47 21 -63 58 -63h52v-105h-72c-110 0 -158 45 -158 156zM235 -49v-101h-100v101h100z" />
    <glyph glyph-name="uni1E6F" unicode="&#x1e6f;" horiz-adv-x="333" 
d="M78 156v233h-66v105h66v140h120v-140h110v-105h-110v-221c0 -47 21 -63 58 -63h52v-105h-72c-110 0 -158 45 -158 156zM79 -137v82h212v-82h-212z" />
    <glyph glyph-name="uni0163" unicode="&#x163;" horiz-adv-x="333" 
d="M78 156v233h-66v105h66v140h120v-140h110v-105h-110v-221c0 -47 21 -63 58 -63h52v-105h-91l-11 -42c47 0 83 -25 83 -67c0 -44 -38 -79 -99 -79c-31 0 -62 8 -92 27l23 47c28 -14 45 -19 63 -19c24 0 33 11 33 22c0 12 -9 20 -29 20c-9 0 -19 -2 -33 -7l-27 8l-1 2
l29 100c-54 19 -78 65 -78 144z" />
    <glyph glyph-name="tbar" unicode="&#x167;" horiz-adv-x="333" 
d="M78 156v60h-55v84h55v89h-66v105h66v140h120v-140h110v-105h-110v-89h88v-84h-88v-48c0 -47 21 -63 58 -63h52v-105h-72c-110 0 -158 45 -158 156z" />
    <glyph glyph-name="tcaron.alt" horiz-adv-x="298" 
d="M43 156v478h120v-140h111v-105h-111v-221c0 -47 21 -63 59 -63h52v-105h-71c-112 0 -160 45 -160 156zM212 541v175h101l-25 -175h-76z" />
    <glyph glyph-name="uni1E71.alt" horiz-adv-x="298" 
d="M43 156v478h120v-140h111v-105h-111v-221c0 -47 21 -63 59 -63h52v-105h-71c-112 0 -160 45 -160 156zM-1 -142l133 104h38l133 -104l-35 -50l-117 66l-117 -66z" />
    <glyph glyph-name="uni021B.alt" horiz-adv-x="298" 
d="M43 156v478h120v-140h111v-105h-111v-221c0 -47 21 -63 59 -63h52v-105h-71c-112 0 -160 45 -160 156zM103 -206l-32 40c46 15 59 26 59 39c0 11 -8 25 -73 35v2l53 52c93 -13 117 -45 117 -80c0 -34 -34 -69 -124 -88z" />
    <glyph glyph-name="uni1E6D.alt" horiz-adv-x="298" 
d="M43 156v478h120v-140h111v-105h-111v-221c0 -47 21 -63 59 -63h52v-105h-71c-112 0 -160 45 -160 156zM201 -49v-101h-100v101h100z" />
    <glyph glyph-name="uni1E6F.alt" horiz-adv-x="298" 
d="M43 156v478h120v-140h111v-105h-111v-221c0 -47 21 -63 59 -63h52v-105h-71c-112 0 -160 45 -160 156zM45 -137v82h212v-82h-212z" />
    <glyph glyph-name="uni0163.alt" horiz-adv-x="298" 
d="M43 156v478h120v-140h111v-105h-111v-221c0 -47 21 -63 59 -63h52v-105h-91l-11 -42c47 0 83 -25 83 -67c0 -44 -38 -79 -99 -79c-31 0 -62 8 -92 27l24 47c27 -14 44 -19 62 -19c25 0 34 11 34 22c0 12 -10 20 -30 20c-9 0 -19 -2 -33 -7l-26 8l-1 2l28 100
c-55 19 -79 65 -79 144z" />
    <glyph glyph-name="tbar.alt" horiz-adv-x="299" 
d="M43 156v478h120v-140h111v-105h-111v-89h89v-84h-89v-48c0 -47 21 -63 59 -63h52v-105h-71c-112 0 -160 45 -160 156z" />
    <glyph glyph-name="uacute" unicode="&#xfa;" horiz-adv-x="567" 
d="M405 0v59c-37 -45 -91 -71 -161 -71c-133 0 -204 90 -204 228v278h120v-267c0 -80 40 -135 116 -135c77 0 126 59 126 141v261h120v-494h-117zM195 585l182 101l36 -77l-190 -86z" />
    <glyph glyph-name="uhungarumlaut" unicode="&#x171;" horiz-adv-x="567" 
d="M405 0v59c-37 -45 -91 -71 -161 -71c-133 0 -204 90 -204 228v278h120v-267c0 -80 40 -135 116 -135c77 0 126 59 126 141v261h120v-494h-117zM139 583l102 108l61 -60l-115 -98zM293 583l103 108l60 -60l-115 -98z" />
    <glyph glyph-name="ugrave" unicode="&#xf9;" horiz-adv-x="567" 
d="M405 0v59c-37 -45 -91 -71 -161 -71c-133 0 -204 90 -204 228v278h120v-267c0 -80 40 -135 116 -135c77 0 126 59 126 141v261h120v-494h-117zM363 585l-28 -62l-190 86l36 77z" />
    <glyph glyph-name="ucircumflex" unicode="&#xfb;" horiz-adv-x="567" 
d="M405 0v59c-37 -45 -91 -71 -161 -71c-133 0 -204 90 -204 228v278h120v-267c0 -80 40 -135 116 -135c77 0 126 59 126 141v261h120v-494h-117zM127 585l133 104h38l133 -104l-35 -50l-117 66l-117 -66z" />
    <glyph glyph-name="uni01D4" unicode="&#x1d4;" horiz-adv-x="567" 
d="M405 0v59c-37 -45 -91 -71 -161 -71c-133 0 -204 90 -204 228v278h120v-267c0 -80 40 -135 116 -135c77 0 126 59 126 141v261h120v-494h-117zM431 628l-133 -103h-38l-133 103l35 51l117 -67l117 67z" />
    <glyph glyph-name="ubreve" unicode="&#x16d;" horiz-adv-x="567" 
d="M405 0v59c-37 -45 -91 -71 -161 -71c-133 0 -204 90 -204 228v278h120v-267c0 -80 40 -135 116 -135c77 0 126 59 126 141v261h120v-494h-117zM279 615c42 0 67 23 81 69l74 -12c-15 -99 -73 -137 -155 -137s-140 38 -155 137l74 12c14 -46 39 -69 81 -69z" />
    <glyph glyph-name="utilde" unicode="&#x169;" horiz-adv-x="567" 
d="M405 0v59c-37 -45 -91 -71 -161 -71c-133 0 -204 90 -204 228v278h120v-267c0 -80 40 -135 116 -135c77 0 126 59 126 141v261h120v-494h-117zM291 641c27 -20 35 -25 43 -25c12 0 20 9 30 59l71 -11c-13 -108 -51 -131 -92 -131c-21 0 -36 6 -76 37
c-27 20 -35 25 -43 25c-12 0 -20 -9 -30 -59l-71 11c13 108 51 131 92 131c21 0 36 -7 76 -37z" />
    <glyph glyph-name="umacron" unicode="&#x16b;" horiz-adv-x="567" 
d="M405 0v59c-37 -45 -91 -71 -161 -71c-133 0 -204 90 -204 228v278h120v-267c0 -80 40 -135 116 -135c77 0 126 59 126 141v261h120v-494h-117zM141 550v81h276v-81h-276z" />
    <glyph glyph-name="udieresis" unicode="&#xfc;" horiz-adv-x="567" 
d="M405 0v59c-37 -45 -91 -71 -161 -71c-133 0 -204 90 -204 228v278h120v-267c0 -80 40 -135 116 -135c77 0 126 59 126 141v261h120v-494h-117zM249 641v-95h-95v95h95zM404 641v-95h-95v95h95z" />
    <glyph glyph-name="uni01D8" unicode="&#x1d8;" horiz-adv-x="567" 
d="M405 0v59c-37 -45 -91 -71 -161 -71c-133 0 -204 90 -204 228v278h120v-267c0 -80 40 -135 116 -135c77 0 126 59 126 141v261h120v-494h-117zM194 707l183 75l25 -68l-189 -60zM248 630v-84h-93v84h93zM403 630v-84h-93v84h93z" />
    <glyph glyph-name="uni01DC" unicode="&#x1dc;" horiz-adv-x="567" 
d="M405 0v59c-37 -45 -91 -71 -161 -71c-133 0 -204 90 -204 228v278h120v-267c0 -80 40 -135 116 -135c77 0 126 59 126 141v261h120v-494h-117zM364 707l-19 -53l-189 60l25 68zM248 630v-84h-93v84h93zM403 630v-84h-93v84h93z" />
    <glyph glyph-name="uni01DA" unicode="&#x1da;" horiz-adv-x="567" 
d="M405 0v59c-37 -45 -91 -71 -161 -71c-133 0 -204 90 -204 228v278h120v-267c0 -80 40 -135 116 -135c77 0 126 59 126 141v261h120v-494h-117zM415 737l-117 -85h-38l-117 85l29 46l107 -59l107 59zM248 630v-84h-93v84h93zM403 630v-84h-93v84h93z" />
    <glyph glyph-name="uni01D6" unicode="&#x1d6;" horiz-adv-x="567" 
d="M405 0v59c-37 -45 -91 -71 -161 -71c-133 0 -204 90 -204 228v278h120v-267c0 -80 40 -135 116 -135c77 0 126 59 126 141v261h120v-494h-117zM167 665v70h224v-70h-224zM248 630v-84h-93v84h93zM403 630v-84h-93v84h93z" />
    <glyph glyph-name="uring" unicode="&#x16f;" horiz-adv-x="567" 
d="M405 0v59c-37 -45 -91 -71 -161 -71c-133 0 -204 90 -204 228v278h120v-267c0 -80 40 -135 116 -135c77 0 126 59 126 141v261h120v-494h-117zM278 523c-67 0 -119 46 -119 106c0 59 53 107 121 107c67 0 119 -49 119 -106c0 -61 -53 -107 -121 -107zM279 588
c29 0 49 19 49 43c0 21 -19 39 -50 39c-28 0 -48 -19 -48 -42c0 -22 20 -40 49 -40z" />
    <glyph glyph-name="uni1EE7" unicode="&#x1ee7;" horiz-adv-x="567" 
d="M405 0v59c-37 -45 -91 -71 -161 -71c-133 0 -204 90 -204 228v278h120v-267c0 -80 40 -135 116 -135c77 0 126 59 126 141v261h120v-494h-117zM231 520l-32 40c46 15 59 26 59 39c0 11 -8 25 -73 35v2l53 52c93 -13 117 -45 117 -80c0 -34 -34 -69 -124 -88z" />
    <glyph glyph-name="uni1EE5" unicode="&#x1ee5;" horiz-adv-x="567" 
d="M405 0v59c-37 -45 -91 -71 -161 -71c-133 0 -204 90 -204 228v278h120v-267c0 -80 40 -135 116 -135c77 0 126 59 126 141v261h120v-494h-117zM329 -49v-101h-100v101h100z" />
    <glyph glyph-name="uogonek" unicode="&#x173;" horiz-adv-x="567" 
d="M377 -102c0 21 7 47 59 102h-31v59c-37 -45 -91 -71 -161 -71c-133 0 -204 90 -204 228v278h120v-267c0 -80 40 -135 116 -135c77 0 126 59 126 141v261h120v-494h-19c-38 -46 -43 -60 -43 -70c0 -14 9 -21 41 -21h27v-76h-63c-62 0 -88 24 -88 65z" />
    <glyph glyph-name="uhorn" unicode="&#x1b0;" horiz-adv-x="621" 
d="M405 0v59c-37 -45 -91 -71 -161 -71c-133 0 -204 90 -204 228v278h120v-267c0 -80 40 -135 116 -135c77 0 126 59 126 141v261h65c59 0 77 24 80 89h103c-4 -114 -50 -161 -121 -161h-7v-422h-117z" />
    <glyph glyph-name="uni1EE9" unicode="&#x1ee9;" horiz-adv-x="621" 
d="M405 0v59c-37 -45 -91 -71 -161 -71c-133 0 -204 90 -204 228v278h120v-267c0 -80 40 -135 116 -135c77 0 126 59 126 141v261h65c59 0 77 24 80 89h103c-4 -114 -50 -161 -121 -161h-7v-422h-117zM195 590l182 101l36 -77l-190 -86z" />
    <glyph glyph-name="uni1EEB" unicode="&#x1eeb;" horiz-adv-x="621" 
d="M405 0v59c-37 -45 -91 -71 -161 -71c-133 0 -204 90 -204 228v278h120v-267c0 -80 40 -135 116 -135c77 0 126 59 126 141v261h65c59 0 77 24 80 89h103c-4 -114 -50 -161 -121 -161h-7v-422h-117zM363 590l-28 -62l-190 86l36 77z" />
    <glyph glyph-name="uni1EEF" unicode="&#x1eef;" horiz-adv-x="621" 
d="M405 0v59c-37 -45 -91 -71 -161 -71c-133 0 -204 90 -204 228v278h120v-267c0 -80 40 -135 116 -135c77 0 126 59 126 141v261h65c59 0 77 24 80 89h103c-4 -114 -50 -161 -121 -161h-7v-422h-117zM291 641c27 -20 35 -25 43 -25c12 0 20 9 30 59l71 -11
c-13 -108 -51 -131 -92 -131c-21 0 -36 6 -76 37c-27 20 -35 25 -43 25c-12 0 -20 -9 -30 -59l-71 11c13 108 51 131 92 131c21 0 36 -7 76 -37z" />
    <glyph glyph-name="uni1EED" unicode="&#x1eed;" horiz-adv-x="621" 
d="M405 0v59c-37 -45 -91 -71 -161 -71c-133 0 -204 90 -204 228v278h120v-267c0 -80 40 -135 116 -135c77 0 126 59 126 141v261h65c59 0 77 24 80 89h103c-4 -114 -50 -161 -121 -161h-7v-422h-117zM231 525l-32 40c46 15 59 26 59 39c0 11 -8 25 -73 35v2l53 52
c93 -13 117 -45 117 -80c0 -34 -34 -69 -124 -88z" />
    <glyph glyph-name="uni1EF1" unicode="&#x1ef1;" horiz-adv-x="621" 
d="M405 0v59c-37 -45 -91 -71 -161 -71c-133 0 -204 90 -204 228v278h120v-267c0 -80 40 -135 116 -135c77 0 126 59 126 141v261h65c59 0 77 24 80 89h103c-4 -114 -50 -161 -121 -161h-7v-422h-117zM329 -49v-101h-100v101h100z" />
    <glyph glyph-name="uni1E7F" unicode="&#x1e7f;" horiz-adv-x="547" 
d="M10 494h129l137 -353l137 353h124l-204 -494h-118zM324 -49v-101h-100v101h100z" />
    <glyph glyph-name="wacute" unicode="&#x1e83;" horiz-adv-x="771" 
d="M630 0h-130l-116 335l-116 -335h-128l-115 494h122l68 -339l114 339h113l113 -339l69 339h122zM300 595l182 101l36 -77l-190 -86z" />
    <glyph glyph-name="wgrave" unicode="&#x1e81;" horiz-adv-x="771" 
d="M630 0h-130l-116 335l-116 -335h-128l-115 494h122l68 -339l114 339h113l113 -339l69 339h122zM468 595l-28 -62l-190 86l36 77z" />
    <glyph glyph-name="wcircumflex" unicode="&#x175;" horiz-adv-x="771" 
d="M630 0h-130l-116 335l-116 -335h-128l-115 494h122l68 -339l114 339h113l113 -339l69 339h122zM232 585l133 104h38l133 -104l-35 -50l-117 66l-117 -66z" />
    <glyph glyph-name="wdieresis" unicode="&#x1e85;" horiz-adv-x="771" 
d="M630 0h-130l-116 335l-116 -335h-128l-115 494h122l68 -339l114 339h113l113 -339l69 339h122zM354 641v-95h-95v95h95zM509 641v-95h-95v95h95z" />
    <glyph glyph-name="uni1E8D" unicode="&#x1e8d;" horiz-adv-x="530" 
d="M7 0l190 254l-177 240h138l107 -155l110 155h132l-178 -238l194 -256h-139l-121 172l-122 -172h-134zM235 641v-95h-95v95h95zM390 641v-95h-95v95h95z" />
    <glyph glyph-name="yacute" unicode="&#xfd;" horiz-adv-x="547" 
d="M10 494h129l137 -352l136 352h125l-279 -674h-123l81 176zM191 595l182 101l36 -77l-190 -86z" />
    <glyph glyph-name="ygrave" unicode="&#x1ef3;" horiz-adv-x="547" 
d="M10 494h129l137 -352l136 352h125l-279 -674h-123l81 176zM359 595l-28 -62l-190 86l36 77z" />
    <glyph glyph-name="ycircumflex" unicode="&#x177;" horiz-adv-x="547" 
d="M10 494h129l137 -352l136 352h125l-279 -674h-123l81 176zM123 585l133 104h38l133 -104l-35 -50l-117 66l-117 -66z" />
    <glyph glyph-name="uni1EF9" unicode="&#x1ef9;" horiz-adv-x="547" 
d="M10 494h129l137 -352l136 352h125l-279 -674h-123l81 176zM287 641c27 -20 35 -25 43 -25c12 0 20 9 30 59l71 -11c-13 -108 -51 -131 -92 -131c-21 0 -36 6 -76 37c-27 20 -35 25 -43 25c-12 0 -20 -9 -30 -59l-71 11c13 108 51 131 92 131c21 0 36 -7 76 -37z" />
    <glyph glyph-name="uni0233" unicode="&#x233;" horiz-adv-x="547" 
d="M10 494h129l137 -352l136 352h125l-279 -674h-123l81 176zM137 550v81h276v-81h-276z" />
    <glyph glyph-name="ydieresis" unicode="&#xff;" horiz-adv-x="547" 
d="M10 494h129l137 -352l136 352h125l-279 -674h-123l81 176zM245 641v-95h-95v95h95zM400 641v-95h-95v95h95z" />
    <glyph glyph-name="uni1E8F" unicode="&#x1e8f;" horiz-adv-x="547" 
d="M10 494h129l137 -352l136 352h125l-279 -674h-123l81 176zM325 644v-100h-100v100h100z" />
    <glyph glyph-name="uni1EF7" unicode="&#x1ef7;" horiz-adv-x="547" 
d="M10 494h129l137 -352l136 352h125l-279 -674h-123l81 176zM227 530l-32 40c46 15 59 26 59 39c0 11 -8 25 -73 35v2l53 52c93 -13 117 -45 117 -80c0 -34 -34 -69 -124 -88z" />
    <glyph glyph-name="uni1EF5" unicode="&#x1ef5;" horiz-adv-x="547" 
d="M10 494h129l137 -352l136 352h125l-279 -674h-123l81 176zM473 -49v-101h-100v101h100z" />
    <glyph glyph-name="zacute" unicode="&#x17a;" horiz-adv-x="481" 
d="M20 0v91l277 307h-265v96h415v-91l-275 -307h289v-96h-441zM163 595l182 101l36 -77l-190 -86z" />
    <glyph glyph-name="uni1E91" unicode="&#x1e91;" horiz-adv-x="481" 
d="M20 0v91l277 307h-265v96h415v-91l-275 -307h289v-96h-441zM95 585l133 104h38l133 -104l-35 -50l-117 66l-117 -66z" />
    <glyph glyph-name="zcaron" unicode="&#x17e;" horiz-adv-x="481" 
d="M20 0v91l277 307h-265v96h415v-91l-275 -307h289v-96h-441zM399 638l-133 -103h-38l-133 103l35 51l117 -67l117 67z" />
    <glyph glyph-name="zdotaccent" unicode="&#x17c;" horiz-adv-x="481" 
d="M20 0v91l277 307h-265v96h415v-91l-275 -307h289v-96h-441zM297 644v-100h-100v100h100z" />
    <glyph glyph-name="uni1E93" unicode="&#x1e93;" horiz-adv-x="481" 
d="M20 0v91l277 307h-265v96h415v-91l-275 -307h289v-96h-441zM296 -49v-101h-100v101h100z" />
    <glyph glyph-name="uni1E95" unicode="&#x1e95;" horiz-adv-x="481" 
d="M20 0v91l277 307h-265v96h415v-91l-275 -307h289v-96h-441zM108 -137v82h276v-82h-276z" />
    <glyph glyph-name="eth" unicode="&#xf0;" horiz-adv-x="578" 
d="M471 700v-3l-92 -76c112 -76 173 -190 173 -335c0 -102 -29 -176 -83 -229c-40 -41 -103 -73 -180 -73c-147 0 -260 107 -260 247c0 145 112 242 236 242c72 0 128 -25 167 -69c-25 66 -68 115 -132 153l-48 -40h-101v3l83 69c-31 12 -65 23 -102 33l31 88
c57 -13 108 -30 153 -53l51 43h104zM151 232c0 -80 60 -145 140 -145c41 0 71 15 96 41c28 27 43 67 43 107c0 81 -61 141 -140 141s-139 -64 -139 -144z" />
    <glyph glyph-name="thorn" unicode="&#xfe;" horiz-adv-x="595" 
d="M45 -180v880h120v-260c43 42 98 65 161 65c132 0 243 -99 243 -256c0 -160 -116 -261 -249 -261c-56 0 -111 19 -155 60v-228h-120zM161 246c0 -91 64 -155 144 -155c82 0 143 59 143 156s-61 156 -141 156c-81 0 -146 -67 -146 -157z" />
    <glyph glyph-name="uni0259" unicode="&#x259;" horiz-adv-x="555" 
d="M254 411c-52 0 -105 -23 -147 -70l-63 68c53 62 129 99 221 99c156 0 264 -104 264 -261c0 -148 -111 -263 -259 -263c-146 0 -244 103 -244 257c0 17 2 33 4 45h377c-15 81 -77 125 -153 125zM271 81c65 0 120 42 135 122h-262c12 -77 61 -122 127 -122z" />
    <glyph glyph-name="uniFB00.falt" horiz-adv-x="570" 
d="M46 554c0 96 53 146 151 146h76v-95h-56c-33 0 -51 -16 -51 -53v-58h107v-105h-107v-389h-120v554zM331 554c0 96 53 146 151 146h76v-95h-56c-33 0 -51 -16 -51 -53v-58h107v-105h-107v-389h-120v554z" />
    <glyph glyph-name="uniFB01.falt" horiz-adv-x="509" 
d="M46 554c0 96 53 146 151 146h76v-95h-56c-33 0 -51 -16 -51 -53v-58h107v-105h-107v-389h-120v554zM461 700v-121h-128v121h128zM337 494h120v-494h-120v494z" />
    <glyph glyph-name="uniFB02.falt" horiz-adv-x="509" 
d="M46 554c0 96 53 146 151 146h76v-95h-56c-33 0 -51 -16 -51 -53v-58h107v-105h-107v-389h-120v554zM457 700v-700h-120v700h120z" />
    <glyph glyph-name="uniFB03.falt" horiz-adv-x="794" 
d="M46 554c0 96 53 146 151 146h76v-95h-56c-33 0 -51 -16 -51 -53v-58h107v-105h-107v-389h-120v554zM331 554c0 96 53 146 151 146h76v-95h-56c-33 0 -51 -16 -51 -53v-58h107v-105h-107v-389h-120v554zM746 700v-121h-128v121h128zM622 494h120v-494h-120v494z" />
    <glyph glyph-name="uniFB04.falt" horiz-adv-x="794" 
d="M46 554c0 96 53 146 151 146h76v-95h-56c-33 0 -51 -16 -51 -53v-58h107v-105h-107v-389h-120v554zM331 554c0 96 53 146 151 146h76v-95h-56c-33 0 -51 -16 -51 -53v-58h107v-105h-107v-389h-120v554zM742 700v-700h-120v700h120z" />
    <glyph glyph-name="space" unicode=" " horiz-adv-x="178" 
 />
    <glyph glyph-name="uni00A0" unicode="&#xa0;" horiz-adv-x="178" 
 />
    <glyph glyph-name="uni2003" unicode="&#x2003;" horiz-adv-x="1000" 
 />
    <glyph glyph-name="uni2002" unicode="&#x2002;" horiz-adv-x="500" 
 />
    <glyph glyph-name="uni2004" unicode="&#x2004;" horiz-adv-x="333" 
 />
    <glyph glyph-name="uni2005" unicode="&#x2005;" horiz-adv-x="250" 
 />
    <glyph glyph-name="uni2009" unicode="&#x2009;" horiz-adv-x="125" 
 />
    <glyph glyph-name="uni202F" unicode="&#x202f;" horiz-adv-x="42" 
 />
    <glyph glyph-name="uni200A" unicode="&#x200a;" horiz-adv-x="42" 
 />
    <glyph glyph-name="space.frac" horiz-adv-x="42" 
 />
    <glyph glyph-name="uni0000" 
 />
    <glyph glyph-name="uni0000" 
 />
    <glyph glyph-name="zero.num" horiz-adv-x="367" 
d="M20 522c0 121 67 188 164 188c96 0 162 -65 162 -186c0 -122 -67 -188 -163 -188c-97 0 -163 65 -163 186zM183 633c-44 0 -76 -33 -76 -110c0 -78 33 -110 76 -110c45 0 77 33 77 109c0 79 -33 111 -77 111z" />
    <glyph glyph-name="one.num" horiz-adv-x="201" 
d="M7 621v79h158v-354h-85v275h-73z" />
    <glyph glyph-name="two.num" horiz-adv-x="323" 
d="M22 346v70l104 83c73 55 85 70 85 93c0 24 -20 41 -48 41c-35 0 -57 -22 -59 -66h-86c2 84 56 143 150 143c84 0 130 -50 130 -113c0 -42 -26 -79 -100 -134l-57 -44l164 2v-75h-283z" />
    <glyph glyph-name="three.num" horiz-adv-x="338" 
d="M234 456c0 25 -20 40 -64 40h-25v62h21c44 0 60 16 60 38s-21 38 -53 38c-41 0 -63 -24 -65 -57h-82c2 71 55 133 151 133c90 0 134 -49 134 -100c0 -37 -19 -67 -63 -83c52 -14 71 -42 71 -80c0 -61 -52 -111 -147 -111c-90 0 -148 53 -151 143h82c2 -43 28 -67 70 -67
c37 0 61 19 61 44z" />
    <glyph glyph-name="four.num" horiz-adv-x="364" 
d="M18 410v68l149 222h127v-219h51v-71h-51v-64h-85v64h-191zM109 481h103v156z" />
    <glyph glyph-name="five.num" horiz-adv-x="333" 
d="M164 336c-64 0 -115 29 -143 73l51 51c25 -31 53 -48 89 -48c42 0 68 23 68 53c0 32 -25 50 -59 50c-25 0 -47 -10 -65 -26l-69 8l-2 2l14 201h241v-75h-169l-5 -63c21 11 45 17 73 17c75 0 128 -41 128 -117c0 -72 -56 -126 -152 -126z" />
    <glyph glyph-name="six.num" horiz-adv-x="340" 
d="M323 475c0 -81 -68 -139 -158 -139c-81 0 -147 52 -147 133c0 55 25 99 78 161l59 70h112v-2l-89 -91c-5 -5 -11 -11 -15 -16c8 1 17 2 26 2c78 0 134 -48 134 -118zM173 529c-39 0 -68 -24 -68 -57c0 -37 30 -59 64 -59c40 0 67 27 67 60c0 32 -24 56 -63 56z" />
    <glyph glyph-name="seven.num" horiz-adv-x="307" 
d="M137 346h-95l160 279h-189v75h282v-63z" />
    <glyph glyph-name="eight.num" horiz-adv-x="348" 
d="M174 336c-87 0 -152 41 -152 107c0 41 27 70 67 86c-35 16 -58 42 -58 78c0 64 62 103 144 103s142 -39 142 -102c0 -36 -23 -63 -57 -78c39 -17 66 -45 66 -86c0 -67 -65 -108 -152 -108zM175 562c33 0 59 15 59 40c0 23 -26 38 -60 38s-60 -15 -60 -39
c0 -26 27 -39 61 -39zM175 406c39 0 68 17 68 43c0 29 -29 44 -69 44c-39 0 -69 -16 -69 -45c0 -25 30 -42 70 -42z" />
    <glyph glyph-name="nine.num" horiz-adv-x="340" 
d="M244 416l-59 -70h-112v2l89 91c5 5 11 11 15 16c-8 -1 -17 -2 -26 -2c-79 0 -134 48 -134 118c0 81 68 139 157 139c82 0 148 -52 148 -133c0 -55 -25 -98 -78 -161zM167 517c38 0 68 24 68 57c0 37 -31 59 -65 59c-40 0 -66 -27 -66 -60c0 -32 24 -56 63 -56z" />
    <glyph glyph-name="fraction" unicode="&#x2044;" horiz-adv-x="63" 
d="M203 702h97l-241 -375l-198 -329h-98l241 374z" />
    <glyph glyph-name="zero.den" horiz-adv-x="367" 
d="M20 176c0 121 67 188 164 188c96 0 162 -65 162 -186c0 -122 -67 -188 -163 -188c-97 0 -163 65 -163 186zM183 287c-44 0 -76 -33 -76 -110c0 -78 33 -110 76 -110c45 0 77 33 77 109c0 79 -33 111 -77 111z" />
    <glyph glyph-name="one.den" horiz-adv-x="201" 
d="M7 275v79h158v-354h-85v275h-73z" />
    <glyph glyph-name="two.den" horiz-adv-x="323" 
d="M22 0v70l104 83c73 55 85 70 85 93c0 24 -20 41 -48 41c-35 0 -57 -22 -59 -66h-86c2 84 56 143 150 143c84 0 130 -50 130 -113c0 -42 -26 -79 -100 -134l-57 -44l164 2v-75h-283z" />
    <glyph glyph-name="three.den" horiz-adv-x="338" 
d="M234 110c0 25 -20 40 -64 40h-25v62h21c44 0 60 16 60 38s-21 38 -53 38c-41 0 -63 -24 -65 -57h-82c2 71 55 133 151 133c90 0 134 -49 134 -100c0 -37 -19 -67 -63 -83c52 -14 71 -42 71 -80c0 -61 -52 -111 -147 -111c-90 0 -148 53 -151 143h82c2 -43 28 -67 70 -67
c37 0 61 19 61 44z" />
    <glyph glyph-name="four.den" horiz-adv-x="364" 
d="M17 64v68l149 222h127v-219h51v-71h-51v-64h-85v64h-191zM108 135h103v156z" />
    <glyph glyph-name="five.den" horiz-adv-x="333" 
d="M164 -10c-64 0 -115 29 -143 73l51 51c25 -31 53 -48 89 -48c42 0 68 23 68 53c0 32 -25 50 -59 50c-25 0 -47 -10 -65 -26l-69 8l-2 2l14 201h241v-75h-169l-5 -63c21 11 45 17 73 17c75 0 128 -41 128 -117c0 -72 -56 -126 -152 -126z" />
    <glyph glyph-name="six.den" horiz-adv-x="340" 
d="M323 129c0 -81 -68 -139 -158 -139c-81 0 -147 52 -147 133c0 55 25 99 78 161l59 70h112v-2l-89 -91c-5 -5 -11 -11 -15 -16c8 1 17 2 26 2c78 0 134 -48 134 -118zM173 183c-39 0 -68 -24 -68 -57c0 -37 30 -59 64 -59c40 0 67 27 67 60c0 32 -24 56 -63 56z" />
    <glyph glyph-name="seven.den" horiz-adv-x="307" 
d="M137 0h-95l160 279h-189v75h282v-63z" />
    <glyph glyph-name="eight.den" horiz-adv-x="348" 
d="M174 -10c-87 0 -152 41 -152 107c0 41 27 70 67 86c-35 16 -58 42 -58 78c0 64 62 103 144 103s142 -39 142 -102c0 -36 -23 -63 -57 -78c39 -17 66 -45 66 -86c0 -67 -65 -108 -152 -108zM175 216c33 0 59 15 59 40c0 23 -26 38 -60 38s-60 -15 -60 -39
c0 -26 27 -39 61 -39zM175 60c39 0 68 17 68 43c0 29 -29 44 -69 44c-39 0 -69 -16 -69 -45c0 -25 30 -42 70 -42z" />
    <glyph glyph-name="nine.den" horiz-adv-x="340" 
d="M244 70l-59 -70h-112v2l89 91c5 5 11 11 15 16c-8 -1 -17 -2 -26 -2c-79 0 -134 48 -134 118c0 81 68 139 157 139c82 0 148 -52 148 -133c0 -55 -25 -98 -78 -161zM167 171c38 0 68 24 68 57c0 37 -31 59 -65 59c-40 0 -66 -27 -66 -60c0 -32 24 -56 63 -56z" />
    <glyph glyph-name="uni2011" unicode="&#x2011;" horiz-adv-x="317" 
d="M25 350h267v-113h-267v113z" />
    <glyph glyph-name="uni2015" unicode="&#x2015;" horiz-adv-x="857" 
d="M25 347h807v-107h-807v107z" />
    <glyph glyph-name="middotcat" horiz-adv-x="187" 
d="M162 422v-137h-137v137h137z" />
    <glyph glyph-name="middotcat.cap" horiz-adv-x="229" 
d="M137 461v-140h-140v140h140z" />
    <glyph glyph-name="uni0301" unicode="&#x301;" 
d="M-84 595l182 101l36 -77l-190 -86z" />
    <glyph glyph-name="uni030B" unicode="&#x30b;" 
d="M-140 583l102 108l61 -60l-115 -98zM14 583l103 108l60 -60l-115 -98z" />
    <glyph glyph-name="uni0300" unicode="&#x300;" 
d="M84 595l-28 -62l-190 86l36 77z" />
    <glyph glyph-name="uni0315" unicode="&#x315;" 
d="M0 525v175h101l-25 -175h-76z" />
    <glyph glyph-name="uni0302" unicode="&#x302;" 
d="M-152 585l133 104h38l133 -104l-35 -50l-117 66l-117 -66z" />
    <glyph glyph-name="uni030C" unicode="&#x30c;" 
d="M152 638l-133 -103h-38l-133 103l35 51l117 -67l117 67z" />
    <glyph glyph-name="uni0306" unicode="&#x306;" 
d="M0 615c42 0 67 23 81 69l74 -12c-15 -99 -73 -137 -155 -137s-140 38 -155 137l74 12c14 -46 39 -69 81 -69z" />
    <glyph glyph-name="uni0303" unicode="&#x303;" 
d="M12 641c27 -20 35 -25 43 -25c12 0 20 9 30 59l71 -11c-13 -108 -51 -131 -92 -131c-21 0 -36 6 -76 37c-27 20 -35 25 -43 25c-12 0 -20 -9 -30 -59l-71 11c13 108 51 131 92 131c21 0 36 -7 76 -37z" />
    <glyph glyph-name="uni0304" unicode="&#x304;" 
d="M-138 550v81h276v-81h-276z" />
    <glyph glyph-name="uni0304.nrw" 
d="M-106 550v81h212v-81h-212z" />
    <glyph glyph-name="uni0308" unicode="&#x308;" 
d="M-30 641v-95h-95v95h95zM125 641v-95h-95v95h95z" />
    <glyph glyph-name="uni0307" unicode="&#x307;" 
d="M50 644v-100h-100v100h100z" />
    <glyph glyph-name="uni030A" unicode="&#x30a;" 
d="M-1 533c-67 0 -119 46 -119 106c0 59 53 107 121 107c67 0 119 -49 119 -106c0 -61 -53 -107 -121 -107zM0 598c29 0 49 19 49 43c0 21 -19 39 -50 39c-28 0 -48 -19 -48 -42c0 -22 20 -40 49 -40z" />
    <glyph glyph-name="uni0312" unicode="&#x312;" 
d="M30 698l32 -40c-46 -15 -59 -26 -59 -39c0 -11 8 -24 73 -35v-2l-53 -52c-93 13 -117 45 -117 80c0 34 33 69 124 88z" />
    <glyph glyph-name="uni0309" unicode="&#x309;" 
d="M-48 530l-32 40c46 15 59 26 59 39c0 11 -8 25 -73 35v2l53 52c93 -13 117 -45 117 -80c0 -34 -34 -69 -124 -88z" />
    <glyph glyph-name="uni032D" unicode="&#x32d;" 
d="M-152 -142l133 104h38l133 -104l-35 -50l-117 66l-117 -66z" />
    <glyph glyph-name="uni032E" unicode="&#x32e;" 
d="M0 -110c42 0 67 23 81 70l74 -12c-15 -99 -73 -138 -155 -138s-140 39 -155 138l74 12c14 -47 39 -70 81 -70z" />
    <glyph glyph-name="uni0331" unicode="&#x331;" 
d="M-138 -137v82h276v-82h-276z" />
    <glyph glyph-name="uni0331.nrw" 
d="M-106 -137v82h212v-82h-212z" />
    <glyph glyph-name="uni0324" unicode="&#x324;" 
d="M-30 -51v-96h-95v96h95zM125 -51v-96h-95v96h95z" />
    <glyph glyph-name="uni0323" unicode="&#x323;" 
d="M50 -49v-101h-100v101h100z" />
    <glyph glyph-name="uni0326" unicode="&#x326;" 
d="M-48 -206l-32 40c46 15 59 26 59 39c0 11 -8 25 -73 35v2l53 52c93 -13 117 -45 117 -80c0 -34 -34 -69 -124 -88z" />
    <glyph glyph-name="uni0327" unicode="&#x327;" 
d="M-22 18h64l-16 -60c47 0 83 -25 83 -67c0 -44 -37 -79 -99 -79c-31 0 -62 8 -92 27l24 47c27 -14 45 -19 63 -19c24 0 33 11 33 22c0 12 -10 20 -30 20c-9 0 -19 -2 -33 -7l-26 8l-1 2z" />
    <glyph glyph-name="uni0328" unicode="&#x328;" 
d="M-88 -102c0 22 8 49 66 110h66c-43 -53 -49 -67 -49 -78c0 -14 9 -21 41 -21h27v-76h-63c-62 0 -88 24 -88 65z" />
    <glyph glyph-name="uni00A80301" 
d="M-85 707l183 75l25 -68l-189 -60zM-31 630v-84h-93v84h93zM124 630v-84h-93v84h93z" />
    <glyph glyph-name="uni00A80300" 
d="M85 707l-19 -53l-189 60l25 68zM-31 630v-84h-93v84h93zM124 630v-84h-93v84h93z" />
    <glyph glyph-name="uni00A8030C" 
d="M136 737l-117 -85h-38l-117 85l29 46l107 -59l107 59zM-31 630v-84h-93v84h93zM124 630v-84h-93v84h93z" />
    <glyph glyph-name="uni00A80304" 
d="M-112 665v70h224v-70h-224zM-31 630v-84h-93v84h93zM124 630v-84h-93v84h93z" />
    <glyph glyph-name="uni02D80301" 
d="M-68 707l183 75l25 -68l-189 -60zM0 603c45 0 76 18 90 58l63 -12c-15 -83 -74 -114 -153 -114s-138 31 -153 114l63 12c15 -39 45 -58 90 -58z" />
    <glyph glyph-name="uni02D80300" 
d="M77 707l-19 -53l-189 60l25 68zM0 603c45 0 76 18 90 58l63 -12c-14 -83 -74 -114 -153 -114s-139 31 -153 114l63 12c15 -39 45 -58 90 -58z" />
    <glyph glyph-name="uni02D80309" 
d="M-31 641l-26 38c49 15 61 21 61 32c0 9 -8 18 -75 28v2l45 41c89 -13 112 -36 112 -63c0 -31 -31 -60 -117 -78zM0 603c45 0 76 18 90 58l63 -12c-14 -83 -74 -114 -153 -114s-139 31 -153 114l63 12c15 -39 45 -58 90 -58z" />
    <glyph glyph-name="uni02D80303" 
d="M11 758c26 -15 35 -16 43 -16c11 0 20 5 28 40l59 -10c-10 -83 -42 -99 -75 -99c-18 0 -32 3 -66 23c-27 15 -36 17 -44 17c-11 0 -20 -6 -28 -41l-59 10c10 83 43 99 76 99c17 0 32 -3 66 -23zM0 603c45 0 76 18 90 58l63 -12c-15 -83 -74 -114 -153 -114
s-138 31 -153 114l63 12c15 -39 45 -58 90 -58z" />
    <glyph glyph-name="uni02C60301" 
d="M52 705l128 65l27 -66l-136 -49zM-148 585l129 78h38l129 -78l-28 -50l-120 52l-120 -52z" />
    <glyph glyph-name="uni02C60300" 
d="M166 705l-17 -51l-160 48l25 67zM-148 585l129 78h38l129 -78l-28 -50l-120 52l-120 -52z" />
    <glyph glyph-name="uni02C60309" 
d="M89 649l-26 38c48 15 61 20 61 31c0 9 -8 18 -75 28v2l44 42c90 -13 112 -36 112 -64c0 -30 -30 -60 -116 -77zM-148 585l129 78h38l129 -78l-28 -50l-120 52l-120 -52z" />
    <glyph glyph-name="uni02C60303" 
d="M10 758c26 -15 35 -16 43 -16c11 0 20 5 28 40l59 -10c-10 -83 -43 -99 -76 -99c-17 0 -32 3 -65 23c-27 15 -36 17 -44 17c-11 0 -20 -6 -28 -41l-59 10c10 83 43 99 76 99c17 0 32 -3 66 -23zM-148 585l129 78h38l129 -78l-28 -50l-120 52l-120 -52z" />
    <glyph glyph-name="uni0301.cap" 
d="M-82 805l213 82l29 -82l-219 -67z" />
    <glyph glyph-name="uni030B.cap" 
d="M-147 798l134 100l51 -72l-142 -88zM32 798l133 100l51 -72l-141 -88z" />
    <glyph glyph-name="uni0300.cap" 
d="M83 805l-23 -67l-220 67l30 82z" />
    <glyph glyph-name="uni0302.cap" 
d="M-166 791l147 90h38l148 -90l-28 -53l-139 54l-138 -54z" />
    <glyph glyph-name="uni030C.cap" 
d="M-166 829l28 52l139 -53l138 53l28 -52l-147 -91h-38z" />
    <glyph glyph-name="uni0306.cap" 
d="M0 822c43 0 75 13 95 54l73 -18c-23 -90 -86 -120 -168 -120s-145 30 -168 120l73 18c20 -40 52 -54 95 -54z" />
    <glyph glyph-name="uni0303.cap" 
d="M169 858c-12 -102 -55 -123 -95 -123c-21 0 -38 6 -78 28c-35 18 -47 22 -57 22c-15 0 -25 -6 -36 -48l-72 11c12 102 55 122 95 122c21 0 38 -6 78 -27c35 -18 47 -22 57 -22c15 0 26 6 36 48z" />
    <glyph glyph-name="uni0304.cap" 
d="M-147 753v85h294v-85h-294z" />
    <glyph glyph-name="uni0304.capnrw" 
d="M-111 753v85h222v-85h-222z" />
    <glyph glyph-name="uni0308.cap" 
d="M-40 848v-99h-98v99h98zM138 848v-99h-98v99h98z" />
    <glyph glyph-name="uni0307.cap" 
d="M52 852v-105h-104v105h104z" />
    <glyph glyph-name="uni030A.cap" 
d="M-1 736c-85 0 -138 46 -138 113s54 113 140 113c85 0 138 -46 138 -112c0 -68 -54 -114 -140 -114zM0 802c40 0 59 18 59 49c0 28 -20 44 -59 44c-40 0 -59 -17 -59 -47c0 -29 21 -46 59 -46z" />
    </font>
</defs>
</svg>
