<?xml version="1.0" standalone="no"?>
<!DOCTYPE svg PUBLIC "-//W3C//DTD SVG 1.1//EN" "http://www.w3.org/Graphics/SVG/1.1/DTD/svg11.dtd" >
<svg xmlns="http://www.w3.org/2000/svg" xmlns:xlink="http://www.w3.org/1999/xlink" version="1.1">
<metadata>
Created by FontForge 20201107 at Tue Sep 29 22:40:20 2020
 By Jimmy Wärting
(C) 2020 Intel Corporation
</metadata>
<defs>
<font id="IntelOneDisplay-Regular" horiz-adv-x="0" >
  <font-face 
    font-family="IntelOne Display"
    font-weight="400"
    font-stretch="normal"
    units-per-em="1000"
    panose-1="2 11 5 3 2 2 3 2 2 4"
    ascent="800"
    descent="-200"
    x-height="483"
    cap-height="700"
    bbox="-218 -240 1094 968"
    underline-thickness="50"
    underline-position="-100"
    stemh="71"
    stemv="81"
    unicode-range="U+0020-FB04"
  />
<missing-glyph horiz-adv-x="700" 
d="M100 -240v1200h500v-1200h-500zM192 910l158 -481l157 481h-315zM378 360l172 -514v1028zM321 360l-171 514v-1028zM350 291l-158 -481h315z" />
    <glyph glyph-name="uniFB00" unicode="ff" horiz-adv-x="577" 
d="M19 411v72h66v91c0 82 45 126 126 126h66v-68h-54c-35 0 -56 -18 -56 -60v-89h110v-72h-110v-411h-82v411h-66zM307 411v72h66v91c0 82 45 126 126 126h66v-68h-54c-35 0 -56 -18 -56 -60v-89h110v-72h-110v-411h-82v411h-66z" />
    <glyph glyph-name="uniFB01" unicode="fi" horiz-adv-x="494" 
d="M19 411v72h66v91c0 82 45 126 126 126h66v-68h-54c-35 0 -56 -18 -56 -60v-89h110v-72h-110v-411h-82v411h-66zM436 645v-89h-90v89h90zM350 483h82v-483h-82v483z" />
    <glyph glyph-name="uniFB02" unicode="fl" horiz-adv-x="494" 
d="M19 411v72h66v91c0 82 45 126 126 126h66v-68h-54c-35 0 -56 -18 -56 -60v-89h110v-72h-110v-411h-82v411h-66zM432 700v-700h-82v700h82z" />
    <glyph glyph-name="uniFB03" unicode="ffi" horiz-adv-x="783" 
d="M19 411v72h66v91c0 82 45 126 126 126h66v-68h-54c-35 0 -56 -18 -56 -60v-89h110v-72h-110v-411h-82v411h-66zM307 411v72h66v91c0 82 45 126 126 126h66v-68h-54c-35 0 -56 -18 -56 -60v-89h110v-72h-110v-411h-82v411h-66zM725 645v-89h-90v89h90zM639 483h82v-483
h-82v483z" />
    <glyph glyph-name="uniFB04" unicode="ffl" horiz-adv-x="783" 
d="M19 411v72h66v91c0 82 45 126 126 126h66v-68h-54c-35 0 -56 -18 -56 -60v-89h110v-72h-110v-411h-82v411h-66zM307 411v72h66v91c0 82 45 126 126 126h66v-68h-54c-35 0 -56 -18 -56 -60v-89h110v-72h-110v-411h-82v411h-66zM721 700v-700h-82v700h82z" />
    <glyph glyph-name=".notdef" horiz-adv-x="700" 
d="M100 -240v1200h500v-1200h-500zM192 910l158 -481l157 481h-315zM378 360l172 -514v1028zM321 360l-171 514v-1028zM350 291l-158 -481h315z" />
    <glyph glyph-name="A" unicode="A" horiz-adv-x="732" 
d="M103 0h-90l311 700h84l310 -700h-91l-93 211h-339zM229 287h272l-137 310z" />
    <glyph glyph-name="A.biform" horiz-adv-x="699" 
d="M556 0v132c-54 -91 -149 -142 -270 -142c-148 0 -251 81 -251 209c0 121 87 207 327 207h193c-2 147 -75 228 -204 228c-77 0 -150 -36 -221 -103l-50 60c77 76 169 121 280 121c181 0 281 -118 281 -314v-398h-85zM353 332c-184 0 -232 -56 -232 -130
c0 -65 55 -138 173 -138c148 0 254 105 261 268h-202z" />
    <glyph glyph-name="B" unicode="B" horiz-adv-x="663" 
d="M65 700h303c164 0 245 -73 245 -184c0 -61 -26 -124 -116 -159c94 -25 130 -87 130 -165c0 -113 -94 -192 -244 -192h-318v700zM366 624h-214v-233h227c88 0 148 51 148 121c0 68 -48 112 -161 112zM400 315h-248v-239h237c93 0 152 48 152 117c0 73 -53 122 -141 122z
" />
    <glyph glyph-name="C" unicode="C" horiz-adv-x="722" 
d="M388 61c100 0 177 45 232 140l66 -38c-54 -103 -153 -179 -300 -179c-203 0 -349 153 -349 365c0 206 153 367 358 367c134 0 234 -67 288 -175l-69 -41c-55 99 -127 139 -221 139c-155 0 -268 -124 -268 -288c0 -166 112 -290 263 -290z" />
    <glyph glyph-name="D" unicode="D" horiz-adv-x="731" 
d="M65 700h263c223 0 365 -147 365 -349c0 -201 -145 -351 -367 -351h-261v700zM327 622h-176v-544h176c171 0 279 117 279 271s-108 273 -279 273z" />
    <glyph glyph-name="E" unicode="E" horiz-adv-x="622" 
d="M65 700h508v-76h-422v-233h394v-76h-394v-239h422v-76h-508v700z" />
    <glyph glyph-name="E.biform" horiz-adv-x="763" 
d="M397 63c99 0 175 43 245 129l57 -54c-75 -95 -182 -153 -312 -153c-201 0 -350 152 -350 365c0 203 147 366 346 366c205 0 345 -153 345 -360c0 -16 -2 -30 -4 -40h-598c15 -164 140 -253 271 -253zM385 639c-125 0 -241 -90 -259 -248h514c-19 160 -119 248 -255 248z
" />
    <glyph glyph-name="F" unicode="F" horiz-adv-x="600" 
d="M65 700h502v-76h-416v-238h388v-76h-388v-310h-86v700z" />
    <glyph glyph-name="G" unicode="G" horiz-adv-x="768" 
d="M404 639c-159 0 -279 -124 -279 -288c0 -173 123 -290 271 -290c150 0 242 93 253 232h-267v74h347c2 -14 3 -30 3 -43c0 -203 -135 -340 -340 -340c-203 0 -355 155 -355 365c0 211 160 367 368 367c127 0 234 -61 295 -162l-64 -46c-60 92 -141 131 -232 131z" />
    <glyph glyph-name="H" unicode="H" horiz-adv-x="741" 
d="M65 700h86v-308h438v308h86v-700h-86v314h-438v-314h-86v700z" />
    <glyph glyph-name="I" unicode="I" horiz-adv-x="230" 
d="M72 700h86v-700h-86v700z" />
    <glyph glyph-name="J" unicode="J" horiz-adv-x="585" 
d="M270 -16c-142 0 -244 84 -246 269h84c5 -130 64 -192 164 -192c99 0 167 57 167 195v444h86v-446c0 -172 -90 -270 -255 -270z" />
    <glyph glyph-name="K" unicode="K" horiz-adv-x="655" 
d="M151 700v-320l372 320h117v-2l-402 -339l416 -357v-2h-122l-381 326v-326h-86v700h86z" />
    <glyph glyph-name="L" unicode="L" horiz-adv-x="575" 
d="M65 700h86v-623h404v-77h-490v700z" />
    <glyph glyph-name="M" unicode="M" horiz-adv-x="831" 
d="M766 700v-700h-86v590l-229 -400h-70l-230 399v-589h-86v700h114l237 -409l236 409h114z" />
    <glyph glyph-name="M.biform" horiz-adv-x="1153" 
d="M150 700v-97c43 68 119 111 217 111c110 0 187 -51 226 -134c41 80 127 134 244 134c169 0 257 -117 257 -286v-428h-86v419c0 142 -71 218 -180 218c-126 0 -205 -92 -205 -224v-413h-86v419c0 141 -69 218 -180 218c-125 0 -206 -89 -206 -224v-413h-86v700h85z" />
    <glyph glyph-name="N" unicode="N" horiz-adv-x="743" 
d="M149 0h-84v700h92l437 -572v572h84v-700h-90l-439 575v-575z" />
    <glyph glyph-name="N.biform" horiz-adv-x="754" 
d="M150 700v-119c48 80 137 133 253 133c191 0 292 -130 292 -318v-396h-86v388c0 149 -76 249 -216 249c-155 0 -242 -111 -242 -254v-383h-86v700h85z" />
    <glyph glyph-name="O" unicode="O" horiz-adv-x="786" 
d="M394 716c203 0 355 -158 355 -365s-154 -367 -356 -367c-203 0 -356 158 -356 365s155 367 357 367zM394 61c153 0 267 124 267 288s-116 290 -268 290c-154 0 -268 -125 -268 -288s116 -290 269 -290z" />
    <glyph glyph-name="P" unicode="P" horiz-adv-x="637" 
d="M65 700h304c157 0 248 -86 248 -213c0 -131 -104 -218 -264 -218h-202v-269h-86v700zM366 622h-215v-276h208c108 0 170 57 170 139c0 83 -57 137 -163 137z" />
    <glyph glyph-name="Q" unicode="Q" horiz-adv-x="786" 
d="M354 -15v3c-183 19 -317 168 -317 361c0 207 155 367 357 367c203 0 355 -158 355 -365c0 -192 -134 -343 -315 -363c1 -61 25 -85 88 -85h63v-67h-73c-104 0 -158 46 -158 149zM394 61c153 0 267 124 267 288s-116 290 -268 290c-154 0 -268 -125 -268 -288
s116 -290 269 -290z" />
    <glyph glyph-name="R" unicode="R" horiz-adv-x="668" 
d="M639 0h-102l-189 285h-197v-285h-86v700h308c162 0 250 -81 250 -204c0 -105 -69 -178 -183 -201zM371 624h-220v-264h213c111 0 172 57 172 134c0 79 -57 130 -165 130z" />
    <glyph glyph-name="S" unicode="S" horiz-adv-x="656" 
d="M328 317c-196 9 -272 66 -272 185c0 117 110 212 269 212c119 0 207 -42 273 -117l-54 -57c-55 61 -133 97 -219 97c-115 0 -184 -62 -184 -128s40 -106 197 -111c197 -8 275 -71 275 -194c0 -122 -113 -218 -281 -218c-138 0 -229 44 -301 134l53 57
c70 -81 148 -114 248 -114c123 0 196 63 196 134s-42 115 -200 120z" />
    <glyph glyph-name="T" unicode="T" horiz-adv-x="669" 
d="M20 622v78h629v-78h-271v-622h-86v622h-272z" />
    <glyph glyph-name="U" unicode="U" horiz-adv-x="751" 
d="M609 315v385h85v-387c0 -196 -126 -329 -320 -329c-193 0 -318 133 -318 329v387h86v-385c0 -150 95 -254 234 -254c140 0 233 104 233 254z" />
    <glyph glyph-name="V" unicode="V" horiz-adv-x="732" 
d="M13 700h94l261 -590l258 590h92l-310 -700h-85z" />
    <glyph glyph-name="W" unicode="W" horiz-adv-x="966" 
d="M771 0h-90l-199 577l-197 -577h-90l-159 700h88l124 -574l194 574h83l194 -575l123 575h89z" />
    <glyph glyph-name="X" unicode="X" horiz-adv-x="693" 
d="M15 0l278 361l-263 339h108l208 -279l208 279h104l-259 -338l279 -362h-107l-226 301l-226 -301h-104z" />
    <glyph glyph-name="Y" unicode="Y" horiz-adv-x="672" 
d="M671 700l-292 -407v-293h-86v293l-292 407h106l230 -334l231 334h103z" />
    <glyph glyph-name="Z" unicode="Z" horiz-adv-x="687" 
d="M29 0v65l492 561h-474v74h592v-65l-494 -561h512v-74h-628z" />
    <glyph glyph-name="a" unicode="a" horiz-adv-x="515" 
d="M389 0v79c-40 -57 -110 -89 -185 -89c-106 0 -180 58 -180 147c0 91 65 148 222 148h142c-1 91 -49 142 -134 142c-54 0 -103 -24 -148 -65l-43 54c50 48 116 81 199 81c135 0 206 -88 206 -216v-281h-79zM247 222c-105 0 -143 -30 -143 -83c0 -44 40 -84 109 -84
c89 0 170 62 175 167h-141z" />
    <glyph glyph-name="b" unicode="b" horiz-adv-x="581" 
d="M53 0v700h81v-292c42 53 106 86 177 86c129 0 239 -97 239 -251c0 -157 -115 -254 -243 -254c-68 0 -132 31 -174 83v-72h-80zM131 239c0 -104 76 -179 169 -179c95 0 167 68 167 181s-71 181 -164 181c-94 0 -172 -77 -172 -183z" />
    <glyph glyph-name="c" unicode="c" horiz-adv-x="528" 
d="M281 -15c-146 0 -250 100 -250 255c0 145 111 256 252 256c103 0 177 -49 214 -138l-69 -33c-30 65 -78 100 -146 100c-96 0 -168 -82 -168 -185c0 -104 72 -184 170 -184c61 0 119 34 153 97l63 -34c-37 -80 -117 -134 -219 -134z" />
    <glyph glyph-name="d" unicode="d" horiz-adv-x="581" 
d="M529 700v-700h-81v78c-42 -54 -106 -88 -179 -88c-127 0 -238 96 -238 250c0 157 117 255 244 255c67 0 129 -29 172 -79v284h82zM450 243c0 106 -74 180 -168 180c-95 0 -168 -69 -168 -181s71 -181 164 -181c95 0 172 77 172 182z" />
    <glyph glyph-name="e" unicode="e" horiz-adv-x="544" 
d="M286 54c61 0 116 25 163 83l49 -45c-54 -70 -126 -107 -219 -107c-144 0 -248 105 -248 255c0 146 108 255 246 255s238 -98 238 -249c0 -13 -2 -29 -3 -34h-397c11 -98 84 -158 171 -158zM278 426c-80 0 -149 -55 -163 -151h318c-12 94 -73 151 -155 151z" />
    <glyph glyph-name="f" unicode="f" horiz-adv-x="288" 
d="M19 411v72h66v91c0 82 45 126 126 126h66v-68h-54c-35 0 -56 -18 -56 -60v-89h110v-72h-110v-411h-82v411h-66z" />
    <glyph glyph-name="f.alt" horiz-adv-x="259" 
d="M56 574c0 82 44 126 125 126h66v-68h-54c-35 0 -56 -18 -56 -60v-89h110v-72h-110v-411h-81v574z" />
    <glyph glyph-name="g" unicode="g" horiz-adv-x="582" 
d="M448 57v34c-43 -52 -107 -84 -179 -84c-127 0 -238 92 -238 243c0 148 111 245 241 245c70 0 134 -31 177 -84v72h81v-423c0 -147 -72 -240 -257 -240h-122v70h126c114 0 171 57 171 167zM452 250c0 101 -78 173 -171 173c-95 0 -167 -63 -167 -172
c0 -107 72 -172 167 -172c93 0 171 72 171 171z" />
    <glyph glyph-name="h" unicode="h" horiz-adv-x="557" 
d="M134 700v-290c36 52 94 85 170 85c135 0 206 -95 206 -232v-263h-81v258c0 97 -49 164 -144 164c-94 0 -151 -73 -151 -169v-253h-81v700h81z" />
    <glyph glyph-name="i" unicode="i" horiz-adv-x="206" 
d="M148 645v-89h-90v89h90zM62 483h82v-483h-82v483z" />
    <glyph glyph-name="j" unicode="j" horiz-adv-x="207" 
d="M149 645v-89h-90v89h90zM145 -50c0 -85 -45 -130 -127 -130h-58v68h47c35 0 56 18 56 61v534h82v-533z" />
    <glyph glyph-name="k" unicode="k" horiz-adv-x="472" 
d="M134 700v-422l226 205h108v-2l-259 -228l260 -251v-2h-108l-227 224v-224h-81v700h81z" />
    <glyph glyph-name="l" unicode="l" horiz-adv-x="206" 
d="M144 700v-700h-82v700h82z" />
    <glyph glyph-name="m" unicode="m" horiz-adv-x="818" 
d="M133 483v-58c33 43 78 70 139 70c71 0 122 -32 151 -82c34 50 89 82 162 82c121 0 186 -90 186 -198v-297h-82v292c0 77 -39 130 -116 130c-75 0 -121 -59 -121 -135v-287h-81v292c0 77 -39 130 -116 130c-75 0 -121 -59 -121 -135v-287h-81v483h80z" />
    <glyph glyph-name="n" unicode="n" horiz-adv-x="557" 
d="M133 483v-75c36 53 95 87 173 87c133 0 204 -95 204 -232v-263h-81v258c0 97 -49 164 -142 164c-96 0 -153 -73 -153 -169v-253h-81v483h80z" />
    <glyph glyph-name="o" unicode="o" horiz-adv-x="565" 
d="M281 -15c-143 0 -250 111 -250 255s109 256 253 256c143 0 250 -111 250 -255s-109 -256 -253 -256zM283 56c95 0 168 80 168 185c0 102 -73 184 -169 184c-95 0 -168 -80 -168 -185c0 -103 73 -184 169 -184z" />
    <glyph glyph-name="p" unicode="p" horiz-adv-x="581" 
d="M53 -180v663h80v-78c42 55 106 89 179 89c128 0 238 -97 238 -251c0 -157 -116 -254 -244 -254c-66 0 -129 29 -172 79v-248h-81zM131 239c0 -104 75 -179 169 -179c95 0 167 68 167 181s-71 181 -164 181c-95 0 -172 -77 -172 -183z" />
    <glyph glyph-name="q" unicode="q" horiz-adv-x="581" 
d="M529 483v-663h-82v254c-42 -52 -105 -84 -177 -84c-127 0 -239 96 -239 250c0 157 116 255 243 255c68 0 132 -30 174 -83v71h81zM450 243c0 106 -75 180 -168 180c-95 0 -168 -69 -168 -181s71 -181 164 -181c95 0 172 77 172 182z" />
    <glyph glyph-name="r" unicode="r" horiz-adv-x="330" 
d="M133 483v-61c29 43 76 64 140 64h44v-77h-45c-93 0 -138 -49 -138 -145v-264h-81v483h80z" />
    <glyph glyph-name="s" unicode="s" horiz-adv-x="471" 
d="M233 -13c-81 0 -153 26 -211 78l42 62c64 -53 114 -72 171 -72c81 0 129 35 129 81c0 45 -28 69 -129 71c-139 5 -194 50 -194 140c0 83 76 149 191 149c76 0 143 -24 198 -71l-39 -61c-59 47 -107 63 -160 63c-70 0 -112 -36 -112 -76c0 -41 26 -66 117 -70
c148 -4 206 -47 206 -140c0 -90 -83 -154 -209 -154z" />
    <glyph glyph-name="t" unicode="t" horiz-adv-x="302" 
d="M80 129v282h-66v72h66v148h81v-148h112v-72h-112v-275c0 -46 22 -63 59 -63h53v-73h-65c-90 0 -128 40 -128 129z" />
    <glyph glyph-name="t.alt" horiz-adv-x="275" 
d="M53 129v502h81v-148h112v-72h-112v-275c0 -46 23 -63 59 -63h53v-73h-65c-90 0 -128 40 -128 129z" />
    <glyph glyph-name="u" unicode="u" horiz-adv-x="557" 
d="M424 0v74c-36 -52 -94 -85 -173 -85c-132 0 -204 95 -204 231v263h82v-258c0 -96 48 -164 142 -164c95 0 152 74 152 169v253h82v-483h-81z" />
    <glyph glyph-name="v" unicode="v" horiz-adv-x="512" 
d="M13 483h89l157 -386l156 386h84l-205 -483h-74z" />
    <glyph glyph-name="w" unicode="w" horiz-adv-x="726" 
d="M576 0h-79l-135 371l-134 -371h-78l-122 483h82l86 -369l131 369h72l130 -369l87 369h82z" />
    <glyph glyph-name="x" unicode="x" horiz-adv-x="489" 
d="M9 0l188 249l-175 234h96l127 -177l129 177h90l-175 -233l191 -250h-95l-142 195l-143 -195h-91z" />
    <glyph glyph-name="y" unicode="y" horiz-adv-x="512" 
d="M13 483h89l156 -384l156 384h85l-281 -663h-84l83 184z" />
    <glyph glyph-name="z" unicode="z" horiz-adv-x="467" 
d="M22 0v64l308 351h-296v68h398v-64l-305 -351h318v-68h-423z" />
    <glyph glyph-name="period" unicode="." horiz-adv-x="197" 
d="M149 101v-101h-101v101h101z" />
    <glyph glyph-name="comma" unicode="," horiz-adv-x="197" 
d="M8 -122l62 224h96l-96 -224h-62z" />
    <glyph glyph-name="colon" unicode=":" horiz-adv-x="216" 
d="M158 483v-100h-100v100h100zM158 101v-101h-100v101h100z" />
    <glyph glyph-name="semicolon" unicode=";" horiz-adv-x="216" 
d="M158 483v-100h-100v100h100zM12 -122l62 224h96l-96 -224h-62z" />
    <glyph glyph-name="question" unicode="?" horiz-adv-x="480" 
d="M256 182h-59c-10 61 -12 87 -12 110c0 27 11 42 49 70l71 53c55 41 73 77 73 117c0 67 -56 108 -127 108c-94 0 -153 -55 -157 -150h-83c4 134 93 226 244 226c124 0 210 -69 210 -180c0 -69 -27 -120 -101 -175l-71 -53c-22 -16 -25 -26 -37 -126zM276 95v-95h-100v95
h100z" />
    <glyph glyph-name="exclam" unicode="!" horiz-adv-x="206" 
d="M53 700h100l-22 -522h-57zM153 95v-95h-100v95h100z" />
    <glyph glyph-name="questiondown" unicode="&#xbf;" horiz-adv-x="480" 
d="M204 605v95h100v-95h-100zM224 518h59c10 -61 11 -87 11 -110c0 -27 -10 -42 -48 -70l-71 -53c-55 -41 -74 -77 -74 -117c0 -67 57 -108 127 -108c95 0 154 55 158 150h83c-4 -134 -93 -226 -244 -226c-124 0 -210 69 -210 180c0 69 26 120 101 175l71 53
c22 16 24 26 37 126z" />
    <glyph glyph-name="exclamdown" unicode="&#xa1;" horiz-adv-x="206" 
d="M53 605v95h100v-95h-100zM153 0h-99l21 522h57z" />
    <glyph glyph-name="ellipsis" unicode="&#x2026;" horiz-adv-x="554" 
d="M140 95v-95h-95v95h95zM324 95v-95h-95v95h95zM508 95v-95h-94v95h94z" />
    <glyph glyph-name="quotedblleft" unicode="&#x201c;" horiz-adv-x="352" 
d="M180 700l-63 -208h-97l98 208h62zM322 700l-63 -208h-96l98 208h61z" />
    <glyph glyph-name="quotedblright" unicode="&#x201d;" horiz-adv-x="352" 
d="M172 492l63 208h97l-98 -208h-62zM30 492l63 208h96l-97 -208h-62z" />
    <glyph glyph-name="quotedblbase" unicode="&#x201e;" horiz-adv-x="352" 
d="M172 -114l63 208h97l-98 -208h-62zM30 -114l63 208h96l-97 -208h-62z" />
    <glyph glyph-name="quoteleft" unicode="&#x2018;" horiz-adv-x="210" 
d="M180 700l-63 -208h-97l98 208h62z" />
    <glyph glyph-name="quoteright" unicode="&#x2019;" horiz-adv-x="210" 
d="M30 492l63 208h96l-97 -208h-62z" />
    <glyph glyph-name="quotesinglbase" unicode="&#x201a;" horiz-adv-x="210" 
d="M30 -114l63 208h96l-97 -208h-62z" />
    <glyph glyph-name="guillemotleft" unicode="&#xab;" horiz-adv-x="416" 
d="M219 78l-195 168v49l195 167v-70l-119 -119l119 -122v-73zM383 78l-194 168v49l194 167v-70l-122 -122l122 -119v-73z" />
    <glyph glyph-name="guillemotright" unicode="&#xbb;" horiz-adv-x="416" 
d="M198 462l194 -168v-49l-194 -167v71l118 120l-118 121v72zM33 462l194 -168v-49l-194 -167v71l123 116l-123 125v72z" />
    <glyph glyph-name="guilsinglleft" unicode="&#x2039;" horiz-adv-x="252" 
d="M219 78l-195 168v49l195 167v-70l-119 -119l119 -122v-73z" />
    <glyph glyph-name="guilsinglright" unicode="&#x203a;" horiz-adv-x="252" 
d="M33 462l195 -168v-49l-195 -167v71l123 116l-123 125v72z" />
    <glyph glyph-name="parenleft" unicode="(" horiz-adv-x="385" 
d="M41 349c0 191 102 362 286 477l41 -58c-155 -104 -243 -249 -243 -417s88 -313 243 -417l-41 -58c-185 115 -286 284 -286 473z" />
    <glyph glyph-name="parenright" unicode=")" horiz-adv-x="385" 
d="M343 351c0 -191 -101 -362 -286 -477l-40 58c155 104 242 249 242 417s-88 313 -242 417l41 58c184 -115 285 -284 285 -473z" />
    <glyph glyph-name="bracketleft" unicode="[" horiz-adv-x="359" 
d="M91 -121v942h246v-73h-164v-796h164v-73h-246z" />
    <glyph glyph-name="bracketright" unicode="]" horiz-adv-x="359" 
d="M23 748v73h246v-942h-246v73h164v796h-164z" />
    <glyph glyph-name="braceleft" unicode="{" horiz-adv-x="460" 
d="M30 317v66c174 39 200 63 200 90c0 11 -7 25 -47 80c-60 78 -71 108 -71 144c0 70 53 124 162 124h164v-73h-164c-52 0 -78 -23 -78 -52c0 -23 7 -40 58 -109c49 -65 60 -93 60 -120c0 -43 -25 -88 -178 -117c153 -29 178 -74 178 -117c0 -27 -11 -55 -60 -120
c-51 -69 -58 -86 -58 -109c0 -29 26 -52 78 -52h164v-73h-164c-109 0 -162 54 -162 124c0 36 11 66 71 144c40 55 47 69 47 80c0 27 -26 51 -200 90z" />
    <glyph glyph-name="braceright" unicode="}" horiz-adv-x="460" 
d="M431 317c-175 -39 -200 -63 -200 -90c0 -11 6 -25 47 -80c59 -78 70 -108 70 -144c0 -70 -53 -124 -162 -124h-163v73h163c52 0 78 23 78 52c0 23 -7 40 -58 109c-49 65 -59 93 -59 120c0 43 25 88 178 117c-153 29 -178 74 -178 117c0 27 10 55 59 120
c51 69 58 86 58 109c0 29 -26 52 -78 52h-163v73h163c109 0 162 -54 162 -124c0 -36 -11 -66 -70 -144c-41 -55 -47 -69 -47 -80c0 -27 25 -51 200 -90v-66z" />
    <glyph glyph-name="slash" unicode="/" horiz-adv-x="357" 
d="M372 821l-310 -942h-77l310 942h77z" />
    <glyph glyph-name="bar" unicode="|" horiz-adv-x="290" 
d="M182 821v-942h-75v942h75z" />
    <glyph glyph-name="backslash" unicode="\" horiz-adv-x="357" 
d="M-15 821h77l310 -942h-77z" />
    <glyph glyph-name="hyphen" unicode="-" horiz-adv-x="316" 
d="M28 327h261v-78h-261v78z" />
    <glyph glyph-name="endash" unicode="&#x2013;" horiz-adv-x="564" 
d="M28 324h508v-73h-508v73z" />
    <glyph glyph-name="emdash" unicode="&#x2014;" horiz-adv-x="850" 
d="M28 324h794v-73h-794v73z" />
    <glyph glyph-name="periodcentered" unicode="&#xb7;" horiz-adv-x="197" 
d="M149 339v-101h-101v101h101z" />
    <glyph glyph-name="bullet" unicode="&#x2022;" horiz-adv-x="369" 
d="M301 470v-233h-233v233h233z" />
    <glyph glyph-name="underscore" unicode="_" horiz-adv-x="504" 
d="M-2 -56h508v-73h-508v73z" />
    <glyph glyph-name="ampersand" unicode="&#x26;" horiz-adv-x="682" 
d="M575 0l-79 82c-59 -60 -138 -95 -229 -95c-143 0 -234 87 -234 198c0 95 57 169 177 198c-46 57 -68 112 -68 157c0 95 78 175 189 175c99 0 178 -70 178 -169c0 -82 -57 -160 -170 -191l150 -157c24 43 39 94 45 152h78c-7 -80 -31 -151 -68 -209l135 -141h-104z
M222 542c0 -38 19 -80 71 -139c97 26 137 84 137 138c0 62 -49 104 -103 104c-63 0 -105 -48 -105 -103zM116 192c0 -71 57 -131 159 -131c64 0 123 27 169 75l-187 194c-99 -22 -141 -74 -141 -138z" />
    <glyph glyph-name="at" unicode="@" horiz-adv-x="941" 
d="M680 157c81 0 174 95 174 237c0 163 -127 282 -333 282c-235 0 -432 -192 -432 -424c0 -196 120 -325 316 -325c73 0 135 15 204 53l20 -35c-67 -39 -138 -58 -228 -58c-218 0 -357 146 -357 361c0 258 216 468 482 468c224 0 373 -136 373 -317
c0 -167 -110 -288 -239 -288c-54 0 -91 21 -101 64c-35 -40 -84 -64 -146 -64c-92 0 -148 60 -148 153c0 122 102 227 224 227c55 0 105 -29 125 -73l17 57h70l-66 -215c-8 -24 -11 -43 -11 -58c0 -28 15 -45 56 -45zM427 173c91 0 153 78 153 165c0 55 -39 91 -98 91
c-78 0 -145 -77 -145 -161c0 -57 33 -95 90 -95z" />
    <glyph glyph-name="copyright" unicode="&#xa9;" horiz-adv-x="905" 
d="M453 750c229 0 404 -173 404 -399s-177 -401 -404 -401c-229 0 -405 173 -405 399s178 401 405 401zM453 -10c204 0 359 154 359 359s-157 361 -359 361c-205 0 -360 -155 -360 -359s158 -361 360 -361zM467 190c57 0 104 23 136 81l51 -30c-36 -68 -96 -113 -188 -113
c-131 0 -214 94 -214 221c0 126 87 223 217 223c83 0 150 -42 183 -110l-55 -32c-32 59 -74 80 -129 80c-92 0 -148 -68 -148 -159c0 -92 58 -161 147 -161z" />
    <glyph glyph-name="uni2117" unicode="&#x2117;" horiz-adv-x="905" 
d="M453 750c229 0 404 -173 404 -399s-177 -401 -404 -401c-229 0 -405 173 -405 399s178 401 405 401zM453 -10c204 0 359 154 359 359s-157 361 -359 361c-205 0 -360 -155 -360 -359s158 -361 360 -361zM308 562h188c103 0 162 -54 162 -137s-67 -137 -172 -137h-111
v-150h-67v424zM494 501h-119v-152h115c64 0 100 30 100 74c0 48 -35 78 -96 78z" />
    <glyph glyph-name="registered" unicode="&#xae;" horiz-adv-x="480" 
d="M22 507c0 119 94 209 218 209s218 -88 218 -208c0 -117 -95 -208 -218 -208c-125 0 -218 90 -218 207zM240 334c103 0 181 74 181 173s-79 174 -181 174s-180 -74 -180 -173c0 -98 79 -174 180 -174zM206 406h-43v203h98c47 0 73 -24 73 -62c0 -29 -18 -50 -49 -58
l49 -83h-49l-45 77h-34v-77zM261 569h-55v-46h53c21 0 32 10 32 24s-10 22 -30 22z" />
    <glyph glyph-name="uni2120" unicode="&#x2120;" horiz-adv-x="613" 
d="M133 559c-72 2 -102 26 -102 74c0 42 39 80 103 80c43 0 78 -15 103 -43l-28 -31c-19 21 -46 33 -76 33c-38 0 -57 -18 -57 -35c0 -21 14 -32 56 -33c79 -2 110 -27 110 -77c0 -49 -43 -85 -107 -85c-47 0 -82 18 -114 49l29 32c27 -26 53 -40 86 -40c40 0 61 20 61 40
s-15 35 -64 36zM566 708v-261h-45v216l-77 -145h-39l-78 145v-216h-45v261h69l73 -138l73 138h69z" />
    <glyph glyph-name="trademark" unicode="&#x2122;" horiz-adv-x="618" 
d="M18 665v43h236v-43h-96v-218h-45v218h-95zM571 708v-261h-45v216l-77 -145h-39l-78 147v-218h-45v261h69l74 -138l72 138h69z" />
    <glyph glyph-name="asterisk" unicode="*" horiz-adv-x="375" 
d="M312 422l-41 -31l-83 115l-84 -115l-41 31l92 110l-128 46l20 49l118 -53l-4 126h53l-4 -126l118 53l20 -49l-128 -46z" />
    <glyph glyph-name="dagger" unicode="&#x2020;" horiz-adv-x="323" 
d="M293 548l-108 2l3 -249h-53l2 249l-108 -2v50l108 -2l-2 104h53l-2 -104l107 2v-50z" />
    <glyph glyph-name="daggerdbl" unicode="&#x2021;" horiz-adv-x="323" 
d="M283 399l-97 2l2 -100h-53l2 100l-98 -2v50l98 -2v103l-108 -2v50l108 -2l-2 104h53l-2 -104l107 2v-50l-108 2v-103l98 2v-50z" />
    <glyph glyph-name="section" unicode="&#xa7;" horiz-adv-x="587" 
d="M554 275c0 -64 -33 -126 -111 -150c46 -26 75 -71 75 -128c0 -94 -77 -183 -227 -183c-85 0 -160 27 -223 87l44 65c58 -52 117 -75 183 -75c91 0 138 46 138 98c0 56 -35 92 -157 99c-187 13 -243 73 -243 168c0 64 33 125 110 149c-46 26 -74 72 -74 129
c0 93 77 182 226 182c86 0 161 -27 224 -87l-45 -65c-57 52 -116 75 -182 75c-91 0 -138 -46 -138 -98c0 -55 35 -91 157 -98c186 -13 243 -74 243 -168zM256 174c58 -3 88 -5 103 -5c80 0 109 44 109 94c0 55 -36 87 -137 93c-58 4 -88 6 -103 6c-81 0 -109 -44 -109 -95
c0 -54 36 -86 137 -93z" />
    <glyph glyph-name="paragraph" unicode="&#xb6;" horiz-adv-x="479" 
d="M275 275h-4c-141 0 -243 86 -243 215c0 126 90 210 226 210h152v-700h-80v631h-51v-356z" />
    <glyph glyph-name="zero" unicode="0" horiz-adv-x="637" 
d="M37 365c0 218 113 351 283 351s280 -131 280 -349v-32c0 -218 -113 -351 -282 -351c-170 0 -281 131 -281 349v32zM123 367v-32c0 -179 78 -275 196 -275c119 0 195 96 195 273v32c0 179 -78 275 -196 275c-119 0 -195 -96 -195 -273z" />
    <glyph glyph-name="one" unicode="1" horiz-adv-x="291" 
d="M27 624v76h192v-700h-84v624h-108z" />
    <glyph glyph-name="two" unicode="2" horiz-adv-x="566" 
d="M38 0v70l242 222c118 107 148 155 148 222c0 75 -63 126 -141 126c-96 0 -158 -61 -162 -173h-82c3 150 97 249 246 249c129 0 225 -82 225 -200c0 -94 -42 -158 -184 -283l-177 -158h384v-75h-499z" />
    <glyph glyph-name="three" unicode="3" horiz-adv-x="579" 
d="M457 198c0 81 -66 134 -183 134h-44v71h42c120 0 171 62 171 123c0 66 -60 114 -152 114c-106 0 -156 -65 -162 -144h-82c3 111 89 220 248 220c146 0 234 -86 234 -183c0 -71 -39 -134 -130 -166c107 -30 144 -94 144 -173c0 -116 -104 -210 -254 -210
c-151 0 -253 86 -255 238h81c5 -108 73 -162 176 -162c98 0 166 62 166 138z" />
    <glyph glyph-name="four" unicode="4" horiz-adv-x="615" 
d="M13 165v64l346 471h118v-464h118v-71h-118v-165h-84v165h-380zM105 236h291v396z" />
    <glyph glyph-name="five" unicode="5" horiz-adv-x="582" 
d="M283 -16c-127 0 -217 70 -251 166l68 35c35 -83 103 -126 186 -126c107 0 178 73 178 166c0 99 -80 154 -170 154c-64 0 -125 -26 -176 -79l-60 9l-3 5l28 386h421v-78h-348l-19 -225c45 33 105 57 173 57c125 0 240 -79 240 -227c0 -132 -102 -243 -267 -243z" />
    <glyph glyph-name="six" unicode="6" horiz-adv-x="580" 
d="M552 234c0 -142 -117 -249 -270 -249c-141 0 -253 96 -253 239c0 108 40 194 162 325l140 151h108v-2l-187 -193c-25 -26 -46 -50 -64 -72c36 20 76 30 120 30c143 0 244 -93 244 -229zM295 392c-102 0 -180 -68 -180 -163c0 -102 76 -168 170 -168c110 0 181 77 181 172
c0 90 -63 159 -171 159z" />
    <glyph glyph-name="seven" unicode="7" horiz-adv-x="524" 
d="M204 0h-93l306 625h-407v75h493v-68z" />
    <glyph glyph-name="eight" unicode="8" horiz-adv-x="600" 
d="M299 -15c-150 0 -263 79 -263 201c0 84 54 146 135 177c-71 30 -117 87 -117 161c0 117 105 192 248 192s245 -74 245 -190c0 -74 -46 -131 -117 -162c81 -30 135 -92 135 -176c0 -123 -113 -203 -266 -203zM301 398c92 0 161 46 161 125c0 72 -70 119 -162 119
s-161 -47 -161 -121c0 -77 71 -123 162 -123zM301 59c102 0 179 51 179 132c0 83 -77 133 -180 133s-179 -50 -179 -135c0 -78 77 -130 180 -130z" />
    <glyph glyph-name="nine" unicode="9" horiz-adv-x="580" 
d="M390 151l-140 -151h-108v2l186 193c25 26 46 50 64 72c-36 -20 -76 -30 -120 -30c-143 0 -244 93 -244 229c0 142 117 249 270 249c141 0 254 -96 254 -239c0 -108 -41 -194 -162 -325zM285 308c103 0 181 68 181 163c0 102 -77 168 -171 168c-109 0 -181 -77 -181 -172
c0 -90 64 -159 171 -159z" />
    <glyph glyph-name="colon.fig" horiz-adv-x="216" 
d="M158 548v-100h-100v100h100zM158 257v-101h-100v101h100z" />
    <glyph glyph-name="plus" unicode="+" horiz-adv-x="460" 
d="M45 324v58h153v154h64v-154h153v-58h-153v-154h-64v154h-153z" />
    <glyph glyph-name="minus" unicode="&#x2212;" horiz-adv-x="460" 
d="M45 324v58h370v-58h-370z" />
    <glyph glyph-name="multiply" unicode="&#xd7;" horiz-adv-x="460" 
d="M100 179l-44 44l130 130l-130 129l45 45l130 -129l129 129l44 -44l-129 -129l129 -130l-45 -45l-129 130z" />
    <glyph glyph-name="divide" unicode="&#xf7;" horiz-adv-x="460" 
d="M272 537v-78h-83v78h83zM45 324v58h370v-58h-370zM272 247v-78h-83v78h83z" />
    <glyph glyph-name="equal" unicode="=" horiz-adv-x="460" 
d="M45 401v58h370v-58h-370zM45 247v58h370v-58h-370z" />
    <glyph glyph-name="notequal" unicode="&#x2260;" horiz-adv-x="460" 
d="M45 247v58h127l60 96h-187v58h222l58 95h60l-60 -95h90v-58h-127l-60 -96h187v-58h-222l-58 -95h-60l60 95h-90z" />
    <glyph glyph-name="approxequal" unicode="&#x2248;" horiz-adv-x="460" 
d="M422 494c-40 -115 -69 -135 -109 -135c-22 0 -39 5 -95 43c-42 29 -54 33 -69 33c-23 0 -40 -13 -67 -73l-50 17c36 105 70 120 112 120c22 0 39 -5 94 -43c43 -29 55 -33 70 -33c22 0 33 20 64 88zM428 322c-36 -105 -70 -120 -112 -120c-22 0 -39 5 -94 43
c-43 29 -55 33 -70 33c-22 0 -33 -20 -64 -88l-50 17c40 115 69 135 109 135c22 0 39 -5 95 -43c42 -29 54 -33 69 -33c23 0 40 13 67 73z" />
    <glyph glyph-name="asciitilde" unicode="~" horiz-adv-x="460" 
d="M424 405c-41 -115 -69 -135 -110 -135c-21 0 -39 5 -94 43c-43 29 -54 33 -69 33c-22 0 -33 -19 -65 -87l-50 17c41 115 69 134 110 134c21 0 39 -5 94 -43c43 -28 54 -33 69 -33c22 0 33 20 65 88z" />
    <glyph glyph-name="less" unicode="&#x3c;" horiz-adv-x="430" 
d="M380 152l-340 165v72l340 165v-72l-278 -129l278 -129v-72z" />
    <glyph glyph-name="greater" unicode="&#x3e;" horiz-adv-x="430" 
d="M50 554l340 -165v-72l-340 -165v72l278 129l-278 129v72z" />
    <glyph glyph-name="lessequal" unicode="&#x2264;" horiz-adv-x="430" 
d="M380 156l-340 165v72l340 165v-72l-278 -129l278 -129v-72zM40 0v58h340v-58h-340z" />
    <glyph glyph-name="greaterequal" unicode="&#x2265;" horiz-adv-x="430" 
d="M50 558l340 -165v-72l-340 -165v72l278 129l-278 129v72zM390 0h-340v58h340v-58z" />
    <glyph glyph-name="plusminus" unicode="&#xb1;" horiz-adv-x="460" 
d="M45 324v58h153v154h64v-154h153v-58h-153v-154h-64v154h-153zM415 0h-370v58h370v-58z" />
    <glyph glyph-name="asciicircum" unicode="^" horiz-adv-x="460" 
d="M38 456l154 250h75l155 -250h-78l-114 192l-114 -192h-78z" />
    <glyph glyph-name="uni03BC" unicode="&#x3bc;" horiz-adv-x="563" 
d="M270 -11c-61 0 -106 18 -137 50v-219h-80v663h81v-258c0 -97 49 -164 142 -164c97 0 153 75 153 169v253h81v-483h-80v72c-36 -53 -95 -83 -160 -83z" />
    <glyph glyph-name="numbersign" unicode="#" horiz-adv-x="616" 
d="M46 178v78h96l38 194h-102v78h117l34 174h70l-34 -174h155l34 174h70l-34 -174h80v-78h-95l-38 -194h101v-78h-116l-35 -180h-70l35 180h-155l-35 -180h-70l35 180h-81zM212 256h155l38 194h-155z" />
    <glyph glyph-name="percent" unicode="%" horiz-adv-x="770" 
d="M33 529c0 111 72 181 169 181s166 -69 166 -180s-70 -181 -167 -181s-168 69 -168 180zM594 702h74l-262 -369l-229 -335h-74l261 366zM201 651c-60 0 -101 -44 -101 -121c0 -76 42 -121 102 -121c58 0 100 44 100 120c0 77 -43 122 -101 122zM737 171
c0 -111 -72 -181 -168 -181c-97 0 -166 69 -166 180s70 181 167 181c96 0 167 -69 167 -180zM570 49c59 0 101 44 101 121c0 76 -43 121 -102 121s-100 -44 -100 -120c0 -77 42 -122 101 -122z" />
    <glyph glyph-name="ordfeminine" unicode="&#xaa;" horiz-adv-x="392" 
d="M277 399v44c-25 -30 -64 -50 -111 -50c-71 0 -120 35 -120 92c0 61 40 103 154 103h77c-3 48 -32 75 -81 75c-32 0 -64 -15 -93 -41l-29 42c34 33 78 52 128 52c92 0 138 -56 138 -136v-181h-63zM198 536c-73 0 -90 -21 -90 -48c0 -21 20 -44 65 -44c56 0 97 36 103 92
h-78zM53 335h287v-56h-287v56z" />
    <glyph glyph-name="ordmasculine" unicode="&#xba;" horiz-adv-x="408" 
d="M203 389c-91 0 -160 67 -160 163s70 164 162 164c90 0 160 -67 160 -163s-71 -164 -162 -164zM204 445c54 0 98 43 98 108c0 63 -44 107 -99 107c-54 0 -97 -43 -97 -109c0 -63 43 -106 98 -106zM53 335h302v-56h-302v56z" />
    <glyph glyph-name="quotedbl" unicode="&#x22;" horiz-adv-x="335" 
d="M195 492v208h94l-34 -208h-60zM54 492v208h94l-34 -208h-60z" />
    <glyph glyph-name="quotesingle" unicode="'" horiz-adv-x="194" 
d="M54 492v208h93l-34 -208h-59z" />
    <glyph glyph-name="degree" unicode="&#xb0;" horiz-adv-x="416" 
d="M36 546c0 102 73 170 173 170s171 -67 171 -169s-72 -170 -172 -170s-172 67 -172 169zM208 658c-62 0 -107 -44 -107 -111c0 -66 46 -111 108 -111s106 44 106 110c0 67 -45 112 -107 112z" />
    <glyph glyph-name="dollar" unicode="$" horiz-adv-x="629" 
d="M280 -111v113c-106 8 -188 54 -252 126l53 58c56 -60 122 -99 200 -109v240c-155 14 -229 71 -229 182c0 105 89 188 228 199v94h75v-95c92 -9 164 -48 219 -110l-54 -57c-44 49 -99 81 -166 90v-224c165 -13 234 -71 234 -188c0 -106 -93 -193 -233 -206v-113h-75z
M136 506c0 -61 36 -98 145 -109v225c-93 -9 -145 -59 -145 -116zM505 202c0 62 -34 104 -151 115v-240c95 11 151 66 151 125z" />
    <glyph glyph-name="cent" unicode="&#xa2;" horiz-adv-x="537" 
d="M248 -111v113c-129 16 -217 116 -217 264c0 137 92 245 217 264v100h76v-99c85 -10 148 -57 180 -135l-71 -34c-25 52 -62 85 -112 96v-383c49 10 93 41 120 93l65 -32c-30 -71 -96 -121 -182 -133v-114h-76zM116 265c0 -93 56 -170 135 -189v381
c-80 -18 -135 -96 -135 -192z" />
    <glyph glyph-name="sterling" unicode="&#xa3;" horiz-adv-x="559" 
d="M31 0v62c100 113 143 166 158 200h-149v69h143c-9 14 -24 31 -46 53c-63 63 -86 101 -86 159c0 89 84 172 225 172c114 0 203 -58 247 -153l-70 -37c-36 74 -101 113 -180 113c-85 0 -136 -46 -136 -98c0 -38 16 -63 55 -102c48 -50 71 -80 81 -107h214v-69h-212
c-12 -38 -48 -87 -138 -188h400v-74h-506z" />
    <glyph glyph-name="yen" unicode="&#xa5;" horiz-adv-x="636" 
d="M85 146v65h190v82h-190v65h157l-229 342h104l203 -320l200 320h103l-229 -342h157v-65h-190v-82h190v-65h-190v-146h-86v146h-190z" />
    <glyph glyph-name="Euro" unicode="&#x20ac;" horiz-adv-x="659" 
d="M8 245v65h84v82h-84v65h88c22 161 132 259 277 259c125 0 201 -62 245 -183l-73 -31c-39 101 -91 137 -174 137c-97 0 -167 -66 -185 -182h242v-65h-247v-82h247v-65h-243c17 -121 86 -184 183 -184c88 0 145 37 190 137l67 -32c-43 -115 -130 -182 -259 -182
c-146 0 -250 92 -270 261h-88z" />
    <glyph glyph-name="uni20A6" unicode="&#x20a6;" horiz-adv-x="756" 
d="M182 0h-83v240h-84v65h84v95h-84v65h84v235h112l144 -237h219v237h83v-235h84v-65h-84v-95h84v-65h-84v-240h-110l-147 242h-218v-242zM182 463h84l-84 138v-138zM453 302h121v101h-183zM182 302h182l-62 101h-120v-101zM489 242l85 -140v140h-85z" />
    <glyph glyph-name="uni20B1" unicode="&#x20b1;" horiz-adv-x="708" 
d="M95 0v450h-84v69h84v181h283c143 0 230 -72 244 -181h79v-69h-80c-18 -110 -116 -181 -259 -181h-181v-269h-86zM375 622h-194v-105h353c-14 65 -69 105 -159 105zM368 347c92 0 151 41 165 105h-352v-105h187z" />
    <glyph glyph-name="uni20BA" unicode="&#x20ba;" horiz-adv-x="612" 
d="M11 140v70l84 46v83l-84 -46v70l84 46v291h86v-244l273 149v-71l-273 -149v-82l273 149v-71l-273 -149v-155h95c135 0 222 68 234 220l81 -4c-11 -193 -130 -293 -313 -293h-183v186z" />
    <glyph glyph-name="uni20BD" unicode="&#x20bd;" horiz-adv-x="654" 
d="M11 151v65h84v83h-84v65h84v336h293c155 0 246 -79 246 -200c0 -122 -97 -201 -263 -201h-190v-83h275v-65h-275v-151h-86v151h-84zM384 622h-203v-258h194c111 0 172 54 172 129c0 78 -57 129 -163 129z" />
    <glyph glyph-name="uni20B9" unicode="&#x20b9;" horiz-adv-x="599" 
d="M38 455v62h358v120h-358v63h530v-63h-85v-120h85v-62h-87c-15 -126 -101 -187 -259 -187h-35l386 -268h-133l-402 279v59h187c105 0 156 39 168 117h-355z" />
    <glyph glyph-name="uni0E3F" unicode="&#xe3f;" horiz-adv-x="663" 
d="M65 0v700h233v92h75v-92c161 -1 240 -74 240 -184c0 -61 -26 -124 -116 -159c94 -25 130 -87 130 -165c0 -113 -94 -192 -244 -192h-10v-111h-75v111h-233zM300 624h-149v-233h149v233zM528 512c0 68 -48 112 -157 112v-233h8c89 0 149 51 149 121zM300 315h-149v-239
h149v239zM400 315h-29v-239h18c94 0 153 48 153 117c0 74 -53 122 -142 122z" />
    <glyph glyph-name="uni20A9" unicode="&#x20a9;" horiz-adv-x="931" 
d="M26 263v65h104l-17 96h-87v65h75l-37 211h86l36 -214h171l59 214h100l59 -214h170l35 214h87l-37 -211h74v-65h-86l-17 -96h103v-65h-114l-47 -263h-113l-73 266h-184l-72 -266h-113l-47 263h-115zM432 486h65l-33 119zM619 326h100l16 100h-144zM389 326h152l-28 100
h-97zM213 326h100l27 100h-144zM635 266l46 -168l28 168h-74zM223 266l28 -165l45 165h-73z" />
    <glyph glyph-name="dong" unicode="&#x20ab;" horiz-adv-x="636" 
d="M285 550v67h170v83h83v-83h85v-67h-85v-550h-82v77c-42 -54 -108 -87 -182 -87c-130 0 -243 92 -243 241c0 151 118 245 248 245c68 0 133 -30 176 -79v153h-170zM458 234c0 99 -75 168 -172 168c-96 0 -170 -64 -170 -169s72 -169 167 -169c97 0 175 72 175 170z
M41 -143v67h526v-67h-526z" />
    <glyph glyph-name="onehalf" unicode="&#xbd;" horiz-adv-x="604" 
d="M6 640v60h135v-354h-63v294h-72zM436 702h69l-228 -370l-199 -334h-69l227 368zM318 0v56l111 91c67 55 84 74 84 104c0 33 -28 55 -62 55c-44 0 -73 -29 -75 -83h-63c2 84 56 141 140 141c74 0 124 -48 124 -111c0 -45 -25 -78 -96 -135l-78 -63l180 1v-56h-265z" />
    <glyph glyph-name="onethird" unicode="&#x2153;" horiz-adv-x="616" 
d="M6 640v60h135v-354h-63v294h-72zM436 702h69l-228 -370l-199 -334h-69l227 368zM533 103c0 33 -26 52 -83 52h-22v52h20c57 0 77 23 77 51s-26 49 -65 49c-51 0 -76 -28 -78 -64h-61c1 61 51 121 141 121c82 0 127 -48 127 -100c0 -36 -21 -68 -68 -84
c55 -13 76 -43 76 -80c0 -61 -55 -110 -141 -110c-84 0 -140 49 -141 133h61c2 -50 33 -76 81 -76c44 0 76 25 76 56z" />
    <glyph glyph-name="twothirds" unicode="&#x2154;" horiz-adv-x="732" 
d="M24 346v56l111 91c67 55 84 74 84 104c0 33 -28 55 -62 55c-44 0 -73 -29 -75 -83h-63c2 84 56 141 140 141c74 0 124 -48 124 -111c0 -45 -25 -78 -96 -135l-78 -63l180 1v-56h-265zM552 702h69l-228 -370l-199 -334h-69l227 368zM650 103c0 33 -26 52 -83 52h-22v52h20
c57 0 77 23 77 51s-26 49 -65 49c-51 0 -76 -28 -78 -64h-61c1 61 51 121 141 121c82 0 127 -48 127 -100c0 -36 -21 -68 -68 -84c55 -13 76 -43 76 -80c0 -61 -55 -110 -141 -110c-84 0 -140 49 -141 133h61c2 -50 33 -76 81 -76c44 0 76 25 76 56z" />
    <glyph glyph-name="onequarter" unicode="&#xbc;" horiz-adv-x="600" 
d="M6 640v60h135v-354h-63v294h-72zM436 702h69l-228 -370l-199 -334h-69l227 368zM270 74v50l164 230h93v-227h55v-53h-55v-74h-63v74h-194zM340 127h126v178z" />
    <glyph glyph-name="threequarters" unicode="&#xbe;" horiz-adv-x="710" 
d="M240 449c0 33 -26 52 -83 52h-22v52h20c57 0 77 23 77 51s-26 49 -65 49c-51 0 -76 -28 -78 -64h-61c1 61 51 121 141 121c82 0 127 -48 127 -100c0 -36 -21 -68 -68 -84c55 -13 76 -43 76 -80c0 -61 -55 -110 -141 -110c-84 0 -140 49 -141 133h61c2 -50 33 -76 81 -76
c44 0 76 25 76 56zM546 702h69l-228 -370l-199 -334h-69l227 368zM380 74v50l164 230h93v-227h55v-53h-55v-74h-63v74h-194zM450 127h126v178z" />
    <glyph glyph-name="onefifth" unicode="&#x2155;" horiz-adv-x="637" 
d="M6 640v60h135v-354h-63v294h-72zM436 702h69l-228 -370l-199 -334h-69l227 368zM471 -10c-65 0 -115 35 -136 84l47 30c18 -37 50 -57 89 -57c50 0 83 31 83 70c0 42 -35 66 -75 66c-30 0 -58 -14 -80 -36l-51 5l-2 3l15 199h232v-56h-179l-8 -88c23 16 52 25 86 25
c69 0 126 -41 126 -118c0 -70 -54 -127 -147 -127z" />
    <glyph glyph-name="twofifths" unicode="&#x2156;" horiz-adv-x="753" 
d="M24 346v56l111 91c67 55 84 74 84 104c0 33 -28 55 -62 55c-44 0 -73 -29 -75 -83h-63c2 84 56 141 140 141c74 0 124 -48 124 -111c0 -45 -25 -78 -96 -135l-78 -63l180 1v-56h-265zM552 702h69l-228 -370l-199 -334h-69l227 368zM587 -10c-65 0 -115 35 -136 84l47 30
c18 -37 50 -57 89 -57c50 0 83 31 83 70c0 42 -35 66 -75 66c-30 0 -58 -14 -80 -36l-51 5l-2 3l15 199h232v-56h-179l-8 -88c23 16 52 25 86 25c69 0 126 -41 126 -118c0 -70 -54 -127 -147 -127z" />
    <glyph glyph-name="threefifths" unicode="&#x2157;" horiz-adv-x="747" 
d="M240 449c0 33 -26 52 -83 52h-22v52h20c57 0 77 23 77 51s-26 49 -65 49c-51 0 -76 -28 -78 -64h-61c1 61 51 121 141 121c82 0 127 -48 127 -100c0 -36 -21 -68 -68 -84c55 -13 76 -43 76 -80c0 -61 -55 -110 -141 -110c-84 0 -140 49 -141 133h61c2 -50 33 -76 81 -76
c44 0 76 25 76 56zM546 702h69l-228 -370l-199 -334h-69l227 368zM581 -10c-65 0 -115 35 -136 84l47 30c18 -37 50 -57 89 -57c50 0 83 31 83 70c0 42 -35 66 -75 66c-30 0 -58 -14 -80 -36l-51 5l-2 3l15 199h232v-56h-179l-8 -88c23 16 52 25 86 25
c69 0 126 -41 126 -118c0 -70 -54 -127 -147 -127z" />
    <glyph glyph-name="fourfifths" unicode="&#x2158;" horiz-adv-x="776" 
d="M16 420v50l164 230h93v-227h55v-53h-55v-74h-63v74h-194zM86 473h126v178zM575 702h69l-228 -370l-199 -334h-69l227 368zM610 -10c-65 0 -115 35 -136 84l47 30c18 -37 50 -57 89 -57c50 0 83 31 83 70c0 42 -35 66 -75 66c-30 0 -58 -14 -80 -36l-51 5l-2 3l15 199h232
v-56h-179l-8 -88c23 16 52 25 86 25c69 0 126 -41 126 -118c0 -70 -54 -127 -147 -127z" />
    <glyph glyph-name="onesixth" unicode="&#x2159;" horiz-adv-x="589" 
d="M6 640v60h135v-354h-63v294h-72zM436 702h69l-228 -370l-199 -334h-69l227 368zM572 123c0 -77 -65 -133 -150 -133c-76 0 -141 51 -141 127c0 54 22 95 74 158l65 79h83v-2l-85 -93c-10 -10 -18 -19 -25 -28c16 6 34 9 53 9c69 0 126 -47 126 -117zM429 189
c-46 0 -83 -28 -83 -69c0 -45 37 -72 78 -72c49 0 84 33 84 74c0 39 -31 67 -79 67z" />
    <glyph glyph-name="fivesixths" unicode="&#x215a;" horiz-adv-x="697" 
d="M156 336c-65 0 -115 35 -136 84l47 30c18 -37 50 -57 89 -57c50 0 83 31 83 70c0 42 -35 66 -75 66c-30 0 -58 -14 -80 -36l-51 5l-2 3l15 199h232v-56h-179l-8 -88c23 16 52 25 86 25c69 0 126 -41 126 -118c0 -70 -54 -127 -147 -127zM545 702h69l-228 -370l-199 -334
h-69l227 368zM681 123c0 -77 -65 -133 -150 -133c-76 0 -141 51 -141 127c0 54 22 95 74 158l65 79h83v-2l-85 -93c-10 -10 -18 -19 -25 -28c16 6 34 9 53 9c69 0 126 -47 126 -117zM538 189c-46 0 -83 -28 -83 -69c0 -45 37 -72 78 -72c49 0 84 33 84 74
c0 39 -31 67 -79 67z" />
    <glyph glyph-name="oneeighth" unicode="&#x215b;" horiz-adv-x="639" 
d="M6 640v60h135v-354h-63v294h-72zM436 702h69l-228 -370l-199 -334h-69l227 368zM470 -10c-83 0 -146 42 -146 108c0 40 28 70 70 86c-36 15 -60 42 -60 78c0 62 58 102 137 102s136 -40 136 -101c0 -36 -24 -63 -60 -79c42 -16 69 -46 69 -85c0 -67 -62 -109 -146 -109z
M471 210c42 0 74 18 74 50c0 29 -32 49 -75 49c-42 0 -74 -19 -74 -50c0 -32 33 -49 75 -49zM471 45c48 0 83 22 83 56s-35 54 -84 54c-47 0 -83 -20 -83 -55c0 -33 36 -55 84 -55z" />
    <glyph glyph-name="threeeighths" unicode="&#x215c;" horiz-adv-x="750" 
d="M240 449c0 33 -26 52 -83 52h-22v52h20c57 0 77 23 77 51s-26 49 -65 49c-51 0 -76 -28 -78 -64h-61c1 61 51 121 141 121c82 0 127 -48 127 -100c0 -36 -21 -68 -68 -84c55 -13 76 -43 76 -80c0 -61 -55 -110 -141 -110c-84 0 -140 49 -141 133h61c2 -50 33 -76 81 -76
c44 0 76 25 76 56zM546 702h69l-228 -370l-199 -334h-69l227 368zM580 -10c-83 0 -146 42 -146 108c0 40 28 70 70 86c-36 15 -60 42 -60 78c0 62 58 102 137 102s136 -40 136 -101c0 -36 -24 -63 -60 -79c42 -16 69 -46 69 -85c0 -67 -62 -109 -146 -109zM581 210
c42 0 74 18 74 50c0 29 -32 49 -75 49c-42 0 -74 -19 -74 -50c0 -32 33 -49 75 -49zM581 45c48 0 83 22 83 56s-35 54 -84 54c-47 0 -83 -20 -83 -55c0 -33 36 -55 84 -55z" />
    <glyph glyph-name="fiveeighths" unicode="&#x215d;" horiz-adv-x="748" 
d="M156 336c-65 0 -115 35 -136 84l47 30c18 -37 50 -57 89 -57c50 0 83 31 83 70c0 42 -35 66 -75 66c-30 0 -58 -14 -80 -36l-51 5l-2 3l15 199h232v-56h-179l-8 -88c23 16 52 25 86 25c69 0 126 -41 126 -118c0 -70 -54 -127 -147 -127zM545 702h69l-228 -370l-199 -334
h-69l227 368zM579 -10c-83 0 -146 42 -146 108c0 40 28 70 70 86c-36 15 -60 42 -60 78c0 62 58 102 137 102s136 -40 136 -101c0 -36 -24 -63 -60 -79c42 -16 69 -46 69 -85c0 -67 -62 -109 -146 -109zM580 210c42 0 74 18 74 50c0 29 -32 49 -75 49c-42 0 -74 -19 -74 -50
c0 -32 33 -49 75 -49zM580 45c48 0 83 22 83 56s-35 54 -84 54c-47 0 -83 -20 -83 -55c0 -33 36 -55 84 -55z" />
    <glyph glyph-name="seveneighths" unicode="&#x215e;" horiz-adv-x="676" 
d="M118 346h-69l162 298h-199v56h266v-49zM472 702h69l-228 -370l-199 -334h-69l227 368zM506 -10c-83 0 -146 42 -146 108c0 40 28 70 70 86c-36 15 -60 42 -60 78c0 62 58 102 137 102s136 -40 136 -101c0 -36 -24 -63 -60 -79c42 -16 69 -46 69 -85
c0 -67 -62 -109 -146 -109zM507 210c42 0 74 18 74 50c0 29 -32 49 -75 49c-42 0 -74 -19 -74 -50c0 -32 33 -49 75 -49zM507 45c48 0 83 22 83 56s-35 54 -84 54c-47 0 -83 -20 -83 -55c0 -33 36 -55 84 -55z" />
    <glyph glyph-name="zero.sup" unicode="&#x2070;" horiz-adv-x="352" 
d="M21 611c0 118 63 188 156 188c92 0 155 -68 155 -186c0 -119 -64 -188 -156 -188c-93 0 -155 68 -155 186zM176 741c-55 0 -91 -44 -91 -129s37 -129 92 -129s91 44 91 128c0 86 -37 130 -92 130z" />
    <glyph glyph-name="one.sup" unicode="&#xb9;" horiz-adv-x="183" 
d="M6 729v60h135v-354h-63v294h-72z" />
    <glyph glyph-name="two.sup" unicode="&#xb2;" horiz-adv-x="309" 
d="M24 435v56l111 91c67 55 84 74 84 104c0 33 -28 55 -62 55c-44 0 -73 -29 -75 -83h-63c2 84 56 141 140 141c74 0 124 -48 124 -111c0 -45 -25 -78 -96 -135l-78 -63l180 1v-56h-265z" />
    <glyph glyph-name="three.sup" unicode="&#xb3;" horiz-adv-x="322" 
d="M240 538c0 33 -26 52 -83 52h-22v52h20c57 0 77 23 77 51s-26 49 -65 49c-51 0 -76 -28 -78 -64h-61c1 61 51 121 141 121c82 0 127 -48 127 -100c0 -36 -21 -68 -68 -84c55 -13 76 -43 76 -80c0 -61 -55 -110 -141 -110c-84 0 -140 49 -141 133h61c2 -50 33 -76 81 -76
c44 0 76 25 76 56z" />
    <glyph glyph-name="four.sup" unicode="&#x2074;" horiz-adv-x="346" 
d="M18 509v50l164 230h93v-227h55v-53h-55v-74h-63v74h-194zM88 562h126v178z" />
    <glyph glyph-name="five.sup" unicode="&#x2075;" horiz-adv-x="322" 
d="M156 425c-65 0 -115 35 -136 84l47 30c18 -37 50 -57 89 -57c50 0 83 31 83 70c0 42 -35 66 -75 66c-30 0 -58 -14 -80 -36l-51 5l-2 3l15 199h232v-56h-179l-8 -88c23 16 52 25 86 25c69 0 126 -41 126 -118c0 -70 -54 -127 -147 -127z" />
    <glyph glyph-name="six.sup" unicode="&#x2076;" horiz-adv-x="325" 
d="M309 558c0 -77 -65 -133 -150 -133c-76 0 -141 51 -141 127c0 54 22 95 74 158l65 79h83v-2l-85 -93c-10 -10 -18 -19 -25 -28c16 6 34 9 53 9c69 0 126 -47 126 -117zM166 624c-46 0 -83 -28 -83 -69c0 -45 37 -72 78 -72c49 0 84 33 84 74c0 39 -31 67 -79 67z" />
    <glyph glyph-name="seven.sup" unicode="&#x2077;" horiz-adv-x="289" 
d="M118 435h-69l162 298h-199v56h266v-49z" />
    <glyph glyph-name="eight.sup" unicode="&#x2078;" horiz-adv-x="338" 
d="M169 425c-83 0 -146 42 -146 108c0 40 28 70 70 86c-36 15 -60 42 -60 78c0 62 58 102 137 102s136 -40 136 -101c0 -36 -24 -63 -60 -79c42 -16 69 -46 69 -85c0 -67 -62 -109 -146 -109zM170 645c42 0 74 18 74 50c0 29 -32 49 -75 49c-42 0 -74 -19 -74 -50
c0 -32 33 -49 75 -49zM170 480c48 0 83 22 83 56s-35 54 -84 54c-47 0 -83 -20 -83 -55c0 -33 36 -55 84 -55z" />
    <glyph glyph-name="nine.sup" unicode="&#x2079;" horiz-adv-x="325" 
d="M233 514l-65 -79h-83v2l86 93c8 8 18 19 25 28c-16 -6 -34 -9 -54 -9c-69 0 -126 47 -126 117c0 77 66 133 150 133c77 0 141 -51 141 -127c0 -54 -21 -95 -74 -158zM159 600c47 0 84 28 84 69c0 45 -38 72 -79 72c-49 0 -83 -33 -83 -74c0 -39 30 -67 78 -67z" />
    <glyph glyph-name="zero.inf" unicode="&#x2080;" horiz-adv-x="352" 
d="M21 6c0 118 63 188 156 188c92 0 155 -68 155 -186c0 -119 -64 -188 -156 -188c-93 0 -155 68 -155 186zM176 136c-55 0 -91 -44 -91 -129s37 -129 92 -129s91 44 91 128c0 86 -37 130 -92 130z" />
    <glyph glyph-name="one.inf" unicode="&#x2081;" horiz-adv-x="183" 
d="M6 124v60h135v-354h-63v294h-72z" />
    <glyph glyph-name="two.inf" unicode="&#x2082;" horiz-adv-x="309" 
d="M24 -170v56l111 91c67 55 84 74 84 104c0 33 -28 55 -62 55c-44 0 -73 -29 -75 -83h-63c2 84 56 141 140 141c74 0 124 -48 124 -111c0 -45 -25 -78 -96 -135l-78 -63l180 1v-56h-265z" />
    <glyph glyph-name="three.inf" unicode="&#x2083;" horiz-adv-x="322" 
d="M240 -67c0 33 -26 52 -83 52h-22v52h20c57 0 77 23 77 51s-26 49 -65 49c-51 0 -76 -28 -78 -64h-61c1 61 51 121 141 121c82 0 127 -48 127 -100c0 -36 -21 -68 -68 -84c55 -13 76 -43 76 -80c0 -61 -55 -110 -141 -110c-84 0 -140 49 -141 133h61c2 -50 33 -76 81 -76
c44 0 76 25 76 56z" />
    <glyph glyph-name="four.inf" unicode="&#x2084;" horiz-adv-x="346" 
d="M18 -96v50l164 230h93v-227h55v-53h-55v-74h-63v74h-194zM88 -43h126v178z" />
    <glyph glyph-name="five.inf" unicode="&#x2085;" horiz-adv-x="322" 
d="M156 -180c-65 0 -115 35 -136 84l47 30c18 -37 50 -57 89 -57c50 0 83 31 83 70c0 42 -35 66 -75 66c-30 0 -58 -14 -80 -36l-51 5l-2 3l15 199h232v-56h-179l-8 -88c23 16 52 25 86 25c69 0 126 -41 126 -118c0 -70 -54 -127 -147 -127z" />
    <glyph glyph-name="six.inf" unicode="&#x2086;" horiz-adv-x="325" 
d="M309 -47c0 -77 -65 -133 -150 -133c-76 0 -141 51 -141 127c0 54 22 95 74 158l65 79h83v-2l-85 -93c-10 -10 -18 -19 -25 -28c16 6 34 9 53 9c69 0 126 -47 126 -117zM166 19c-46 0 -83 -28 -83 -69c0 -45 37 -72 78 -72c49 0 84 33 84 74c0 39 -31 67 -79 67z" />
    <glyph glyph-name="seven.inf" unicode="&#x2087;" horiz-adv-x="289" 
d="M118 -170h-69l162 298h-199v56h266v-49z" />
    <glyph glyph-name="eight.inf" unicode="&#x2088;" horiz-adv-x="338" 
d="M169 -180c-83 0 -146 42 -146 108c0 40 28 70 70 86c-36 15 -60 42 -60 78c0 62 58 102 137 102s136 -40 136 -101c0 -36 -24 -63 -60 -79c42 -16 69 -46 69 -85c0 -67 -62 -109 -146 -109zM170 40c42 0 74 18 74 50c0 29 -32 49 -75 49c-42 0 -74 -19 -74 -50
c0 -32 33 -49 75 -49zM170 -125c48 0 83 22 83 56s-35 54 -84 54c-47 0 -83 -20 -83 -55c0 -33 36 -55 84 -55z" />
    <glyph glyph-name="nine.inf" unicode="&#x2089;" horiz-adv-x="325" 
d="M233 -91l-65 -79h-83v2l86 93c8 8 18 19 25 28c-16 -6 -34 -9 -54 -9c-69 0 -126 47 -126 117c0 77 66 133 150 133c77 0 141 -51 141 -127c0 -54 -21 -95 -74 -158zM159 -5c47 0 84 28 84 69c0 45 -38 72 -79 72c-49 0 -83 -33 -83 -74c0 -39 30 -67 78 -67z" />
    <glyph glyph-name="uni02B9" unicode="&#x2b9;" horiz-adv-x="194" 
d="M54 492v208h93l-34 -208h-59z" />
    <glyph glyph-name="uni02BA" unicode="&#x2ba;" horiz-adv-x="335" 
d="M195 492v208h94l-34 -208h-60zM54 492v208h94l-34 -208h-60z" />
    <glyph glyph-name="uni02BB" unicode="&#x2bb;" horiz-adv-x="210" 
d="M180 700l-63 -208h-97l98 208h62z" />
    <glyph glyph-name="uni02BC" unicode="&#x2bc;" horiz-adv-x="210" 
d="M30 492l63 208h96l-97 -208h-62z" />
    <glyph glyph-name="uni02BF" unicode="&#x2bf;" horiz-adv-x="210" 
d="M175 723v-53c-53 0 -82 -27 -82 -67c0 -41 28 -68 82 -68v-53c-94 0 -148 52 -148 121c0 68 54 120 148 120z" />
    <glyph glyph-name="uni02BE" unicode="&#x2be;" horiz-adv-x="210" 
d="M35 482v53c53 0 82 27 82 68c0 40 -28 67 -82 67v53c94 0 148 -52 148 -120c0 -69 -54 -121 -148 -121z" />
    <glyph glyph-name="uni02C8" unicode="&#x2c8;" horiz-adv-x="143" 
d="M105 482h-67v241h67v-241z" />
    <glyph glyph-name="uni02CC" unicode="&#x2cc;" horiz-adv-x="143" 
d="M105 -128h-67v241h67v-241z" />
    <glyph glyph-name="acute" unicode="&#xb4;" horiz-adv-x="500" 
d="M176 572l162 103l32 -60l-170 -89z" />
    <glyph glyph-name="hungarumlaut" unicode="&#x2dd;" horiz-adv-x="500" 
d="M140 565l95 102l48 -49l-107 -92zM280 565l95 102l48 -49l-107 -92z" />
    <glyph glyph-name="grave" unicode="`" horiz-adv-x="500" 
d="M324 572l-24 -46l-170 89l32 60z" />
    <glyph glyph-name="circumflex" unicode="&#x2c6;" horiz-adv-x="500" 
d="M112 566l120 100h36l120 -100l-28 -38l-110 71l-110 -71z" />
    <glyph glyph-name="caron" unicode="&#x2c7;" horiz-adv-x="500" 
d="M388 628l-120 -100h-36l-120 100l28 38l110 -70l110 70z" />
    <glyph glyph-name="breve" unicode="&#x2d8;" horiz-adv-x="500" 
d="M250 591c43 0 69 23 86 70l54 -12c-18 -84 -66 -121 -140 -121s-122 37 -140 121l54 12c18 -47 43 -70 86 -70z" />
    <glyph glyph-name="tilde" unicode="&#x2dc;" horiz-adv-x="500" 
d="M262 615c27 -21 36 -25 44 -25c13 0 20 9 31 59l54 -8c-14 -95 -45 -115 -80 -115c-19 0 -32 6 -73 37c-27 21 -36 25 -44 25c-13 0 -20 -8 -31 -59l-54 9c14 94 45 114 80 114c19 0 32 -5 73 -37z" />
    <glyph glyph-name="macron" unicode="&#xaf;" horiz-adv-x="500" 
d="M123 543v63h254v-63h-254z" />
    <glyph glyph-name="dieresis" unicode="&#xa8;" horiz-adv-x="500" 
d="M217 616v-77h-77v77h77zM360 616v-77h-77v77h77z" />
    <glyph glyph-name="dotaccent" unicode="&#x2d9;" horiz-adv-x="500" 
d="M291 619v-82h-82v82h82z" />
    <glyph glyph-name="ring" unicode="&#x2da;" horiz-adv-x="500" 
d="M249 526c-59 0 -105 42 -105 94c0 53 47 95 107 95c59 0 105 -42 105 -94c0 -53 -47 -95 -107 -95zM250 576c29 0 50 21 50 46c0 24 -21 43 -51 43c-28 0 -49 -20 -49 -46c0 -23 22 -43 50 -43z" />
    <glyph glyph-name="uniA788" unicode="&#xa788;" horiz-adv-x="500" 
d="M112 -144l120 100h36l120 -100l-28 -38l-110 71l-110 -71z" />
    <glyph glyph-name="uni02CD" unicode="&#x2cd;" horiz-adv-x="500" 
d="M123 -123v63h254v-63h-254z" />
    <glyph glyph-name="cedilla" unicode="&#xb8;" horiz-adv-x="500" 
d="M232 15h50l-16 -58h8c44 0 74 -26 74 -64c0 -40 -33 -73 -93 -73c-24 0 -55 6 -84 26l22 40c27 -15 43 -20 61 -20c30 0 39 14 39 25c0 12 -11 22 -33 22c-9 0 -19 -2 -34 -8l-22 7l-1 2z" />
    <glyph glyph-name="ogonek" unicode="&#x2db;" horiz-adv-x="500" 
d="M172 -96c0 21 8 44 63 106h48c-40 -53 -47 -70 -47 -83c0 -16 10 -25 44 -25h27v-56h-49c-62 0 -86 21 -86 58z" />
    <glyph glyph-name="Aacute" unicode="&#xc1;" horiz-adv-x="732" 
d="M103 0h-90l311 700h84l310 -700h-91l-93 211h-339zM229 287h272l-137 310zM288 794l197 82l25 -66l-204 -67z" />
    <glyph glyph-name="Agrave" unicode="&#xc0;" horiz-adv-x="732" 
d="M103 0h-90l311 700h84l310 -700h-91l-93 211h-339zM229 287h272l-137 310zM442 794l-18 -51l-203 67l25 66z" />
    <glyph glyph-name="Acircumflex" unicode="&#xc2;" horiz-adv-x="732" 
d="M103 0h-90l311 700h84l310 -700h-91l-93 211h-339zM229 287h272l-137 310zM215 768l132 87h36l132 -87l-21 -39l-129 57l-129 -57z" />
    <glyph glyph-name="uni1EAC" unicode="&#x1eac;" horiz-adv-x="732" 
d="M103 0h-90l311 700h84l310 -700h-91l-93 211h-339zM229 287h272l-137 310zM215 768l132 87h36l132 -87l-21 -39l-129 57l-129 -57zM406 -40v-82h-82v82h82z" />
    <glyph glyph-name="uni1EA4" unicode="&#x1ea4;" horiz-adv-x="732" 
d="M103 0h-90l311 700h84l310 -700h-91l-93 211h-339zM229 287h272l-137 310zM411 877l129 60l20 -56l-135 -44zM215 766l132 81h36l133 -81l-18 -37l-133 52l-133 -52z" />
    <glyph glyph-name="uni1EA6" unicode="&#x1ea6;" horiz-adv-x="732" 
d="M103 0h-90l311 700h84l310 -700h-91l-93 211h-339zM229 287h272l-137 310zM517 871l-16 -38l-146 51l23 55zM215 766l132 81h36l133 -81l-18 -37l-133 52l-133 -52z" />
    <glyph glyph-name="uni1EA8" unicode="&#x1ea8;" horiz-adv-x="732" 
d="M103 0h-90l311 700h84l310 -700h-91l-93 211h-339zM229 287h272l-137 310zM441 830l-23 33c59 11 74 20 74 27c0 8 -8 14 -87 24v2l43 38c88 -15 112 -34 112 -59c0 -19 -26 -55 -119 -65zM215 766l132 81h36l133 -81l-18 -37l-133 52l-133 -52z" />
    <glyph glyph-name="uni1EAA" unicode="&#x1eaa;" horiz-adv-x="732" 
d="M103 0h-90l311 700h84l310 -700h-91l-93 211h-339zM229 287h272l-137 310zM381 929c26 -11 38 -14 47 -14c12 0 18 4 32 32l44 -8c-17 -65 -39 -81 -71 -81c-16 0 -25 3 -66 21c-26 12 -38 15 -47 15c-12 0 -18 -5 -32 -33l-44 8c16 66 39 82 70 82c17 0 26 -3 67 -22z
M215 766l132 81h36l133 -81l-18 -37l-133 52l-133 -52z" />
    <glyph glyph-name="uni01CD" unicode="&#x1cd;" horiz-adv-x="732" 
d="M103 0h-90l311 700h84l310 -700h-91l-93 211h-339zM229 287h272l-137 310zM515 830l-132 -87h-35l-133 87l21 39l129 -57l129 57z" />
    <glyph glyph-name="Abreve" unicode="&#x102;" horiz-adv-x="732" 
d="M103 0h-90l311 700h84l310 -700h-91l-93 211h-339zM229 287h272l-137 310zM365 809c42 0 75 12 99 57l52 -16c-26 -81 -79 -107 -151 -107s-125 26 -151 107l52 16c25 -45 57 -57 99 -57z" />
    <glyph glyph-name="uni1EB6" unicode="&#x1eb6;" horiz-adv-x="732" 
d="M103 0h-90l311 700h84l310 -700h-91l-93 211h-339zM229 287h272l-137 310zM365 809c42 0 75 12 99 57l52 -16c-26 -81 -79 -107 -151 -107s-125 26 -151 107l52 16c25 -45 57 -57 99 -57zM406 -40v-82h-82v82h82z" />
    <glyph glyph-name="uni1EAE" unicode="&#x1eae;" horiz-adv-x="732" 
d="M103 0h-90l311 700h84l310 -700h-91l-93 211h-339zM229 287h272l-137 310zM299 893l183 62l16 -61l-187 -46zM365 801c45 0 78 16 100 54l48 -20c-21 -64 -72 -92 -148 -92s-127 28 -148 92l48 20c23 -37 55 -54 100 -54z" />
    <glyph glyph-name="uni1EB0" unicode="&#x1eb0;" horiz-adv-x="732" 
d="M103 0h-90l311 700h84l310 -700h-91l-93 211h-339zM229 287h272l-137 310zM432 893l-12 -45l-188 46l17 61zM365 801c45 0 78 16 100 54l48 -20c-21 -64 -72 -92 -148 -92s-127 28 -148 92l48 20c23 -37 55 -54 100 -54z" />
    <glyph glyph-name="uni1EB2" unicode="&#x1eb2;" horiz-adv-x="732" 
d="M103 0h-90l311 700h84l310 -700h-91l-93 211h-339zM229 287h272l-137 310zM329 842l-22 33c61 11 76 20 76 28s-8 14 -87 24v2l43 38c89 -15 112 -34 112 -59c0 -19 -26 -56 -122 -66zM365 801c45 0 78 16 100 54l48 -20c-21 -64 -72 -92 -148 -92s-127 28 -148 92l48 20
c23 -37 55 -54 100 -54z" />
    <glyph glyph-name="uni1EB4" unicode="&#x1eb4;" horiz-adv-x="732" 
d="M103 0h-90l311 700h84l310 -700h-91l-93 211h-339zM229 287h272l-137 310zM372 938c27 -12 39 -15 47 -15c13 0 19 4 32 33l45 -8c-17 -66 -39 -82 -71 -82c-17 0 -25 3 -66 21c-27 12 -38 15 -47 15c-13 0 -18 -4 -32 -33l-44 8c16 67 38 82 70 82c17 0 26 -3 66 -21z
M365 801c45 0 78 16 100 54l48 -20c-21 -64 -72 -92 -148 -92s-127 28 -148 92l48 20c23 -37 55 -54 100 -54z" />
    <glyph glyph-name="Atilde" unicode="&#xc3;" horiz-adv-x="732" 
d="M103 0h-90l311 700h84l310 -700h-91l-93 211h-339zM229 287h272l-137 310zM518 847c-12 -89 -49 -107 -85 -107c-20 0 -35 6 -75 28c-33 19 -45 23 -55 23c-15 0 -26 -6 -36 -48l-55 9c12 88 49 106 85 106c20 0 35 -6 75 -28c33 -18 45 -23 55 -23c15 0 26 5 36 48z" />
    <glyph glyph-name="Amacron" unicode="&#x100;" horiz-adv-x="732" 
d="M103 0h-90l311 700h84l310 -700h-91l-93 211h-339zM229 287h272l-137 310zM228 758v66h274v-66h-274z" />
    <glyph glyph-name="Adieresis" unicode="&#xc4;" horiz-adv-x="732" 
d="M103 0h-90l311 700h84l310 -700h-91l-93 211h-339zM229 287h272l-137 310zM322 834v-80h-80v80h80zM488 834v-80h-80v80h80z" />
    <glyph glyph-name="uni0226" unicode="&#x226;" horiz-adv-x="732" 
d="M103 0h-90l311 700h84l310 -700h-91l-93 211h-339zM229 287h272l-137 310zM408 838v-86h-86v86h86z" />
    <glyph glyph-name="Aring" unicode="&#xc5;" horiz-adv-x="732" 
d="M101 0h-88l290 652c-36 16 -56 48 -56 86c0 57 46 99 120 99c73 0 118 -42 118 -98c0 -39 -20 -70 -56 -87l289 -652h-89l-93 211h-343zM366 689c41 0 60 21 60 51c0 27 -20 46 -61 46c-40 0 -60 -20 -60 -49c0 -16 7 -29 21 -38l4 -2c9 -5 21 -8 36 -8zM227 287h275
l-138 314z" />
    <glyph glyph-name="uni1EA2" unicode="&#x1ea2;" horiz-adv-x="732" 
d="M103 0h-90l311 700h84l310 -700h-91l-93 211h-339zM229 287h272l-137 310zM312 738l-26 33c62 8 77 25 77 38c0 12 -9 26 -88 33v2l48 42c89 -11 113 -39 113 -72c0 -25 -27 -68 -124 -76z" />
    <glyph glyph-name="uni1EA0" unicode="&#x1ea0;" horiz-adv-x="732" 
d="M103 0h-90l311 700h84l310 -700h-91l-93 211h-339zM229 287h272l-137 310zM406 -40v-82h-82v82h82z" />
    <glyph glyph-name="Aogonek" unicode="&#x104;" horiz-adv-x="732" 
d="M103 0h-90l311 700h84l310 -700h-35c-34 -45 -40 -61 -40 -73c0 -16 11 -25 44 -25h28v-56h-49c-63 0 -87 21 -87 58c0 20 7 41 55 96h-7l-93 211h-339zM229 287h272l-137 310z" />
    <glyph glyph-name="AE" unicode="&#xc6;" horiz-adv-x="1091" 
d="M77 0h-93l484 700h574v-76h-422v-233h394v-76h-394v-239h422v-76h-508v211h-310zM277 287h257v337h-22z" />
    <glyph glyph-name="Aacute.biform" horiz-adv-x="699" 
d="M556 0v132c-54 -91 -149 -142 -270 -142c-148 0 -251 81 -251 209c0 121 87 207 327 207h193c-2 147 -75 228 -204 228c-77 0 -150 -36 -221 -103l-50 60c77 76 169 121 280 121c181 0 281 -118 281 -314v-398h-85zM353 332c-184 0 -232 -56 -232 -130
c0 -65 55 -138 173 -138c148 0 254 105 261 268h-202zM286 794l197 82l25 -66l-204 -67z" />
    <glyph glyph-name="Agrave.biform" horiz-adv-x="699" 
d="M556 0v132c-54 -91 -149 -142 -270 -142c-148 0 -251 81 -251 209c0 121 87 207 327 207h193c-2 147 -75 228 -204 228c-77 0 -150 -36 -221 -103l-50 60c77 76 169 121 280 121c181 0 281 -118 281 -314v-398h-85zM353 332c-184 0 -232 -56 -232 -130
c0 -65 55 -138 173 -138c148 0 254 105 261 268h-202zM440 794l-18 -51l-203 67l25 66z" />
    <glyph glyph-name="Acircumflex.biform" horiz-adv-x="699" 
d="M556 0v132c-54 -91 -149 -142 -270 -142c-148 0 -251 81 -251 209c0 121 87 207 327 207h193c-2 147 -75 228 -204 228c-77 0 -150 -36 -221 -103l-50 60c77 76 169 121 280 121c181 0 281 -118 281 -314v-398h-85zM353 332c-184 0 -232 -56 -232 -130
c0 -65 55 -138 173 -138c148 0 254 105 261 268h-202zM213 771l132 87h36l132 -87l-21 -39l-129 57l-129 -57z" />
    <glyph glyph-name="uni1EAC.biform" horiz-adv-x="699" 
d="M556 0v132c-54 -91 -149 -142 -270 -142c-148 0 -251 81 -251 209c0 121 87 207 327 207h193c-2 147 -75 228 -204 228c-77 0 -150 -36 -221 -103l-50 60c77 76 169 121 280 121c181 0 281 -118 281 -314v-398h-85zM353 332c-184 0 -232 -56 -232 -130
c0 -65 55 -138 173 -138c148 0 254 105 261 268h-202zM213 771l132 87h36l132 -87l-21 -39l-129 57l-129 -57zM405 -54v-82h-82v82h82z" />
    <glyph glyph-name="uni1EA4.biform" horiz-adv-x="699" 
d="M556 0v132c-54 -91 -149 -142 -270 -142c-148 0 -251 81 -251 209c0 121 87 207 327 207h193c-2 147 -75 228 -204 228c-77 0 -150 -36 -221 -103l-50 60c77 76 169 121 280 121c181 0 281 -118 281 -314v-398h-85zM353 332c-184 0 -232 -56 -232 -130
c0 -65 55 -138 173 -138c148 0 254 105 261 268h-202zM409 880l129 60l20 -56l-135 -44zM213 769l132 81h36l133 -81l-18 -37l-133 52l-133 -52z" />
    <glyph glyph-name="uni1EA6.biform" horiz-adv-x="699" 
d="M556 0v132c-54 -91 -149 -142 -270 -142c-148 0 -251 81 -251 209c0 121 87 207 327 207h193c-2 147 -75 228 -204 228c-77 0 -150 -36 -221 -103l-50 60c77 76 169 121 280 121c181 0 281 -118 281 -314v-398h-85zM353 332c-184 0 -232 -56 -232 -130
c0 -65 55 -138 173 -138c148 0 254 105 261 268h-202zM515 874l-16 -38l-146 51l23 55zM213 769l132 81h36l133 -81l-18 -37l-133 52l-133 -52z" />
    <glyph glyph-name="uni1EA8.biform" horiz-adv-x="699" 
d="M556 0v132c-54 -91 -149 -142 -270 -142c-148 0 -251 81 -251 209c0 121 87 207 327 207h193c-2 147 -75 228 -204 228c-77 0 -150 -36 -221 -103l-50 60c77 76 169 121 280 121c181 0 281 -118 281 -314v-398h-85zM353 332c-184 0 -232 -56 -232 -130
c0 -65 55 -138 173 -138c148 0 254 105 261 268h-202zM439 833l-23 33c59 11 74 20 74 27c0 8 -8 14 -87 24v2l43 38c88 -15 112 -34 112 -59c0 -19 -26 -55 -119 -65zM213 769l132 81h36l133 -81l-18 -37l-133 52l-133 -52z" />
    <glyph glyph-name="uni1EAA.biform" horiz-adv-x="699" 
d="M556 0v132c-54 -91 -149 -142 -270 -142c-148 0 -251 81 -251 209c0 121 87 207 327 207h193c-2 147 -75 228 -204 228c-77 0 -150 -36 -221 -103l-50 60c77 76 169 121 280 121c181 0 281 -118 281 -314v-398h-85zM353 332c-184 0 -232 -56 -232 -130
c0 -65 55 -138 173 -138c148 0 254 105 261 268h-202zM379 932c26 -11 38 -14 47 -14c12 0 18 4 32 32l44 -8c-17 -65 -39 -81 -71 -81c-16 0 -25 3 -66 21c-26 12 -38 15 -47 15c-12 0 -18 -5 -32 -33l-44 8c16 66 39 82 70 82c17 0 26 -3 67 -22zM213 769l132 81h36
l133 -81l-18 -37l-133 52l-133 -52z" />
    <glyph glyph-name="uni01CD.biform" horiz-adv-x="699" 
d="M556 0v132c-54 -91 -149 -142 -270 -142c-148 0 -251 81 -251 209c0 121 87 207 327 207h193c-2 147 -75 228 -204 228c-77 0 -150 -36 -221 -103l-50 60c77 76 169 121 280 121c181 0 281 -118 281 -314v-398h-85zM353 332c-184 0 -232 -56 -232 -130
c0 -65 55 -138 173 -138c148 0 254 105 261 268h-202zM513 830l-132 -87h-35l-133 87l21 39l129 -57l129 57z" />
    <glyph glyph-name="Abreve.biform" horiz-adv-x="699" 
d="M556 0v132c-54 -91 -149 -142 -270 -142c-148 0 -251 81 -251 209c0 121 87 207 327 207h193c-2 147 -75 228 -204 228c-77 0 -150 -36 -221 -103l-50 60c77 76 169 121 280 121c181 0 281 -118 281 -314v-398h-85zM353 332c-184 0 -232 -56 -232 -130
c0 -65 55 -138 173 -138c148 0 254 105 261 268h-202zM363 809c42 0 75 12 99 57l52 -16c-26 -81 -79 -107 -151 -107s-125 26 -151 107l52 16c25 -45 57 -57 99 -57z" />
    <glyph glyph-name="uni1EB6.biform" horiz-adv-x="699" 
d="M556 0v132c-54 -91 -149 -142 -270 -142c-148 0 -251 81 -251 209c0 121 87 207 327 207h193c-2 147 -75 228 -204 228c-77 0 -150 -36 -221 -103l-50 60c77 76 169 121 280 121c181 0 281 -118 281 -314v-398h-85zM353 332c-184 0 -232 -56 -232 -130
c0 -65 55 -138 173 -138c148 0 254 105 261 268h-202zM363 809c42 0 75 12 99 57l52 -16c-26 -81 -79 -107 -151 -107s-125 26 -151 107l52 16c25 -45 57 -57 99 -57zM405 -54v-82h-82v82h82z" />
    <glyph glyph-name="uni1EAE.biform" horiz-adv-x="699" 
d="M556 0v132c-54 -91 -149 -142 -270 -142c-148 0 -251 81 -251 209c0 121 87 207 327 207h193c-2 147 -75 228 -204 228c-77 0 -150 -36 -221 -103l-50 60c77 76 169 121 280 121c181 0 281 -118 281 -314v-398h-85zM353 332c-184 0 -232 -56 -232 -130
c0 -65 55 -138 173 -138c148 0 254 105 261 268h-202zM297 893l183 62l16 -61l-187 -46zM363 801c45 0 78 16 100 54l48 -20c-21 -64 -72 -92 -148 -92s-127 28 -148 92l48 20c23 -37 55 -54 100 -54z" />
    <glyph glyph-name="uni1EB0.biform" horiz-adv-x="699" 
d="M556 0v132c-54 -91 -149 -142 -270 -142c-148 0 -251 81 -251 209c0 121 87 207 327 207h193c-2 147 -75 228 -204 228c-77 0 -150 -36 -221 -103l-50 60c77 76 169 121 280 121c181 0 281 -118 281 -314v-398h-85zM353 332c-184 0 -232 -56 -232 -130
c0 -65 55 -138 173 -138c148 0 254 105 261 268h-202zM430 893l-12 -45l-188 46l17 61zM363 801c45 0 78 16 100 54l48 -20c-21 -64 -72 -92 -148 -92s-127 28 -148 92l48 20c23 -37 55 -54 100 -54z" />
    <glyph glyph-name="uni1EB2.biform" horiz-adv-x="699" 
d="M556 0v132c-54 -91 -149 -142 -270 -142c-148 0 -251 81 -251 209c0 121 87 207 327 207h193c-2 147 -75 228 -204 228c-77 0 -150 -36 -221 -103l-50 60c77 76 169 121 280 121c181 0 281 -118 281 -314v-398h-85zM353 332c-184 0 -232 -56 -232 -130
c0 -65 55 -138 173 -138c148 0 254 105 261 268h-202zM327 842l-22 33c61 11 76 20 76 28s-8 14 -87 24v2l43 38c89 -15 112 -34 112 -59c0 -19 -26 -56 -122 -66zM363 801c45 0 78 16 100 54l48 -20c-21 -64 -72 -92 -148 -92s-127 28 -148 92l48 20c23 -37 55 -54 100 -54
z" />
    <glyph glyph-name="uni1EB4.biform" horiz-adv-x="699" 
d="M556 0v132c-54 -91 -149 -142 -270 -142c-148 0 -251 81 -251 209c0 121 87 207 327 207h193c-2 147 -75 228 -204 228c-77 0 -150 -36 -221 -103l-50 60c77 76 169 121 280 121c181 0 281 -118 281 -314v-398h-85zM353 332c-184 0 -232 -56 -232 -130
c0 -65 55 -138 173 -138c148 0 254 105 261 268h-202zM370 938c27 -12 39 -15 47 -15c13 0 19 4 32 33l45 -8c-17 -66 -39 -82 -71 -82c-17 0 -25 3 -66 21c-27 12 -38 15 -47 15c-13 0 -18 -4 -32 -33l-44 8c16 67 38 82 70 82c17 0 26 -3 66 -21zM363 801
c45 0 78 16 100 54l48 -20c-21 -64 -72 -92 -148 -92s-127 28 -148 92l48 20c23 -37 55 -54 100 -54z" />
    <glyph glyph-name="Atilde.biform" horiz-adv-x="699" 
d="M556 0v132c-54 -91 -149 -142 -270 -142c-148 0 -251 81 -251 209c0 121 87 207 327 207h193c-2 147 -75 228 -204 228c-77 0 -150 -36 -221 -103l-50 60c77 76 169 121 280 121c181 0 281 -118 281 -314v-398h-85zM353 332c-184 0 -232 -56 -232 -130
c0 -65 55 -138 173 -138c148 0 254 105 261 268h-202zM516 847c-12 -89 -49 -107 -85 -107c-20 0 -35 6 -75 28c-33 19 -45 23 -55 23c-15 0 -26 -6 -36 -48l-55 9c12 88 49 106 85 106c20 0 35 -6 75 -28c33 -18 45 -23 55 -23c15 0 26 5 36 48z" />
    <glyph glyph-name="Amacron.biform" horiz-adv-x="699" 
d="M556 0v132c-54 -91 -149 -142 -270 -142c-148 0 -251 81 -251 209c0 121 87 207 327 207h193c-2 147 -75 228 -204 228c-77 0 -150 -36 -221 -103l-50 60c77 76 169 121 280 121c181 0 281 -118 281 -314v-398h-85zM353 332c-184 0 -232 -56 -232 -130
c0 -65 55 -138 173 -138c148 0 254 105 261 268h-202zM226 758v66h274v-66h-274z" />
    <glyph glyph-name="Adieresis.biform" horiz-adv-x="699" 
d="M556 0v132c-54 -91 -149 -142 -270 -142c-148 0 -251 81 -251 209c0 121 87 207 327 207h193c-2 147 -75 228 -204 228c-77 0 -150 -36 -221 -103l-50 60c77 76 169 121 280 121c181 0 281 -118 281 -314v-398h-85zM353 332c-184 0 -232 -56 -232 -130
c0 -65 55 -138 173 -138c148 0 254 105 261 268h-202zM320 834v-80h-80v80h80zM486 834v-80h-80v80h80z" />
    <glyph glyph-name="uni0226.biform" horiz-adv-x="699" 
d="M556 0v132c-54 -91 -149 -142 -270 -142c-148 0 -251 81 -251 209c0 121 87 207 327 207h193c-2 147 -75 228 -204 228c-77 0 -150 -36 -221 -103l-50 60c77 76 169 121 280 121c181 0 281 -118 281 -314v-398h-85zM353 332c-184 0 -232 -56 -232 -130
c0 -65 55 -138 173 -138c148 0 254 105 261 268h-202zM406 838v-86h-86v86h86z" />
    <glyph glyph-name="Aring.biform" horiz-adv-x="699" 
d="M556 0v132c-54 -91 -149 -142 -270 -142c-148 0 -251 81 -251 209c0 121 87 207 327 207h193c-2 147 -75 228 -204 228c-77 0 -150 -36 -221 -103l-50 60c77 76 169 121 280 121c181 0 281 -118 281 -314v-398h-85zM353 332c-184 0 -232 -56 -232 -130
c0 -65 55 -138 173 -138c148 0 254 105 261 268h-202zM362 741c-73 0 -118 42 -118 98c0 57 46 100 120 100c73 0 118 -43 118 -99c0 -57 -46 -99 -120 -99zM363 791c41 0 60 21 60 50c0 28 -20 47 -61 47c-40 0 -59 -20 -59 -50c0 -27 21 -47 60 -47z" />
    <glyph glyph-name="uni1EA2.biform" horiz-adv-x="699" 
d="M556 0v132c-54 -91 -149 -142 -270 -142c-148 0 -251 81 -251 209c0 121 87 207 327 207h193c-2 147 -75 228 -204 228c-77 0 -150 -36 -221 -103l-50 60c77 76 169 121 280 121c181 0 281 -118 281 -314v-398h-85zM353 332c-184 0 -232 -56 -232 -130
c0 -65 55 -138 173 -138c148 0 254 105 261 268h-202zM310 738l-26 33c62 8 77 25 77 38c0 12 -9 26 -88 33v2l48 42c89 -11 113 -39 113 -72c0 -25 -27 -68 -124 -76z" />
    <glyph glyph-name="uni1EA0.biform" horiz-adv-x="699" 
d="M556 0v132c-54 -91 -149 -142 -270 -142c-148 0 -251 81 -251 209c0 121 87 207 327 207h193c-2 147 -75 228 -204 228c-77 0 -150 -36 -221 -103l-50 60c77 76 169 121 280 121c181 0 281 -118 281 -314v-398h-85zM353 332c-184 0 -232 -56 -232 -130
c0 -65 55 -138 173 -138c148 0 254 105 261 268h-202zM405 -54v-82h-82v82h82z" />
    <glyph glyph-name="Aogonek.biform" horiz-adv-x="699" 
d="M512 -96c0 20 7 41 55 96h-11v132c-54 -91 -149 -142 -270 -142c-148 0 -251 81 -251 209c0 121 87 207 327 207h193c-2 147 -75 228 -204 228c-77 0 -150 -36 -221 -103l-50 60c77 76 169 121 280 121c181 0 281 -118 281 -314v-398h-25c-33 -45 -40 -61 -40 -73
c0 -16 11 -25 44 -25h28v-56h-49c-63 0 -87 21 -87 58zM353 332c-184 0 -232 -56 -232 -130c0 -65 55 -138 173 -138c148 0 254 105 261 268h-202z" />
    <glyph glyph-name="uni1E06" unicode="&#x1e06;" horiz-adv-x="663" 
d="M65 700h303c164 0 245 -73 245 -184c0 -61 -26 -124 -116 -159c94 -25 130 -87 130 -165c0 -113 -94 -192 -244 -192h-318v700zM366 624h-214v-233h227c88 0 148 51 148 121c0 68 -48 112 -161 112zM400 315h-248v-239h237c93 0 152 48 152 117c0 73 -53 122 -141 122z
M217 -123v63h254v-63h-254z" />
    <glyph glyph-name="Cacute" unicode="&#x106;" horiz-adv-x="722" 
d="M388 61c100 0 177 45 232 140l66 -38c-54 -103 -153 -179 -300 -179c-203 0 -349 153 -349 365c0 206 153 367 358 367c134 0 234 -67 288 -175l-69 -41c-55 99 -127 139 -221 139c-155 0 -268 -124 -268 -288c0 -166 112 -290 263 -290zM317 794l197 82l25 -66l-204 -67
z" />
    <glyph glyph-name="Ccircumflex" unicode="&#x108;" horiz-adv-x="722" 
d="M388 61c100 0 177 45 232 140l66 -38c-54 -103 -153 -179 -300 -179c-203 0 -349 153 -349 365c0 206 153 367 358 367c134 0 234 -67 288 -175l-69 -41c-55 99 -127 139 -221 139c-155 0 -268 -124 -268 -288c0 -166 112 -290 263 -290zM244 772l132 87h36l132 -87
l-21 -39l-129 57l-129 -57z" />
    <glyph glyph-name="Ccaron" unicode="&#x10c;" horiz-adv-x="722" 
d="M388 61c100 0 177 45 232 140l66 -38c-54 -103 -153 -179 -300 -179c-203 0 -349 153 -349 365c0 206 153 367 358 367c134 0 234 -67 288 -175l-69 -41c-55 99 -127 139 -221 139c-155 0 -268 -124 -268 -288c0 -166 112 -290 263 -290zM544 830l-132 -87h-35l-133 87
l21 39l129 -57l129 57z" />
    <glyph glyph-name="Cdotaccent" unicode="&#x10a;" horiz-adv-x="722" 
d="M388 61c100 0 177 45 232 140l66 -38c-54 -103 -153 -179 -300 -179c-203 0 -349 153 -349 365c0 206 153 367 358 367c134 0 234 -67 288 -175l-69 -41c-55 99 -127 139 -221 139c-155 0 -268 -124 -268 -288c0 -166 112 -290 263 -290zM437 838v-86h-86v86h86z" />
    <glyph glyph-name="Ccedilla" unicode="&#xc7;" horiz-adv-x="722" 
d="M388 61c100 0 177 45 232 140l66 -38c-50 -95 -138 -167 -267 -178l-8 -28h9c43 0 74 -26 74 -64c0 -40 -33 -73 -94 -73c-24 0 -54 6 -83 26l21 40c27 -15 44 -20 62 -20c29 0 38 14 38 25c0 12 -11 22 -33 22c-8 0 -18 -2 -33 -8l-22 7l-1 2l20 70
c-194 9 -332 159 -332 365s153 367 358 367c134 0 234 -67 288 -175l-69 -41c-55 99 -127 139 -221 139c-155 0 -268 -124 -268 -288c0 -166 112 -290 263 -290z" />
    <glyph glyph-name="Dcaron" unicode="&#x10e;" horiz-adv-x="731" 
d="M65 700h263c223 0 365 -147 365 -349c0 -201 -145 -351 -367 -351h-261v700zM327 622h-176v-544h176c171 0 279 117 279 271s-108 273 -279 273zM500 830l-132 -87h-35l-133 87l21 39l129 -57l129 57z" />
    <glyph glyph-name="uni1E12" unicode="&#x1e12;" horiz-adv-x="731" 
d="M65 700h263c223 0 365 -147 365 -349c0 -201 -145 -351 -367 -351h-261v700zM327 622h-176v-544h176c171 0 279 117 279 271s-108 273 -279 273zM212 -144l120 100h36l120 -100l-28 -38l-110 71l-110 -71z" />
    <glyph glyph-name="uni1E0E" unicode="&#x1e0e;" horiz-adv-x="731" 
d="M65 700h263c223 0 365 -147 365 -349c0 -201 -145 -351 -367 -351h-261v700zM327 622h-176v-544h176c171 0 279 117 279 271s-108 273 -279 273zM223 -123v63h254v-63h-254z" />
    <glyph glyph-name="uni1E0C" unicode="&#x1e0c;" horiz-adv-x="731" 
d="M65 700h263c223 0 365 -147 365 -349c0 -201 -145 -351 -367 -351h-261v700zM327 622h-176v-544h176c171 0 279 117 279 271s-108 273 -279 273zM391 -54v-82h-82v82h82z" />
    <glyph glyph-name="Dcroat" unicode="&#x110;" horiz-adv-x="761" 
d="M11 320v66h84v314h263c223 0 365 -147 365 -349c0 -201 -145 -351 -367 -351h-261v320h-84zM424 320h-243v-242h176c171 0 279 117 279 271s-108 273 -279 273h-176v-236h243v-66z" />
    <glyph glyph-name="Eacute" unicode="&#xc9;" horiz-adv-x="622" 
d="M65 700h508v-76h-422v-233h394v-76h-394v-239h422v-76h-508v700zM248 794l197 82l25 -66l-204 -67z" />
    <glyph glyph-name="Egrave" unicode="&#xc8;" horiz-adv-x="622" 
d="M65 700h508v-76h-422v-233h394v-76h-394v-239h422v-76h-508v700zM402 794l-18 -51l-203 67l25 66z" />
    <glyph glyph-name="Ecircumflex" unicode="&#xca;" horiz-adv-x="622" 
d="M65 700h508v-76h-422v-233h394v-76h-394v-239h422v-76h-508v700zM175 782l132 87h36l132 -87l-21 -39l-129 57l-129 -57z" />
    <glyph glyph-name="uni1EC6" unicode="&#x1ec6;" horiz-adv-x="622" 
d="M65 700h508v-76h-422v-233h394v-76h-394v-239h422v-76h-508v700zM175 782l132 87h36l132 -87l-21 -39l-129 57l-129 -57zM366 -54v-82h-82v82h82z" />
    <glyph glyph-name="uni1EBE" unicode="&#x1ebe;" horiz-adv-x="622" 
d="M65 700h508v-76h-422v-233h394v-76h-394v-239h422v-76h-508v700zM371 891l129 60l20 -56l-135 -44zM175 780l132 81h36l133 -81l-18 -37l-133 52l-133 -52z" />
    <glyph glyph-name="uni1EC0" unicode="&#x1ec0;" horiz-adv-x="622" 
d="M65 700h508v-76h-422v-233h394v-76h-394v-239h422v-76h-508v700zM477 885l-16 -38l-146 51l23 55zM175 780l132 81h36l133 -81l-18 -37l-133 52l-133 -52z" />
    <glyph glyph-name="uni1EC2" unicode="&#x1ec2;" horiz-adv-x="622" 
d="M65 700h508v-76h-422v-233h394v-76h-394v-239h422v-76h-508v700zM401 844l-23 33c59 11 74 20 74 27c0 8 -8 14 -87 24v2l43 38c88 -15 112 -34 112 -59c0 -19 -26 -55 -119 -65zM175 780l132 81h36l133 -81l-18 -37l-133 52l-133 -52z" />
    <glyph glyph-name="uni1EC4" unicode="&#x1ec4;" horiz-adv-x="622" 
d="M65 700h508v-76h-422v-233h394v-76h-394v-239h422v-76h-508v700zM341 943c26 -11 38 -14 47 -14c12 0 18 4 32 32l44 -8c-17 -65 -39 -81 -71 -81c-16 0 -25 3 -66 21c-26 12 -38 15 -47 15c-12 0 -18 -5 -32 -33l-44 8c16 66 39 82 70 82c17 0 26 -3 67 -22zM175 780
l132 81h36l133 -81l-18 -37l-133 52l-133 -52z" />
    <glyph glyph-name="Ecaron" unicode="&#x11a;" horiz-adv-x="622" 
d="M65 700h508v-76h-422v-233h394v-76h-394v-239h422v-76h-508v700zM475 830l-132 -87h-35l-133 87l21 39l129 -57l129 57z" />
    <glyph glyph-name="Ebreve" unicode="&#x114;" horiz-adv-x="622" 
d="M65 700h508v-76h-422v-233h394v-76h-394v-239h422v-76h-508v700zM325 809c42 0 75 12 99 57l52 -16c-26 -81 -79 -107 -151 -107s-125 26 -151 107l52 16c25 -45 57 -57 99 -57z" />
    <glyph glyph-name="uni1EBC" unicode="&#x1ebc;" horiz-adv-x="622" 
d="M65 700h508v-76h-422v-233h394v-76h-394v-239h422v-76h-508v700zM478 847c-12 -89 -49 -107 -85 -107c-20 0 -35 6 -75 28c-33 19 -45 23 -55 23c-15 0 -26 -6 -36 -48l-55 9c12 88 49 106 85 106c20 0 35 -6 75 -28c33 -18 45 -23 55 -23c15 0 26 5 36 48z" />
    <glyph glyph-name="Emacron" unicode="&#x112;" horiz-adv-x="622" 
d="M65 700h508v-76h-422v-233h394v-76h-394v-239h422v-76h-508v700zM188 758v66h274v-66h-274z" />
    <glyph glyph-name="Edieresis" unicode="&#xcb;" horiz-adv-x="622" 
d="M65 700h508v-76h-422v-233h394v-76h-394v-239h422v-76h-508v700zM282 834v-80h-80v80h80zM448 834v-80h-80v80h80z" />
    <glyph glyph-name="Edotaccent" unicode="&#x116;" horiz-adv-x="622" 
d="M65 700h508v-76h-422v-233h394v-76h-394v-239h422v-76h-508v700zM368 838v-86h-86v86h86z" />
    <glyph glyph-name="uni1EBA" unicode="&#x1eba;" horiz-adv-x="622" 
d="M65 700h508v-76h-422v-233h394v-76h-394v-239h422v-76h-508v700zM272 738l-26 33c62 8 77 25 77 38c0 12 -9 26 -88 33v2l48 42c89 -11 113 -39 113 -72c0 -25 -27 -68 -124 -76z" />
    <glyph glyph-name="uni1EB8" unicode="&#x1eb8;" horiz-adv-x="622" 
d="M65 700h508v-76h-422v-233h394v-76h-394v-239h422v-76h-508v700zM366 -54v-82h-82v82h82z" />
    <glyph glyph-name="Eogonek" unicode="&#x118;" horiz-adv-x="622" 
d="M423 -96c0 20 7 41 54 96h-412v700h508v-76h-422v-233h394v-76h-394v-239h422v-76h-46c-34 -45 -40 -61 -40 -73c0 -16 10 -25 43 -25h28v-56h-49c-63 0 -86 21 -86 58z" />
    <glyph glyph-name="Eacute.biform" horiz-adv-x="763" 
d="M397 63c99 0 175 43 245 129l57 -54c-75 -95 -182 -153 -312 -153c-201 0 -350 152 -350 365c0 203 147 366 346 366c205 0 345 -153 345 -360c0 -16 -2 -30 -4 -40h-598c15 -164 140 -253 271 -253zM385 639c-125 0 -241 -90 -259 -248h514c-19 160 -119 248 -255 248z
M311 794l197 82l25 -66l-204 -67z" />
    <glyph glyph-name="Egrave.biform" horiz-adv-x="763" 
d="M397 63c99 0 175 43 245 129l57 -54c-75 -95 -182 -153 -312 -153c-201 0 -350 152 -350 365c0 203 147 366 346 366c205 0 345 -153 345 -360c0 -16 -2 -30 -4 -40h-598c15 -164 140 -253 271 -253zM385 639c-125 0 -241 -90 -259 -248h514c-19 160 -119 248 -255 248z
M465 794l-18 -51l-203 67l25 66z" />
    <glyph glyph-name="Ecircumflex.biform" horiz-adv-x="763" 
d="M397 63c99 0 175 43 245 129l57 -54c-75 -95 -182 -153 -312 -153c-201 0 -350 152 -350 365c0 203 147 366 346 366c205 0 345 -153 345 -360c0 -16 -2 -30 -4 -40h-598c15 -164 140 -253 271 -253zM385 639c-125 0 -241 -90 -259 -248h514c-19 160 -119 248 -255 248z
M238 782l132 87h36l132 -87l-21 -39l-129 57l-129 -57z" />
    <glyph glyph-name="uni1EC6.biform" horiz-adv-x="763" 
d="M397 63c99 0 175 43 245 129l57 -54c-75 -95 -182 -153 -312 -153c-201 0 -350 152 -350 365c0 203 147 366 346 366c205 0 345 -153 345 -360c0 -16 -2 -30 -4 -40h-598c15 -164 140 -253 271 -253zM385 639c-125 0 -241 -90 -259 -248h514c-19 160 -119 248 -255 248z
M238 782l132 87h36l132 -87l-21 -39l-129 57l-129 -57zM429 -54v-82h-82v82h82z" />
    <glyph glyph-name="uni1EBE.biform" horiz-adv-x="763" 
d="M397 63c99 0 175 43 245 129l57 -54c-75 -95 -182 -153 -312 -153c-201 0 -350 152 -350 365c0 203 147 366 346 366c205 0 345 -153 345 -360c0 -16 -2 -30 -4 -40h-598c15 -164 140 -253 271 -253zM385 639c-125 0 -241 -90 -259 -248h514c-19 160 -119 248 -255 248z
M434 891l129 60l20 -56l-135 -44zM238 780l132 81h36l133 -81l-18 -37l-133 52l-133 -52z" />
    <glyph glyph-name="uni1EC0.biform" horiz-adv-x="763" 
d="M397 63c99 0 175 43 245 129l57 -54c-75 -95 -182 -153 -312 -153c-201 0 -350 152 -350 365c0 203 147 366 346 366c205 0 345 -153 345 -360c0 -16 -2 -30 -4 -40h-598c15 -164 140 -253 271 -253zM385 639c-125 0 -241 -90 -259 -248h514c-19 160 -119 248 -255 248z
M540 885l-16 -38l-146 51l23 55zM238 780l132 81h36l133 -81l-18 -37l-133 52l-133 -52z" />
    <glyph glyph-name="uni1EC2.biform" horiz-adv-x="763" 
d="M397 63c99 0 175 43 245 129l57 -54c-75 -95 -182 -153 -312 -153c-201 0 -350 152 -350 365c0 203 147 366 346 366c205 0 345 -153 345 -360c0 -16 -2 -30 -4 -40h-598c15 -164 140 -253 271 -253zM385 639c-125 0 -241 -90 -259 -248h514c-19 160 -119 248 -255 248z
M464 844l-23 33c59 11 74 20 74 27c0 8 -8 14 -87 24v2l43 38c88 -15 112 -34 112 -59c0 -19 -26 -55 -119 -65zM238 780l132 81h36l133 -81l-18 -37l-133 52l-133 -52z" />
    <glyph glyph-name="uni1EC4.biform" horiz-adv-x="763" 
d="M397 63c99 0 175 43 245 129l57 -54c-75 -95 -182 -153 -312 -153c-201 0 -350 152 -350 365c0 203 147 366 346 366c205 0 345 -153 345 -360c0 -16 -2 -30 -4 -40h-598c15 -164 140 -253 271 -253zM385 639c-125 0 -241 -90 -259 -248h514c-19 160 -119 248 -255 248z
M404 943c26 -11 38 -14 47 -14c12 0 18 4 32 32l44 -8c-17 -65 -39 -81 -71 -81c-16 0 -25 3 -66 21c-26 12 -38 15 -47 15c-12 0 -18 -5 -32 -33l-44 8c16 66 39 82 70 82c17 0 26 -3 67 -22zM238 780l132 81h36l133 -81l-18 -37l-133 52l-133 -52z" />
    <glyph glyph-name="Ecaron.biform" horiz-adv-x="763" 
d="M397 63c99 0 175 43 245 129l57 -54c-75 -95 -182 -153 -312 -153c-201 0 -350 152 -350 365c0 203 147 366 346 366c205 0 345 -153 345 -360c0 -16 -2 -30 -4 -40h-598c15 -164 140 -253 271 -253zM385 639c-125 0 -241 -90 -259 -248h514c-19 160 -119 248 -255 248z
M538 830l-132 -87h-35l-133 87l21 39l129 -57l129 57z" />
    <glyph glyph-name="Ebreve.biform" horiz-adv-x="763" 
d="M397 63c99 0 175 43 245 129l57 -54c-75 -95 -182 -153 -312 -153c-201 0 -350 152 -350 365c0 203 147 366 346 366c205 0 345 -153 345 -360c0 -16 -2 -30 -4 -40h-598c15 -164 140 -253 271 -253zM385 639c-125 0 -241 -90 -259 -248h514c-19 160 -119 248 -255 248z
M388 809c42 0 75 12 99 57l52 -16c-26 -81 -79 -107 -151 -107s-125 26 -151 107l52 16c25 -45 57 -57 99 -57z" />
    <glyph glyph-name="uni1EBC.biform" horiz-adv-x="763" 
d="M397 63c99 0 175 43 245 129l57 -54c-75 -95 -182 -153 -312 -153c-201 0 -350 152 -350 365c0 203 147 366 346 366c205 0 345 -153 345 -360c0 -16 -2 -30 -4 -40h-598c15 -164 140 -253 271 -253zM385 639c-125 0 -241 -90 -259 -248h514c-19 160 -119 248 -255 248z
M541 847c-12 -89 -49 -107 -85 -107c-20 0 -35 6 -75 28c-33 19 -45 23 -55 23c-15 0 -26 -6 -36 -48l-55 9c12 88 49 106 85 106c20 0 35 -6 75 -28c33 -18 45 -23 55 -23c15 0 26 5 36 48z" />
    <glyph glyph-name="Emacron.biform" horiz-adv-x="763" 
d="M397 63c99 0 175 43 245 129l57 -54c-75 -95 -182 -153 -312 -153c-201 0 -350 152 -350 365c0 203 147 366 346 366c205 0 345 -153 345 -360c0 -16 -2 -30 -4 -40h-598c15 -164 140 -253 271 -253zM385 639c-125 0 -241 -90 -259 -248h514c-19 160 -119 248 -255 248z
M251 758v66h274v-66h-274z" />
    <glyph glyph-name="Edieresis.biform" horiz-adv-x="763" 
d="M397 63c99 0 175 43 245 129l57 -54c-75 -95 -182 -153 -312 -153c-201 0 -350 152 -350 365c0 203 147 366 346 366c205 0 345 -153 345 -360c0 -16 -2 -30 -4 -40h-598c15 -164 140 -253 271 -253zM385 639c-125 0 -241 -90 -259 -248h514c-19 160 -119 248 -255 248z
M345 834v-80h-80v80h80zM511 834v-80h-80v80h80z" />
    <glyph glyph-name="Edotaccent.biform" horiz-adv-x="763" 
d="M397 63c99 0 175 43 245 129l57 -54c-75 -95 -182 -153 -312 -153c-201 0 -350 152 -350 365c0 203 147 366 346 366c205 0 345 -153 345 -360c0 -16 -2 -30 -4 -40h-598c15 -164 140 -253 271 -253zM385 639c-125 0 -241 -90 -259 -248h514c-19 160 -119 248 -255 248z
M431 838v-86h-86v86h86z" />
    <glyph glyph-name="uni1EBA.biform" horiz-adv-x="763" 
d="M397 63c99 0 175 43 245 129l57 -54c-75 -95 -182 -153 -312 -153c-201 0 -350 152 -350 365c0 203 147 366 346 366c205 0 345 -153 345 -360c0 -16 -2 -30 -4 -40h-598c15 -164 140 -253 271 -253zM385 639c-125 0 -241 -90 -259 -248h514c-19 160 -119 248 -255 248z
M335 738l-26 33c62 8 77 25 77 38c0 12 -9 26 -88 33v2l48 42c89 -11 113 -39 113 -72c0 -25 -27 -68 -124 -76z" />
    <glyph glyph-name="uni1EB8.biform" horiz-adv-x="763" 
d="M397 63c99 0 175 43 245 129l57 -54c-75 -95 -182 -153 -312 -153c-201 0 -350 152 -350 365c0 203 147 366 346 366c205 0 345 -153 345 -360c0 -16 -2 -30 -4 -40h-598c15 -164 140 -253 271 -253zM385 639c-125 0 -241 -90 -259 -248h514c-19 160 -119 248 -255 248z
M429 -54v-82h-82v82h82z" />
    <glyph glyph-name="Eogonek.biform" horiz-adv-x="763" 
d="M387 -15c-201 0 -350 152 -350 365c0 203 147 366 346 366c205 0 345 -153 345 -360c0 -16 -2 -30 -4 -40h-598c15 -164 140 -253 271 -253c99 0 175 43 245 129l57 -54c-88 -131 -102 -180 -102 -202c0 -21 11 -34 44 -34h28v-56h-49c-63 0 -87 25 -87 68
c0 25 6 59 50 126c-56 -36 -124 -55 -196 -55zM385 639c-125 0 -241 -90 -259 -248h514c-19 160 -119 248 -255 248z" />
    <glyph glyph-name="Gcircumflex" unicode="&#x11c;" horiz-adv-x="768" 
d="M404 639c-159 0 -279 -124 -279 -288c0 -173 123 -290 271 -290c150 0 242 93 253 232h-267v74h347c2 -14 3 -30 3 -43c0 -203 -135 -340 -340 -340c-203 0 -355 155 -355 365c0 211 160 367 368 367c127 0 234 -61 295 -162l-64 -46c-60 92 -141 131 -232 131zM260 772
l132 87h36l132 -87l-21 -39l-129 57l-129 -57z" />
    <glyph glyph-name="Gcaron" unicode="&#x1e6;" horiz-adv-x="768" 
d="M404 639c-159 0 -279 -124 -279 -288c0 -173 123 -290 271 -290c150 0 242 93 253 232h-267v74h347c2 -14 3 -30 3 -43c0 -203 -135 -340 -340 -340c-203 0 -355 155 -355 365c0 211 160 367 368 367c127 0 234 -61 295 -162l-64 -46c-60 92 -141 131 -232 131zM560 830
l-132 -87h-35l-133 87l21 39l129 -57l129 57z" />
    <glyph glyph-name="Gbreve" unicode="&#x11e;" horiz-adv-x="768" 
d="M404 639c-159 0 -279 -124 -279 -288c0 -173 123 -290 271 -290c150 0 242 93 253 232h-267v74h347c2 -14 3 -30 3 -43c0 -203 -135 -340 -340 -340c-203 0 -355 155 -355 365c0 211 160 367 368 367c127 0 234 -61 295 -162l-64 -46c-60 92 -141 131 -232 131zM410 809
c42 0 75 12 99 57l52 -16c-26 -81 -79 -107 -151 -107s-125 26 -151 107l52 16c25 -45 57 -57 99 -57z" />
    <glyph glyph-name="uni1E20" unicode="&#x1e20;" horiz-adv-x="768" 
d="M404 639c-159 0 -279 -124 -279 -288c0 -173 123 -290 271 -290c150 0 242 93 253 232h-267v74h347c2 -14 3 -30 3 -43c0 -203 -135 -340 -340 -340c-203 0 -355 155 -355 365c0 211 160 367 368 367c127 0 234 -61 295 -162l-64 -46c-60 92 -141 131 -232 131zM273 758
v66h274v-66h-274z" />
    <glyph glyph-name="Gdotaccent" unicode="&#x120;" horiz-adv-x="768" 
d="M404 639c-159 0 -279 -124 -279 -288c0 -173 123 -290 271 -290c150 0 242 93 253 232h-267v74h347c2 -14 3 -30 3 -43c0 -203 -135 -340 -340 -340c-203 0 -355 155 -355 365c0 211 160 367 368 367c127 0 234 -61 295 -162l-64 -46c-60 92 -141 131 -232 131zM453 838
v-86h-86v86h86z" />
    <glyph glyph-name="uni0122" unicode="&#x122;" horiz-adv-x="768" 
d="M404 639c-159 0 -279 -124 -279 -288c0 -173 123 -290 271 -290c150 0 242 93 253 232h-267v74h347c2 -14 3 -30 3 -43c0 -203 -135 -340 -340 -340c-203 0 -355 155 -355 365c0 211 160 367 368 367c127 0 234 -61 295 -162l-64 -46c-60 92 -141 131 -232 131zM375 -196
l-27 31c44 13 57 26 57 43c0 11 -8 27 -68 40v2l48 39c72 -15 91 -44 91 -76c0 -28 -25 -64 -101 -79z" />
    <glyph glyph-name="Hcircumflex" unicode="&#x124;" horiz-adv-x="741" 
d="M65 700h86v-308h438v308h86v-700h-86v314h-438v-314h-86v700zM221 782l132 87h36l132 -87l-21 -39l-129 57l-129 -57z" />
    <glyph glyph-name="uni1E2A" unicode="&#x1e2a;" horiz-adv-x="741" 
d="M65 700h86v-308h438v308h86v-700h-86v314h-438v-314h-86v700zM371 -115c43 0 69 22 86 70l54 -12c-18 -85 -66 -121 -140 -121s-122 36 -140 121l54 12c18 -47 43 -70 86 -70z" />
    <glyph glyph-name="uni1E24" unicode="&#x1e24;" horiz-adv-x="741" 
d="M65 700h86v-308h438v308h86v-700h-86v314h-438v-314h-86v700zM412 -40v-82h-82v82h82z" />
    <glyph glyph-name="uni1E28" unicode="&#x1e28;" horiz-adv-x="741" 
d="M65 700h86v-308h438v308h86v-700h-86v314h-438v-314h-17l-12 -43h8c43 0 74 -26 74 -64c0 -40 -33 -73 -94 -73c-23 0 -54 6 -83 26l21 40c28 -15 44 -20 62 -20c30 0 39 14 39 25c0 12 -12 22 -33 22c-9 0 -19 -2 -34 -8l-22 7l-1 2l25 86h-19v700z" />
    <glyph glyph-name="Hbar" unicode="&#x126;" horiz-adv-x="801" 
d="M11 502v65h84v133h86v-133h438v133h86v-133h85v-65h-85v-502h-86v292h-438v-292h-86v502h-84zM181 370h438v132h-438v-132z" />
    <glyph glyph-name="Iacute" unicode="&#xcd;" horiz-adv-x="230" 
d="M72 700h86v-700h-86v700zM38 794l197 82l25 -66l-204 -67z" />
    <glyph glyph-name="Igrave" unicode="&#xcc;" horiz-adv-x="230" 
d="M72 700h86v-700h-86v700zM192 794l-18 -51l-203 67l25 66z" />
    <glyph glyph-name="Icircumflex" unicode="&#xce;" horiz-adv-x="230" 
d="M72 700h86v-700h-86v700zM-35 770l132 87h36l132 -87l-21 -39l-129 57l-129 -57z" />
    <glyph glyph-name="uni01CF" unicode="&#x1cf;" horiz-adv-x="230" 
d="M72 700h86v-700h-86v700zM265 830l-132 -87h-35l-133 87l21 39l129 -57l129 57z" />
    <glyph glyph-name="Ibreve" unicode="&#x12c;" horiz-adv-x="230" 
d="M72 700h86v-700h-86v700zM115 809c42 0 75 12 99 57l52 -16c-26 -81 -79 -107 -151 -107s-125 26 -151 107l52 16c25 -45 57 -57 99 -57z" />
    <glyph glyph-name="Itilde" unicode="&#x128;" horiz-adv-x="230" 
d="M72 700h86v-700h-86v700zM268 847c-12 -89 -49 -107 -85 -107c-20 0 -35 6 -75 28c-33 19 -45 23 -55 23c-15 0 -26 -6 -36 -48l-55 9c12 88 49 106 85 106c20 0 35 -6 75 -28c33 -18 45 -23 55 -23c15 0 26 5 36 48z" />
    <glyph glyph-name="Imacron" unicode="&#x12a;" horiz-adv-x="230" 
d="M72 700h86v-700h-86v700zM11 758v66h208v-66h-208z" />
    <glyph glyph-name="Idieresis" unicode="&#xcf;" horiz-adv-x="230" 
d="M72 700h86v-700h-86v700zM72 834v-80h-80v80h80zM238 834v-80h-80v80h80z" />
    <glyph glyph-name="Idotaccent" unicode="&#x130;" horiz-adv-x="230" 
d="M72 700h86v-700h-86v700zM158 838v-86h-86v86h86z" />
    <glyph glyph-name="uni1EC8" unicode="&#x1ec8;" horiz-adv-x="230" 
d="M72 700h86v-700h-86v700zM62 738l-26 33c62 8 77 25 77 38c0 12 -9 26 -88 33v2l48 42c89 -11 113 -39 113 -72c0 -25 -27 -68 -124 -76z" />
    <glyph glyph-name="uni1ECA" unicode="&#x1eca;" horiz-adv-x="230" 
d="M72 700h86v-700h-86v700zM156 -54v-82h-82v82h82z" />
    <glyph glyph-name="Iogonek" unicode="&#x12e;" horiz-adv-x="230" 
d="M37 -96c0 20 7 41 54 96h-19v700h86v-700h-17c-34 -45 -40 -61 -40 -73c0 -16 10 -25 44 -25h28v-56h-49c-63 0 -87 21 -87 58z" />
    <glyph glyph-name="Jcircumflex" unicode="&#x134;" horiz-adv-x="585" 
d="M270 -16c-142 0 -244 84 -246 269h84c5 -130 64 -192 164 -192c99 0 167 57 167 195v444h86v-446c0 -172 -90 -270 -255 -270zM331 770l132 87h36l132 -87l-21 -39l-129 57l-129 -57z" />
    <glyph glyph-name="uni1E34" unicode="&#x1e34;" horiz-adv-x="655" 
d="M151 700v-320l372 320h117v-2l-402 -339l416 -357v-2h-122l-381 326v-326h-86v700h86zM228 -123v63h254v-63h-254z" />
    <glyph glyph-name="uni0136" unicode="&#x136;" horiz-adv-x="655" 
d="M151 700v-320l372 320h117v-2l-402 -339l416 -357v-2h-122l-381 326v-326h-86v700h86zM315 -196l-27 31c44 13 57 26 57 43c0 11 -8 27 -68 40v2l48 39c72 -15 91 -44 91 -76c0 -28 -25 -64 -101 -79z" />
    <glyph glyph-name="uni1E32" unicode="&#x1e32;" horiz-adv-x="655" 
d="M151 700v-320l372 320h117v-2l-402 -339l416 -357v-2h-122l-381 326v-326h-86v700h86zM396 -54v-82h-82v82h82z" />
    <glyph glyph-name="Lacute" unicode="&#x139;" horiz-adv-x="575" 
d="M65 700h86v-623h404v-77h-490v700zM31 794l197 82l25 -66l-204 -67z" />
    <glyph glyph-name="Lcaron" unicode="&#x13d;" horiz-adv-x="575" 
d="M65 700h86v-623h404v-77h-490v700zM249 535v165h81l-28 -165h-53z" />
    <glyph glyph-name="uni013B" unicode="&#x13b;" horiz-adv-x="575" 
d="M65 700h86v-623h404v-77h-490v700zM274 -196l-27 31c44 13 57 26 57 43c0 11 -8 27 -68 40v2l48 39c72 -15 91 -44 91 -76c0 -28 -25 -64 -101 -79z" />
    <glyph glyph-name="uni1E3C" unicode="&#x1e3c;" horiz-adv-x="575" 
d="M65 700h86v-623h404v-77h-490v700zM176 -144l120 100h36l120 -100l-28 -38l-110 71l-110 -71z" />
    <glyph glyph-name="uni1E3A" unicode="&#x1e3a;" horiz-adv-x="575" 
d="M65 700h86v-623h404v-77h-490v700zM187 -123v63h254v-63h-254z" />
    <glyph glyph-name="uni1E38" unicode="&#x1e38;" horiz-adv-x="575" 
d="M65 700h86v-623h404v-77h-490v700zM4 758v66h208v-66h-208zM355 -54v-82h-82v82h82z" />
    <glyph glyph-name="uni1E36" unicode="&#x1e36;" horiz-adv-x="575" 
d="M65 700h86v-623h404v-77h-490v700zM355 -54v-82h-82v82h82z" />
    <glyph glyph-name="Lslash" unicode="&#x141;" horiz-adv-x="605" 
d="M11 203v77l84 55v365h86v-308l224 148v-76l-224 -148v-239h404v-77h-490v259z" />
    <glyph glyph-name="uni1E3E" unicode="&#x1e3e;" horiz-adv-x="831" 
d="M766 700v-700h-86v590l-229 -400h-70l-230 399v-589h-86v700h114l237 -409l236 409h114zM337 780l197 82l25 -66l-204 -67z" />
    <glyph glyph-name="uni1E40" unicode="&#x1e40;" horiz-adv-x="831" 
d="M766 700v-700h-86v590l-229 -400h-70l-230 399v-589h-86v700h114l237 -409l236 409h114zM457 824v-86h-86v86h86z" />
    <glyph glyph-name="uni1E42" unicode="&#x1e42;" horiz-adv-x="831" 
d="M766 700v-700h-86v590l-229 -400h-70l-230 399v-589h-86v700h114l237 -409l236 409h114zM455 -54v-82h-82v82h82z" />
    <glyph glyph-name="uni1E3E.biform" horiz-adv-x="1153" 
d="M150 700v-97c43 68 119 111 217 111c110 0 187 -51 226 -134c41 80 127 134 244 134c169 0 257 -117 257 -286v-428h-86v419c0 142 -71 218 -180 218c-126 0 -205 -92 -205 -224v-413h-86v419c0 141 -69 218 -180 218c-125 0 -206 -89 -206 -224v-413h-86v700h85z
M512 784l197 82l25 -66l-204 -67z" />
    <glyph glyph-name="uni1E40.biform" horiz-adv-x="1153" 
d="M150 700v-97c43 68 119 111 217 111c110 0 187 -51 226 -134c41 80 127 134 244 134c169 0 257 -117 257 -286v-428h-86v419c0 142 -71 218 -180 218c-126 0 -205 -92 -205 -224v-413h-86v419c0 141 -69 218 -180 218c-125 0 -206 -89 -206 -224v-413h-86v700h85z
M632 828v-86h-86v86h86z" />
    <glyph glyph-name="uni1E42.biform" horiz-adv-x="1153" 
d="M150 700v-97c43 68 119 111 217 111c110 0 187 -51 226 -134c41 80 127 134 244 134c169 0 257 -117 257 -286v-428h-86v419c0 142 -71 218 -180 218c-126 0 -205 -92 -205 -224v-413h-86v419c0 141 -69 218 -180 218c-125 0 -206 -89 -206 -224v-413h-86v700h85z
M622 -54v-82h-82v82h82z" />
    <glyph glyph-name="Nacute" unicode="&#x143;" horiz-adv-x="743" 
d="M149 0h-84v700h92l437 -572v572h84v-700h-90l-439 575v-575zM295 780l197 82l25 -66l-204 -67z" />
    <glyph glyph-name="uni01F8" unicode="&#x1f8;" horiz-adv-x="743" 
d="M149 0h-84v700h92l437 -572v572h84v-700h-90l-439 575v-575zM449 780l-18 -51l-203 67l25 66z" />
    <glyph glyph-name="Ncaron" unicode="&#x147;" horiz-adv-x="743" 
d="M149 0h-84v700h92l437 -572v572h84v-700h-90l-439 575v-575zM522 816l-132 -87h-35l-133 87l21 39l129 -57l129 57z" />
    <glyph glyph-name="Ntilde" unicode="&#xd1;" horiz-adv-x="743" 
d="M149 0h-84v700h92l437 -572v572h84v-700h-90l-439 575v-575zM525 847c-12 -89 -49 -107 -85 -107c-20 0 -35 6 -75 28c-33 19 -45 23 -55 23c-15 0 -26 -6 -36 -48l-55 9c12 88 49 106 85 106c20 0 35 -6 75 -28c33 -18 45 -23 55 -23c15 0 26 5 36 48z" />
    <glyph glyph-name="uni1E44" unicode="&#x1e44;" horiz-adv-x="743" 
d="M149 0h-84v700h92l437 -572v572h84v-700h-90l-439 575v-575zM415 824v-86h-86v86h86z" />
    <glyph glyph-name="uni1E4A" unicode="&#x1e4a;" horiz-adv-x="743" 
d="M149 0h-84v700h92l437 -572v572h84v-700h-90l-439 575v-575zM234 -130l120 100h36l120 -100l-28 -38l-110 71l-110 -71z" />
    <glyph glyph-name="uni0145" unicode="&#x145;" horiz-adv-x="743" 
d="M149 0h-84v700h92l437 -572v572h84v-700h-90l-439 575v-575zM332 -182l-27 31c44 13 57 26 57 43c0 11 -8 27 -68 40v2l48 39c72 -15 91 -44 91 -76c0 -28 -25 -64 -101 -79z" />
    <glyph glyph-name="uni1E46" unicode="&#x1e46;" horiz-adv-x="743" 
d="M149 0h-84v700h92l437 -572v572h84v-700h-90l-439 575v-575zM413 -40v-82h-82v82h82z" />
    <glyph glyph-name="uni1E48" unicode="&#x1e48;" horiz-adv-x="743" 
d="M149 0h-84v700h92l437 -572v572h84v-700h-90l-439 575v-575zM245 -123v63h254v-63h-254z" />
    <glyph glyph-name="Eng" unicode="&#x14a;" horiz-adv-x="743" 
d="M149 0h-84v700h92l437 -572v572h84v-660c0 -148 -89 -220 -220 -220h-113v73h108c75 0 124 33 137 105l-441 577v-575z" />
    <glyph glyph-name="Nacute.biform" horiz-adv-x="754" 
d="M150 700v-119c48 80 137 133 253 133c191 0 292 -130 292 -318v-396h-86v388c0 149 -76 249 -216 249c-155 0 -242 -111 -242 -254v-383h-86v700h85zM307 792l197 82l25 -66l-204 -67z" />
    <glyph glyph-name="uni01F8.biform" horiz-adv-x="754" 
d="M150 700v-119c48 80 137 133 253 133c191 0 292 -130 292 -318v-396h-86v388c0 149 -76 249 -216 249c-155 0 -242 -111 -242 -254v-383h-86v700h85zM461 792l-18 -51l-203 67l25 66z" />
    <glyph glyph-name="Ncaron.biform" horiz-adv-x="754" 
d="M150 700v-119c48 80 137 133 253 133c191 0 292 -130 292 -318v-396h-86v388c0 149 -76 249 -216 249c-155 0 -242 -111 -242 -254v-383h-86v700h85zM534 828l-132 -87h-35l-133 87l21 39l129 -57l129 57z" />
    <glyph glyph-name="Ntilde.biform" horiz-adv-x="754" 
d="M150 700v-119c48 80 137 133 253 133c191 0 292 -130 292 -318v-396h-86v388c0 149 -76 249 -216 249c-155 0 -242 -111 -242 -254v-383h-86v700h85zM537 855c-12 -89 -49 -107 -85 -107c-20 0 -35 6 -75 28c-33 19 -45 23 -55 23c-15 0 -26 -6 -36 -48l-55 9
c12 88 49 106 85 106c20 0 35 -6 75 -28c33 -18 45 -23 55 -23c15 0 26 5 36 48z" />
    <glyph glyph-name="uni1E44.biform" horiz-adv-x="754" 
d="M150 700v-119c48 80 137 133 253 133c191 0 292 -130 292 -318v-396h-86v388c0 149 -76 249 -216 249c-155 0 -242 -111 -242 -254v-383h-86v700h85zM427 836v-86h-86v86h86z" />
    <glyph glyph-name="uni1E4A.biform" horiz-adv-x="754" 
d="M150 700v-119c48 80 137 133 253 133c191 0 292 -130 292 -318v-396h-86v388c0 149 -76 249 -216 249c-155 0 -242 -111 -242 -254v-383h-86v700h85zM253 -134l120 100h36l120 -100l-28 -38l-110 71l-110 -71z" />
    <glyph glyph-name="uni0145.biform" horiz-adv-x="754" 
d="M150 700v-119c48 80 137 133 253 133c191 0 292 -130 292 -318v-396h-86v388c0 149 -76 249 -216 249c-155 0 -242 -111 -242 -254v-383h-86v700h85zM351 -186l-27 31c44 13 57 26 57 43c0 11 -8 27 -68 40v2l48 39c72 -15 91 -44 91 -76c0 -28 -25 -64 -101 -79z" />
    <glyph glyph-name="uni1E46.biform" horiz-adv-x="754" 
d="M150 700v-119c48 80 137 133 253 133c191 0 292 -130 292 -318v-396h-86v388c0 149 -76 249 -216 249c-155 0 -242 -111 -242 -254v-383h-86v700h85zM432 -44v-82h-82v82h82z" />
    <glyph glyph-name="uni1E48.biform" horiz-adv-x="754" 
d="M150 700v-119c48 80 137 133 253 133c191 0 292 -130 292 -318v-396h-86v388c0 149 -76 249 -216 249c-155 0 -242 -111 -242 -254v-383h-86v700h85zM264 -123v63h254v-63h-254z" />
    <glyph glyph-name="Oacute" unicode="&#xd3;" horiz-adv-x="786" 
d="M394 716c203 0 355 -158 355 -365s-154 -367 -356 -367c-203 0 -356 158 -356 365s155 367 357 367zM394 61c153 0 267 124 267 288s-116 290 -268 290c-154 0 -268 -125 -268 -288s116 -290 269 -290zM315 794l197 82l25 -66l-204 -67z" />
    <glyph glyph-name="Ohungarumlaut" unicode="&#x150;" horiz-adv-x="786" 
d="M394 716c203 0 355 -158 355 -365s-154 -367 -356 -367c-203 0 -356 158 -356 365s155 367 357 367zM394 61c153 0 267 124 267 288s-116 290 -268 290c-154 0 -268 -125 -268 -288s116 -290 269 -290zM263 790l130 97l41 -60l-140 -84zM426 790l130 97l41 -60l-139 -84z
" />
    <glyph glyph-name="Ograve" unicode="&#xd2;" horiz-adv-x="786" 
d="M394 716c203 0 355 -158 355 -365s-154 -367 -356 -367c-203 0 -356 158 -356 365s155 367 357 367zM394 61c153 0 267 124 267 288s-116 290 -268 290c-154 0 -268 -125 -268 -288s116 -290 269 -290zM469 794l-18 -51l-203 67l25 66z" />
    <glyph glyph-name="Ocircumflex" unicode="&#xd4;" horiz-adv-x="786" 
d="M394 716c203 0 355 -158 355 -365s-154 -367 -356 -367c-203 0 -356 158 -356 365s155 367 357 367zM394 61c153 0 267 124 267 288s-116 290 -268 290c-154 0 -268 -125 -268 -288s116 -290 269 -290zM242 772l132 87h36l132 -87l-21 -39l-129 57l-129 -57z" />
    <glyph glyph-name="uni1ED8" unicode="&#x1ed8;" horiz-adv-x="786" 
d="M394 716c203 0 355 -158 355 -365s-154 -367 -356 -367c-203 0 -356 158 -356 365s155 367 357 367zM394 61c153 0 267 124 267 288s-116 290 -268 290c-154 0 -268 -125 -268 -288s116 -290 269 -290zM242 772l132 87h36l132 -87l-21 -39l-129 57l-129 -57zM434 -54v-82
h-82v82h82z" />
    <glyph glyph-name="uni1ED0" unicode="&#x1ed0;" horiz-adv-x="786" 
d="M394 716c203 0 355 -158 355 -365s-154 -367 -356 -367c-203 0 -356 158 -356 365s155 367 357 367zM394 61c153 0 267 124 267 288s-116 290 -268 290c-154 0 -268 -125 -268 -288s116 -290 269 -290zM438 881l129 60l20 -56l-135 -44zM242 770l132 81h36l133 -81
l-18 -37l-133 52l-133 -52z" />
    <glyph glyph-name="uni1ED2" unicode="&#x1ed2;" horiz-adv-x="786" 
d="M394 716c203 0 355 -158 355 -365s-154 -367 -356 -367c-203 0 -356 158 -356 365s155 367 357 367zM394 61c153 0 267 124 267 288s-116 290 -268 290c-154 0 -268 -125 -268 -288s116 -290 269 -290zM544 875l-16 -38l-146 51l23 55zM242 770l132 81h36l133 -81
l-18 -37l-133 52l-133 -52z" />
    <glyph glyph-name="uni1ED4" unicode="&#x1ed4;" horiz-adv-x="786" 
d="M394 716c203 0 355 -158 355 -365s-154 -367 -356 -367c-203 0 -356 158 -356 365s155 367 357 367zM394 61c153 0 267 124 267 288s-116 290 -268 290c-154 0 -268 -125 -268 -288s116 -290 269 -290zM468 834l-23 33c59 11 74 20 74 27c0 8 -8 14 -87 24v2l43 38
c88 -15 112 -34 112 -59c0 -19 -26 -55 -119 -65zM242 770l132 81h36l133 -81l-18 -37l-133 52l-133 -52z" />
    <glyph glyph-name="uni1ED6" unicode="&#x1ed6;" horiz-adv-x="786" 
d="M394 716c203 0 355 -158 355 -365s-154 -367 -356 -367c-203 0 -356 158 -356 365s155 367 357 367zM394 61c153 0 267 124 267 288s-116 290 -268 290c-154 0 -268 -125 -268 -288s116 -290 269 -290zM408 933c26 -11 38 -14 47 -14c12 0 18 4 32 32l44 -8
c-17 -65 -39 -81 -71 -81c-16 0 -25 3 -66 21c-26 12 -38 15 -47 15c-12 0 -18 -5 -32 -33l-44 8c16 66 39 82 70 82c17 0 26 -3 67 -22zM242 770l132 81h36l133 -81l-18 -37l-133 52l-133 -52z" />
    <glyph glyph-name="uni01D1" unicode="&#x1d1;" horiz-adv-x="786" 
d="M394 716c203 0 355 -158 355 -365s-154 -367 -356 -367c-203 0 -356 158 -356 365s155 367 357 367zM394 61c153 0 267 124 267 288s-116 290 -268 290c-154 0 -268 -125 -268 -288s116 -290 269 -290zM542 830l-132 -87h-35l-133 87l21 39l129 -57l129 57z" />
    <glyph glyph-name="Obreve" unicode="&#x14e;" horiz-adv-x="786" 
d="M394 716c203 0 355 -158 355 -365s-154 -367 -356 -367c-203 0 -356 158 -356 365s155 367 357 367zM394 61c153 0 267 124 267 288s-116 290 -268 290c-154 0 -268 -125 -268 -288s116 -290 269 -290zM392 809c42 0 75 12 99 57l52 -16c-26 -81 -79 -107 -151 -107
s-125 26 -151 107l52 16c25 -45 57 -57 99 -57z" />
    <glyph glyph-name="Otilde" unicode="&#xd5;" horiz-adv-x="786" 
d="M394 716c203 0 355 -158 355 -365s-154 -367 -356 -367c-203 0 -356 158 -356 365s155 367 357 367zM394 61c153 0 267 124 267 288s-116 290 -268 290c-154 0 -268 -125 -268 -288s116 -290 269 -290zM545 847c-12 -89 -49 -107 -85 -107c-20 0 -35 6 -75 28
c-33 19 -45 23 -55 23c-15 0 -26 -6 -36 -48l-55 9c12 88 49 106 85 106c20 0 35 -6 75 -28c33 -18 45 -23 55 -23c15 0 26 5 36 48z" />
    <glyph glyph-name="Omacron" unicode="&#x14c;" horiz-adv-x="786" 
d="M394 716c203 0 355 -158 355 -365s-154 -367 -356 -367c-203 0 -356 158 -356 365s155 367 357 367zM394 61c153 0 267 124 267 288s-116 290 -268 290c-154 0 -268 -125 -268 -288s116 -290 269 -290zM255 758v66h274v-66h-274z" />
    <glyph glyph-name="Odieresis" unicode="&#xd6;" horiz-adv-x="786" 
d="M394 716c203 0 355 -158 355 -365s-154 -367 -356 -367c-203 0 -356 158 -356 365s155 367 357 367zM394 61c153 0 267 124 267 288s-116 290 -268 290c-154 0 -268 -125 -268 -288s116 -290 269 -290zM349 834v-80h-80v80h80zM515 834v-80h-80v80h80z" />
    <glyph glyph-name="uni022E" unicode="&#x22e;" horiz-adv-x="786" 
d="M394 716c203 0 355 -158 355 -365s-154 -367 -356 -367c-203 0 -356 158 -356 365s155 367 357 367zM394 61c153 0 267 124 267 288s-116 290 -268 290c-154 0 -268 -125 -268 -288s116 -290 269 -290zM435 838v-86h-86v86h86z" />
    <glyph glyph-name="uni1ECE" unicode="&#x1ece;" horiz-adv-x="786" 
d="M394 716c203 0 355 -158 355 -365s-154 -367 -356 -367c-203 0 -356 158 -356 365s155 367 357 367zM394 61c153 0 267 124 267 288s-116 290 -268 290c-154 0 -268 -125 -268 -288s116 -290 269 -290zM339 738l-26 33c62 8 77 25 77 38c0 12 -9 26 -88 33v2l48 42
c89 -11 113 -39 113 -72c0 -25 -27 -68 -124 -76z" />
    <glyph glyph-name="uni1ECC" unicode="&#x1ecc;" horiz-adv-x="786" 
d="M394 716c203 0 355 -158 355 -365s-154 -367 -356 -367c-203 0 -356 158 -356 365s155 367 357 367zM394 61c153 0 267 124 267 288s-116 290 -268 290c-154 0 -268 -125 -268 -288s116 -290 269 -290zM434 -54v-82h-82v82h82z" />
    <glyph glyph-name="uni01EA" unicode="&#x1ea;" horiz-adv-x="786" 
d="M318 -96c0 18 5 37 42 81c-187 17 -323 168 -323 364c0 207 155 367 357 367c203 0 355 -158 355 -365c0 -201 -145 -358 -339 -367c-23 -33 -28 -46 -28 -57c0 -16 10 -25 43 -25h28v-56h-49c-63 0 -86 21 -86 58zM394 61c153 0 267 124 267 288s-116 290 -268 290
c-154 0 -268 -125 -268 -288s116 -290 269 -290z" />
    <glyph glyph-name="Oslash" unicode="&#xd8;" horiz-adv-x="786" 
d="M749 351c0 -207 -155 -367 -357 -367c-76 0 -146 24 -203 65l-48 -57h-85l83 100c-63 66 -102 156 -102 257c0 207 155 367 357 367c76 0 146 -24 203 -65l48 57h86l-84 -100c63 -66 102 -156 102 -257zM125 351c0 -78 25 -147 67 -198l353 439c-42 30 -94 47 -152 47
c-154 0 -268 -125 -268 -288zM661 349c0 78 -25 147 -67 198l-353 -439c42 -30 94 -47 152 -47c154 0 268 125 268 288z" />
    <glyph glyph-name="OE" unicode="&#x152;" horiz-adv-x="1109" 
d="M403 0c-222 0 -366 148 -366 349s146 351 368 351h655v-76h-422v-233h394v-76h-394v-239h422v-76h-657zM404 76h148v548h-148c-171 0 -279 -118 -279 -273s108 -275 279 -275z" />
    <glyph glyph-name="Ohorn" unicode="&#x1a0;" horiz-adv-x="800" 
d="M646 641c-21 0 -48 1 -83 4c117 -56 186 -170 186 -302c0 -202 -154 -359 -356 -359c-203 0 -356 155 -356 357c0 203 155 359 357 359h215c76 0 100 25 103 93h78c-4 -107 -60 -152 -144 -152zM125 343c0 -159 116 -282 269 -282s267 121 267 280
c0 160 -116 282 -268 282c-154 0 -268 -121 -268 -280z" />
    <glyph glyph-name="uni1EDA" unicode="&#x1eda;" horiz-adv-x="800" 
d="M646 641c-21 0 -48 1 -83 4c117 -56 186 -170 186 -302c0 -202 -154 -359 -356 -359c-203 0 -356 155 -356 357c0 203 155 359 357 359h215c76 0 100 25 103 93h78c-4 -107 -60 -152 -144 -152zM125 343c0 -159 116 -282 269 -282s267 121 267 280
c0 160 -116 282 -268 282c-154 0 -268 -121 -268 -280zM315 794l197 82l25 -66l-204 -67z" />
    <glyph glyph-name="uni1EDC" unicode="&#x1edc;" horiz-adv-x="800" 
d="M646 641c-21 0 -48 1 -83 4c117 -56 186 -170 186 -302c0 -202 -154 -359 -356 -359c-203 0 -356 155 -356 357c0 203 155 359 357 359h215c76 0 100 25 103 93h78c-4 -107 -60 -152 -144 -152zM125 343c0 -159 116 -282 269 -282s267 121 267 280
c0 160 -116 282 -268 282c-154 0 -268 -121 -268 -280zM469 794l-18 -51l-203 67l25 66z" />
    <glyph glyph-name="uni1EE0" unicode="&#x1ee0;" horiz-adv-x="800" 
d="M646 641c-21 0 -48 1 -83 4c117 -56 186 -170 186 -302c0 -202 -154 -359 -356 -359c-203 0 -356 155 -356 357c0 203 155 359 357 359h215c76 0 100 25 103 93h78c-4 -107 -60 -152 -144 -152zM125 343c0 -159 116 -282 269 -282s267 121 267 280
c0 160 -116 282 -268 282c-154 0 -268 -121 -268 -280zM545 847c-12 -89 -49 -107 -85 -107c-20 0 -35 6 -75 28c-33 19 -45 23 -55 23c-15 0 -26 -6 -36 -48l-55 9c12 88 49 106 85 106c20 0 35 -6 75 -28c33 -18 45 -23 55 -23c15 0 26 5 36 48z" />
    <glyph glyph-name="uni1EDE" unicode="&#x1ede;" horiz-adv-x="800" 
d="M646 641c-21 0 -48 1 -83 4c117 -56 186 -170 186 -302c0 -202 -154 -359 -356 -359c-203 0 -356 155 -356 357c0 203 155 359 357 359h215c76 0 100 25 103 93h78c-4 -107 -60 -152 -144 -152zM125 343c0 -159 116 -282 269 -282s267 121 267 280
c0 160 -116 282 -268 282c-154 0 -268 -121 -268 -280zM339 738l-26 33c62 8 77 25 77 38c0 12 -9 26 -88 33v2l48 42c89 -11 113 -39 113 -72c0 -25 -27 -68 -124 -76z" />
    <glyph glyph-name="uni1EE2" unicode="&#x1ee2;" horiz-adv-x="800" 
d="M646 641c-21 0 -48 1 -83 4c117 -56 186 -170 186 -302c0 -202 -154 -359 -356 -359c-203 0 -356 155 -356 357c0 203 155 359 357 359h215c76 0 100 25 103 93h78c-4 -107 -60 -152 -144 -152zM125 343c0 -159 116 -282 269 -282s267 121 267 280
c0 160 -116 282 -268 282c-154 0 -268 -121 -268 -280zM433 -54v-82h-82v82h82z" />
    <glyph glyph-name="Racute" unicode="&#x154;" horiz-adv-x="668" 
d="M639 0h-102l-189 285h-197v-285h-86v700h308c162 0 250 -81 250 -204c0 -105 -69 -178 -183 -201zM371 624h-220v-264h213c111 0 172 57 172 134c0 79 -57 130 -165 130zM264 794l197 82l25 -66l-204 -67z" />
    <glyph glyph-name="Rcaron" unicode="&#x158;" horiz-adv-x="668" 
d="M639 0h-102l-189 285h-197v-285h-86v700h308c162 0 250 -81 250 -204c0 -105 -69 -178 -183 -201zM371 624h-220v-264h213c111 0 172 57 172 134c0 79 -57 130 -165 130zM491 830l-132 -87h-35l-133 87l21 39l129 -57l129 57z" />
    <glyph glyph-name="uni1E58" unicode="&#x1e58;" horiz-adv-x="668" 
d="M639 0h-102l-189 285h-197v-285h-86v700h308c162 0 250 -81 250 -204c0 -105 -69 -178 -183 -201zM371 624h-220v-264h213c111 0 172 57 172 134c0 79 -57 130 -165 130zM384 838v-86h-86v86h86z" />
    <glyph glyph-name="uni1E5C" unicode="&#x1e5c;" horiz-adv-x="668" 
d="M639 0h-102l-189 285h-197v-285h-86v700h308c162 0 250 -81 250 -204c0 -105 -69 -178 -183 -201zM371 624h-220v-264h213c111 0 172 57 172 134c0 79 -57 130 -165 130zM204 758v66h274v-66h-274zM386 -54v-82h-82v82h82z" />
    <glyph glyph-name="uni0156" unicode="&#x156;" horiz-adv-x="668" 
d="M639 0h-102l-189 285h-197v-285h-86v700h308c162 0 250 -81 250 -204c0 -105 -69 -178 -183 -201zM371 624h-220v-264h213c111 0 172 57 172 134c0 79 -57 130 -165 130zM305 -196l-27 31c44 13 57 26 57 43c0 11 -8 27 -68 40v2l48 39c72 -15 91 -44 91 -76
c0 -28 -25 -64 -101 -79z" />
    <glyph glyph-name="uni1E5A" unicode="&#x1e5a;" horiz-adv-x="668" 
d="M639 0h-102l-189 285h-197v-285h-86v700h308c162 0 250 -81 250 -204c0 -105 -69 -178 -183 -201zM371 624h-220v-264h213c111 0 172 57 172 134c0 79 -57 130 -165 130zM386 -54v-82h-82v82h82z" />
    <glyph glyph-name="uni1E5E" unicode="&#x1e5e;" horiz-adv-x="668" 
d="M639 0h-102l-189 285h-197v-285h-86v700h308c162 0 250 -81 250 -204c0 -105 -69 -178 -183 -201zM371 624h-220v-264h213c111 0 172 57 172 134c0 79 -57 130 -165 130zM218 -123v63h254v-63h-254z" />
    <glyph glyph-name="Sacute" unicode="&#x15a;" horiz-adv-x="656" 
d="M328 317c-196 9 -272 66 -272 185c0 117 110 212 269 212c119 0 207 -42 273 -117l-54 -57c-55 61 -133 97 -219 97c-115 0 -184 -62 -184 -128s40 -106 197 -111c197 -8 275 -71 275 -194c0 -122 -113 -218 -281 -218c-138 0 -229 44 -301 134l53 57
c70 -81 148 -114 248 -114c123 0 196 63 196 134s-42 115 -200 120zM257 794l197 82l25 -66l-204 -67z" />
    <glyph glyph-name="Scircumflex" unicode="&#x15c;" horiz-adv-x="656" 
d="M328 317c-196 9 -272 66 -272 185c0 117 110 212 269 212c119 0 207 -42 273 -117l-54 -57c-55 61 -133 97 -219 97c-115 0 -184 -62 -184 -128s40 -106 197 -111c197 -8 275 -71 275 -194c0 -122 -113 -218 -281 -218c-138 0 -229 44 -301 134l53 57
c70 -81 148 -114 248 -114c123 0 196 63 196 134s-42 115 -200 120zM184 774l132 87h36l132 -87l-21 -39l-129 57l-129 -57z" />
    <glyph glyph-name="Scaron" unicode="&#x160;" horiz-adv-x="656" 
d="M328 317c-196 9 -272 66 -272 185c0 117 110 212 269 212c119 0 207 -42 273 -117l-54 -57c-55 61 -133 97 -219 97c-115 0 -184 -62 -184 -128s40 -106 197 -111c197 -8 275 -71 275 -194c0 -122 -113 -218 -281 -218c-138 0 -229 44 -301 134l53 57
c70 -81 148 -114 248 -114c123 0 196 63 196 134s-42 115 -200 120zM484 830l-132 -87h-35l-133 87l21 39l129 -57l129 57z" />
    <glyph glyph-name="uni0218" unicode="&#x218;" horiz-adv-x="656" 
d="M328 317c-196 9 -272 66 -272 185c0 117 110 212 269 212c119 0 207 -42 273 -117l-54 -57c-55 61 -133 97 -219 97c-115 0 -184 -62 -184 -128s40 -106 197 -111c197 -8 275 -71 275 -194c0 -122 -113 -218 -281 -218c-138 0 -229 44 -301 134l53 57
c70 -81 148 -114 248 -114c123 0 196 63 196 134s-42 115 -200 120zM306 -196l-27 31c44 13 57 26 57 43c0 11 -8 27 -68 40v2l48 39c72 -15 91 -44 91 -76c0 -28 -25 -64 -101 -79z" />
    <glyph glyph-name="uni1E62" unicode="&#x1e62;" horiz-adv-x="656" 
d="M328 317c-196 9 -272 66 -272 185c0 117 110 212 269 212c119 0 207 -42 273 -117l-54 -57c-55 61 -133 97 -219 97c-115 0 -184 -62 -184 -128s40 -106 197 -111c197 -8 275 -71 275 -194c0 -122 -113 -218 -281 -218c-138 0 -229 44 -301 134l53 57
c70 -81 148 -114 248 -114c123 0 196 63 196 134s-42 115 -200 120zM387 -54v-82h-82v82h82z" />
    <glyph glyph-name="uni015E" unicode="&#x15e;" horiz-adv-x="656" 
d="M328 317c-196 9 -272 66 -272 185c0 117 110 212 269 212c119 0 207 -42 273 -117l-54 -57c-55 61 -133 97 -219 97c-115 0 -184 -62 -184 -128s40 -106 197 -111c197 -8 275 -71 275 -194c0 -114 -99 -205 -249 -217l-8 -30h9c43 0 74 -26 74 -64c0 -40 -33 -73 -94 -73
c-24 0 -54 6 -83 26l21 40c27 -15 44 -20 62 -20c29 0 38 14 38 25c0 12 -11 22 -33 22c-8 0 -18 -2 -33 -8l-22 7l-1 2l21 72c-129 4 -215 48 -284 134l53 57c70 -81 148 -114 248 -114c123 0 196 63 196 134s-42 115 -200 120z" />
    <glyph glyph-name="uni1E9E" unicode="&#x1e9e;" horiz-adv-x="719" 
d="M645 549l-184 -170c151 -11 224 -83 224 -186c0 -120 -97 -207 -231 -207c-80 0 -138 26 -185 57l36 67c46 -30 87 -48 146 -48c92 0 147 58 147 128s-54 123 -199 123h-57v53l213 198c-46 50 -105 75 -181 75c-150 0 -233 -97 -233 -252v-387h-85v389
c0 197 118 327 320 327c114 0 210 -49 269 -134v-33z" />
    <glyph glyph-name="Tcaron" unicode="&#x164;" horiz-adv-x="669" 
d="M20 622v78h629v-78h-271v-622h-86v622h-272zM485 830l-132 -87h-35l-133 87l21 39l129 -57l129 57z" />
    <glyph glyph-name="uni1E70" unicode="&#x1e70;" horiz-adv-x="669" 
d="M20 622v78h629v-78h-271v-622h-86v622h-272zM197 -144l120 100h36l120 -100l-28 -38l-110 71l-110 -71z" />
    <glyph glyph-name="uni021A" unicode="&#x21a;" horiz-adv-x="669" 
d="M20 622v78h629v-78h-271v-622h-86v622h-272zM295 -196l-27 31c44 13 57 26 57 43c0 11 -8 27 -68 40v2l48 39c72 -15 91 -44 91 -76c0 -28 -25 -64 -101 -79z" />
    <glyph glyph-name="uni1E6C" unicode="&#x1e6c;" horiz-adv-x="669" 
d="M20 622v78h629v-78h-271v-622h-86v622h-272zM376 -54v-82h-82v82h82z" />
    <glyph glyph-name="uni1E6E" unicode="&#x1e6e;" horiz-adv-x="669" 
d="M20 622v78h629v-78h-271v-622h-86v622h-272zM208 -123v63h254v-63h-254z" />
    <glyph glyph-name="uni0162" unicode="&#x162;" horiz-adv-x="669" 
d="M20 622v78h629v-78h-271v-622h-19l-12 -43h9c43 0 74 -26 74 -64c0 -40 -33 -73 -94 -73c-24 0 -54 6 -84 26l22 40c27 -15 44 -20 62 -20c29 0 38 14 38 25c0 12 -11 22 -33 22c-8 0 -18 -2 -33 -8l-22 7l-1 2l25 86h-18v622h-272z" />
    <glyph glyph-name="Tbar" unicode="&#x166;" horiz-adv-x="669" 
d="M109 311v65h183v246h-272v78h629v-78h-271v-246h183v-65h-183v-311h-86v311h-183z" />
    <glyph glyph-name="Uacute" unicode="&#xda;" horiz-adv-x="751" 
d="M609 315v385h85v-387c0 -196 -126 -329 -320 -329c-193 0 -318 133 -318 329v387h86v-385c0 -150 95 -254 234 -254c140 0 233 104 233 254zM298 780l197 82l25 -66l-204 -67z" />
    <glyph glyph-name="Uhungarumlaut" unicode="&#x170;" horiz-adv-x="751" 
d="M609 315v385h85v-387c0 -196 -126 -329 -320 -329c-193 0 -318 133 -318 329v387h86v-385c0 -150 95 -254 234 -254c140 0 233 104 233 254zM246 790l130 97l41 -60l-140 -84zM409 790l130 97l41 -60l-139 -84z" />
    <glyph glyph-name="Ugrave" unicode="&#xd9;" horiz-adv-x="751" 
d="M609 315v385h85v-387c0 -196 -126 -329 -320 -329c-193 0 -318 133 -318 329v387h86v-385c0 -150 95 -254 234 -254c140 0 233 104 233 254zM452 780l-18 -51l-203 67l25 66z" />
    <glyph glyph-name="Ucircumflex" unicode="&#xdb;" horiz-adv-x="751" 
d="M609 315v385h85v-387c0 -196 -126 -329 -320 -329c-193 0 -318 133 -318 329v387h86v-385c0 -150 95 -254 234 -254c140 0 233 104 233 254zM225 782l132 87h36l132 -87l-21 -39l-129 57l-129 -57z" />
    <glyph glyph-name="uni01D3" unicode="&#x1d3;" horiz-adv-x="751" 
d="M609 315v385h85v-387c0 -196 -126 -329 -320 -329c-193 0 -318 133 -318 329v387h86v-385c0 -150 95 -254 234 -254c140 0 233 104 233 254zM525 816l-132 -87h-35l-133 87l21 39l129 -57l129 57z" />
    <glyph glyph-name="Ubreve" unicode="&#x16c;" horiz-adv-x="751" 
d="M609 315v385h85v-387c0 -196 -126 -329 -320 -329c-193 0 -318 133 -318 329v387h86v-385c0 -150 95 -254 234 -254c140 0 233 104 233 254zM375 795c42 0 75 12 99 57l52 -16c-26 -81 -79 -107 -151 -107s-125 26 -151 107l52 16c25 -45 57 -57 99 -57z" />
    <glyph glyph-name="Utilde" unicode="&#x168;" horiz-adv-x="751" 
d="M609 315v385h85v-387c0 -196 -126 -329 -320 -329c-193 0 -318 133 -318 329v387h86v-385c0 -150 95 -254 234 -254c140 0 233 104 233 254zM528 847c-12 -89 -49 -107 -85 -107c-20 0 -35 6 -75 28c-33 19 -45 23 -55 23c-15 0 -26 -6 -36 -48l-55 9
c12 88 49 106 85 106c20 0 35 -6 75 -28c33 -18 45 -23 55 -23c15 0 26 5 36 48z" />
    <glyph glyph-name="Umacron" unicode="&#x16a;" horiz-adv-x="751" 
d="M609 315v385h85v-387c0 -196 -126 -329 -320 -329c-193 0 -318 133 -318 329v387h86v-385c0 -150 95 -254 234 -254c140 0 233 104 233 254zM238 758v66h274v-66h-274z" />
    <glyph glyph-name="Udieresis" unicode="&#xdc;" horiz-adv-x="751" 
d="M609 315v385h85v-387c0 -196 -126 -329 -320 -329c-193 0 -318 133 -318 329v387h86v-385c0 -150 95 -254 234 -254c140 0 233 104 233 254zM332 834v-80h-80v80h80zM498 834v-80h-80v80h80z" />
    <glyph glyph-name="uni01D7" unicode="&#x1d7;" horiz-adv-x="751" 
d="M609 315v385h85v-387c0 -196 -126 -329 -320 -329c-193 0 -318 133 -318 329v387h86v-385c0 -150 95 -254 234 -254c140 0 233 104 233 254zM300 893l182 62l17 -61l-188 -46zM496 826v-72h-76v72h76zM330 826v-72h-76v72h76z" />
    <glyph glyph-name="uni01DB" unicode="&#x1db;" horiz-adv-x="751" 
d="M609 315v385h85v-387c0 -196 -126 -329 -320 -329c-193 0 -318 133 -318 329v387h86v-385c0 -150 95 -254 234 -254c140 0 233 104 233 254zM455 893l-12 -45l-188 46l17 61zM496 826v-72h-76v72h76zM330 826v-72h-76v72h76z" />
    <glyph glyph-name="uni01D9" unicode="&#x1d9;" horiz-adv-x="751" 
d="M609 315v385h85v-387c0 -196 -126 -329 -320 -329c-193 0 -318 133 -318 329v387h86v-385c0 -150 95 -254 234 -254c140 0 233 104 233 254zM238 919l19 36l119 -49l118 49l19 -36l-120 -72h-35zM496 826v-72h-76v72h76zM330 826v-72h-76v72h76z" />
    <glyph glyph-name="uni01D5" unicode="&#x1d5;" horiz-adv-x="751" 
d="M609 315v385h85v-387c0 -196 -126 -329 -320 -329c-193 0 -318 133 -318 329v387h86v-385c0 -150 95 -254 234 -254c140 0 233 104 233 254zM264 864v57h222v-57h-222zM496 826v-72h-76v72h76zM330 826v-72h-76v72h76z" />
    <glyph glyph-name="Uring" unicode="&#x16e;" horiz-adv-x="751" 
d="M609 315v385h85v-387c0 -196 -126 -329 -320 -329c-193 0 -318 133 -318 329v387h86v-385c0 -150 95 -254 234 -254c140 0 233 104 233 254zM374 727c-73 0 -118 42 -118 98c0 57 46 100 120 100c73 0 118 -43 118 -99c0 -57 -46 -99 -120 -99zM375 777c41 0 60 21 60 50
c0 28 -20 47 -61 47c-40 0 -59 -20 -59 -50c0 -27 21 -47 60 -47z" />
    <glyph glyph-name="uni1EE6" unicode="&#x1ee6;" horiz-adv-x="751" 
d="M609 315v385h85v-387c0 -196 -126 -329 -320 -329c-193 0 -318 133 -318 329v387h86v-385c0 -150 95 -254 234 -254c140 0 233 104 233 254zM322 724l-26 33c62 8 77 25 77 38c0 12 -9 26 -88 33v2l48 42c89 -11 113 -39 113 -72c0 -25 -27 -68 -124 -76z" />
    <glyph glyph-name="uni1EE4" unicode="&#x1ee4;" horiz-adv-x="751" 
d="M609 315v385h85v-387c0 -196 -126 -329 -320 -329c-193 0 -318 133 -318 329v387h86v-385c0 -150 95 -254 234 -254c140 0 233 104 233 254zM416 -54v-82h-82v82h82z" />
    <glyph glyph-name="Uogonek" unicode="&#x172;" horiz-adv-x="751" 
d="M297 -96c0 18 6 37 42 82c-173 15 -283 143 -283 327v387h86v-385c0 -150 95 -254 234 -254c140 0 233 104 233 254v385h85v-387c0 -191 -119 -322 -305 -329c-23 -33 -28 -46 -28 -57c0 -16 10 -25 44 -25h28v-56h-50c-62 0 -86 21 -86 58z" />
    <glyph glyph-name="Uhorn" unicode="&#x1af;" horiz-adv-x="804" 
d="M609 315v385h63c76 0 100 25 103 93h77c-3 -110 -58 -157 -142 -157h-16v-323c0 -196 -126 -329 -320 -329c-193 0 -318 133 -318 329v387h86v-385c0 -150 95 -254 234 -254c140 0 233 104 233 254z" />
    <glyph glyph-name="uni1EE8" unicode="&#x1ee8;" horiz-adv-x="804" 
d="M609 315v385h63c76 0 100 25 103 93h77c-3 -110 -58 -157 -142 -157h-16v-323c0 -196 -126 -329 -320 -329c-193 0 -318 133 -318 329v387h86v-385c0 -150 95 -254 234 -254c140 0 233 104 233 254zM298 792l197 82l25 -66l-204 -67z" />
    <glyph glyph-name="uni1EEA" unicode="&#x1eea;" horiz-adv-x="804" 
d="M609 315v385h63c76 0 100 25 103 93h77c-3 -110 -58 -157 -142 -157h-16v-323c0 -196 -126 -329 -320 -329c-193 0 -318 133 -318 329v387h86v-385c0 -150 95 -254 234 -254c140 0 233 104 233 254zM452 792l-18 -51l-203 67l25 66z" />
    <glyph glyph-name="uni1EEE" unicode="&#x1eee;" horiz-adv-x="804" 
d="M609 315v385h63c76 0 100 25 103 93h77c-3 -110 -58 -157 -142 -157h-16v-323c0 -196 -126 -329 -320 -329c-193 0 -318 133 -318 329v387h86v-385c0 -150 95 -254 234 -254c140 0 233 104 233 254zM528 847c-12 -89 -49 -107 -85 -107c-20 0 -35 6 -75 28
c-33 19 -45 23 -55 23c-15 0 -26 -6 -36 -48l-55 9c12 88 49 106 85 106c20 0 35 -6 75 -28c33 -18 45 -23 55 -23c15 0 26 5 36 48z" />
    <glyph glyph-name="uni1EEC" unicode="&#x1eec;" horiz-adv-x="804" 
d="M609 315v385h63c76 0 100 25 103 93h77c-3 -110 -58 -157 -142 -157h-16v-323c0 -196 -126 -329 -320 -329c-193 0 -318 133 -318 329v387h86v-385c0 -150 95 -254 234 -254c140 0 233 104 233 254zM322 736l-26 33c62 8 77 25 77 38c0 12 -9 26 -88 33v2l48 42
c89 -11 113 -39 113 -72c0 -25 -27 -68 -124 -76z" />
    <glyph glyph-name="uni1EF0" unicode="&#x1ef0;" horiz-adv-x="804" 
d="M609 315v385h63c76 0 100 25 103 93h77c-3 -110 -58 -157 -142 -157h-16v-323c0 -196 -126 -329 -320 -329c-193 0 -318 133 -318 329v387h86v-385c0 -150 95 -254 234 -254c140 0 233 104 233 254zM416 -54v-82h-82v82h82z" />
    <glyph glyph-name="uni1E7E" unicode="&#x1e7e;" horiz-adv-x="732" 
d="M13 700h94l261 -590l258 590h92l-310 -700h-85zM407 -54v-82h-82v82h82z" />
    <glyph glyph-name="Wacute" unicode="&#x1e82;" horiz-adv-x="966" 
d="M771 0h-90l-199 577l-197 -577h-90l-159 700h88l124 -574l194 574h83l194 -575l123 575h89zM405 794l197 82l25 -66l-204 -67z" />
    <glyph glyph-name="Wgrave" unicode="&#x1e80;" horiz-adv-x="966" 
d="M771 0h-90l-199 577l-197 -577h-90l-159 700h88l124 -574l194 574h83l194 -575l123 575h89zM559 794l-18 -51l-203 67l25 66z" />
    <glyph glyph-name="Wcircumflex" unicode="&#x174;" horiz-adv-x="966" 
d="M771 0h-90l-199 577l-197 -577h-90l-159 700h88l124 -574l194 574h83l194 -575l123 575h89zM332 782l132 87h36l132 -87l-21 -39l-129 57l-129 -57z" />
    <glyph glyph-name="Wdieresis" unicode="&#x1e84;" horiz-adv-x="966" 
d="M771 0h-90l-199 577l-197 -577h-90l-159 700h88l124 -574l194 574h83l194 -575l123 575h89zM439 834v-80h-80v80h80zM605 834v-80h-80v80h80z" />
    <glyph glyph-name="uni1E8C" unicode="&#x1e8c;" horiz-adv-x="693" 
d="M15 0l278 361l-263 339h108l208 -279l208 279h104l-259 -338l279 -362h-107l-226 301l-226 -301h-104zM303 834v-80h-80v80h80zM469 834v-80h-80v80h80z" />
    <glyph glyph-name="Yacute" unicode="&#xdd;" horiz-adv-x="672" 
d="M671 700l-292 -407v-293h-86v293l-292 407h106l230 -334l231 334h103zM260 780l197 82l25 -66l-204 -67z" />
    <glyph glyph-name="Ygrave" unicode="&#x1ef2;" horiz-adv-x="672" 
d="M671 700l-292 -407v-293h-86v293l-292 407h106l230 -334l231 334h103zM414 780l-18 -51l-203 67l25 66z" />
    <glyph glyph-name="Ycircumflex" unicode="&#x176;" horiz-adv-x="672" 
d="M671 700l-292 -407v-293h-86v293l-292 407h106l230 -334l231 334h103zM187 782l132 87h36l132 -87l-21 -39l-129 57l-129 -57z" />
    <glyph glyph-name="uni1EF8" unicode="&#x1ef8;" horiz-adv-x="672" 
d="M671 700l-292 -407v-293h-86v293l-292 407h106l230 -334l231 334h103zM490 847c-12 -89 -49 -107 -85 -107c-20 0 -35 6 -75 28c-33 19 -45 23 -55 23c-15 0 -26 -6 -36 -48l-55 9c12 88 49 106 85 106c20 0 35 -6 75 -28c33 -18 45 -23 55 -23c15 0 26 5 36 48z" />
    <glyph glyph-name="uni0232" unicode="&#x232;" horiz-adv-x="672" 
d="M671 700l-292 -407v-293h-86v293l-292 407h106l230 -334l231 334h103zM200 758v66h274v-66h-274z" />
    <glyph glyph-name="Ydieresis" unicode="&#x178;" horiz-adv-x="672" 
d="M671 700l-292 -407v-293h-86v293l-292 407h106l230 -334l231 334h103zM294 834v-80h-80v80h80zM460 834v-80h-80v80h80z" />
    <glyph glyph-name="uni1E8E" unicode="&#x1e8e;" horiz-adv-x="672" 
d="M671 700l-292 -407v-293h-86v293l-292 407h106l230 -334l231 334h103zM380 824v-86h-86v86h86z" />
    <glyph glyph-name="uni1EF6" unicode="&#x1ef6;" horiz-adv-x="672" 
d="M671 700l-292 -407v-293h-86v293l-292 407h106l230 -334l231 334h103zM284 724l-26 33c62 8 77 25 77 38c0 12 -9 26 -88 33v2l48 42c89 -11 113 -39 113 -72c0 -25 -27 -68 -124 -76z" />
    <glyph glyph-name="uni1EF4" unicode="&#x1ef4;" horiz-adv-x="672" 
d="M671 700l-292 -407v-293h-86v293l-292 407h106l230 -334l231 334h103zM378 -54v-82h-82v82h82z" />
    <glyph glyph-name="Zacute" unicode="&#x179;" horiz-adv-x="687" 
d="M29 0v65l492 561h-474v74h592v-65l-494 -561h512v-74h-628zM270 794l197 82l25 -66l-204 -67z" />
    <glyph glyph-name="uni1E90" unicode="&#x1e90;" horiz-adv-x="687" 
d="M29 0v65l492 561h-474v74h592v-65l-494 -561h512v-74h-628zM197 782l132 87h36l132 -87l-21 -39l-129 57l-129 -57z" />
    <glyph glyph-name="Zcaron" unicode="&#x17d;" horiz-adv-x="687" 
d="M29 0v65l492 561h-474v74h592v-65l-494 -561h512v-74h-628zM497 830l-132 -87h-35l-133 87l21 39l129 -57l129 57z" />
    <glyph glyph-name="Zdotaccent" unicode="&#x17b;" horiz-adv-x="687" 
d="M29 0v65l492 561h-474v74h592v-65l-494 -561h512v-74h-628zM390 838v-86h-86v86h86z" />
    <glyph glyph-name="uni1E92" unicode="&#x1e92;" horiz-adv-x="687" 
d="M29 0v65l492 561h-474v74h592v-65l-494 -561h512v-74h-628zM388 -54v-82h-82v82h82z" />
    <glyph glyph-name="uni1E94" unicode="&#x1e94;" horiz-adv-x="687" 
d="M29 0v65l492 561h-474v74h592v-65l-494 -561h512v-74h-628zM220 -123v63h254v-63h-254z" />
    <glyph glyph-name="Eth" unicode="&#xd0;" horiz-adv-x="761" 
d="M11 320v66h84v314h263c223 0 365 -147 365 -349c0 -201 -145 -351 -367 -351h-261v320h-84zM424 320h-243v-242h176c171 0 279 117 279 271s-108 273 -279 273h-176v-236h243v-66z" />
    <glyph glyph-name="Thorn" unicode="&#xde;" horiz-adv-x="641" 
d="M65 700h86v-134h218c157 0 248 -86 248 -213c0 -131 -104 -218 -264 -218h-202v-135h-86v700zM366 488h-215v-276h208c108 0 170 57 170 139c0 84 -57 137 -163 137z" />
    <glyph glyph-name="uni018F" unicode="&#x18f;" horiz-adv-x="763" 
d="M366 638c-99 0 -175 -44 -245 -129l-56 54c74 95 181 153 311 153c201 0 350 -152 350 -366c0 -203 -147 -365 -346 -365c-205 0 -345 153 -345 360c0 16 2 30 4 40h598c-15 164 -140 253 -271 253zM378 61c125 0 242 90 259 249h-514c18 -160 119 -249 255 -249z" />
    <glyph glyph-name="aacute" unicode="&#xe1;" horiz-adv-x="515" 
d="M389 0v79c-40 -57 -110 -89 -185 -89c-106 0 -180 58 -180 147c0 91 65 148 222 148h142c-1 91 -49 142 -134 142c-54 0 -103 -24 -148 -65l-43 54c50 48 116 81 199 81c135 0 206 -88 206 -216v-281h-79zM247 222c-105 0 -143 -30 -143 -83c0 -44 40 -84 109 -84
c89 0 170 62 175 167h-141zM183 572l162 103l32 -60l-170 -89z" />
    <glyph glyph-name="agrave" unicode="&#xe0;" horiz-adv-x="515" 
d="M389 0v79c-40 -57 -110 -89 -185 -89c-106 0 -180 58 -180 147c0 91 65 148 222 148h142c-1 91 -49 142 -134 142c-54 0 -103 -24 -148 -65l-43 54c50 48 116 81 199 81c135 0 206 -88 206 -216v-281h-79zM247 222c-105 0 -143 -30 -143 -83c0 -44 40 -84 109 -84
c89 0 170 62 175 167h-141zM331 572l-24 -46l-170 89l32 60z" />
    <glyph glyph-name="acircumflex" unicode="&#xe2;" horiz-adv-x="515" 
d="M389 0v79c-40 -57 -110 -89 -185 -89c-106 0 -180 58 -180 147c0 91 65 148 222 148h142c-1 91 -49 142 -134 142c-54 0 -103 -24 -148 -65l-43 54c50 48 116 81 199 81c135 0 206 -88 206 -216v-281h-79zM247 222c-105 0 -143 -30 -143 -83c0 -44 40 -84 109 -84
c89 0 170 62 175 167h-141zM119 556l120 100h36l120 -100l-28 -38l-110 71l-110 -71z" />
    <glyph glyph-name="uni1EAD" unicode="&#x1ead;" horiz-adv-x="515" 
d="M389 0v79c-40 -57 -110 -89 -185 -89c-106 0 -180 58 -180 147c0 91 65 148 222 148h142c-1 91 -49 142 -134 142c-54 0 -103 -24 -148 -65l-43 54c50 48 116 81 199 81c135 0 206 -88 206 -216v-281h-79zM247 222c-105 0 -143 -30 -143 -83c0 -44 40 -84 109 -84
c89 0 170 62 175 167h-141zM119 556l120 100h36l120 -100l-28 -38l-110 71l-110 -71zM292 -54v-82h-82v82h82z" />
    <glyph glyph-name="uni1EA5" unicode="&#x1ea5;" horiz-adv-x="515" 
d="M389 0v79c-40 -57 -110 -89 -185 -89c-106 0 -180 58 -180 147c0 91 65 148 222 148h142c-1 91 -49 142 -134 142c-54 0 -103 -24 -148 -65l-43 54c50 48 116 81 199 81c135 0 206 -88 206 -216v-281h-79zM247 222c-105 0 -143 -30 -143 -83c0 -44 40 -84 109 -84
c89 0 170 62 175 167h-141zM304 662l112 73l28 -52l-122 -57zM125 556l114 77h36l114 -77l-21 -38l-111 56l-111 -56z" />
    <glyph glyph-name="uni1EA7" unicode="&#x1ea7;" horiz-adv-x="515" 
d="M389 0v79c-40 -57 -110 -89 -185 -89c-106 0 -180 58 -180 147c0 91 65 148 222 148h142c-1 91 -49 142 -134 142c-54 0 -103 -24 -148 -65l-43 54c50 48 116 81 199 81c135 0 206 -88 206 -216v-281h-79zM247 222c-105 0 -143 -30 -143 -83c0 -44 40 -84 109 -84
c89 0 170 62 175 167h-141zM403 661l-16 -37l-135 48l24 55zM125 556l114 77h36l114 -77l-21 -38l-111 56l-111 -56z" />
    <glyph glyph-name="uni1EA9" unicode="&#x1ea9;" horiz-adv-x="515" 
d="M389 0v79c-40 -57 -110 -89 -185 -89c-106 0 -180 58 -180 147c0 91 65 148 222 148h142c-1 91 -49 142 -134 142c-54 0 -103 -24 -148 -65l-43 54c50 48 116 81 199 81c135 0 206 -88 206 -216v-281h-79zM247 222c-105 0 -143 -30 -143 -83c0 -44 40 -84 109 -84
c89 0 170 62 175 167h-141zM339 619l-22 31c44 14 58 20 58 32c0 9 -9 17 -69 30v2l41 33c71 -16 91 -35 91 -60c0 -24 -25 -53 -99 -68zM125 556l114 77h36l114 -77l-21 -38l-111 56l-111 -56z" />
    <glyph glyph-name="uni1EAB" unicode="&#x1eab;" horiz-adv-x="515" 
d="M389 0v79c-40 -57 -110 -89 -185 -89c-106 0 -180 58 -180 147c0 91 65 148 222 148h142c-1 91 -49 142 -134 142c-54 0 -103 -24 -148 -65l-43 54c50 48 116 81 199 81c135 0 206 -88 206 -216v-281h-79zM247 222c-105 0 -143 -30 -143 -83c0 -44 40 -84 109 -84
c89 0 170 62 175 167h-141zM274 716c23 -16 30 -18 38 -18c11 0 19 5 27 43l44 -7c-10 -77 -37 -91 -65 -91c-16 0 -28 3 -63 28c-23 15 -30 17 -37 17c-12 0 -19 -5 -28 -43l-44 7c10 77 37 92 66 92c16 0 27 -4 62 -28zM125 556l114 77h36l114 -77l-21 -38l-111 56
l-111 -56z" />
    <glyph glyph-name="uni01CE" unicode="&#x1ce;" horiz-adv-x="515" 
d="M389 0v79c-40 -57 -110 -89 -185 -89c-106 0 -180 58 -180 147c0 91 65 148 222 148h142c-1 91 -49 142 -134 142c-54 0 -103 -24 -148 -65l-43 54c50 48 116 81 199 81c135 0 206 -88 206 -216v-281h-79zM247 222c-105 0 -143 -30 -143 -83c0 -44 40 -84 109 -84
c89 0 170 62 175 167h-141zM395 628l-120 -100h-36l-120 100l28 38l110 -70l110 70z" />
    <glyph glyph-name="abreve" unicode="&#x103;" horiz-adv-x="515" 
d="M389 0v79c-40 -57 -110 -89 -185 -89c-106 0 -180 58 -180 147c0 91 65 148 222 148h142c-1 91 -49 142 -134 142c-54 0 -103 -24 -148 -65l-43 54c50 48 116 81 199 81c135 0 206 -88 206 -216v-281h-79zM247 222c-105 0 -143 -30 -143 -83c0 -44 40 -84 109 -84
c89 0 170 62 175 167h-141zM257 591c43 0 69 23 86 70l54 -12c-18 -84 -66 -121 -140 -121s-122 37 -140 121l54 12c18 -47 43 -70 86 -70z" />
    <glyph glyph-name="uni1EB7" unicode="&#x1eb7;" horiz-adv-x="515" 
d="M389 0v79c-40 -57 -110 -89 -185 -89c-106 0 -180 58 -180 147c0 91 65 148 222 148h142c-1 91 -49 142 -134 142c-54 0 -103 -24 -148 -65l-43 54c50 48 116 81 199 81c135 0 206 -88 206 -216v-281h-79zM247 222c-105 0 -143 -30 -143 -83c0 -44 40 -84 109 -84
c89 0 170 62 175 167h-141zM257 591c43 0 69 23 86 70l54 -12c-18 -84 -66 -121 -140 -121s-122 37 -140 121l54 12c18 -47 43 -70 86 -70zM292 -54v-82h-82v82h82z" />
    <glyph glyph-name="uni1EAF" unicode="&#x1eaf;" horiz-adv-x="515" 
d="M389 0v79c-40 -57 -110 -89 -185 -89c-106 0 -180 58 -180 147c0 91 65 148 222 148h142c-1 91 -49 142 -134 142c-54 0 -103 -24 -148 -65l-43 54c50 48 116 81 199 81c135 0 206 -88 206 -216v-281h-79zM247 222c-105 0 -143 -30 -143 -83c0 -44 40 -84 109 -84
c89 0 170 62 175 167h-141zM188 675l158 79l24 -55l-164 -65zM257 583c44 0 74 19 89 60l48 -12c-16 -73 -65 -103 -137 -103s-121 30 -137 103l48 12c16 -40 45 -60 89 -60z" />
    <glyph glyph-name="uni1EB1" unicode="&#x1eb1;" horiz-adv-x="515" 
d="M389 0v79c-40 -57 -110 -89 -185 -89c-106 0 -180 58 -180 147c0 91 65 148 222 148h142c-1 91 -49 142 -134 142c-54 0 -103 -24 -148 -65l-43 54c50 48 116 81 199 81c135 0 206 -88 206 -216v-281h-79zM247 222c-105 0 -143 -30 -143 -83c0 -44 40 -84 109 -84
c89 0 170 62 175 167h-141zM329 675l-17 -41l-164 65l24 55zM257 583c44 0 74 19 89 60l48 -12c-16 -73 -65 -103 -137 -103s-121 30 -137 103l48 12c16 -40 45 -60 89 -60z" />
    <glyph glyph-name="uni1EB3" unicode="&#x1eb3;" horiz-adv-x="515" 
d="M389 0v79c-40 -57 -110 -89 -185 -89c-106 0 -180 58 -180 147c0 91 65 148 222 148h142c-1 91 -49 142 -134 142c-54 0 -103 -24 -148 -65l-43 54c50 48 116 81 199 81c135 0 206 -88 206 -216v-281h-79zM247 222c-105 0 -143 -30 -143 -83c0 -44 40 -84 109 -84
c89 0 170 62 175 167h-141zM230 626l-22 31c44 14 58 20 58 32c0 9 -8 17 -69 30v2l41 33c71 -16 92 -35 92 -60c0 -24 -25 -53 -100 -68zM257 583c44 0 74 19 89 60l48 -12c-16 -73 -65 -103 -137 -103s-121 30 -137 103l48 12c16 -40 45 -60 89 -60z" />
    <glyph glyph-name="uni1EB5" unicode="&#x1eb5;" horiz-adv-x="515" 
d="M389 0v79c-40 -57 -110 -89 -185 -89c-106 0 -180 58 -180 147c0 91 65 148 222 148h142c-1 91 -49 142 -134 142c-54 0 -103 -24 -148 -65l-43 54c50 48 116 81 199 81c135 0 206 -88 206 -216v-281h-79zM247 222c-105 0 -143 -30 -143 -83c0 -44 40 -84 109 -84
c89 0 170 62 175 167h-141zM270 726c23 -16 31 -18 38 -18c11 0 19 5 28 43l43 -7c-10 -77 -36 -91 -65 -91c-16 0 -28 3 -63 28c-23 15 -30 17 -37 17c-11 0 -19 -5 -28 -43l-44 7c10 77 37 92 66 92c16 0 28 -4 62 -28zM257 583c44 0 74 19 89 60l48 -12
c-16 -73 -65 -103 -137 -103s-121 30 -137 103l48 12c16 -40 45 -60 89 -60z" />
    <glyph glyph-name="atilde" unicode="&#xe3;" horiz-adv-x="515" 
d="M389 0v79c-40 -57 -110 -89 -185 -89c-106 0 -180 58 -180 147c0 91 65 148 222 148h142c-1 91 -49 142 -134 142c-54 0 -103 -24 -148 -65l-43 54c50 48 116 81 199 81c135 0 206 -88 206 -216v-281h-79zM247 222c-105 0 -143 -30 -143 -83c0 -44 40 -84 109 -84
c89 0 170 62 175 167h-141zM269 615c27 -21 36 -25 44 -25c13 0 20 9 31 59l54 -8c-14 -95 -45 -115 -80 -115c-19 0 -32 6 -73 37c-27 21 -36 25 -44 25c-13 0 -20 -8 -31 -59l-54 9c14 94 45 114 80 114c19 0 32 -5 73 -37z" />
    <glyph glyph-name="amacron" unicode="&#x101;" horiz-adv-x="515" 
d="M389 0v79c-40 -57 -110 -89 -185 -89c-106 0 -180 58 -180 147c0 91 65 148 222 148h142c-1 91 -49 142 -134 142c-54 0 -103 -24 -148 -65l-43 54c50 48 116 81 199 81c135 0 206 -88 206 -216v-281h-79zM247 222c-105 0 -143 -30 -143 -83c0 -44 40 -84 109 -84
c89 0 170 62 175 167h-141zM130 543v63h254v-63h-254z" />
    <glyph glyph-name="adieresis" unicode="&#xe4;" horiz-adv-x="515" 
d="M389 0v79c-40 -57 -110 -89 -185 -89c-106 0 -180 58 -180 147c0 91 65 148 222 148h142c-1 91 -49 142 -134 142c-54 0 -103 -24 -148 -65l-43 54c50 48 116 81 199 81c135 0 206 -88 206 -216v-281h-79zM247 222c-105 0 -143 -30 -143 -83c0 -44 40 -84 109 -84
c89 0 170 62 175 167h-141zM224 616v-77h-77v77h77zM367 616v-77h-77v77h77z" />
    <glyph glyph-name="uni0227" unicode="&#x227;" horiz-adv-x="515" 
d="M389 0v79c-40 -57 -110 -89 -185 -89c-106 0 -180 58 -180 147c0 91 65 148 222 148h142c-1 91 -49 142 -134 142c-54 0 -103 -24 -148 -65l-43 54c50 48 116 81 199 81c135 0 206 -88 206 -216v-281h-79zM247 222c-105 0 -143 -30 -143 -83c0 -44 40 -84 109 -84
c89 0 170 62 175 167h-141zM298 619v-82h-82v82h82z" />
    <glyph glyph-name="aring" unicode="&#xe5;" horiz-adv-x="515" 
d="M389 0v79c-40 -57 -110 -89 -185 -89c-106 0 -180 58 -180 147c0 91 65 148 222 148h142c-1 91 -49 142 -134 142c-54 0 -103 -24 -148 -65l-43 54c50 48 116 81 199 81c135 0 206 -88 206 -216v-281h-79zM247 222c-105 0 -143 -30 -143 -83c0 -44 40 -84 109 -84
c89 0 170 62 175 167h-141zM256 526c-59 0 -105 42 -105 94c0 53 47 95 107 95c59 0 105 -42 105 -94c0 -53 -47 -95 -107 -95zM257 576c29 0 50 21 50 46c0 24 -21 43 -51 43c-28 0 -49 -20 -49 -46c0 -23 22 -43 50 -43z" />
    <glyph glyph-name="uni1EA3" unicode="&#x1ea3;" horiz-adv-x="515" 
d="M389 0v79c-40 -57 -110 -89 -185 -89c-106 0 -180 58 -180 147c0 91 65 148 222 148h142c-1 91 -49 142 -134 142c-54 0 -103 -24 -148 -65l-43 54c50 48 116 81 199 81c135 0 206 -88 206 -216v-281h-79zM247 222c-105 0 -143 -30 -143 -83c0 -44 40 -84 109 -84
c89 0 170 62 175 167h-141zM217 523l-27 31c44 14 57 27 57 44c0 11 -8 27 -68 39v2l48 40c72 -16 91 -45 91 -76c0 -29 -25 -64 -101 -80z" />
    <glyph glyph-name="uni1EA1" unicode="&#x1ea1;" horiz-adv-x="515" 
d="M389 0v79c-40 -57 -110 -89 -185 -89c-106 0 -180 58 -180 147c0 91 65 148 222 148h142c-1 91 -49 142 -134 142c-54 0 -103 -24 -148 -65l-43 54c50 48 116 81 199 81c135 0 206 -88 206 -216v-281h-79zM247 222c-105 0 -143 -30 -143 -83c0 -44 40 -84 109 -84
c89 0 170 62 175 167h-141zM292 -54v-82h-82v82h82z" />
    <glyph glyph-name="aogonek" unicode="&#x105;" horiz-adv-x="515" 
d="M343 -96c0 20 7 41 55 96h-9v79c-40 -57 -110 -89 -185 -89c-106 0 -180 58 -180 147c0 91 65 148 222 148h142c-1 91 -49 142 -134 142c-54 0 -103 -24 -148 -65l-43 54c50 48 116 81 199 81c135 0 206 -88 206 -216v-281h-21c-33 -45 -40 -61 -40 -73
c0 -16 11 -25 44 -25h28v-56h-49c-63 0 -87 21 -87 58zM247 222c-105 0 -143 -30 -143 -83c0 -44 40 -84 109 -84c89 0 170 62 175 167h-141z" />
    <glyph glyph-name="ae" unicode="&#xe6;" horiz-adv-x="896" 
d="M261 497c89 0 150 -42 178 -109c42 65 113 107 193 107c137 0 235 -95 235 -244c0 -13 -1 -24 -2 -33h-394c10 -102 83 -164 170 -164c60 0 114 25 161 83l48 -45c-53 -70 -122 -107 -216 -107c-91 0 -166 49 -206 126c-41 -78 -122 -126 -218 -126
c-110 0 -186 57 -186 149c0 91 65 147 222 147h142v4c0 91 -48 142 -134 142c-54 0 -103 -24 -148 -65l-43 54c50 49 115 81 198 81zM633 426c-77 0 -145 -53 -160 -145h311c-13 90 -72 145 -151 145zM247 218c-105 0 -143 -30 -143 -82c0 -45 40 -84 109 -84
c88 0 167 62 174 166h-140z" />
    <glyph glyph-name="uni1E07" unicode="&#x1e07;" horiz-adv-x="581" 
d="M53 0v700h81v-292c42 53 106 86 177 86c129 0 239 -97 239 -251c0 -157 -115 -254 -243 -254c-68 0 -132 31 -174 83v-72h-80zM131 239c0 -104 76 -179 169 -179c95 0 167 68 167 181s-71 181 -164 181c-94 0 -172 -77 -172 -183zM169 -123v63h254v-63h-254z" />
    <glyph glyph-name="cacute" unicode="&#x107;" horiz-adv-x="528" 
d="M281 -15c-146 0 -250 100 -250 255c0 145 111 256 252 256c103 0 177 -49 214 -138l-69 -33c-30 65 -78 100 -146 100c-96 0 -168 -82 -168 -185c0 -104 72 -184 170 -184c61 0 119 34 153 97l63 -34c-37 -80 -117 -134 -219 -134zM209 572l162 103l32 -60l-170 -89z" />
    <glyph glyph-name="ccircumflex" unicode="&#x109;" horiz-adv-x="528" 
d="M281 -15c-146 0 -250 100 -250 255c0 145 111 256 252 256c103 0 177 -49 214 -138l-69 -33c-30 65 -78 100 -146 100c-96 0 -168 -82 -168 -185c0 -104 72 -184 170 -184c61 0 119 34 153 97l63 -34c-37 -80 -117 -134 -219 -134zM145 554l120 100h36l120 -100l-28 -38
l-110 71l-110 -71z" />
    <glyph glyph-name="ccaron" unicode="&#x10d;" horiz-adv-x="528" 
d="M281 -15c-146 0 -250 100 -250 255c0 145 111 256 252 256c103 0 177 -49 214 -138l-69 -33c-30 65 -78 100 -146 100c-96 0 -168 -82 -168 -185c0 -104 72 -184 170 -184c61 0 119 34 153 97l63 -34c-37 -80 -117 -134 -219 -134zM421 628l-120 -100h-36l-120 100l28 38
l110 -70l110 70z" />
    <glyph glyph-name="cdotaccent" unicode="&#x10b;" horiz-adv-x="528" 
d="M281 -15c-146 0 -250 100 -250 255c0 145 111 256 252 256c103 0 177 -49 214 -138l-69 -33c-30 65 -78 100 -146 100c-96 0 -168 -82 -168 -185c0 -104 72 -184 170 -184c61 0 119 34 153 97l63 -34c-37 -80 -117 -134 -219 -134zM324 619v-82h-82v82h82z" />
    <glyph glyph-name="ccedilla" unicode="&#xe7;" horiz-adv-x="528" 
d="M378 -106c0 -40 -33 -73 -94 -73c-24 0 -54 6 -84 25l22 41c27 -15 43 -20 61 -20c30 0 39 13 39 24c0 13 -11 22 -33 22c-8 0 -18 -2 -33 -7l-22 7l-1 2l20 71c-131 12 -222 109 -222 254s111 256 252 256c103 0 177 -49 214 -138l-69 -33c-30 65 -78 100 -146 100
c-96 0 -168 -82 -168 -185c0 -104 72 -184 170 -184c61 0 119 34 153 97l63 -34c-34 -74 -106 -126 -197 -133l-8 -28h9c43 0 74 -26 74 -64z" />
    <glyph glyph-name="dcaron" unicode="&#x10f;" horiz-adv-x="581" 
d="M529 700v-700h-81v78c-42 -54 -106 -88 -179 -88c-127 0 -238 96 -238 250c0 157 117 255 244 255c67 0 129 -29 172 -79v284h82zM450 243c0 106 -74 180 -168 180c-95 0 -168 -69 -168 -181s71 -181 164 -181c95 0 172 77 172 182zM572 535v165h81l-28 -165h-53z" />
    <glyph glyph-name="uni1E13" unicode="&#x1e13;" horiz-adv-x="581" 
d="M529 700v-700h-81v78c-42 -54 -106 -88 -179 -88c-127 0 -238 96 -238 250c0 157 117 255 244 255c67 0 129 -29 172 -79v284h82zM450 243c0 106 -74 180 -168 180c-95 0 -168 -69 -168 -181s71 -181 164 -181c95 0 172 77 172 182zM146 -144l120 100h36l120 -100
l-28 -38l-110 71l-110 -71z" />
    <glyph glyph-name="uni1E0F" unicode="&#x1e0f;" horiz-adv-x="581" 
d="M529 700v-700h-81v78c-42 -54 -106 -88 -179 -88c-127 0 -238 96 -238 250c0 157 117 255 244 255c67 0 129 -29 172 -79v284h82zM450 243c0 106 -74 180 -168 180c-95 0 -168 -69 -168 -181s71 -181 164 -181c95 0 172 77 172 182zM157 -123v63h254v-63h-254z" />
    <glyph glyph-name="uni1E0D" unicode="&#x1e0d;" horiz-adv-x="581" 
d="M529 700v-700h-81v78c-42 -54 -106 -88 -179 -88c-127 0 -238 96 -238 250c0 157 117 255 244 255c67 0 129 -29 172 -79v284h82zM450 243c0 106 -74 180 -168 180c-95 0 -168 -69 -168 -181s71 -181 164 -181c95 0 172 77 172 182zM325 -54v-82h-82v82h82z" />
    <glyph glyph-name="dcroat" unicode="&#x111;" horiz-adv-x="611" 
d="M299 613h148v87h82v-87h75v-62h-75v-551h-81v77c-42 -54 -105 -87 -178 -87c-128 0 -239 94 -239 244c0 153 117 248 245 248c67 0 129 -29 171 -78v147h-148v62zM450 237c0 102 -74 174 -168 174c-95 0 -168 -66 -168 -175s71 -175 165 -175s171 75 171 176z" />
    <glyph glyph-name="eacute" unicode="&#xe9;" horiz-adv-x="544" 
d="M286 54c61 0 116 25 163 83l49 -45c-54 -70 -126 -107 -219 -107c-144 0 -248 105 -248 255c0 146 108 255 246 255s238 -98 238 -249c0 -13 -2 -29 -3 -34h-397c11 -98 84 -158 171 -158zM278 426c-80 0 -149 -55 -163 -151h318c-12 94 -73 151 -155 151zM207 572
l162 103l32 -60l-170 -89z" />
    <glyph glyph-name="egrave" unicode="&#xe8;" horiz-adv-x="544" 
d="M286 54c61 0 116 25 163 83l49 -45c-54 -70 -126 -107 -219 -107c-144 0 -248 105 -248 255c0 146 108 255 246 255s238 -98 238 -249c0 -13 -2 -29 -3 -34h-397c11 -98 84 -158 171 -158zM278 426c-80 0 -149 -55 -163 -151h318c-12 94 -73 151 -155 151zM355 572
l-24 -46l-170 89l32 60z" />
    <glyph glyph-name="ecircumflex" unicode="&#xea;" horiz-adv-x="544" 
d="M286 54c61 0 116 25 163 83l49 -45c-54 -70 -126 -107 -219 -107c-144 0 -248 105 -248 255c0 146 108 255 246 255s238 -98 238 -249c0 -13 -2 -29 -3 -34h-397c11 -98 84 -158 171 -158zM278 426c-80 0 -149 -55 -163 -151h318c-12 94 -73 151 -155 151zM143 554
l120 100h36l120 -100l-28 -38l-110 71l-110 -71z" />
    <glyph glyph-name="uni1EC7" unicode="&#x1ec7;" horiz-adv-x="544" 
d="M286 54c61 0 116 25 163 83l49 -45c-54 -70 -126 -107 -219 -107c-144 0 -248 105 -248 255c0 146 108 255 246 255s238 -98 238 -249c0 -13 -2 -29 -3 -34h-397c11 -98 84 -158 171 -158zM278 426c-80 0 -149 -55 -163 -151h318c-12 94 -73 151 -155 151zM143 554
l120 100h36l120 -100l-28 -38l-110 71l-110 -71zM322 -54v-82h-82v82h82z" />
    <glyph glyph-name="uni1EBF" unicode="&#x1ebf;" horiz-adv-x="544" 
d="M286 54c61 0 116 25 163 83l49 -45c-54 -70 -126 -107 -219 -107c-144 0 -248 105 -248 255c0 146 108 255 246 255s238 -98 238 -249c0 -13 -2 -29 -3 -34h-397c11 -98 84 -158 171 -158zM278 426c-80 0 -149 -55 -163 -151h318c-12 94 -73 151 -155 151zM328 660
l112 73l28 -52l-122 -57zM149 554l114 77h36l114 -77l-21 -38l-111 56l-111 -56z" />
    <glyph glyph-name="uni1EC1" unicode="&#x1ec1;" horiz-adv-x="544" 
d="M286 54c61 0 116 25 163 83l49 -45c-54 -70 -126 -107 -219 -107c-144 0 -248 105 -248 255c0 146 108 255 246 255s238 -98 238 -249c0 -13 -2 -29 -3 -34h-397c11 -98 84 -158 171 -158zM278 426c-80 0 -149 -55 -163 -151h318c-12 94 -73 151 -155 151zM427 659
l-16 -37l-135 48l24 55zM149 554l114 77h36l114 -77l-21 -38l-111 56l-111 -56z" />
    <glyph glyph-name="uni1EC3" unicode="&#x1ec3;" horiz-adv-x="544" 
d="M286 54c61 0 116 25 163 83l49 -45c-54 -70 -126 -107 -219 -107c-144 0 -248 105 -248 255c0 146 108 255 246 255s238 -98 238 -249c0 -13 -2 -29 -3 -34h-397c11 -98 84 -158 171 -158zM278 426c-80 0 -149 -55 -163 -151h318c-12 94 -73 151 -155 151zM363 617
l-22 31c44 14 58 20 58 32c0 9 -9 17 -69 30v2l41 33c71 -16 91 -35 91 -60c0 -24 -25 -53 -99 -68zM149 554l114 77h36l114 -77l-21 -38l-111 56l-111 -56z" />
    <glyph glyph-name="uni1EC5" unicode="&#x1ec5;" horiz-adv-x="544" 
d="M286 54c61 0 116 25 163 83l49 -45c-54 -70 -126 -107 -219 -107c-144 0 -248 105 -248 255c0 146 108 255 246 255s238 -98 238 -249c0 -13 -2 -29 -3 -34h-397c11 -98 84 -158 171 -158zM278 426c-80 0 -149 -55 -163 -151h318c-12 94 -73 151 -155 151zM298 714
c23 -16 30 -18 38 -18c11 0 19 5 27 43l44 -7c-10 -77 -37 -91 -65 -91c-16 0 -28 3 -63 28c-23 15 -30 17 -37 17c-12 0 -19 -5 -28 -43l-44 7c10 77 37 92 66 92c16 0 27 -4 62 -28zM149 554l114 77h36l114 -77l-21 -38l-111 56l-111 -56z" />
    <glyph glyph-name="ecaron" unicode="&#x11b;" horiz-adv-x="544" 
d="M286 54c61 0 116 25 163 83l49 -45c-54 -70 -126 -107 -219 -107c-144 0 -248 105 -248 255c0 146 108 255 246 255s238 -98 238 -249c0 -13 -2 -29 -3 -34h-397c11 -98 84 -158 171 -158zM278 426c-80 0 -149 -55 -163 -151h318c-12 94 -73 151 -155 151zM419 628
l-120 -100h-36l-120 100l28 38l110 -70l110 70z" />
    <glyph glyph-name="ebreve" unicode="&#x115;" horiz-adv-x="544" 
d="M286 54c61 0 116 25 163 83l49 -45c-54 -70 -126 -107 -219 -107c-144 0 -248 105 -248 255c0 146 108 255 246 255s238 -98 238 -249c0 -13 -2 -29 -3 -34h-397c11 -98 84 -158 171 -158zM278 426c-80 0 -149 -55 -163 -151h318c-12 94 -73 151 -155 151zM281 591
c43 0 69 23 86 70l54 -12c-18 -84 -66 -121 -140 -121s-122 37 -140 121l54 12c18 -47 43 -70 86 -70z" />
    <glyph glyph-name="uni1EBD" unicode="&#x1ebd;" horiz-adv-x="544" 
d="M286 54c61 0 116 25 163 83l49 -45c-54 -70 -126 -107 -219 -107c-144 0 -248 105 -248 255c0 146 108 255 246 255s238 -98 238 -249c0 -13 -2 -29 -3 -34h-397c11 -98 84 -158 171 -158zM278 426c-80 0 -149 -55 -163 -151h318c-12 94 -73 151 -155 151zM293 615
c27 -21 36 -25 44 -25c13 0 20 9 31 59l54 -8c-14 -95 -45 -115 -80 -115c-19 0 -32 6 -73 37c-27 21 -36 25 -44 25c-13 0 -20 -8 -31 -59l-54 9c14 94 45 114 80 114c19 0 32 -5 73 -37z" />
    <glyph glyph-name="emacron" unicode="&#x113;" horiz-adv-x="544" 
d="M286 54c61 0 116 25 163 83l49 -45c-54 -70 -126 -107 -219 -107c-144 0 -248 105 -248 255c0 146 108 255 246 255s238 -98 238 -249c0 -13 -2 -29 -3 -34h-397c11 -98 84 -158 171 -158zM278 426c-80 0 -149 -55 -163 -151h318c-12 94 -73 151 -155 151zM154 543v63
h254v-63h-254z" />
    <glyph glyph-name="edieresis" unicode="&#xeb;" horiz-adv-x="544" 
d="M286 54c61 0 116 25 163 83l49 -45c-54 -70 -126 -107 -219 -107c-144 0 -248 105 -248 255c0 146 108 255 246 255s238 -98 238 -249c0 -13 -2 -29 -3 -34h-397c11 -98 84 -158 171 -158zM278 426c-80 0 -149 -55 -163 -151h318c-12 94 -73 151 -155 151zM248 616v-77
h-77v77h77zM391 616v-77h-77v77h77z" />
    <glyph glyph-name="edotaccent" unicode="&#x117;" horiz-adv-x="544" 
d="M286 54c61 0 116 25 163 83l49 -45c-54 -70 -126 -107 -219 -107c-144 0 -248 105 -248 255c0 146 108 255 246 255s238 -98 238 -249c0 -13 -2 -29 -3 -34h-397c11 -98 84 -158 171 -158zM278 426c-80 0 -149 -55 -163 -151h318c-12 94 -73 151 -155 151zM322 619v-82
h-82v82h82z" />
    <glyph glyph-name="uni1EBB" unicode="&#x1ebb;" horiz-adv-x="544" 
d="M286 54c61 0 116 25 163 83l49 -45c-54 -70 -126 -107 -219 -107c-144 0 -248 105 -248 255c0 146 108 255 246 255s238 -98 238 -249c0 -13 -2 -29 -3 -34h-397c11 -98 84 -158 171 -158zM278 426c-80 0 -149 -55 -163 -151h318c-12 94 -73 151 -155 151zM241 523
l-27 31c44 14 57 27 57 44c0 11 -8 27 -68 39v2l48 40c72 -16 91 -45 91 -76c0 -29 -25 -64 -101 -80z" />
    <glyph glyph-name="uni1EB9" unicode="&#x1eb9;" horiz-adv-x="544" 
d="M286 54c61 0 116 25 163 83l49 -45c-54 -70 -126 -107 -219 -107c-144 0 -248 105 -248 255c0 146 108 255 246 255s238 -98 238 -249c0 -13 -2 -29 -3 -34h-397c11 -98 84 -158 171 -158zM278 426c-80 0 -149 -55 -163 -151h318c-12 94 -73 151 -155 151zM322 -54v-82
h-82v82h82z" />
    <glyph glyph-name="eogonek" unicode="&#x119;" horiz-adv-x="544" 
d="M482 -98v-56h-49c-61 0 -86 24 -86 61c0 23 9 53 47 103c-33 -17 -72 -25 -115 -25c-144 0 -248 105 -248 255c0 146 108 255 246 255s238 -98 238 -249c0 -13 -2 -29 -3 -34h-397c11 -98 84 -158 171 -158c61 0 116 25 163 83l49 -45c-81 -123 -87 -145 -87 -161
c0 -19 10 -29 43 -29h28zM278 426c-81 0 -149 -55 -163 -151h318c-12 94 -73 151 -155 151z" />
    <glyph glyph-name="gcircumflex" unicode="&#x11d;" horiz-adv-x="582" 
d="M448 57v34c-43 -52 -107 -84 -179 -84c-127 0 -238 92 -238 243c0 148 111 245 241 245c70 0 134 -31 177 -84v72h81v-423c0 -147 -72 -240 -257 -240h-122v70h126c114 0 171 57 171 167zM452 250c0 101 -78 173 -171 173c-95 0 -167 -63 -167 -172
c0 -107 72 -172 167 -172c93 0 171 72 171 171zM158 556l120 100h36l120 -100l-28 -38l-110 71l-110 -71z" />
    <glyph glyph-name="gcaron" unicode="&#x1e7;" horiz-adv-x="582" 
d="M448 57v34c-43 -52 -107 -84 -179 -84c-127 0 -238 92 -238 243c0 148 111 245 241 245c70 0 134 -31 177 -84v72h81v-423c0 -147 -72 -240 -257 -240h-122v70h126c114 0 171 57 171 167zM452 250c0 101 -78 173 -171 173c-95 0 -167 -63 -167 -172
c0 -107 72 -172 167 -172c93 0 171 72 171 171zM434 628l-120 -100h-36l-120 100l28 38l110 -70l110 70z" />
    <glyph glyph-name="gbreve" unicode="&#x11f;" horiz-adv-x="582" 
d="M448 57v34c-43 -52 -107 -84 -179 -84c-127 0 -238 92 -238 243c0 148 111 245 241 245c70 0 134 -31 177 -84v72h81v-423c0 -147 -72 -240 -257 -240h-122v70h126c114 0 171 57 171 167zM452 250c0 101 -78 173 -171 173c-95 0 -167 -63 -167 -172
c0 -107 72 -172 167 -172c93 0 171 72 171 171zM296 591c43 0 69 23 86 70l54 -12c-18 -84 -66 -121 -140 -121s-122 37 -140 121l54 12c18 -47 43 -70 86 -70z" />
    <glyph glyph-name="uni1E21" unicode="&#x1e21;" horiz-adv-x="582" 
d="M448 57v34c-43 -52 -107 -84 -179 -84c-127 0 -238 92 -238 243c0 148 111 245 241 245c70 0 134 -31 177 -84v72h81v-423c0 -147 -72 -240 -257 -240h-122v70h126c114 0 171 57 171 167zM452 250c0 101 -78 173 -171 173c-95 0 -167 -63 -167 -172
c0 -107 72 -172 167 -172c93 0 171 72 171 171zM169 543v63h254v-63h-254z" />
    <glyph glyph-name="gdotaccent" unicode="&#x121;" horiz-adv-x="582" 
d="M448 57v34c-43 -52 -107 -84 -179 -84c-127 0 -238 92 -238 243c0 148 111 245 241 245c70 0 134 -31 177 -84v72h81v-423c0 -147 -72 -240 -257 -240h-122v70h126c114 0 171 57 171 167zM452 250c0 101 -78 173 -171 173c-95 0 -167 -63 -167 -172
c0 -107 72 -172 167 -172c93 0 171 72 171 171zM337 619v-82h-82v82h82z" />
    <glyph glyph-name="uni0123" unicode="&#x123;" horiz-adv-x="582" 
d="M448 57v34c-43 -52 -107 -84 -179 -84c-127 0 -238 92 -238 243c0 148 111 245 241 245c70 0 134 -31 177 -84v72h81v-423c0 -147 -72 -240 -257 -240h-122v70h126c114 0 171 57 171 167zM452 250c0 101 -78 173 -171 173c-95 0 -167 -63 -167 -172
c0 -107 72 -172 167 -172c93 0 171 72 171 171zM320 679l27 -31c-44 -14 -58 -27 -58 -44c0 -11 8 -27 68 -39v-2l-47 -40c-72 16 -92 45 -92 76c0 29 26 64 102 80z" />
    <glyph glyph-name="hcircumflex" unicode="&#x125;" horiz-adv-x="557" 
d="M134 700v-290c36 52 94 85 170 85c135 0 206 -95 206 -232v-263h-81v258c0 97 -49 164 -144 164c-94 0 -151 -73 -151 -169v-253h-81v700h81zM-45 769l120 100h36l120 -100l-28 -38l-110 71l-110 -71z" />
    <glyph glyph-name="uni1E2B" unicode="&#x1e2b;" horiz-adv-x="557" 
d="M134 700v-290c36 52 94 85 170 85c135 0 206 -95 206 -232v-263h-81v258c0 97 -49 164 -144 164c-94 0 -151 -73 -151 -169v-253h-81v700h81zM281 -115c43 0 69 22 86 70l54 -12c-18 -85 -66 -121 -140 -121s-122 36 -140 121l54 12c18 -47 43 -70 86 -70z" />
    <glyph glyph-name="uni1E96" unicode="&#x1e96;" horiz-adv-x="557" 
d="M134 700v-290c36 52 94 85 170 85c135 0 206 -95 206 -232v-263h-81v258c0 97 -49 164 -144 164c-94 0 -151 -73 -151 -169v-253h-81v700h81zM154 -123v63h254v-63h-254z" />
    <glyph glyph-name="uni1E25" unicode="&#x1e25;" horiz-adv-x="557" 
d="M134 700v-290c36 52 94 85 170 85c135 0 206 -95 206 -232v-263h-81v258c0 97 -49 164 -144 164c-94 0 -151 -73 -151 -169v-253h-81v700h81zM322 -54v-82h-82v82h82z" />
    <glyph glyph-name="uni1E29" unicode="&#x1e29;" horiz-adv-x="557" 
d="M134 700v-290c36 52 94 85 170 85c135 0 206 -95 206 -232v-263h-81v258c0 97 -49 164 -144 164c-94 0 -151 -73 -151 -169v-253h-13l-12 -43h8c44 0 74 -26 74 -64c0 -40 -33 -73 -93 -73c-24 0 -54 6 -84 26l22 40c27 -15 43 -20 61 -20c30 0 39 14 39 25
c0 12 -11 22 -33 22c-8 0 -18 -2 -34 -8l-22 7l-1 2l25 86h-18v700h81z" />
    <glyph glyph-name="hbar" unicode="&#x127;" horiz-adv-x="587" 
d="M8 551v62h75v87h81v-87h148v-62h-148v-153c36 52 94 84 170 84c135 0 206 -94 206 -231v-251h-81v246c0 97 -49 164 -144 164c-94 0 -151 -74 -151 -169v-241h-81v551h-75z" />
    <glyph glyph-name="dotlessi" unicode="&#x131;" horiz-adv-x="206" 
d="M62 483h82v-483h-82v483z" />
    <glyph glyph-name="iacute" unicode="&#xed;" horiz-adv-x="206" 
d="M62 483h82v-483h-82v483zM29 572l162 103l32 -60l-170 -89z" />
    <glyph glyph-name="igrave" unicode="&#xec;" horiz-adv-x="206" 
d="M62 483h82v-483h-82v483zM177 572l-24 -46l-170 89l32 60z" />
    <glyph glyph-name="icircumflex" unicode="&#xee;" horiz-adv-x="206" 
d="M62 483h82v-483h-82v483zM-35 554l120 100h36l120 -100l-28 -38l-110 71l-110 -71z" />
    <glyph glyph-name="uni01D0" unicode="&#x1d0;" horiz-adv-x="206" 
d="M62 483h82v-483h-82v483zM241 628l-120 -100h-36l-120 100l28 38l110 -70l110 70z" />
    <glyph glyph-name="ibreve" unicode="&#x12d;" horiz-adv-x="206" 
d="M62 483h82v-483h-82v483zM103 591c43 0 69 23 86 70l54 -12c-18 -84 -66 -121 -140 -121s-122 37 -140 121l54 12c18 -47 43 -70 86 -70z" />
    <glyph glyph-name="itilde" unicode="&#x129;" horiz-adv-x="206" 
d="M62 483h82v-483h-82v483zM115 615c27 -21 36 -25 44 -25c13 0 20 9 31 59l54 -8c-14 -95 -45 -115 -80 -115c-19 0 -32 6 -73 37c-27 21 -36 25 -44 25c-13 0 -20 -8 -31 -59l-54 9c14 94 45 114 80 114c19 0 32 -5 73 -37z" />
    <glyph glyph-name="imacron" unicode="&#x12b;" horiz-adv-x="206" 
d="M62 483h82v-483h-82v483zM7 543v63h192v-63h-192z" />
    <glyph glyph-name="idieresis" unicode="&#xef;" horiz-adv-x="206" 
d="M62 483h82v-483h-82v483zM70 616v-77h-77v77h77zM213 616v-77h-77v77h77z" />
    <glyph glyph-name="i.dot" horiz-adv-x="206" 
d="M62 483h82v-483h-82v483zM144 619v-82h-82v82h82z" />
    <glyph glyph-name="uni1EC9" unicode="&#x1ec9;" horiz-adv-x="206" 
d="M62 483h82v-483h-82v483zM63 523l-27 31c44 14 57 27 57 44c0 11 -8 27 -68 39v2l48 40c72 -16 91 -45 91 -76c0 -29 -25 -64 -101 -80z" />
    <glyph glyph-name="uni1ECB" unicode="&#x1ecb;" horiz-adv-x="206" 
d="M148 645v-89h-90v89h90zM62 483h82v-483h-82v483zM144 -54v-82h-82v82h82z" />
    <glyph glyph-name="iogonek" unicode="&#x12f;" horiz-adv-x="206" 
d="M148 645v-89h-90v89h90zM25 -96c0 20 7 41 54 96h-17v483h82v-483h-15c-34 -45 -40 -61 -40 -73c0 -16 10 -25 44 -25h27v-56h-49c-62 0 -86 21 -86 58z" />
    <glyph glyph-name="uni0237" unicode="&#x237;" horiz-adv-x="207" 
d="M145 -44c0 -93 -56 -136 -133 -136h-53v68h43c37 0 61 24 61 69v526h82v-527z" />
    <glyph glyph-name="jcircumflex" unicode="&#x135;" horiz-adv-x="207" 
d="M145 -44c0 -93 -56 -136 -133 -136h-53v68h43c37 0 61 24 61 69v526h82v-527zM-34 554l120 100h36l120 -100l-28 -38l-110 71l-110 -71z" />
    <glyph glyph-name="uni01F0" unicode="&#x1f0;" horiz-adv-x="207" 
d="M145 -44c0 -93 -56 -136 -133 -136h-53v68h43c37 0 61 24 61 69v526h82v-527zM242 628l-120 -100h-36l-120 100l28 38l110 -70l110 70z" />
    <glyph glyph-name="uni1E35" unicode="&#x1e35;" horiz-adv-x="472" 
d="M134 700v-422l226 205h108v-2l-259 -228l260 -251v-2h-108l-227 224v-224h-81v700h81zM129 -123v63h254v-63h-254z" />
    <glyph glyph-name="uni0137" unicode="&#x137;" horiz-adv-x="472" 
d="M134 700v-422l226 205h108v-2l-259 -228l260 -251v-2h-108l-227 224v-224h-81v700h81zM216 -196l-27 31c44 13 57 26 57 43c0 11 -8 27 -68 40v2l48 39c72 -15 91 -44 91 -76c0 -28 -25 -64 -101 -79z" />
    <glyph glyph-name="uni1E33" unicode="&#x1e33;" horiz-adv-x="472" 
d="M134 700v-422l226 205h108v-2l-259 -228l260 -251v-2h-108l-227 224v-224h-81v700h81zM297 -54v-82h-82v82h82z" />
    <glyph glyph-name="lacute" unicode="&#x13a;" horiz-adv-x="206" 
d="M144 700v-700h-82v700h82zM29 778l162 103l32 -60l-170 -89z" />
    <glyph glyph-name="lcaron" unicode="&#x13e;" horiz-adv-x="206" 
d="M144 700v-700h-82v700h82zM185 535v165h81l-28 -165h-53z" />
    <glyph glyph-name="uni013C" unicode="&#x13c;" horiz-adv-x="206" 
d="M144 700v-700h-82v700h82zM63 -196l-27 31c44 13 57 26 57 43c0 11 -8 27 -68 40v2l48 39c72 -15 91 -44 91 -76c0 -28 -25 -64 -101 -79z" />
    <glyph glyph-name="uni1E3D" unicode="&#x1e3d;" horiz-adv-x="206" 
d="M144 700v-700h-82v700h82zM-35 -144l120 100h36l120 -100l-28 -38l-110 71l-110 -71z" />
    <glyph glyph-name="uni1E3B" unicode="&#x1e3b;" horiz-adv-x="206" 
d="M144 700v-700h-82v700h82zM7 -123v63h192v-63h-192z" />
    <glyph glyph-name="uni1E39" unicode="&#x1e39;" horiz-adv-x="206" 
d="M144 700v-700h-82v700h82zM7 749v63h192v-63h-192zM144 -54v-82h-82v82h82z" />
    <glyph glyph-name="uni1E37" unicode="&#x1e37;" horiz-adv-x="206" 
d="M144 700v-700h-82v700h82zM144 -54v-82h-82v82h82z" />
    <glyph glyph-name="lslash" unicode="&#x142;" horiz-adv-x="268" 
d="M8 263v79l85 58v300h82v-243l85 58v-78l-85 -59v-378h-82v322z" />
    <glyph glyph-name="uni1E3F" unicode="&#x1e3f;" horiz-adv-x="818" 
d="M133 483v-58c33 43 78 70 139 70c71 0 122 -32 151 -82c34 50 89 82 162 82c121 0 186 -90 186 -198v-297h-82v292c0 77 -39 130 -116 130c-75 0 -121 -59 -121 -135v-287h-81v292c0 77 -39 130 -116 130c-75 0 -121 -59 -121 -135v-287h-81v483h80zM337 572l162 103
l32 -60l-170 -89z" />
    <glyph glyph-name="uni1E41" unicode="&#x1e41;" horiz-adv-x="818" 
d="M133 483v-58c33 43 78 70 139 70c71 0 122 -32 151 -82c34 50 89 82 162 82c121 0 186 -90 186 -198v-297h-82v292c0 77 -39 130 -116 130c-75 0 -121 -59 -121 -135v-287h-81v292c0 77 -39 130 -116 130c-75 0 -121 -59 -121 -135v-287h-81v483h80zM452 619v-82h-82v82
h82z" />
    <glyph glyph-name="uni1E43" unicode="&#x1e43;" horiz-adv-x="818" 
d="M133 483v-58c33 43 78 70 139 70c71 0 122 -32 151 -82c34 50 89 82 162 82c121 0 186 -90 186 -198v-297h-82v292c0 77 -39 130 -116 130c-75 0 -121 -59 -121 -135v-287h-81v292c0 77 -39 130 -116 130c-75 0 -121 -59 -121 -135v-287h-81v483h80zM452 -54v-82h-82v82
h82z" />
    <glyph glyph-name="nacute" unicode="&#x144;" horiz-adv-x="557" 
d="M133 483v-75c36 53 95 87 173 87c133 0 204 -95 204 -232v-263h-81v258c0 97 -49 164 -142 164c-96 0 -153 -73 -153 -169v-253h-81v483h80zM199 572l162 103l32 -60l-170 -89z" />
    <glyph glyph-name="uni01F9" unicode="&#x1f9;" horiz-adv-x="557" 
d="M133 483v-75c36 53 95 87 173 87c133 0 204 -95 204 -232v-263h-81v258c0 97 -49 164 -142 164c-96 0 -153 -73 -153 -169v-253h-81v483h80zM347 572l-24 -46l-170 89l32 60z" />
    <glyph glyph-name="ncaron" unicode="&#x148;" horiz-adv-x="557" 
d="M133 483v-75c36 53 95 87 173 87c133 0 204 -95 204 -232v-263h-81v258c0 97 -49 164 -142 164c-96 0 -153 -73 -153 -169v-253h-81v483h80zM411 628l-120 -100h-36l-120 100l28 38l110 -70l110 70z" />
    <glyph glyph-name="ntilde" unicode="&#xf1;" horiz-adv-x="557" 
d="M133 483v-75c36 53 95 87 173 87c133 0 204 -95 204 -232v-263h-81v258c0 97 -49 164 -142 164c-96 0 -153 -73 -153 -169v-253h-81v483h80zM285 615c27 -21 36 -25 44 -25c13 0 20 9 31 59l54 -8c-14 -95 -45 -115 -80 -115c-19 0 -32 6 -73 37c-27 21 -36 25 -44 25
c-13 0 -20 -8 -31 -59l-54 9c14 94 45 114 80 114c19 0 32 -5 73 -37z" />
    <glyph glyph-name="uni1E45" unicode="&#x1e45;" horiz-adv-x="557" 
d="M133 483v-75c36 53 95 87 173 87c133 0 204 -95 204 -232v-263h-81v258c0 97 -49 164 -142 164c-96 0 -153 -73 -153 -169v-253h-81v483h80zM314 619v-82h-82v82h82z" />
    <glyph glyph-name="uni1E4B" unicode="&#x1e4b;" horiz-adv-x="557" 
d="M133 483v-75c36 53 95 87 173 87c133 0 204 -95 204 -232v-263h-81v258c0 97 -49 164 -142 164c-96 0 -153 -73 -153 -169v-253h-81v483h80zM143 -144l120 100h36l120 -100l-28 -38l-110 71l-110 -71z" />
    <glyph glyph-name="uni0146" unicode="&#x146;" horiz-adv-x="557" 
d="M133 483v-75c36 53 95 87 173 87c133 0 204 -95 204 -232v-263h-81v258c0 97 -49 164 -142 164c-96 0 -153 -73 -153 -169v-253h-81v483h80zM241 -196l-27 31c44 13 57 26 57 43c0 11 -8 27 -68 40v2l48 39c72 -15 91 -44 91 -76c0 -28 -25 -64 -101 -79z" />
    <glyph glyph-name="uni1E47" unicode="&#x1e47;" horiz-adv-x="557" 
d="M133 483v-75c36 53 95 87 173 87c133 0 204 -95 204 -232v-263h-81v258c0 97 -49 164 -142 164c-96 0 -153 -73 -153 -169v-253h-81v483h80zM322 -54v-82h-82v82h82z" />
    <glyph glyph-name="uni1E49" unicode="&#x1e49;" horiz-adv-x="557" 
d="M133 483v-75c36 53 95 87 173 87c133 0 204 -95 204 -232v-263h-81v258c0 97 -49 164 -142 164c-96 0 -153 -73 -153 -169v-253h-81v483h80zM154 -123v63h254v-63h-254z" />
    <glyph glyph-name="eng" unicode="&#x14b;" horiz-adv-x="557" 
d="M510 -40c0 -92 -48 -140 -137 -140h-58v68h47c42 0 67 21 67 70v300c0 97 -49 164 -142 164c-96 0 -153 -73 -153 -169v-253h-81v483h80v-75c36 53 95 87 173 87c133 0 204 -95 204 -232v-303z" />
    <glyph glyph-name="oacute" unicode="&#xf3;" horiz-adv-x="565" 
d="M281 -15c-143 0 -250 111 -250 255s109 256 253 256c143 0 250 -111 250 -255s-109 -256 -253 -256zM283 56c95 0 168 80 168 185c0 102 -73 184 -169 184c-95 0 -168 -80 -168 -185c0 -103 73 -184 169 -184zM209 572l162 103l32 -60l-170 -89z" />
    <glyph glyph-name="ohungarumlaut" unicode="&#x151;" horiz-adv-x="565" 
d="M281 -15c-143 0 -250 111 -250 255s109 256 253 256c143 0 250 -111 250 -255s-109 -256 -253 -256zM283 56c95 0 168 80 168 185c0 102 -73 184 -169 184c-95 0 -168 -80 -168 -185c0 -103 73 -184 169 -184zM173 565l95 102l48 -49l-107 -92zM313 565l95 102l48 -49
l-107 -92z" />
    <glyph glyph-name="ograve" unicode="&#xf2;" horiz-adv-x="565" 
d="M281 -15c-143 0 -250 111 -250 255s109 256 253 256c143 0 250 -111 250 -255s-109 -256 -253 -256zM283 56c95 0 168 80 168 185c0 102 -73 184 -169 184c-95 0 -168 -80 -168 -185c0 -103 73 -184 169 -184zM357 572l-24 -46l-170 89l32 60z" />
    <glyph glyph-name="ocircumflex" unicode="&#xf4;" horiz-adv-x="565" 
d="M281 -15c-143 0 -250 111 -250 255s109 256 253 256c143 0 250 -111 250 -255s-109 -256 -253 -256zM283 56c95 0 168 80 168 185c0 102 -73 184 -169 184c-95 0 -168 -80 -168 -185c0 -103 73 -184 169 -184zM145 554l120 100h36l120 -100l-28 -38l-110 71l-110 -71z
" />
    <glyph glyph-name="uni1ED9" unicode="&#x1ed9;" horiz-adv-x="565" 
d="M281 -15c-143 0 -250 111 -250 255s109 256 253 256c143 0 250 -111 250 -255s-109 -256 -253 -256zM283 56c95 0 168 80 168 185c0 102 -73 184 -169 184c-95 0 -168 -80 -168 -185c0 -103 73 -184 169 -184zM145 554l120 100h36l120 -100l-28 -38l-110 71l-110 -71z
M324 -54v-82h-82v82h82z" />
    <glyph glyph-name="uni1ED1" unicode="&#x1ed1;" horiz-adv-x="565" 
d="M281 -15c-143 0 -250 111 -250 255s109 256 253 256c143 0 250 -111 250 -255s-109 -256 -253 -256zM283 56c95 0 168 80 168 185c0 102 -73 184 -169 184c-95 0 -168 -80 -168 -185c0 -103 73 -184 169 -184zM330 660l112 73l28 -52l-122 -57zM151 554l114 77h36
l114 -77l-21 -38l-111 56l-111 -56z" />
    <glyph glyph-name="uni1ED3" unicode="&#x1ed3;" horiz-adv-x="565" 
d="M281 -15c-143 0 -250 111 -250 255s109 256 253 256c143 0 250 -111 250 -255s-109 -256 -253 -256zM283 56c95 0 168 80 168 185c0 102 -73 184 -169 184c-95 0 -168 -80 -168 -185c0 -103 73 -184 169 -184zM429 659l-16 -37l-135 48l24 55zM151 554l114 77h36l114 -77
l-21 -38l-111 56l-111 -56z" />
    <glyph glyph-name="uni1ED5" unicode="&#x1ed5;" horiz-adv-x="565" 
d="M281 -15c-143 0 -250 111 -250 255s109 256 253 256c143 0 250 -111 250 -255s-109 -256 -253 -256zM283 56c95 0 168 80 168 185c0 102 -73 184 -169 184c-95 0 -168 -80 -168 -185c0 -103 73 -184 169 -184zM365 617l-22 31c44 14 58 20 58 32c0 9 -9 17 -69 30v2
l41 33c71 -16 91 -35 91 -60c0 -24 -25 -53 -99 -68zM151 554l114 77h36l114 -77l-21 -38l-111 56l-111 -56z" />
    <glyph glyph-name="uni1ED7" unicode="&#x1ed7;" horiz-adv-x="565" 
d="M281 -15c-143 0 -250 111 -250 255s109 256 253 256c143 0 250 -111 250 -255s-109 -256 -253 -256zM283 56c95 0 168 80 168 185c0 102 -73 184 -169 184c-95 0 -168 -80 -168 -185c0 -103 73 -184 169 -184zM300 714c23 -16 30 -18 38 -18c11 0 19 5 27 43l44 -7
c-10 -77 -37 -91 -65 -91c-16 0 -28 3 -63 28c-23 15 -30 17 -37 17c-12 0 -19 -5 -28 -43l-44 7c10 77 37 92 66 92c16 0 27 -4 62 -28zM151 554l114 77h36l114 -77l-21 -38l-111 56l-111 -56z" />
    <glyph glyph-name="uni01D2" unicode="&#x1d2;" horiz-adv-x="565" 
d="M281 -15c-143 0 -250 111 -250 255s109 256 253 256c143 0 250 -111 250 -255s-109 -256 -253 -256zM283 56c95 0 168 80 168 185c0 102 -73 184 -169 184c-95 0 -168 -80 -168 -185c0 -103 73 -184 169 -184zM421 628l-120 -100h-36l-120 100l28 38l110 -70l110 70z" />
    <glyph glyph-name="obreve" unicode="&#x14f;" horiz-adv-x="565" 
d="M281 -15c-143 0 -250 111 -250 255s109 256 253 256c143 0 250 -111 250 -255s-109 -256 -253 -256zM283 56c95 0 168 80 168 185c0 102 -73 184 -169 184c-95 0 -168 -80 -168 -185c0 -103 73 -184 169 -184zM283 591c43 0 69 23 86 70l54 -12
c-18 -84 -66 -121 -140 -121s-122 37 -140 121l54 12c18 -47 43 -70 86 -70z" />
    <glyph glyph-name="otilde" unicode="&#xf5;" horiz-adv-x="565" 
d="M281 -15c-143 0 -250 111 -250 255s109 256 253 256c143 0 250 -111 250 -255s-109 -256 -253 -256zM283 56c95 0 168 80 168 185c0 102 -73 184 -169 184c-95 0 -168 -80 -168 -185c0 -103 73 -184 169 -184zM295 615c27 -21 36 -25 44 -25c13 0 20 9 31 59l54 -8
c-14 -95 -45 -115 -80 -115c-19 0 -32 6 -73 37c-27 21 -36 25 -44 25c-13 0 -20 -8 -31 -59l-54 9c14 94 45 114 80 114c19 0 32 -5 73 -37z" />
    <glyph glyph-name="omacron" unicode="&#x14d;" horiz-adv-x="565" 
d="M281 -15c-143 0 -250 111 -250 255s109 256 253 256c143 0 250 -111 250 -255s-109 -256 -253 -256zM283 56c95 0 168 80 168 185c0 102 -73 184 -169 184c-95 0 -168 -80 -168 -185c0 -103 73 -184 169 -184zM156 543v63h254v-63h-254z" />
    <glyph glyph-name="odieresis" unicode="&#xf6;" horiz-adv-x="565" 
d="M281 -15c-143 0 -250 111 -250 255s109 256 253 256c143 0 250 -111 250 -255s-109 -256 -253 -256zM283 56c95 0 168 80 168 185c0 102 -73 184 -169 184c-95 0 -168 -80 -168 -185c0 -103 73 -184 169 -184zM250 616v-77h-77v77h77zM393 616v-77h-77v77h77z" />
    <glyph glyph-name="uni022F" unicode="&#x22f;" horiz-adv-x="565" 
d="M281 -15c-143 0 -250 111 -250 255s109 256 253 256c143 0 250 -111 250 -255s-109 -256 -253 -256zM283 56c95 0 168 80 168 185c0 102 -73 184 -169 184c-95 0 -168 -80 -168 -185c0 -103 73 -184 169 -184zM324 619v-82h-82v82h82z" />
    <glyph glyph-name="uni1ECF" unicode="&#x1ecf;" horiz-adv-x="565" 
d="M281 -15c-143 0 -250 111 -250 255s109 256 253 256c143 0 250 -111 250 -255s-109 -256 -253 -256zM283 56c95 0 168 80 168 185c0 102 -73 184 -169 184c-95 0 -168 -80 -168 -185c0 -103 73 -184 169 -184zM243 523l-27 31c44 14 57 27 57 44c0 11 -8 27 -68 39v2
l48 40c72 -16 91 -45 91 -76c0 -29 -25 -64 -101 -80z" />
    <glyph glyph-name="uni1ECD" unicode="&#x1ecd;" horiz-adv-x="565" 
d="M281 -15c-143 0 -250 111 -250 255s109 256 253 256c143 0 250 -111 250 -255s-109 -256 -253 -256zM283 56c95 0 168 80 168 185c0 102 -73 184 -169 184c-95 0 -168 -80 -168 -185c0 -103 73 -184 169 -184zM324 -54v-82h-82v82h82z" />
    <glyph glyph-name="uni01EB" unicode="&#x1eb;" horiz-adv-x="565" 
d="M224 -96c0 18 5 37 42 81c-136 8 -235 116 -235 255c0 144 109 256 253 256c143 0 250 -111 250 -255c0 -131 -90 -236 -215 -253c-26 -36 -31 -50 -31 -61c0 -16 10 -25 43 -25h28v-56h-49c-63 0 -86 21 -86 58zM283 56c95 0 168 80 168 185c0 102 -73 184 -169 184
c-95 0 -168 -80 -168 -185c0 -103 73 -184 169 -184z" />
    <glyph glyph-name="oslash" unicode="&#xf8;" horiz-adv-x="565" 
d="M534 241c0 -144 -109 -256 -253 -256c-49 0 -94 14 -133 39l-34 -44h-81l68 83c-43 46 -70 108 -70 177c0 144 109 256 253 256c49 0 94 -14 133 -39l35 44h80l-67 -84c43 -45 69 -108 69 -176zM114 241c0 -46 14 -88 38 -119l218 278c-26 16 -56 25 -89 25
c-95 0 -167 -79 -167 -184zM451 240c0 46 -14 87 -37 119l-219 -278c25 -16 55 -25 89 -25c95 0 167 79 167 184z" />
    <glyph glyph-name="oe" unicode="&#x153;" horiz-adv-x="963" 
d="M281 -15c-143 0 -250 111 -250 255s109 256 253 256c89 0 165 -47 208 -120c42 72 116 119 204 119c138 0 238 -98 238 -249c0 -13 -2 -29 -3 -34h-397c11 -98 84 -158 171 -158c61 0 116 25 163 83l49 -45c-54 -70 -126 -107 -219 -107c-92 0 -167 46 -208 118
c-43 -71 -120 -118 -209 -118zM697 426c-81 0 -149 -55 -163 -151h318c-12 94 -73 151 -155 151zM283 56c95 0 168 80 168 185c0 102 -73 184 -169 184c-95 0 -168 -80 -168 -185c0 -103 73 -184 169 -184z" />
    <glyph glyph-name="ohorn" unicode="&#x1a1;" horiz-adv-x="577" 
d="M281 -15c-143 0 -250 108 -250 248c0 142 109 250 253 250h124c67 0 88 23 90 85h74c-3 -98 -53 -139 -127 -139h-9c57 -43 98 -111 98 -194c0 -141 -109 -250 -253 -250zM283 56c95 0 168 77 168 179c0 99 -73 177 -169 177c-95 0 -168 -77 -168 -179
c0 -99 73 -177 169 -177z" />
    <glyph glyph-name="uni1EDB" unicode="&#x1edb;" horiz-adv-x="577" 
d="M281 -15c-143 0 -250 108 -250 248c0 142 109 250 253 250h124c67 0 88 23 90 85h74c-3 -98 -53 -139 -127 -139h-9c57 -43 98 -111 98 -194c0 -141 -109 -250 -253 -250zM283 56c95 0 168 77 168 179c0 99 -73 177 -169 177c-95 0 -168 -77 -168 -179
c0 -99 73 -177 169 -177zM209 572l162 103l32 -60l-170 -89z" />
    <glyph glyph-name="uni1EDD" unicode="&#x1edd;" horiz-adv-x="577" 
d="M281 -15c-143 0 -250 108 -250 248c0 142 109 250 253 250h124c67 0 88 23 90 85h74c-3 -98 -53 -139 -127 -139h-9c57 -43 98 -111 98 -194c0 -141 -109 -250 -253 -250zM283 56c95 0 168 77 168 179c0 99 -73 177 -169 177c-95 0 -168 -77 -168 -179
c0 -99 73 -177 169 -177zM357 572l-24 -46l-170 89l32 60z" />
    <glyph glyph-name="uni1EE1" unicode="&#x1ee1;" horiz-adv-x="577" 
d="M281 -15c-143 0 -250 108 -250 248c0 142 109 250 253 250h124c67 0 88 23 90 85h74c-3 -98 -53 -139 -127 -139h-9c57 -43 98 -111 98 -194c0 -141 -109 -250 -253 -250zM283 56c95 0 168 77 168 179c0 99 -73 177 -169 177c-95 0 -168 -77 -168 -179
c0 -99 73 -177 169 -177zM295 615c27 -21 36 -25 44 -25c13 0 20 9 31 59l54 -8c-14 -95 -45 -115 -80 -115c-19 0 -32 6 -73 37c-27 21 -36 25 -44 25c-13 0 -20 -8 -31 -59l-54 9c14 94 45 114 80 114c19 0 32 -5 73 -37z" />
    <glyph glyph-name="uni1EDF" unicode="&#x1edf;" horiz-adv-x="577" 
d="M281 -15c-143 0 -250 108 -250 248c0 142 109 250 253 250h124c67 0 88 23 90 85h74c-3 -98 -53 -139 -127 -139h-9c57 -43 98 -111 98 -194c0 -141 -109 -250 -253 -250zM283 56c95 0 168 77 168 179c0 99 -73 177 -169 177c-95 0 -168 -77 -168 -179
c0 -99 73 -177 169 -177zM243 523l-27 31c44 14 57 27 57 44c0 11 -8 27 -68 39v2l48 40c72 -16 91 -45 91 -76c0 -29 -25 -64 -101 -80z" />
    <glyph glyph-name="uni1EE3" unicode="&#x1ee3;" horiz-adv-x="577" 
d="M281 -15c-143 0 -250 108 -250 248c0 142 109 250 253 250h124c67 0 88 23 90 85h74c-3 -98 -53 -139 -127 -139h-9c57 -43 98 -111 98 -194c0 -141 -109 -250 -253 -250zM283 56c95 0 168 77 168 179c0 99 -73 177 -169 177c-95 0 -168 -77 -168 -179
c0 -99 73 -177 169 -177zM324 -54v-82h-82v82h82z" />
    <glyph glyph-name="racute" unicode="&#x155;" horiz-adv-x="330" 
d="M133 483v-61c29 43 76 64 140 64h44v-77h-45c-93 0 -138 -49 -138 -145v-264h-81v483h80zM112 572l162 103l32 -60l-170 -89z" />
    <glyph glyph-name="rcaron" unicode="&#x159;" horiz-adv-x="330" 
d="M133 483v-61c29 43 76 64 140 64h44v-77h-45c-93 0 -138 -49 -138 -145v-264h-81v483h80zM324 628l-120 -100h-36l-120 100l28 38l110 -70l110 70z" />
    <glyph glyph-name="uni1E59" unicode="&#x1e59;" horiz-adv-x="330" 
d="M133 483v-61c29 43 76 64 140 64h44v-77h-45c-93 0 -138 -49 -138 -145v-264h-81v483h80zM227 619v-82h-82v82h82z" />
    <glyph glyph-name="uni1E5D" unicode="&#x1e5d;" horiz-adv-x="330" 
d="M133 483v-61c29 43 76 64 140 64h44v-77h-45c-93 0 -138 -49 -138 -145v-264h-81v483h80zM90 543v63h192v-63h-192zM135 -54v-82h-82v82h82z" />
    <glyph glyph-name="uni0157" unicode="&#x157;" horiz-adv-x="330" 
d="M133 483v-61c29 43 76 64 140 64h44v-77h-45c-93 0 -138 -49 -138 -145v-264h-81v483h80zM54 -196l-27 31c44 13 57 26 57 43c0 11 -8 27 -68 40v2l48 39c72 -15 91 -44 91 -76c0 -28 -25 -64 -101 -79z" />
    <glyph glyph-name="uni1E5B" unicode="&#x1e5b;" horiz-adv-x="330" 
d="M133 483v-61c29 43 76 64 140 64h44v-77h-45c-93 0 -138 -49 -138 -145v-264h-81v483h80zM135 -54v-82h-82v82h82z" />
    <glyph glyph-name="uni1E5F" unicode="&#x1e5f;" horiz-adv-x="330" 
d="M133 483v-61c29 43 76 64 140 64h44v-77h-45c-93 0 -138 -49 -138 -145v-264h-81v483h80zM-2 -123v63h192v-63h-192z" />
    <glyph glyph-name="sacute" unicode="&#x15b;" horiz-adv-x="471" 
d="M233 -13c-81 0 -153 26 -211 78l42 62c64 -53 114 -72 171 -72c81 0 129 35 129 81c0 45 -28 69 -129 71c-139 5 -194 50 -194 140c0 83 76 149 191 149c76 0 143 -24 198 -71l-39 -61c-59 47 -107 63 -160 63c-70 0 -112 -36 -112 -76c0 -41 26 -66 117 -70
c148 -4 206 -47 206 -140c0 -90 -83 -154 -209 -154zM168 572l162 103l32 -60l-170 -89z" />
    <glyph glyph-name="scircumflex" unicode="&#x15d;" horiz-adv-x="471" 
d="M233 -13c-81 0 -153 26 -211 78l42 62c64 -53 114 -72 171 -72c81 0 129 35 129 81c0 45 -28 69 -129 71c-139 5 -194 50 -194 140c0 83 76 149 191 149c76 0 143 -24 198 -71l-39 -61c-59 47 -107 63 -160 63c-70 0 -112 -36 -112 -76c0 -41 26 -66 117 -70
c148 -4 206 -47 206 -140c0 -90 -83 -154 -209 -154zM104 556l120 100h36l120 -100l-28 -38l-110 71l-110 -71z" />
    <glyph glyph-name="scaron" unicode="&#x161;" horiz-adv-x="471" 
d="M233 -13c-81 0 -153 26 -211 78l42 62c64 -53 114 -72 171 -72c81 0 129 35 129 81c0 45 -28 69 -129 71c-139 5 -194 50 -194 140c0 83 76 149 191 149c76 0 143 -24 198 -71l-39 -61c-59 47 -107 63 -160 63c-70 0 -112 -36 -112 -76c0 -41 26 -66 117 -70
c148 -4 206 -47 206 -140c0 -90 -83 -154 -209 -154zM380 628l-120 -100h-36l-120 100l28 38l110 -70l110 70z" />
    <glyph glyph-name="uni0219" unicode="&#x219;" horiz-adv-x="471" 
d="M233 -13c-81 0 -153 26 -211 78l42 62c64 -53 114 -72 171 -72c81 0 129 35 129 81c0 45 -28 69 -129 71c-139 5 -194 50 -194 140c0 83 76 149 191 149c76 0 143 -24 198 -71l-39 -61c-59 47 -107 63 -160 63c-70 0 -112 -36 -112 -76c0 -41 26 -66 117 -70
c148 -4 206 -47 206 -140c0 -90 -83 -154 -209 -154zM197 -196l-27 31c44 13 57 26 57 43c0 11 -8 27 -68 40v2l48 39c72 -15 91 -44 91 -76c0 -28 -25 -64 -101 -79z" />
    <glyph glyph-name="uni1E63" unicode="&#x1e63;" horiz-adv-x="471" 
d="M233 -13c-81 0 -153 26 -211 78l42 62c64 -53 114 -72 171 -72c81 0 129 35 129 81c0 45 -28 69 -129 71c-139 5 -194 50 -194 140c0 83 76 149 191 149c76 0 143 -24 198 -71l-39 -61c-59 47 -107 63 -160 63c-70 0 -112 -36 -112 -76c0 -41 26 -66 117 -70
c148 -4 206 -47 206 -140c0 -90 -83 -154 -209 -154zM278 -54v-82h-82v82h82z" />
    <glyph glyph-name="uni015F" unicode="&#x15f;" horiz-adv-x="471" 
d="M339 -107c0 -40 -33 -73 -94 -73c-23 0 -54 6 -83 26l21 40c27 -15 44 -20 62 -20c29 0 38 14 38 25c0 12 -11 22 -32 22c-9 0 -19 -2 -34 -8l-22 7l-1 2l21 73c-74 4 -139 30 -193 78l42 62c64 -53 114 -72 171 -72c81 0 129 35 129 81c0 45 -28 69 -129 71
c-139 5 -194 50 -194 140c0 83 76 149 191 149c76 0 142 -24 198 -71l-39 -61c-59 47 -107 63 -160 63c-70 0 -112 -35 -112 -76s25 -66 117 -70c148 -4 206 -47 206 -140c0 -82 -69 -143 -177 -153l-9 -31h9c43 0 74 -26 74 -64z" />
    <glyph glyph-name="germandbls" unicode="&#xdf;" horiz-adv-x="559" 
d="M446 186c0 71 -64 126 -208 155v58c133 29 171 85 171 140c0 59 -46 104 -123 104c-84 0 -152 -55 -152 -176v-467h-81v468c0 159 101 247 234 247c126 0 205 -73 205 -172c0 -67 -36 -130 -138 -167c108 -33 175 -98 175 -192c0 -106 -78 -184 -225 -184h-66v71h63
c94 0 145 52 145 115z" />
    <glyph glyph-name="tcaron" unicode="&#x165;" horiz-adv-x="302" 
d="M80 129v282h-66v72h66v148h81v-148h112v-72h-112v-275c0 -46 22 -63 59 -63h53v-73h-65c-90 0 -128 40 -128 129zM220 541v165h81l-28 -165h-53z" />
    <glyph glyph-name="uni1E71" unicode="&#x1e71;" horiz-adv-x="302" 
d="M80 129v282h-66v72h66v148h81v-148h112v-72h-112v-275c0 -46 22 -63 59 -63h53v-73h-65c-90 0 -128 40 -128 129zM33 -144l120 100h36l120 -100l-28 -38l-110 71l-110 -71z" />
    <glyph glyph-name="uni021B" unicode="&#x21b;" horiz-adv-x="302" 
d="M80 129v282h-66v72h66v148h81v-148h112v-72h-112v-275c0 -46 22 -63 59 -63h53v-73h-65c-90 0 -128 40 -128 129zM131 -196l-27 31c44 13 57 26 57 43c0 11 -8 27 -68 40v2l48 39c72 -15 91 -44 91 -76c0 -28 -25 -64 -101 -79z" />
    <glyph glyph-name="uni1E6D" unicode="&#x1e6d;" horiz-adv-x="302" 
d="M80 129v282h-66v72h66v148h81v-148h112v-72h-112v-275c0 -46 22 -63 59 -63h53v-73h-65c-90 0 -128 40 -128 129zM212 -54v-82h-82v82h82z" />
    <glyph glyph-name="uni1E6F" unicode="&#x1e6f;" horiz-adv-x="302" 
d="M80 129v282h-66v72h66v148h81v-148h112v-72h-112v-275c0 -46 22 -63 59 -63h53v-73h-65c-90 0 -128 40 -128 129zM75 -123v63h192v-63h-192z" />
    <glyph glyph-name="uni0163" unicode="&#x163;" horiz-adv-x="302" 
d="M80 129v282h-66v72h66v148h81v-148h112v-72h-112v-275c0 -46 22 -63 59 -63h53v-73h-65c-8 0 -15 0 -22 1l-12 -44h9c43 0 74 -26 74 -64c0 -40 -33 -73 -94 -73c-24 0 -54 6 -84 26l22 40c27 -15 43 -20 61 -20c30 0 39 14 39 25c0 12 -11 22 -33 22c-8 0 -18 -2 -33 -8
l-22 7l-1 2l27 98c-41 17 -59 55 -59 117z" />
    <glyph glyph-name="tbar" unicode="&#x167;" horiz-adv-x="302" 
d="M80 129v99h-56v62h56v121h-66v72h66v148h81v-148h112v-72h-112v-121h96v-62h-96v-92c0 -46 22 -63 59 -63h53v-73h-65c-90 0 -128 40 -128 129z" />
    <glyph glyph-name="tcaron.alt" horiz-adv-x="275" 
d="M53 129v502h81v-148h112v-72h-112v-275c0 -46 23 -63 59 -63h53v-73h-65c-90 0 -128 40 -128 129zM193 541v165h81l-28 -165h-53z" />
    <glyph glyph-name="uni1E71.alt" horiz-adv-x="275" 
d="M53 129v502h81v-148h112v-72h-112v-275c0 -46 23 -63 59 -63h53v-73h-65c-90 0 -128 40 -128 129zM6 -144l120 100h36l120 -100l-28 -38l-110 71l-110 -71z" />
    <glyph glyph-name="uni021B.alt" horiz-adv-x="275" 
d="M53 129v502h81v-148h112v-72h-112v-275c0 -46 23 -63 59 -63h53v-73h-65c-90 0 -128 40 -128 129zM104 -196l-27 31c44 13 57 26 57 43c0 11 -8 27 -68 40v2l48 39c72 -15 91 -44 91 -76c0 -28 -25 -64 -101 -79z" />
    <glyph glyph-name="uni1E6D.alt" horiz-adv-x="275" 
d="M53 129v502h81v-148h112v-72h-112v-275c0 -46 23 -63 59 -63h53v-73h-65c-90 0 -128 40 -128 129zM185 -54v-82h-82v82h82z" />
    <glyph glyph-name="uni1E6F.alt" horiz-adv-x="275" 
d="M53 129v502h81v-148h112v-72h-112v-275c0 -46 23 -63 59 -63h53v-73h-65c-90 0 -128 40 -128 129zM48 -123v63h192v-63h-192z" />
    <glyph glyph-name="uni0163.alt" horiz-adv-x="275" 
d="M53 129v502h81v-148h112v-72h-112v-275c0 -46 23 -63 59 -63h53v-73h-65c-8 0 -15 0 -22 1l-12 -44h9c43 0 74 -26 74 -64c0 -40 -33 -73 -94 -73c-24 0 -54 6 -83 26l21 40c27 -15 44 -20 62 -20c29 0 38 14 38 25c0 12 -11 22 -33 22c-8 0 -18 -2 -33 -8l-22 7l-1 2
l28 97c-42 18 -60 56 -60 118z" />
    <glyph glyph-name="tbar.alt" horiz-adv-x="275" 
d="M53 129v502h81v-148h112v-72h-112v-121h96v-62h-96v-92c0 -46 23 -63 59 -63h53v-73h-65c-90 0 -128 40 -128 129z" />
    <glyph glyph-name="uacute" unicode="&#xfa;" horiz-adv-x="557" 
d="M424 0v74c-36 -52 -94 -85 -173 -85c-132 0 -204 95 -204 231v263h82v-258c0 -96 48 -164 142 -164c95 0 152 74 152 169v253h82v-483h-81zM201 562l162 103l32 -60l-170 -89z" />
    <glyph glyph-name="uhungarumlaut" unicode="&#x171;" horiz-adv-x="557" 
d="M424 0v74c-36 -52 -94 -85 -173 -85c-132 0 -204 95 -204 231v263h82v-258c0 -96 48 -164 142 -164c95 0 152 74 152 169v253h82v-483h-81zM165 565l95 102l48 -49l-107 -92zM305 565l95 102l48 -49l-107 -92z" />
    <glyph glyph-name="ugrave" unicode="&#xf9;" horiz-adv-x="557" 
d="M424 0v74c-36 -52 -94 -85 -173 -85c-132 0 -204 95 -204 231v263h82v-258c0 -96 48 -164 142 -164c95 0 152 74 152 169v253h82v-483h-81zM349 562l-24 -46l-170 89l32 60z" />
    <glyph glyph-name="ucircumflex" unicode="&#xfb;" horiz-adv-x="557" 
d="M424 0v74c-36 -52 -94 -85 -173 -85c-132 0 -204 95 -204 231v263h82v-258c0 -96 48 -164 142 -164c95 0 152 74 152 169v253h82v-483h-81zM137 566l120 100h36l120 -100l-28 -38l-110 71l-110 -71z" />
    <glyph glyph-name="uni01D4" unicode="&#x1d4;" horiz-adv-x="557" 
d="M424 0v74c-36 -52 -94 -85 -173 -85c-132 0 -204 95 -204 231v263h82v-258c0 -96 48 -164 142 -164c95 0 152 74 152 169v253h82v-483h-81zM413 618l-120 -100h-36l-120 100l28 38l110 -70l110 70z" />
    <glyph glyph-name="ubreve" unicode="&#x16d;" horiz-adv-x="557" 
d="M424 0v74c-36 -52 -94 -85 -173 -85c-132 0 -204 95 -204 231v263h82v-258c0 -96 48 -164 142 -164c95 0 152 74 152 169v253h82v-483h-81zM275 591c43 0 69 23 86 70l54 -12c-18 -84 -66 -121 -140 -121s-122 37 -140 121l54 12c18 -47 43 -70 86 -70z" />
    <glyph glyph-name="utilde" unicode="&#x169;" horiz-adv-x="557" 
d="M424 0v74c-36 -52 -94 -85 -173 -85c-132 0 -204 95 -204 231v263h82v-258c0 -96 48 -164 142 -164c95 0 152 74 152 169v253h82v-483h-81zM287 615c27 -21 36 -25 44 -25c13 0 20 9 31 59l54 -8c-14 -95 -45 -115 -80 -115c-19 0 -32 6 -73 37c-27 21 -36 25 -44 25
c-13 0 -20 -8 -31 -59l-54 9c14 94 45 114 80 114c19 0 32 -5 73 -37z" />
    <glyph glyph-name="umacron" unicode="&#x16b;" horiz-adv-x="557" 
d="M424 0v74c-36 -52 -94 -85 -173 -85c-132 0 -204 95 -204 231v263h82v-258c0 -96 48 -164 142 -164c95 0 152 74 152 169v253h82v-483h-81zM148 543v63h254v-63h-254z" />
    <glyph glyph-name="udieresis" unicode="&#xfc;" horiz-adv-x="557" 
d="M424 0v74c-36 -52 -94 -85 -173 -85c-132 0 -204 95 -204 231v263h82v-258c0 -96 48 -164 142 -164c95 0 152 74 152 169v253h82v-483h-81zM242 616v-77h-77v77h77zM385 616v-77h-77v77h77z" />
    <glyph glyph-name="uni01D8" unicode="&#x1d8;" horiz-adv-x="557" 
d="M424 0v74c-36 -52 -94 -85 -173 -85c-132 0 -204 95 -204 231v263h82v-258c0 -96 48 -164 142 -164c95 0 152 74 152 169v253h82v-483h-81zM200 675l157 79l24 -55l-164 -65zM240 609v-70h-73v70h73zM383 609v-70h-73v70h73z" />
    <glyph glyph-name="uni01DC" unicode="&#x1dc;" horiz-adv-x="557" 
d="M424 0v74c-36 -52 -94 -85 -173 -85c-132 0 -204 95 -204 231v263h82v-258c0 -96 48 -164 142 -164c95 0 152 74 152 169v253h82v-483h-81zM350 675l-17 -41l-164 65l24 55zM240 609v-70h-73v70h73zM383 609v-70h-73v70h73z" />
    <glyph glyph-name="uni01DA" unicode="&#x1da;" horiz-adv-x="557" 
d="M424 0v74c-36 -52 -94 -85 -173 -85c-132 0 -204 95 -204 231v263h82v-258c0 -96 48 -164 142 -164c95 0 152 74 152 169v253h82v-483h-81zM402 714l-109 -80h-36l-109 80l21 36l106 -57l106 57zM240 609v-70h-73v70h73zM383 609v-70h-73v70h73z" />
    <glyph glyph-name="uni01D6" unicode="&#x1d6;" horiz-adv-x="557" 
d="M424 0v74c-36 -52 -94 -85 -173 -85c-132 0 -204 95 -204 231v263h82v-258c0 -96 48 -164 142 -164c95 0 152 74 152 169v253h82v-483h-81zM176 648v56h198v-56h-198zM240 609v-70h-73v70h73zM383 609v-70h-73v70h73z" />
    <glyph glyph-name="uring" unicode="&#x16f;" horiz-adv-x="557" 
d="M424 0v74c-36 -52 -94 -85 -173 -85c-132 0 -204 95 -204 231v263h82v-258c0 -96 48 -164 142 -164c95 0 152 74 152 169v253h82v-483h-81zM274 516c-59 0 -105 42 -105 94c0 53 47 95 107 95c59 0 105 -42 105 -94c0 -53 -47 -95 -107 -95zM275 566c29 0 50 21 50 46
c0 24 -21 43 -51 43c-28 0 -49 -20 -49 -46c0 -23 22 -43 50 -43z" />
    <glyph glyph-name="uni1EE7" unicode="&#x1ee7;" horiz-adv-x="557" 
d="M424 0v74c-36 -52 -94 -85 -173 -85c-132 0 -204 95 -204 231v263h82v-258c0 -96 48 -164 142 -164c95 0 152 74 152 169v253h82v-483h-81zM235 513l-27 31c44 14 57 27 57 44c0 11 -8 27 -68 39v2l48 40c72 -16 91 -45 91 -76c0 -29 -25 -64 -101 -80z" />
    <glyph glyph-name="uni1EE5" unicode="&#x1ee5;" horiz-adv-x="557" 
d="M424 0v74c-36 -52 -94 -85 -173 -85c-132 0 -204 95 -204 231v263h82v-258c0 -96 48 -164 142 -164c95 0 152 74 152 169v253h82v-483h-81zM316 -54v-82h-82v82h82z" />
    <glyph glyph-name="uogonek" unicode="&#x173;" horiz-adv-x="557" 
d="M387 -96c0 20 7 41 54 96h-17v74c-36 -52 -94 -85 -173 -85c-132 0 -204 95 -204 231v263h82v-258c0 -97 48 -164 142 -164c95 0 152 74 152 169v253h82v-483h-14c-34 -45 -40 -61 -40 -73c0 -16 10 -25 44 -25h27v-56h-49c-62 0 -86 21 -86 58z" />
    <glyph glyph-name="uhorn" unicode="&#x1b0;" horiz-adv-x="605" 
d="M424 0v74c-36 -52 -94 -85 -173 -85c-132 0 -204 95 -204 231v263h82v-258c0 -96 48 -164 142 -164c95 0 152 74 152 169v253h48c65 0 84 23 87 85h74c-3 -99 -52 -140 -124 -140h-3v-428h-81z" />
    <glyph glyph-name="uni1EE9" unicode="&#x1ee9;" horiz-adv-x="605" 
d="M424 0v74c-36 -52 -94 -85 -173 -85c-132 0 -204 95 -204 231v263h82v-258c0 -96 48 -164 142 -164c95 0 152 74 152 169v253h48c65 0 84 23 87 85h74c-3 -99 -52 -140 -124 -140h-3v-428h-81zM201 570l162 103l32 -60l-170 -89z" />
    <glyph glyph-name="uni1EEB" unicode="&#x1eeb;" horiz-adv-x="605" 
d="M424 0v74c-36 -52 -94 -85 -173 -85c-132 0 -204 95 -204 231v263h82v-258c0 -96 48 -164 142 -164c95 0 152 74 152 169v253h48c65 0 84 23 87 85h74c-3 -99 -52 -140 -124 -140h-3v-428h-81zM349 570l-24 -46l-170 89l32 60z" />
    <glyph glyph-name="uni1EEF" unicode="&#x1eef;" horiz-adv-x="605" 
d="M424 0v74c-36 -52 -94 -85 -173 -85c-132 0 -204 95 -204 231v263h82v-258c0 -96 48 -164 142 -164c95 0 152 74 152 169v253h48c65 0 84 23 87 85h74c-3 -99 -52 -140 -124 -140h-3v-428h-81zM287 615c27 -21 36 -25 44 -25c13 0 20 9 31 59l54 -8
c-14 -95 -45 -115 -80 -115c-19 0 -32 6 -73 37c-27 21 -36 25 -44 25c-13 0 -20 -8 -31 -59l-54 9c14 94 45 114 80 114c19 0 32 -5 73 -37z" />
    <glyph glyph-name="uni1EED" unicode="&#x1eed;" horiz-adv-x="605" 
d="M424 0v74c-36 -52 -94 -85 -173 -85c-132 0 -204 95 -204 231v263h82v-258c0 -96 48 -164 142 -164c95 0 152 74 152 169v253h48c65 0 84 23 87 85h74c-3 -99 -52 -140 -124 -140h-3v-428h-81zM235 521l-27 31c44 14 57 27 57 44c0 11 -8 27 -68 39v2l48 40
c72 -16 91 -45 91 -76c0 -29 -25 -64 -101 -80z" />
    <glyph glyph-name="uni1EF1" unicode="&#x1ef1;" horiz-adv-x="605" 
d="M424 0v74c-36 -52 -94 -85 -173 -85c-132 0 -204 95 -204 231v263h82v-258c0 -96 48 -164 142 -164c95 0 152 74 152 169v253h48c65 0 84 23 87 85h74c-3 -99 -52 -140 -124 -140h-3v-428h-81zM316 -54v-82h-82v82h82z" />
    <glyph glyph-name="uni1E7F" unicode="&#x1e7f;" horiz-adv-x="512" 
d="M13 483h89l157 -386l156 386h84l-205 -483h-74zM297 -54v-82h-82v82h82z" />
    <glyph glyph-name="wacute" unicode="&#x1e83;" horiz-adv-x="726" 
d="M576 0h-79l-135 371l-134 -371h-78l-122 483h82l86 -369l131 369h72l130 -369l87 369h82zM288 572l162 103l32 -60l-170 -89z" />
    <glyph glyph-name="wgrave" unicode="&#x1e81;" horiz-adv-x="726" 
d="M576 0h-79l-135 371l-134 -371h-78l-122 483h82l86 -369l131 369h72l130 -369l87 369h82zM436 572l-24 -46l-170 89l32 60z" />
    <glyph glyph-name="wcircumflex" unicode="&#x175;" horiz-adv-x="726" 
d="M576 0h-79l-135 371l-134 -371h-78l-122 483h82l86 -369l131 369h72l130 -369l87 369h82zM224 566l120 100h36l120 -100l-28 -38l-110 71l-110 -71z" />
    <glyph glyph-name="wdieresis" unicode="&#x1e85;" horiz-adv-x="726" 
d="M576 0h-79l-135 371l-134 -371h-78l-122 483h82l86 -369l131 369h72l130 -369l87 369h82zM329 616v-77h-77v77h77zM472 616v-77h-77v77h77z" />
    <glyph glyph-name="uni1E8D" unicode="&#x1e8d;" horiz-adv-x="489" 
d="M9 0l188 249l-175 234h96l127 -177l129 177h90l-175 -233l191 -250h-95l-142 195l-143 -195h-91zM212 616v-77h-77v77h77zM355 616v-77h-77v77h77z" />
    <glyph glyph-name="yacute" unicode="&#xfd;" horiz-adv-x="512" 
d="M13 483h89l156 -384l156 384h85l-281 -663h-84l83 184zM182 572l162 103l32 -60l-170 -89z" />
    <glyph glyph-name="ygrave" unicode="&#x1ef3;" horiz-adv-x="512" 
d="M13 483h89l156 -384l156 384h85l-281 -663h-84l83 184zM330 572l-24 -46l-170 89l32 60z" />
    <glyph glyph-name="ycircumflex" unicode="&#x177;" horiz-adv-x="512" 
d="M13 483h89l156 -384l156 384h85l-281 -663h-84l83 184zM118 566l120 100h36l120 -100l-28 -38l-110 71l-110 -71z" />
    <glyph glyph-name="uni1EF9" unicode="&#x1ef9;" horiz-adv-x="512" 
d="M13 483h89l156 -384l156 384h85l-281 -663h-84l83 184zM268 615c27 -21 36 -25 44 -25c13 0 20 9 31 59l54 -8c-14 -95 -45 -115 -80 -115c-19 0 -32 6 -73 37c-27 21 -36 25 -44 25c-13 0 -20 -8 -31 -59l-54 9c14 94 45 114 80 114c19 0 32 -5 73 -37z" />
    <glyph glyph-name="uni0233" unicode="&#x233;" horiz-adv-x="512" 
d="M13 483h89l156 -384l156 384h85l-281 -663h-84l83 184zM129 543v63h254v-63h-254z" />
    <glyph glyph-name="ydieresis" unicode="&#xff;" horiz-adv-x="512" 
d="M13 483h89l156 -384l156 384h85l-281 -663h-84l83 184zM223 616v-77h-77v77h77zM366 616v-77h-77v77h77z" />
    <glyph glyph-name="uni1E8F" unicode="&#x1e8f;" horiz-adv-x="512" 
d="M13 483h89l156 -384l156 384h85l-281 -663h-84l83 184zM297 619v-82h-82v82h82z" />
    <glyph glyph-name="uni1EF7" unicode="&#x1ef7;" horiz-adv-x="512" 
d="M13 483h89l156 -384l156 384h85l-281 -663h-84l83 184zM216 523l-27 31c44 14 57 27 57 44c0 11 -8 27 -68 39v2l48 40c72 -16 91 -45 91 -76c0 -29 -25 -64 -101 -80z" />
    <glyph glyph-name="uni1EF5" unicode="&#x1ef5;" horiz-adv-x="512" 
d="M13 483h89l156 -384l156 384h85l-281 -663h-84l83 184zM432 -54v-82h-82v82h82z" />
    <glyph glyph-name="zacute" unicode="&#x17a;" horiz-adv-x="467" 
d="M22 0v64l308 351h-296v68h398v-64l-305 -351h318v-68h-423zM162 572l162 103l32 -60l-170 -89z" />
    <glyph glyph-name="uni1E91" unicode="&#x1e91;" horiz-adv-x="467" 
d="M22 0v64l308 351h-296v68h398v-64l-305 -351h318v-68h-423zM98 566l120 100h36l120 -100l-28 -38l-110 71l-110 -71z" />
    <glyph glyph-name="zcaron" unicode="&#x17e;" horiz-adv-x="467" 
d="M22 0v64l308 351h-296v68h398v-64l-305 -351h318v-68h-423zM374 628l-120 -100h-36l-120 100l28 38l110 -70l110 70z" />
    <glyph glyph-name="zdotaccent" unicode="&#x17c;" horiz-adv-x="467" 
d="M22 0v64l308 351h-296v68h398v-64l-305 -351h318v-68h-423zM277 619v-82h-82v82h82z" />
    <glyph glyph-name="uni1E93" unicode="&#x1e93;" horiz-adv-x="467" 
d="M22 0v64l308 351h-296v68h398v-64l-305 -351h318v-68h-423zM276 -54v-82h-82v82h82z" />
    <glyph glyph-name="uni1E95" unicode="&#x1e95;" horiz-adv-x="467" 
d="M22 0v64l308 351h-296v68h398v-64l-305 -351h318v-68h-423zM108 -123v63h254v-63h-254z" />
    <glyph glyph-name="eth" unicode="&#xf0;" horiz-adv-x="564" 
d="M469 700v-3l-103 -79c107 -79 167 -194 167 -338c0 -100 -29 -175 -79 -225c-39 -39 -100 -70 -173 -70c-140 0 -248 107 -248 246c0 142 105 246 232 246c83 0 145 -34 183 -87c-26 79 -73 138 -140 184l-55 -43h-83v3l89 69c-34 17 -71 32 -111 44l24 62
c54 -15 103 -35 146 -60l65 51h86zM115 231c0 -97 73 -175 168 -175c48 0 82 19 113 49c34 35 53 84 53 133c0 94 -73 169 -167 169s-167 -77 -167 -176z" />
    <glyph glyph-name="thorn" unicode="&#xfe;" horiz-adv-x="581" 
d="M53 -180v880h81v-292c42 53 106 86 177 86c129 0 239 -97 239 -251c0 -157 -116 -254 -244 -254c-66 0 -129 29 -172 79v-248h-81zM131 239c0 -104 76 -179 169 -179c95 0 167 68 167 181s-71 181 -164 181c-94 0 -172 -77 -172 -183z" />
    <glyph glyph-name="uni0259" unicode="&#x259;" horiz-adv-x="544" 
d="M258 426c-61 0 -117 -25 -164 -83l-48 46c53 69 126 106 218 106c144 0 248 -104 248 -255c0 -146 -107 -255 -245 -255c-139 0 -238 98 -238 250c0 15 1 23 3 33h397c-11 98 -85 158 -171 158zM266 54c79 0 149 55 162 151h-317c12 -94 73 -151 155 -151z" />
    <glyph glyph-name="uniFB00.falt" horiz-adv-x="517" 
d="M56 574c0 82 44 126 125 126h66v-68h-54c-35 0 -56 -18 -56 -60v-89h110v-72h-110v-411h-81v574zM315 574c0 82 44 126 125 126h66v-68h-54c-35 0 -56 -18 -56 -60v-89h110v-72h-110v-411h-81v574z" />
    <glyph glyph-name="uniFB01.falt" horiz-adv-x="465" 
d="M56 574c0 82 44 126 125 126h66v-68h-54c-35 0 -56 -18 -56 -60v-89h110v-72h-110v-411h-81v574zM407 645v-89h-90v89h90zM321 483h82v-483h-82v483z" />
    <glyph glyph-name="uniFB02.falt" horiz-adv-x="465" 
d="M56 574c0 82 44 126 125 126h66v-68h-54c-35 0 -56 -18 -56 -60v-89h110v-72h-110v-411h-81v574zM403 700v-700h-82v700h82z" />
    <glyph glyph-name="uniFB03.falt" horiz-adv-x="723" 
d="M56 574c0 82 44 126 125 126h66v-68h-54c-35 0 -56 -18 -56 -60v-89h110v-72h-110v-411h-81v574zM315 574c0 82 44 126 125 126h66v-68h-54c-35 0 -56 -18 -56 -60v-89h110v-72h-110v-411h-81v574zM665 645v-89h-90v89h90zM579 483h82v-483h-82v483z" />
    <glyph glyph-name="uniFB04.falt" horiz-adv-x="723" 
d="M56 574c0 82 44 126 125 126h66v-68h-54c-35 0 -56 -18 -56 -60v-89h110v-72h-110v-411h-81v574zM315 574c0 82 44 126 125 126h66v-68h-54c-35 0 -56 -18 -56 -60v-89h110v-72h-110v-411h-81v574zM661 700v-700h-82v700h82z" />
    <glyph glyph-name="space" unicode=" " horiz-adv-x="185" 
 />
    <glyph glyph-name="uni00A0" unicode="&#xa0;" horiz-adv-x="185" 
 />
    <glyph glyph-name="uni2003" unicode="&#x2003;" horiz-adv-x="1000" 
 />
    <glyph glyph-name="uni2002" unicode="&#x2002;" horiz-adv-x="500" 
 />
    <glyph glyph-name="uni2004" unicode="&#x2004;" horiz-adv-x="333" 
 />
    <glyph glyph-name="uni2005" unicode="&#x2005;" horiz-adv-x="250" 
 />
    <glyph glyph-name="uni2009" unicode="&#x2009;" horiz-adv-x="125" 
 />
    <glyph glyph-name="uni202F" unicode="&#x202f;" horiz-adv-x="42" 
 />
    <glyph glyph-name="uni200A" unicode="&#x200a;" horiz-adv-x="42" 
 />
    <glyph glyph-name="space.frac" horiz-adv-x="42" 
 />
    <glyph glyph-name="uni0000" 
 />
    <glyph glyph-name="uni0000" 
 />
    <glyph glyph-name="zero.num" horiz-adv-x="352" 
d="M21 522c0 118 63 188 156 188c92 0 155 -68 155 -186c0 -119 -64 -188 -156 -188c-93 0 -155 68 -155 186zM176 652c-55 0 -91 -44 -91 -129s37 -129 92 -129s91 44 91 128c0 86 -37 130 -92 130z" />
    <glyph glyph-name="one.num" horiz-adv-x="183" 
d="M6 640v60h135v-354h-63v294h-72z" />
    <glyph glyph-name="two.num" horiz-adv-x="309" 
d="M24 346v56l111 91c67 55 84 74 84 104c0 33 -28 55 -62 55c-44 0 -73 -29 -75 -83h-63c2 84 56 141 140 141c74 0 124 -48 124 -111c0 -45 -25 -78 -96 -135l-78 -63l180 1v-56h-265z" />
    <glyph glyph-name="three.num" horiz-adv-x="322" 
d="M240 449c0 33 -26 52 -83 52h-22v52h20c57 0 77 23 77 51s-26 49 -65 49c-51 0 -76 -28 -78 -64h-61c1 61 51 121 141 121c82 0 127 -48 127 -100c0 -36 -21 -68 -68 -84c55 -13 76 -43 76 -80c0 -61 -55 -110 -141 -110c-84 0 -140 49 -141 133h61c2 -50 33 -76 81 -76
c44 0 76 25 76 56z" />
    <glyph glyph-name="four.num" horiz-adv-x="346" 
d="M18 420v50l164 230h93v-227h55v-53h-55v-74h-63v74h-194zM88 473h126v178z" />
    <glyph glyph-name="five.num" horiz-adv-x="322" 
d="M156 336c-65 0 -115 35 -136 84l47 30c18 -37 50 -57 89 -57c50 0 83 31 83 70c0 42 -35 66 -75 66c-30 0 -58 -14 -80 -36l-51 5l-2 3l15 199h232v-56h-179l-8 -88c23 16 52 25 86 25c69 0 126 -41 126 -118c0 -70 -54 -127 -147 -127z" />
    <glyph glyph-name="six.num" horiz-adv-x="325" 
d="M309 469c0 -77 -65 -133 -150 -133c-76 0 -141 51 -141 127c0 54 22 95 74 158l65 79h83v-2l-85 -93c-10 -10 -18 -19 -25 -28c16 6 34 9 53 9c69 0 126 -47 126 -117zM166 535c-46 0 -83 -28 -83 -69c0 -45 37 -72 78 -72c49 0 84 33 84 74c0 39 -31 67 -79 67z" />
    <glyph glyph-name="seven.num" horiz-adv-x="289" 
d="M118 346h-69l162 298h-199v56h266v-49z" />
    <glyph glyph-name="eight.num" horiz-adv-x="338" 
d="M169 336c-83 0 -146 42 -146 108c0 40 28 70 70 86c-36 15 -60 42 -60 78c0 62 58 102 137 102s136 -40 136 -101c0 -36 -24 -63 -60 -79c42 -16 69 -46 69 -85c0 -67 -62 -109 -146 -109zM170 556c42 0 74 18 74 50c0 29 -32 49 -75 49c-42 0 -74 -19 -74 -50
c0 -32 33 -49 75 -49zM170 391c48 0 83 22 83 56s-35 54 -84 54c-47 0 -83 -20 -83 -55c0 -33 36 -55 84 -55z" />
    <glyph glyph-name="nine.num" horiz-adv-x="325" 
d="M233 425l-65 -79h-83v2l86 93c8 8 18 19 25 28c-16 -6 -34 -9 -54 -9c-69 0 -126 47 -126 117c0 77 66 133 150 133c77 0 141 -51 141 -127c0 -54 -21 -95 -74 -158zM159 511c47 0 84 28 84 69c0 45 -38 72 -79 72c-49 0 -83 -33 -83 -74c0 -39 30 -67 78 -67z" />
    <glyph glyph-name="fraction" unicode="&#x2044;" horiz-adv-x="60" 
d="M209 702h69l-228 -370l-199 -334h-69l227 368z" />
    <glyph glyph-name="zero.den" horiz-adv-x="352" 
d="M21 176c0 118 63 188 156 188c92 0 155 -68 155 -186c0 -119 -64 -188 -156 -188c-93 0 -155 68 -155 186zM176 306c-55 0 -91 -44 -91 -129s37 -129 92 -129s91 44 91 128c0 86 -37 130 -92 130z" />
    <glyph glyph-name="one.den" horiz-adv-x="183" 
d="M6 294v60h135v-354h-63v294h-72z" />
    <glyph glyph-name="two.den" horiz-adv-x="309" 
d="M24 0v56l111 91c67 55 84 74 84 104c0 33 -28 55 -62 55c-44 0 -73 -29 -75 -83h-63c2 84 56 141 140 141c74 0 124 -48 124 -111c0 -45 -25 -78 -96 -135l-78 -63l180 1v-56h-265z" />
    <glyph glyph-name="three.den" horiz-adv-x="322" 
d="M240 103c0 33 -26 52 -83 52h-22v52h20c57 0 77 23 77 51s-26 49 -65 49c-51 0 -76 -28 -78 -64h-61c1 61 51 121 141 121c82 0 127 -48 127 -100c0 -36 -21 -68 -68 -84c55 -13 76 -43 76 -80c0 -61 -55 -110 -141 -110c-84 0 -140 49 -141 133h61c2 -50 33 -76 81 -76
c44 0 76 25 76 56z" />
    <glyph glyph-name="four.den" horiz-adv-x="346" 
d="M16 74v50l164 230h93v-227h55v-53h-55v-74h-63v74h-194zM86 127h126v178z" />
    <glyph glyph-name="five.den" horiz-adv-x="322" 
d="M156 -10c-65 0 -115 35 -136 84l47 30c18 -37 50 -57 89 -57c50 0 83 31 83 70c0 42 -35 66 -75 66c-30 0 -58 -14 -80 -36l-51 5l-2 3l15 199h232v-56h-179l-8 -88c23 16 52 25 86 25c69 0 126 -41 126 -118c0 -70 -54 -127 -147 -127z" />
    <glyph glyph-name="six.den" horiz-adv-x="325" 
d="M309 123c0 -77 -65 -133 -150 -133c-76 0 -141 51 -141 127c0 54 22 95 74 158l65 79h83v-2l-85 -93c-10 -10 -18 -19 -25 -28c16 6 34 9 53 9c69 0 126 -47 126 -117zM166 189c-46 0 -83 -28 -83 -69c0 -45 37 -72 78 -72c49 0 84 33 84 74c0 39 -31 67 -79 67z" />
    <glyph glyph-name="seven.den" horiz-adv-x="289" 
d="M118 0h-69l162 298h-199v56h266v-49z" />
    <glyph glyph-name="eight.den" horiz-adv-x="338" 
d="M169 -10c-83 0 -146 42 -146 108c0 40 28 70 70 86c-36 15 -60 42 -60 78c0 62 58 102 137 102s136 -40 136 -101c0 -36 -24 -63 -60 -79c42 -16 69 -46 69 -85c0 -67 -62 -109 -146 -109zM170 210c42 0 74 18 74 50c0 29 -32 49 -75 49c-42 0 -74 -19 -74 -50
c0 -32 33 -49 75 -49zM170 45c48 0 83 22 83 56s-35 54 -84 54c-47 0 -83 -20 -83 -55c0 -33 36 -55 84 -55z" />
    <glyph glyph-name="nine.den" horiz-adv-x="325" 
d="M233 79l-65 -79h-83v2l86 93c8 8 18 19 25 28c-16 -6 -34 -9 -54 -9c-69 0 -126 47 -126 117c0 77 66 133 150 133c77 0 141 -51 141 -127c0 -54 -21 -95 -74 -158zM159 165c47 0 84 28 84 69c0 45 -38 72 -79 72c-49 0 -83 -33 -83 -74c0 -39 30 -67 78 -67z" />
    <glyph glyph-name="uni2011" unicode="&#x2011;" horiz-adv-x="316" 
d="M28 327h261v-78h-261v78z" />
    <glyph glyph-name="uni2015" unicode="&#x2015;" horiz-adv-x="850" 
d="M28 324h794v-73h-794v73z" />
    <glyph glyph-name="middotcat" horiz-adv-x="153" 
d="M126 402v-97h-98v97h98z" />
    <glyph glyph-name="middotcat.cap" horiz-adv-x="218" 
d="M100 419v-101h-101v101h101z" />
    <glyph glyph-name="uni0301" unicode="&#x301;" 
d="M-74 572l162 103l32 -60l-170 -89z" />
    <glyph glyph-name="uni030B" unicode="&#x30b;" 
d="M-110 565l95 102l48 -49l-107 -92zM30 565l95 102l48 -49l-107 -92z" />
    <glyph glyph-name="uni0300" unicode="&#x300;" 
d="M74 572l-24 -46l-170 89l32 60z" />
    <glyph glyph-name="uni0315" unicode="&#x315;" 
d="M0 535v165h81l-28 -165h-53z" />
    <glyph glyph-name="uni0302" unicode="&#x302;" 
d="M-138 566l120 100h36l120 -100l-28 -38l-110 71l-110 -71z" />
    <glyph glyph-name="uni030C" unicode="&#x30c;" 
d="M138 628l-120 -100h-36l-120 100l28 38l110 -70l110 70z" />
    <glyph glyph-name="uni0306" unicode="&#x306;" 
d="M0 591c43 0 69 23 86 70l54 -12c-18 -84 -66 -121 -140 -121s-122 37 -140 121l54 12c18 -47 43 -70 86 -70z" />
    <glyph glyph-name="uni0303" unicode="&#x303;" 
d="M12 615c27 -21 36 -25 44 -25c13 0 20 9 31 59l54 -8c-14 -95 -45 -115 -80 -115c-19 0 -32 6 -73 37c-27 21 -36 25 -44 25c-13 0 -20 -8 -31 -59l-54 9c14 94 45 114 80 114c19 0 32 -5 73 -37z" />
    <glyph glyph-name="uni0304" unicode="&#x304;" 
d="M-127 543v63h254v-63h-254z" />
    <glyph glyph-name="uni0304.nrw" 
d="M-96 543v63h192v-63h-192z" />
    <glyph glyph-name="uni0308" unicode="&#x308;" 
d="M-33 616v-77h-77v77h77zM110 616v-77h-77v77h77z" />
    <glyph glyph-name="uni0307" unicode="&#x307;" 
d="M41 619v-82h-82v82h82z" />
    <glyph glyph-name="uni030A" unicode="&#x30a;" 
d="M-1 526c-59 0 -105 42 -105 94c0 53 47 95 107 95c59 0 105 -42 105 -94c0 -53 -47 -95 -107 -95zM0 576c29 0 50 21 50 46c0 24 -21 43 -51 43c-28 0 -49 -20 -49 -46c0 -23 22 -43 50 -43z" />
    <glyph glyph-name="uni0312" unicode="&#x312;" 
d="M24 679l27 -31c-44 -14 -58 -27 -58 -44c0 -11 8 -27 68 -39v-2l-47 -40c-72 16 -92 45 -92 76c0 29 26 64 102 80z" />
    <glyph glyph-name="uni0309" unicode="&#x309;" 
d="M-40 523l-27 31c44 14 57 27 57 44c0 11 -8 27 -68 39v2l48 40c72 -16 91 -45 91 -76c0 -29 -25 -64 -101 -80z" />
    <glyph glyph-name="uni032D" unicode="&#x32d;" 
d="M-138 -144l120 100h36l120 -100l-28 -38l-110 71l-110 -71z" />
    <glyph glyph-name="uni032E" unicode="&#x32e;" 
d="M0 -115c43 0 69 22 86 70l54 -12c-18 -85 -66 -121 -140 -121s-122 36 -140 121l54 12c18 -47 43 -70 86 -70z" />
    <glyph glyph-name="uni0331" unicode="&#x331;" 
d="M-127 -123v63h254v-63h-254z" />
    <glyph glyph-name="uni0331.nrw" 
d="M-96 -123v63h192v-63h-192z" />
    <glyph glyph-name="uni0324" unicode="&#x324;" 
d="M-33 -56v-77h-77v77h77zM110 -56v-77h-77v77h77z" />
    <glyph glyph-name="uni0323" unicode="&#x323;" 
d="M41 -54v-82h-82v82h82z" />
    <glyph glyph-name="uni0326" unicode="&#x326;" 
d="M-40 -196l-27 31c44 13 57 26 57 43c0 11 -8 27 -68 40v2l48 39c72 -15 91 -44 91 -76c0 -28 -25 -64 -101 -79z" />
    <glyph glyph-name="uni0327" unicode="&#x327;" 
d="M-18 15h50l-16 -58h8c44 0 74 -26 74 -64c0 -40 -33 -73 -93 -73c-24 0 -55 6 -84 26l22 40c27 -15 43 -20 61 -20c30 0 39 14 39 25c0 12 -11 22 -33 22c-9 0 -19 -2 -34 -8l-22 7l-1 2z" />
    <glyph glyph-name="uni0328" unicode="&#x328;" 
d="M-78 -96c0 21 8 44 63 106h48c-40 -53 -47 -70 -47 -83c0 -16 10 -25 44 -25h27v-56h-49c-62 0 -86 21 -86 58z" />
    <glyph glyph-name="uni00A80301" 
d="M-75 675l157 79l24 -55l-164 -65zM-35 609v-70h-73v70h73zM108 609v-70h-73v70h73z" />
    <glyph glyph-name="uni00A80300" 
d="M75 675l-17 -41l-164 65l24 55zM-35 609v-70h-73v70h73zM108 609v-70h-73v70h73z" />
    <glyph glyph-name="uni00A8030C" 
d="M127 714l-109 -80h-36l-109 80l21 36l106 -57l106 57zM-35 609v-70h-73v70h73zM108 609v-70h-73v70h73z" />
    <glyph glyph-name="uni00A80304" 
d="M-99 648v56h198v-56h-198zM-35 609v-70h-73v70h73zM108 609v-70h-73v70h73z" />
    <glyph glyph-name="uni02D80301" 
d="M-69 675l158 79l24 -55l-164 -65zM0 583c44 0 74 19 89 60l48 -12c-16 -73 -65 -103 -137 -103s-121 30 -137 103l48 12c16 -40 45 -60 89 -60z" />
    <glyph glyph-name="uni02D80300" 
d="M72 675l-17 -41l-164 65l24 55zM0 583c44 0 74 19 89 60l48 -12c-16 -73 -65 -103 -137 -103s-121 30 -137 103l48 12c16 -40 45 -60 89 -60z" />
    <glyph glyph-name="uni02D80309" 
d="M-27 626l-22 31c44 14 58 20 58 32c0 9 -8 17 -69 30v2l41 33c71 -16 92 -35 92 -60c0 -24 -25 -53 -100 -68zM0 583c44 0 74 19 89 60l48 -12c-16 -73 -65 -103 -137 -103s-121 30 -137 103l48 12c16 -40 45 -60 89 -60z" />
    <glyph glyph-name="uni02D80303" 
d="M13 726c23 -16 31 -18 38 -18c11 0 19 5 28 43l43 -7c-10 -77 -36 -91 -65 -91c-16 0 -28 3 -63 28c-23 15 -30 17 -37 17c-11 0 -19 -5 -28 -43l-44 7c10 77 37 92 66 92c16 0 28 -4 62 -28zM0 583c44 0 74 19 89 60l48 -12c-16 -73 -65 -103 -137 -103
s-121 30 -137 103l48 12c16 -40 45 -60 89 -60z" />
    <glyph glyph-name="uni02C60301" 
d="M47 672l112 73l28 -52l-122 -57zM-132 566l114 77h36l114 -77l-21 -38l-111 56l-111 -56z" />
    <glyph glyph-name="uni02C60300" 
d="M146 671l-16 -37l-135 48l24 55zM-132 566l114 77h36l114 -77l-21 -38l-111 56l-111 -56z" />
    <glyph glyph-name="uni02C60309" 
d="M82 629l-22 31c44 14 58 20 58 32c0 9 -9 17 -69 30v2l41 33c71 -16 91 -35 91 -60c0 -24 -25 -53 -99 -68zM-132 566l114 77h36l114 -77l-21 -38l-111 56l-111 -56z" />
    <glyph glyph-name="uni02C60303" 
d="M17 726c23 -16 30 -18 38 -18c11 0 19 5 27 43l44 -7c-10 -77 -37 -91 -65 -91c-16 0 -28 3 -63 28c-23 15 -30 17 -37 17c-12 0 -19 -5 -28 -43l-44 7c10 77 37 92 66 92c16 0 27 -4 62 -28zM-132 566l114 77h36l114 -77l-21 -38l-111 56l-111 -56z" />
    <glyph glyph-name="uni0301.cap" 
d="M-77 794l197 82l25 -66l-204 -67z" />
    <glyph glyph-name="uni030B.cap" 
d="M-129 790l130 97l41 -60l-140 -84zM34 790l130 97l41 -60l-139 -84z" />
    <glyph glyph-name="uni0300.cap" 
d="M77 794l-18 -51l-203 67l25 66z" />
    <glyph glyph-name="uni0302.cap" 
d="M-150 782l132 87h36l132 -87l-21 -39l-129 57l-129 -57z" />
    <glyph glyph-name="uni030C.cap" 
d="M150 830l-132 -87h-35l-133 87l21 39l129 -57l129 57z" />
    <glyph glyph-name="uni0306.cap" 
d="M0 809c42 0 75 12 99 57l52 -16c-26 -81 -79 -107 -151 -107s-125 26 -151 107l52 16c25 -45 57 -57 99 -57z" />
    <glyph glyph-name="uni0303.cap" 
d="M153 847c-12 -89 -49 -107 -85 -107c-20 0 -35 6 -75 28c-33 19 -45 23 -55 23c-15 0 -26 -6 -36 -48l-55 9c12 88 49 106 85 106c20 0 35 -6 75 -28c33 -18 45 -23 55 -23c15 0 26 5 36 48z" />
    <glyph glyph-name="uni0304.cap" 
d="M-137 758v66h274v-66h-274z" />
    <glyph glyph-name="uni0304.capnrw" 
d="M-104 758v66h208v-66h-208z" />
    <glyph glyph-name="uni0308.cap" 
d="M-43 834v-80h-80v80h80zM123 834v-80h-80v80h80z" />
    <glyph glyph-name="uni0307.cap" 
d="M43 838v-86h-86v86h86z" />
    <glyph glyph-name="uni030A.cap" 
d="M-1 741c-73 0 -118 42 -118 98c0 57 46 100 120 100c73 0 118 -43 118 -99c0 -57 -46 -99 -120 -99zM0 791c41 0 60 21 60 50c0 28 -20 47 -61 47c-40 0 -59 -20 -59 -50c0 -27 21 -47 60 -47z" />
    <glyph glyph-name="uni0309.cap" 
d="M-53 738l-26 33c62 8 77 25 77 38c0 12 -9 26 -88 33v2l48 42c89 -11 113 -39 113 -72c0 -25 -27 -68 -124 -76z" />
    <glyph glyph-name="uni00A80301.cap" 
d="M-75 893l182 62l17 -61l-188 -46zM121 826v-72h-76v72h76zM-45 826v-72h-76v72h76z" />
    <glyph glyph-name="uni00A80300.cap" 
d="M80 893l-12 -45l-188 46l17 61zM121 826v-72h-76v72h76zM-45 826v-72h-76v72h76z" />
    <glyph glyph-name="uni00A8030C.cap" 
d="M-137 919l19 36l119 -49l118 49l19 -36l-120 -72h-35zM121 826v-72h-76v72h76zM-45 826v-72h-76v72h76z" />
    <glyph glyph-name="uni00A80304.cap" 
d="M-111 864v57h222v-57h-222zM121 826v-72h-76v72h76zM-45 826v-72h-76v72h76z" />
    </font>
</defs>
</svg>
